<svg width="784" height="83" viewBox="0 0 784 83" fill="none" xmlns="http://www.w3.org/2000/svg">
<g opacity="0.5">
<path d="M127.089 77.9097C146.988 77.9097 163.12 61.7061 163.12 41.718C163.12 21.7299 146.988 5.52637 127.089 5.52637C107.19 5.52637 91.058 21.7299 91.058 41.718C91.058 61.7061 107.19 77.9097 127.089 77.9097Z" stroke="#FCE6CE" stroke-width="2" stroke-miterlimit="10"/>
<path d="M97.8685 45.7398C98.2903 49.1757 101.882 51.2535 105.209 52.1507C111.917 53.9575 119.292 53.1382 125.449 49.9016C131.602 46.6649 136.948 40.0484 139.296 33.4817" stroke="#FCE6CE" stroke-width="2" stroke-miterlimit="10"/>
<path d="M134.38 30.4382C138.443 32.46 142.062 35.3726 144.912 38.9145" stroke="#FCE6CE" stroke-width="2" stroke-miterlimit="10"/>
<path d="M98.9818 42.936C97.4157 44.8332 97.3009 48.9887 97.4436 51.4497" stroke="#FCE6CE" stroke-width="2" stroke-miterlimit="10"/>
<path d="M97.2203 30.2046C97.7041 32.5409 99.8627 34.2262 102.151 34.8679C104.418 35.5034 106.909 35.2947 109.039 34.2854" stroke="#FCE6CE" stroke-width="2" stroke-miterlimit="10"/>
<path d="M119.804 29.6781C120.583 30.3915 121.718 30.5441 122.769 30.5036C125.179 30.4102 127.548 29.4445 129.341 27.8215C131.133 26.1985 132.34 23.9338 132.684 21.5352" stroke="#FCE6CE" stroke-width="2" stroke-miterlimit="10"/>
<path d="M438.914 77.9097C458.813 77.9097 474.945 61.7061 474.945 41.718C474.945 21.7299 458.813 5.52637 438.914 5.52637C419.014 5.52637 402.883 21.7299 402.883 41.718C402.883 61.7061 419.014 77.9097 438.914 77.9097Z" stroke="#FCE6CE" stroke-width="2" stroke-miterlimit="10"/>
<path d="M410.131 62.5614C408.555 63.066 406.88 63.3402 405.137 63.3402C396.094 63.3402 388.762 55.976 388.762 46.8923C388.762 37.8085 396.094 30.4443 405.137 30.4443" stroke="#FCE6CE" stroke-width="2" stroke-miterlimit="10"/>
<path d="M469.514 23.3762C470.795 23.0522 472.138 22.8809 473.518 22.8809C482.562 22.8809 489.893 30.245 489.893 39.3288C489.893 48.4125 482.562 55.7767 473.518 55.7767C473.056 55.7767 472.6 55.758 472.151 55.7206" stroke="#FCE6CE" stroke-width="2" stroke-miterlimit="10"/>
<path d="M421.515 30.083C421.515 30.083 423.81 35.2042 429.833 34.3569C435.499 33.5594 435.974 27.5535 435.974 27.5535" stroke="#FCE6CE" stroke-width="2" stroke-miterlimit="10"/>
<path d="M441.755 27.6159C441.755 27.6159 444.05 32.7372 450.072 31.8899C455.738 31.0924 456.213 25.0864 456.213 25.0864" stroke="#FCE6CE" stroke-width="2" stroke-miterlimit="10"/>
<path d="M419.295 43.1043C419.295 43.1043 425.696 53.9793 442.235 51.6523C455.09 49.8424 458.852 39.5063 458.852 39.5063" stroke="#FCE6CE" stroke-width="2" stroke-miterlimit="10"/>
<path d="M420.966 40.1294C420.055 42.4844 418.6 44.6276 416.752 46.3441" stroke="#FCE6CE" stroke-width="2" stroke-miterlimit="10"/>
<path d="M456.991 36.4006C457.819 39.0703 459.95 41.2976 462.574 42.2353" stroke="#FCE6CE" stroke-width="2" stroke-miterlimit="10"/>
<path d="M406.911 25.0864C406.911 25.0864 421.264 21.694 434.637 5.77881C434.637 5.77881 441.581 15.6133 465.663 17.744" stroke="#FCE6CE" stroke-width="2" stroke-miterlimit="10"/>
<path d="M746.88 77.9097C766.78 77.9097 782.911 61.7061 782.911 41.718C782.911 21.7299 766.78 5.52637 746.88 5.52637C726.981 5.52637 710.849 21.7299 710.849 41.718C710.849 61.7061 726.981 77.9097 746.88 77.9097Z" stroke="#FCE6CE" stroke-width="2" stroke-miterlimit="10"/>
<path d="M741.593 35.0579C740.098 39.9237 740.209 45.2755 741.903 50.0759C743.599 54.8764 746.868 59.1005 751.083 61.9353" stroke="#FCE6CE" stroke-width="2" stroke-miterlimit="10"/>
<path d="M742.036 50.4343C738.113 54.3282 732.887 56.9045 727.401 57.5586C722.628 58.1318 717.7 57.2316 713.386 55.0977" stroke="#FCE6CE" stroke-width="2" stroke-miterlimit="10"/>
<path d="M735.691 23.7561C728.307 26.8121 723.217 34.7525 723.506 42.7709" stroke="#FCE6CE" stroke-width="2" stroke-miterlimit="10"/>
<path d="M337.817 53.8796C339.74 46.1915 338.413 37.7401 334.229 31.0176M338.369 42.5094C364.591 54.4964 386.936 44.0171 386.936 44.0171M368.443 10.5886C385.559 20.7782 391.209 42.9766 381.062 60.1691C370.917 77.3615 348.817 83.0373 331.701 72.8446C314.585 62.655 308.935 40.4565 319.082 23.2641C329.226 6.07163 351.326 0.395853 368.443 10.5886Z" stroke="#FCE6CE" stroke-width="2" stroke-miterlimit="10"/>
<path d="M350.858 33.9521C353.075 33.9521 354.871 32.1474 354.871 29.9211C354.871 27.6949 353.075 25.8901 350.858 25.8901C348.642 25.8901 346.845 27.6949 346.845 29.9211C346.845 32.1474 348.642 33.9521 350.858 33.9521Z" fill="#FCE6CE"/>
<path d="M516.825 77.6667C536.724 77.6667 552.856 61.4632 552.856 41.4751C552.856 21.487 536.724 5.28345 516.825 5.28345C496.926 5.28345 480.794 21.487 480.794 41.4751C480.794 61.4632 496.926 77.6667 516.825 77.6667Z" stroke="#FCE6CE" stroke-width="2" stroke-miterlimit="10"/>
<path d="M507.471 30.8462C503.573 35.0547 498.933 38.5686 493.829 41.1729" stroke="#FCE6CE" stroke-width="2" stroke-miterlimit="10"/>
<path d="M503.899 21.7812C504.215 23.398 505.456 24.6721 506.777 25.6534C508.901 27.2296 511.416 28.3137 514.043 28.5754C516.67 28.837 519.408 28.2452 521.589 26.7499" stroke="#FCE6CE" stroke-width="2" stroke-miterlimit="10"/>
<path d="M531.941 28.9304C533.432 31.245 535.988 32.8368 538.714 33.1514C541.44 33.4661 544.287 32.5004 546.266 30.5908" stroke="#FCE6CE" stroke-width="2" stroke-miterlimit="10"/>
<path d="M502.224 35.6218C505.282 39.279 512.117 45.1573 523.145 47.5621C531.649 49.4156 539.139 46.1915 543.568 42.5717" stroke="#FCE6CE" stroke-width="2" stroke-miterlimit="10"/>
<path d="M499.424 37.8242C502.026 45.0202 507.059 55.7518 519.25 58.4121C527.673 60.2501 537.095 54.6055 543.571 46.4064" stroke="#FCE6CE" stroke-width="2" stroke-miterlimit="10"/>
<path d="M543.893 38.4626C543.382 42.6276 543.242 48.9544 543.8 53.0913" stroke="#FCE6CE" stroke-width="2" stroke-miterlimit="10"/>
<path d="M270.993 77.6543C290.893 77.6543 307.024 61.4507 307.024 41.4626C307.024 21.4745 290.893 5.271 270.993 5.271C251.094 5.271 234.962 21.4745 234.962 41.4626C234.962 61.4507 251.094 77.6543 270.993 77.6543Z" stroke="#FCE6CE" stroke-width="2" stroke-miterlimit="10"/>
<path d="M242.21 62.306C240.634 62.8107 238.96 63.0848 237.217 63.0848C228.173 63.0848 220.842 55.7206 220.842 46.6369C220.842 37.5531 228.173 30.189 237.217 30.189" stroke="#FCE6CE" stroke-width="2" stroke-miterlimit="10"/>
<path d="M301.594 23.1208C302.875 22.7968 304.217 22.6255 305.598 22.6255C314.641 22.6255 321.972 29.9897 321.972 39.0734C321.972 48.1571 314.641 55.5213 305.598 55.5213C305.135 55.5213 304.68 55.5026 304.23 55.4653" stroke="#FCE6CE" stroke-width="2" stroke-miterlimit="10"/>
<path d="M248.158 27.5628C248.158 27.5628 250.791 36.2135 257.713 34.7837C264.22 33.4379 264.766 23.2888 264.766 23.2888" stroke="#FCE6CE" stroke-width="2" stroke-miterlimit="10"/>
<path d="M271.406 23.3948C271.406 23.3948 274.039 32.0455 280.961 30.6157C287.467 29.27 288.013 19.1208 288.013 19.1208" stroke="#FCE6CE" stroke-width="2" stroke-miterlimit="10"/>
<path d="M259.022 39.7183C259.587 45.0451 257.62 51.4312 253.384 55.0852" stroke="#FCE6CE" stroke-width="2" stroke-miterlimit="10"/>
<path d="M284.074 37.1948C284.074 46.0948 288.922 50.7519 290.745 52.1786" stroke="#FCE6CE" stroke-width="2" stroke-miterlimit="10"/>
<path d="M272.389 70.7355C278.863 70.7355 284.112 63.5961 284.112 54.7892C284.112 45.9822 278.863 38.8428 272.389 38.8428C265.914 38.8428 260.666 45.9822 260.666 54.7892C260.666 63.5961 265.914 70.7355 272.389 70.7355Z" stroke="#FCE6CE" stroke-width="2" stroke-miterlimit="10"/>
<path d="M595.843 77.6667C615.743 77.6667 631.874 61.4632 631.874 41.4751C631.874 21.487 615.743 5.28345 595.843 5.28345C575.944 5.28345 559.812 21.487 559.812 41.4751C559.812 61.4632 575.944 77.6667 595.843 77.6667Z" stroke="#FCE6CE" stroke-width="2" stroke-miterlimit="10"/>
<path d="M569.591 36.5718C571.874 36.5718 573.725 34.7127 573.725 32.4193C573.725 30.126 571.874 28.2668 569.591 28.2668C567.308 28.2668 565.457 30.126 565.457 32.4193C565.457 34.7127 567.308 36.5718 569.591 36.5718Z" fill="#FCE6CE"/>
<path d="M592.193 31.1702C594.476 31.1702 596.327 29.3111 596.327 27.0177C596.327 24.7244 594.476 22.8652 592.193 22.8652C589.91 22.8652 588.059 24.7244 588.059 27.0177C588.059 29.3111 589.91 31.1702 592.193 31.1702Z" fill="#FCE6CE"/>
<path d="M583.804 27.7685L603.758 13.6538" stroke="#FCE6CE" stroke-width="2" stroke-miterlimit="10"/>
<path d="M563.639 25.1051C563.639 25.1051 570.409 21.0211 576.038 27.0177" stroke="#FCE6CE" stroke-width="2" stroke-miterlimit="10"/>
<path d="M608.543 52.1132C608.543 52.1132 589.836 39.3847 567.91 47.0604" stroke="#FCE6CE" stroke-width="2" stroke-miterlimit="10"/>
<path d="M660.748 25.8653C663.031 25.8653 664.882 24.0061 664.882 21.7128C664.882 19.4194 663.031 17.5603 660.748 17.5603C658.464 17.5603 656.614 19.4194 656.614 21.7128C656.614 24.0061 658.464 25.8653 660.748 25.8653Z" fill="#FCE6CE"/>
<path d="M664.658 14.2207L644.025 27.3105" stroke="#FCE6CE" stroke-width="2" stroke-miterlimit="10"/>
<path d="M675.563 25.8653C677.846 25.8653 679.697 24.0061 679.697 21.7128C679.697 19.4194 677.846 17.5603 675.563 17.5603C673.279 17.5603 671.428 19.4194 671.428 21.7128C671.428 24.0061 673.279 25.8653 675.563 25.8653Z" fill="#FCE6CE"/>
<path d="M671.652 14.2207L687.475 23.3823" stroke="#FCE6CE" stroke-width="2" stroke-miterlimit="10"/>
<path d="M656.254 77.6543C676.153 77.6543 692.285 61.4507 692.285 41.4626C692.285 21.4745 676.153 5.271 656.254 5.271C636.354 5.271 620.223 21.4745 620.223 41.4626C620.223 61.4507 636.354 77.6543 656.254 77.6543Z" stroke="#FCE6CE" stroke-width="2" stroke-miterlimit="10"/>
<path d="M659.377 32.46C659.377 32.46 659.02 40.497 650.485 49.967" stroke="#FCE6CE" stroke-width="2" stroke-miterlimit="10"/>
<path d="M684.622 41.2134C684.622 41.2134 680.956 49.3127 670.641 49.3127C662.826 49.3127 657.746 44.2818 655.755 41.8489" stroke="#FCE6CE" stroke-width="2" stroke-miterlimit="10"/>
<path d="M689.422 54.1538C696.943 54.1538 703.04 48.0294 703.04 40.4752C703.04 32.921 696.943 26.7966 689.422 26.7966" stroke="#FCE6CE" stroke-width="2" stroke-miterlimit="10"/>
<path d="M623.24 27.7842C615.72 27.7842 609.623 33.9085 609.623 41.4627C609.623 49.0169 615.72 55.1413 623.24 55.1413" stroke="#FCE6CE" stroke-width="2" stroke-miterlimit="10"/>
<path d="M188.449 77.6667C208.278 77.6667 224.353 61.5203 224.353 41.6027C224.353 21.6852 208.278 5.53882 188.449 5.53882C168.619 5.53882 152.545 21.6852 152.545 41.6027C152.545 61.5203 168.619 77.6667 188.449 77.6667Z" stroke="#FCE6CE" stroke-width="2" stroke-miterlimit="10"/>
<path d="M221.626 27.3013C200.848 33.1266 198.081 59.8264 198.081 59.8264" stroke="#FCE6CE" stroke-width="2" stroke-miterlimit="10"/>
<path d="M202.935 26.9055C205.218 26.9055 207.069 25.0464 207.069 22.7531C207.069 20.4597 205.218 18.6006 202.935 18.6006C200.652 18.6006 198.801 20.4597 198.801 22.7531C198.801 25.0464 200.652 26.9055 202.935 26.9055Z" fill="#FCE6CE"/>
<path d="M206.123 14.4575L192.148 18.934" stroke="#FCE6CE" stroke-width="2" stroke-miterlimit="10"/>
<path d="M43.9986 77.6635C63.8312 77.6635 79.9087 61.5143 79.9087 41.5933C79.9087 21.6724 63.8312 5.52319 43.9986 5.52319C24.166 5.52319 8.0885 21.6724 8.0885 41.5933C8.0885 61.5143 24.166 77.6635 43.9986 77.6635Z" stroke="#FCE6CE" stroke-width="2" stroke-miterlimit="10"/>
<path d="M61.5366 42.3317C63.8112 42.3317 65.6552 40.4795 65.6552 38.1948C65.6552 35.91 63.8112 34.0579 61.5366 34.0579C59.262 34.0579 57.4181 35.91 57.4181 38.1948C57.4181 40.4795 59.262 42.3317 61.5366 42.3317Z" fill="#FCE6CE"/>
<path d="M62.2056 72.0638C66.1465 69.3917 65.9729 62.2132 61.8178 56.0302C57.6626 49.8472 51.0995 47.001 47.1585 49.673C43.2176 52.3451 43.3912 59.5236 47.5464 65.7066C51.7015 71.8896 58.2646 74.7358 62.2056 72.0638Z" stroke="#FCE6CE" stroke-width="2" stroke-miterlimit="10"/>
</g>
</svg>
