<svg width="522" height="836" viewBox="0 0 522 836" fill="none" xmlns="http://www.w3.org/2000/svg">
<g clip-path="url(#clip0_148_936)">
<path d="M265.215 29.4069L250.948 37.4907L266.162 42.9298L260.911 58.1337L275.83 51.3937L280.516 66.9669L290.877 54.397L302.03 66.3406L303.079 50.3015L319.224 51.1206L309.19 38.1813L323.457 30.0921L308.249 24.653L313.499 9.45445L298.581 16.1945L293.89 0.615845L283.528 13.1912L272.376 1.24756L271.332 17.2866L255.187 16.4675L265.215 29.4069Z" fill="#518E2E"/>
<path d="M265.215 29.4069L250.948 37.4907L266.162 42.9298L260.911 58.1337L275.83 51.3937L280.516 66.967L290.877 54.397L302.03 66.3406L303.079 50.3015L319.224 51.1206L309.19 38.1813L323.457 30.0921L308.249 24.653L313.499 9.45445L298.581 16.1945L293.89 0.615845L283.528 13.1912L272.376 1.24756L271.332 17.2866L255.187 16.4675L265.215 29.4069Z" stroke="#1D1D1B" stroke-miterlimit="10"/>
</g>
<path d="M20.2715 365.964C7.57648 363.01 0.581621 340.581 1.01938 324.544C2.07187 285.594 56.8851 260.056 67.3634 255.175C144.707 219.14 255.191 241.23 262.847 280.296C269.674 315.17 195.05 381.613 123.201 370.525C45.345 358.497 -3.10675 259.582 14.1429 198.445C38.0428 113.727 188.93 98.6 184.264 78.6116C181.535 66.9227 126.936 59.3496 92.9119 88.2475C55.0223 120.428 56.8385 185.797 77.9442 228.631C100.782 274.97 150.361 303.597 198.897 299.055C235.911 295.598 291.478 271.668 296.778 225.106C300.215 194.91 282.229 157.693 257.342 151.825C217.292 142.373 179.458 218.801 161.566 208.691C148.899 201.525 155.018 155.95 174.326 122.055C194.742 86.1944 236.283 52.2123 254.39 63.1652C277.992 77.4398 267.653 166.564 234.281 177.808C224.119 181.226 210.008 178.05 204.289 168.666C188.157 142.218 232.427 55.9698 290.649 54.5074C313.04 53.9457 340.917 65.8284 351.507 89.6614C365.534 121.213 344.727 163.397 318.452 183.357C272.496 218.278 230.853 169.237 168.766 190.552C74.8892 222.782 55.3669 374.118 20.2902 365.954L20.2715 365.964Z" stroke="#FCE6CE" stroke-linecap="round" stroke-linejoin="round"/>
<path d="M156.348 255.385C199.871 255.385 235.154 234.401 235.154 208.517C235.154 182.632 199.871 161.648 156.348 161.648C112.825 161.648 77.5421 182.632 77.5421 208.517C77.5421 234.401 112.825 255.385 156.348 255.385Z" fill="#FCE6CE" stroke="#1D1D1B" stroke-miterlimit="10"/>
<path d="M172.182 253.167L187.328 265.962L186.535 250.428" fill="#FCE6CE"/>
<path d="M172.182 253.167L187.328 265.962L186.535 250.428" stroke="#1D1D1B" stroke-miterlimit="10"/>
<path d="M141.141 241.132C130.648 221.109 129.218 199.709 138.903 188.75C157.898 167.246 215.382 182.382 215.382 207.259C215.382 232.136 175.164 240.641 143.42 229.641C126.425 223.752 105.497 206.884 109.86 193.321C113.971 180.533 136.305 173.199 153.193 177.926C175.296 184.11 188.375 211.036 177.567 227.313C165.153 246.01 125.608 244.058 118.322 232.037C112.573 222.55 124.56 202.903 141.189 197.509C166.79 189.201 199.128 216.051 196.355 230.256C194.518 239.662 176.451 247.807 167.487 243.371C149.938 234.688 160.36 174.384 174.909 172.46C183.722 171.294 200.351 190.714 194.355 207.299C190.379 218.294 176.614 227.617 161.77 225.337C150.767 223.644 141.488 215.935 139.09 206.604C134.891 190.295 152.834 173.454 168.061 173.802C172.702 173.909 180.208 175.686 182.351 180.501C187.259 191.532 160.041 209.547 157.292 211.371C142.755 220.997 114.66 234.217 104.035 225.337C99.892 221.872 98.6131 215.22 101.179 210.908C107.378 200.484 135.456 204.744 145.022 206.193C156.798 207.978 175.124 212.669 196.076 225.285" stroke="#C4708A" stroke-miterlimit="10"/>
<path d="M322.644 268.94C363.026 275.237 400.188 251.968 405.646 216.965C411.105 181.963 382.794 148.483 342.412 142.185C302.03 135.887 264.868 159.157 259.41 194.16C253.951 229.162 282.262 262.642 322.644 268.94Z" fill="#EFC316" stroke="#1D1D1B" stroke-linecap="round" stroke-linejoin="round"/>
<path d="M285.391 217.162C288.01 192.747 307.447 172.709 332.791 170.279C354.97 168.153 374.659 184.445 376.766 206.669C378.381 223.687 365.917 238.802 348.932 240.431C335.926 241.676 324.382 232.123 323.143 219.09C322.196 209.111 329.502 200.244 339.466 199.289C347.094 198.56 353.862 204.16 354.59 211.803C355.146 217.656 350.862 222.855 345.021 223.416C340.547 223.845 336.579 220.558 336.154 216.076C335.83 212.646 338.342 209.594 341.766 209.267C344.387 209.017 346.717 210.942 346.965 213.569" stroke="#0AA2B5" stroke-miterlimit="10"/>
<path d="M403.733 148.827C442.973 148.827 474.784 129.909 474.784 106.572C474.784 83.235 442.973 64.3168 403.733 64.3168C364.493 64.3168 332.683 83.235 332.683 106.572C332.683 129.909 364.493 148.827 403.733 148.827Z" fill="#FCE6CE" stroke="#1D1D1B" stroke-miterlimit="10"/>
<path d="M383.506 146.465L367.896 157.869V142.451" fill="#FCE6CE"/>
<path d="M383.506 146.465L367.896 157.869V142.451" stroke="#1D1D1B" stroke-miterlimit="10"/>
<path d="M365.857 94.4936C372.17 94.4936 372.17 98.555 378.484 98.555C384.797 98.555 384.797 94.4936 391.111 94.4936C397.424 94.4936 397.424 98.555 403.738 98.555C410.051 98.555 410.051 94.4936 416.365 94.4936C422.678 94.4936 422.678 98.555 428.992 98.555C435.305 98.555 435.305 94.4936 441.619 94.4936" fill="#FCE6CE"/>
<path d="M365.857 94.4936C372.17 94.4936 372.17 98.555 378.484 98.555C384.797 98.555 384.797 94.4936 391.111 94.4936C397.424 94.4936 397.424 98.555 403.738 98.555C410.051 98.555 410.051 94.4936 416.365 94.4936C422.678 94.4936 422.678 98.555 428.992 98.555C435.305 98.555 435.305 94.4936 441.619 94.4936" stroke="#518E2E" stroke-miterlimit="10"/>
<path d="M365.857 110.926C372.17 110.926 372.17 114.987 378.484 114.987C384.797 114.987 384.797 110.926 391.111 110.926C397.424 110.926 397.424 114.987 403.738 114.987C410.051 114.987 410.051 110.926 416.365 110.926C422.678 110.926 422.678 114.987 428.992 114.987C435.305 114.987 435.305 110.926 441.619 110.926" fill="#FCE6CE"/>
<path d="M365.857 110.926C372.17 110.926 372.17 114.987 378.484 114.987C384.797 114.987 384.797 110.926 391.111 110.926C397.424 110.926 397.424 114.987 403.738 114.987C410.051 114.987 410.051 110.926 416.365 110.926C422.678 110.926 422.678 114.987 428.992 114.987C435.305 114.987 435.305 110.926 441.619 110.926" stroke="#518E2E" stroke-miterlimit="10"/>
<path d="M279.292 155.978C321.826 155.978 356.307 140.325 356.307 121.015C356.307 101.705 321.826 86.0509 279.292 86.0509C236.758 86.0509 202.278 101.705 202.278 121.015C202.278 140.325 236.758 155.978 279.292 155.978Z" fill="#EE7800" stroke="#1D1D1B" stroke-miterlimit="10"/>
<path d="M237.566 131.266C243.175 131.266 247.722 126.709 247.722 121.088C247.722 115.467 243.175 110.91 237.566 110.91C231.957 110.91 227.41 115.467 227.41 121.088C227.41 126.709 231.957 131.266 237.566 131.266Z" fill="#EE3819" stroke="#1D1D1B" stroke-miterlimit="10"/>
<path d="M265.291 131.266C270.9 131.266 275.447 126.709 275.447 121.088C275.447 115.467 270.9 110.91 265.291 110.91C259.682 110.91 255.135 115.467 255.135 121.088C255.135 126.709 259.682 131.266 265.291 131.266Z" fill="#FCE6CE" stroke="#1D1D1B" stroke-miterlimit="10"/>
<path d="M293.009 131.266C298.618 131.266 303.165 126.709 303.165 121.088C303.165 115.467 298.618 110.91 293.009 110.91C287.4 110.91 282.853 115.467 282.853 121.088C282.853 126.709 287.4 131.266 293.009 131.266Z" fill="#0AA2B5" stroke="#1D1D1B" stroke-miterlimit="10"/>
<path d="M320.728 131.266C326.337 131.266 330.884 126.709 330.884 121.088C330.884 115.467 326.337 110.91 320.728 110.91C315.119 110.91 310.572 115.467 310.572 121.088C310.572 126.709 315.119 131.266 320.728 131.266Z" fill="#C4708A" stroke="#1D1D1B" stroke-miterlimit="10"/>
<path d="M414.722 359.272C384.027 359.272 359.145 329.784 359.145 293.408C359.145 257.033 384.027 227.545 414.722 227.545C445.416 227.545 470.299 257.033 470.299 293.408C470.299 329.784 445.416 359.272 414.722 359.272Z" fill="#EFC316" stroke="#1D1D1B" stroke-linecap="round" stroke-linejoin="round"/>
<path d="M449.584 343.601L475.307 349.635L461.135 327.713" fill="#EFC316"/>
<path d="M449.584 343.601L475.307 349.635L461.135 327.713" stroke="#1D1D1B" stroke-linecap="round" stroke-linejoin="round"/>
<path d="M433.397 279.655C426.926 279.655 421.68 274.398 421.68 267.913C421.68 261.428 426.926 256.171 433.397 256.171C439.868 256.171 445.114 261.428 445.114 267.913C445.114 274.398 439.868 279.655 433.397 279.655Z" fill="#0AA2B5" stroke="#1D1D1B" stroke-miterlimit="10"/>
<path d="M392.778 270.415C386.307 270.415 381.061 265.158 381.061 258.673C381.061 252.188 386.307 246.931 392.778 246.931C399.249 246.931 404.495 252.188 404.495 258.673C404.495 265.158 399.249 270.415 392.778 270.415Z" fill="#8DC2A6" stroke="#1D1D1B" stroke-miterlimit="10"/>
<path d="M421.68 344.751C415.209 344.751 409.964 339.494 409.964 333.009C409.964 326.524 415.209 321.267 421.68 321.267C428.151 321.267 433.397 326.524 433.397 333.009C433.397 339.494 428.151 344.751 421.68 344.751Z" fill="#8DC2A6" stroke="#1D1D1B" stroke-miterlimit="10"/>
<path d="M439.618 307.12C433.147 307.12 427.901 301.863 427.901 295.378C427.901 288.893 433.147 283.636 439.618 283.636C446.089 283.636 451.334 288.893 451.334 295.378C451.334 301.863 446.089 307.12 439.618 307.12Z" fill="#FCE6CE" stroke="#1D1D1B" stroke-miterlimit="10"/>
<path d="M391.04 318.655C384.569 318.655 379.323 313.398 379.323 306.913C379.323 300.428 384.569 295.171 391.04 295.171C397.511 295.171 402.757 300.428 402.757 306.913C402.757 313.398 397.511 318.655 391.04 318.655Z" fill="#FCE6CE" stroke="#1D1D1B" stroke-miterlimit="10"/>
<path d="M404.495 297.88C398.024 297.88 392.778 292.623 392.778 286.138C392.778 279.653 398.024 274.396 404.495 274.396C410.966 274.396 416.211 279.653 416.211 286.138C416.211 292.623 410.966 297.88 404.495 297.88Z" fill="#EE3819" stroke="#1D1D1B" stroke-miterlimit="10"/>
<path d="M80.9279 349.308C102.464 349.308 119.923 332.273 119.923 311.26C119.923 290.246 102.464 273.211 80.9279 273.211C59.3918 273.211 41.9333 290.246 41.9333 311.26C41.9333 332.273 59.3918 349.308 80.9279 349.308Z" fill="#EFC316" stroke="#1D1D1B" stroke-linecap="round" stroke-linejoin="round"/>
<path d="M51.4104 287.907L34.586 286.991L45.0472 299.294" fill="#EFC316"/>
<path d="M51.4104 287.907L34.586 286.991L45.0472 299.294" stroke="#1D1D1B" stroke-linecap="round" stroke-linejoin="round"/>
<path d="M89.6409 319.284H72.2112L67.072 291.652H94.7802L89.6409 319.284Z" fill="#FCE6CE"/>
<path d="M91.0193 323.604H70.8367V330.332H91.0193V323.604Z" fill="#FCE6CE"/>
<path d="M390.326 201.981L416.95 170.153L417.671 194.432L390.326 201.981Z" fill="#EFC316" stroke="#1D1D1B" stroke-linecap="round" stroke-linejoin="round"/>
<path d="M502.865 390.519L521 377.959L498.73 353.608L502.865 390.519Z" fill="#EE3819" stroke="#1D1D1B" stroke-miterlimit="10"/>
<path d="M445.134 186.217L478.208 188.29L460.274 231.576L445.134 186.217Z" fill="#C4708A" stroke="#1D1D1B" stroke-miterlimit="10"/>
<path d="M28.6495 212.676L15.3551 218.973L36.2508 242.98L28.6495 212.676Z" fill="#0AA2B5" stroke="#1D1D1B" stroke-miterlimit="10"/>
<path d="M398.985 31.5129L392.055 18.4268L380.086 35.2926L398.985 31.5129Z" fill="#0AA2B5" stroke="#1D1D1B" stroke-miterlimit="10"/>
<path d="M70.9693 397.528C76.8061 399.798 83.3779 396.907 85.648 391.07C87.918 385.233 85.0266 378.661 79.1898 376.391C73.353 374.121 66.7811 377.013 64.5111 382.85C62.2411 388.686 65.1325 395.258 70.9693 397.528Z" fill="#518E2E" stroke="#1D1D1B" stroke-miterlimit="10"/>
<path d="M51.9356 425.612C57.7724 427.882 64.3443 424.991 66.6143 419.154C68.8844 413.317 65.9929 406.745 60.1562 404.475C54.3194 402.205 47.7475 405.097 45.4775 410.934C43.2074 416.77 46.0989 423.342 51.9356 425.612Z" fill="#AD672C" stroke="#1D1D1B" stroke-miterlimit="10"/>
<path d="M53.5493 456.658C59.6293 459.022 66.3984 456.207 68.6684 450.371C70.9384 444.534 67.8498 437.885 61.7698 435.521C55.6899 433.156 48.9208 435.971 46.6508 441.808C44.3808 447.644 47.4694 454.293 53.5493 456.658Z" fill="#0AA2B5" stroke="#1D1D1B" stroke-miterlimit="10"/>
<path d="M90.7853 396.109L107.029 406.483" stroke="#1D1D1B" stroke-miterlimit="10"/>
<path d="M75.4211 422.579L93.7202 427.668" stroke="#1D1D1B" stroke-miterlimit="10"/>
<path d="M80.2156 446.75L90.3927 446.653" stroke="#1D1D1B" stroke-miterlimit="10"/>
<path d="M6.66998 234.998L11.2754 227.449L21.3029 242.217L6.66998 234.998Z" fill="#FCE6CE" stroke="#1D1D1B" stroke-miterlimit="10"/>
<path d="M64.7574 72.8214L75.1594 75.2209L62.4229 94.8642L64.7574 72.8214Z" fill="#EFC316" stroke="#1D1D1B" stroke-linecap="round" stroke-linejoin="round"/>
<path d="M96.8467 156.098L90.1656 150.309L85.1021 162.897L96.8467 156.098Z" fill="#EE3819" stroke="#1D1D1B" stroke-miterlimit="10"/>
<mask id="mask0_148_936" style="mask-type:luminance" maskUnits="userSpaceOnUse" x="139" y="637" width="243" height="174">
<path d="M381.007 637.861H139.834V810.961H381.007V637.861Z" fill="white"/>
</mask>
<g mask="url(#mask0_148_936)">
<path d="M270.829 663.767C270.829 647.186 283.105 647.186 283.105 630.594H240.802C240.802 647.175 253.078 647.175 253.078 663.767C253.078 680.359 240.802 680.348 240.802 696.94C240.802 713.532 253.078 713.521 253.078 730.113C253.078 746.705 240.802 746.694 240.802 763.287C240.802 779.879 253.078 779.868 253.078 796.46C253.078 813.052 240.802 813.041 240.802 829.633C240.802 846.225 253.078 846.214 253.078 862.806C253.078 879.398 240.802 879.387 240.802 895.979H283.105C283.105 879.398 270.829 879.398 270.829 862.806C270.829 846.214 283.105 846.225 283.105 829.633C283.105 813.041 270.829 813.052 270.829 796.46C270.829 779.868 283.105 779.879 283.105 763.287C283.105 746.694 270.829 746.705 270.829 730.113C270.829 713.521 283.105 713.532 283.105 696.94C283.105 680.348 270.829 680.359 270.829 663.767Z" fill="#00A4B7" stroke="#1D1D1B" stroke-miterlimit="10"/>
</g>
<path d="M377.868 810.753H143.832V835H377.868V810.753Z" fill="#00A4B7" stroke="#1D1D1B" stroke-miterlimit="10"/>
<path d="M260.795 642.909C346.529 642.909 416.03 573.448 416.03 487.764C416.03 402.08 346.529 332.619 260.795 332.619C175.061 332.619 105.56 402.08 105.56 487.764C105.56 573.448 175.061 642.909 260.795 642.909Z" fill="#7DC3A3" stroke="#1D1D1B" stroke-miterlimit="10"/>
<path d="M382.922 424.624V357.206C382.922 357.206 387.176 318.257 351.37 305.152C315.564 292.046 282.23 290.917 262.378 290.917C242.525 290.917 209.191 292.046 173.385 305.152C137.579 318.257 141.833 357.206 141.833 357.206V424.624" stroke="#1D1D1B" stroke-miterlimit="10"/>
<path d="M262.378 290.917C270.213 290.917 276.564 284.569 276.564 276.738C276.564 268.907 270.213 262.56 262.378 262.56C254.542 262.56 248.191 268.907 248.191 276.738C248.191 284.569 254.542 290.917 262.378 290.917Z" fill="#7DC3A3" stroke="#1D1D1B" stroke-miterlimit="10"/>
<path d="M356.909 354.537L356.781 355.398V436.925H167.988L167.931 400.73L167.903 382.837L167.86 357.77C167.86 352.842 167.648 348.111 169.598 342.49C171.817 336.065 175.759 332.125 182.386 329.696C213.331 318.37 242.864 317.057 262.377 317.057C281.891 317.057 311.423 318.37 342.369 329.696C348.996 332.125 352.938 336.065 355.156 342.49C357.078 348.083 356.951 353.421 356.894 354.537H356.909Z" fill="#FF1300" stroke="#1D1D1B" stroke-miterlimit="10"/>
<path d="M356.767 385.887V403.78C351.807 402.509 349.434 399.558 341.28 399.558C330.019 399.558 330.019 404.246 318.743 404.246C307.467 404.246 307.481 399.558 296.205 399.558C284.929 399.558 284.943 404.246 273.667 404.246C262.391 404.246 262.406 399.558 251.13 399.558C239.854 399.558 239.854 404.246 228.592 404.246C217.33 404.246 217.33 399.558 206.054 399.558C194.778 399.558 194.793 404.246 183.517 404.246C175.123 404.246 173.074 402.184 167.931 400.73L167.903 382.837C172.933 384.08 175.293 387.088 183.517 387.088C194.778 387.088 194.778 382.399 206.054 382.399C217.33 382.399 217.316 387.088 228.592 387.088C239.868 387.088 239.854 382.399 251.13 382.399C262.406 382.399 262.391 387.088 273.667 387.088C284.943 387.088 284.929 382.399 296.205 382.399C307.481 382.399 307.481 387.088 318.743 387.088C330.005 387.088 330.005 382.399 341.28 382.399C349.631 382.399 351.709 384.447 356.781 385.887H356.767Z" fill="#D06A89" stroke="#1D1D1B" stroke-miterlimit="10"/>
<path d="M356.767 385.887V403.78C351.807 402.509 349.434 399.558 341.28 399.558C330.019 399.558 330.019 404.246 318.743 404.246C307.467 404.246 307.481 399.558 296.205 399.558C284.929 399.558 284.943 404.246 273.667 404.246C262.391 404.246 262.406 399.558 251.13 399.558C239.854 399.558 239.854 404.246 228.592 404.246C217.33 404.246 217.33 399.558 206.054 399.558C194.778 399.558 194.793 404.246 183.517 404.246C175.123 404.246 173.074 402.184 167.931 400.73L167.903 382.837C172.933 384.08 175.293 387.088 183.517 387.088C194.778 387.088 194.778 382.399 206.054 382.399C217.33 382.399 217.316 387.088 228.592 387.088C239.868 387.088 239.854 382.399 251.13 382.399C262.406 382.399 262.391 387.088 273.667 387.088C284.943 387.088 284.929 382.399 296.205 382.399C307.481 382.399 307.481 387.088 318.743 387.088C330.005 387.088 330.005 382.399 341.28 382.399C349.631 382.399 351.709 384.447 356.781 385.887H356.767Z" fill="#D06A89" stroke="#1D1D1B" stroke-miterlimit="10"/>
<path d="M356.767 369.563V387.455C351.807 386.184 349.434 383.233 341.28 383.233C330.019 383.233 330.019 387.921 318.743 387.921C307.467 387.921 307.481 383.233 296.205 383.233C284.929 383.233 284.943 387.921 273.667 387.921C262.391 387.921 262.406 383.233 251.13 383.233C239.854 383.233 239.854 387.921 228.592 387.921C217.33 387.921 217.33 383.233 206.054 383.233C194.778 383.233 194.793 387.921 183.517 387.921C175.123 387.921 173.074 385.859 167.931 384.405L167.903 366.512C172.933 367.755 175.293 370.763 183.517 370.763C194.778 370.763 194.778 366.074 206.054 366.074C217.33 366.074 217.316 370.763 228.592 370.763C239.868 370.763 239.854 366.074 251.13 366.074C262.406 366.074 262.391 370.763 273.667 370.763C284.943 370.763 284.929 366.074 296.205 366.074C307.481 366.074 307.481 370.763 318.743 370.763C330.005 370.763 330.005 366.074 341.28 366.074C349.631 366.074 351.709 368.122 356.781 369.563H356.767Z" fill="#D06A89" stroke="#1D1D1B" stroke-miterlimit="10"/>
<path d="M356.767 369.563V387.455C351.807 386.184 349.434 383.233 341.28 383.233C330.019 383.233 330.019 387.921 318.743 387.921C307.467 387.921 307.481 383.233 296.205 383.233C284.929 383.233 284.943 387.921 273.667 387.921C262.391 387.921 262.406 383.233 251.13 383.233C239.854 383.233 239.854 387.921 228.592 387.921C217.33 387.921 217.33 383.233 206.054 383.233C194.778 383.233 194.793 387.921 183.517 387.921C175.123 387.921 173.074 385.859 167.931 384.405L167.903 366.512C172.933 367.755 175.293 370.763 183.517 370.763C194.778 370.763 194.778 366.074 206.054 366.074C217.33 366.074 217.316 370.763 228.592 370.763C239.868 370.763 239.854 366.074 251.13 366.074C262.406 366.074 262.391 370.763 273.667 370.763C284.943 370.763 284.929 366.074 296.205 366.074C307.481 366.074 307.481 370.763 318.743 370.763C330.005 370.763 330.005 366.074 341.28 366.074C349.631 366.074 351.709 368.122 356.781 369.563H356.767Z" fill="#D06A89" stroke="#1D1D1B" stroke-miterlimit="10"/>
<path d="M396.19 427.195C392.305 419.371 381.947 419.512 374.684 421.461C364.595 424.158 357.869 432.575 347.597 434.934C339.076 436.882 330.259 433.592 323.279 428.423C312.356 420.331 299.187 417.549 287.091 426.432C275.632 434.849 273.385 435.611 260.795 435.611C248.205 435.611 245.958 434.849 234.498 426.432C222.403 417.549 209.234 420.317 198.311 428.423C191.331 433.592 182.513 436.897 173.993 434.934C163.72 432.575 156.994 424.158 146.905 421.461C139.642 419.512 129.285 419.371 125.399 427.195C119.111 439.848 132.662 449.084 143.571 449.084H195.485C205.842 449.084 216.129 451.075 225.625 455.199C236.025 459.718 246.438 467.188 246.438 478.91C246.438 502.381 232.04 507.846 204.811 507.846H204.373C195.4 507.846 188.123 515.119 188.123 524.086H260.795H333.466C333.466 515.119 326.189 507.846 317.217 507.846H316.779C289.55 507.846 275.151 502.381 275.151 478.91C275.151 467.174 285.551 459.718 295.965 455.199C305.46 451.075 315.747 449.084 326.105 449.084H378.019C388.942 449.084 402.478 439.848 396.19 427.195Z" fill="#00A4B7" stroke="#1D1D1B" stroke-miterlimit="10"/>
<path d="M160.387 92.2686L153.092 98.1085L159.424 104.988L150.059 105.177L151.165 114.485L143.331 109.316L139.088 117.688L135.44 109.051L127.21 113.53L129.298 104.421L120.066 102.966L127.361 97.1258L121.03 90.2464L130.404 90.048L129.289 80.7495L137.122 85.909L141.365 77.5461L145.013 86.1736L153.253 81.6945L151.155 90.8134L160.387 92.2686Z" fill="#EFC316" stroke="#1D1D1B" stroke-miterlimit="10"/>
<defs>
<clipPath id="clip0_148_936">
<rect width="73.7953" height="67.47" fill="white" transform="translate(250.308 0.059082)"/>
</clipPath>
</defs>
</svg>
