<svg width="517" height="491" viewBox="0 0 517 491" fill="none" xmlns="http://www.w3.org/2000/svg">
<g clip-path="url(#clip0_148_1012)">
<path d="M419.468 163.222C199.244 75.5304 265.616 264.379 395.156 253.044C548.169 239.655 575.662 -13.2834 125.246 177.783C57.0651 208.588 -28.3522 178.296 19.0097 97.9472C88.1109 -19.2935 347.595 362.907 218.317 297.453C121.285 248.326 58.157 145.002 216.25 12.8011" stroke="#8DC2A6" stroke-width="2" stroke-miterlimit="10"/>
<path d="M315.034 64.8176L306.566 64.9597L307.374 73.3813L300.503 68.3407L296.212 75.6106L293.381 67.5881L285.737 71.2276L287.829 63.0373L279.432 61.6896L285.933 56.3283L280.06 50.1836L288.529 50.0401L287.721 41.6199L294.592 46.6605L298.883 39.3906L301.713 47.4131L309.358 43.7723L307.267 51.9625L315.663 53.3103L309.162 58.6729L315.034 64.8176Z" fill="#518E2E"/>
<path d="M315.034 64.8176L306.566 64.9597L307.374 73.3813L300.503 68.3407L296.212 75.6106L293.381 67.5881L285.737 71.2276L287.829 63.0373L279.432 61.6896L285.933 56.3283L280.06 50.1836L288.529 50.0401L287.721 41.6199L294.592 46.6605L298.883 39.3906L301.713 47.4131L309.358 43.7723L307.267 51.9625L315.663 53.3103L309.162 58.6729L315.034 64.8176Z" stroke="#1D1D1B" stroke-width="1.5" stroke-miterlimit="10"/>
<path d="M201.281 172.524C203.85 173.7 206.711 174.351 209.726 174.351C220.866 174.351 229.901 165.412 229.901 154.378C229.901 143.344 220.872 134.406 209.726 134.406" fill="#C4708A"/>
<path d="M201.281 172.524C203.85 173.7 206.711 174.351 209.726 174.351C220.866 174.351 229.901 165.412 229.901 154.378C229.901 143.344 220.872 134.406 209.726 134.406" stroke="#1D1D1B" stroke-width="2" stroke-miterlimit="10"/>
<path d="M149.201 128.524C148.254 128.387 147.288 128.309 146.299 128.309C135.428 128.309 126.619 137.134 126.619 148.025C126.619 158.916 135.428 167.741 146.299 167.741C146.931 167.741 147.556 167.711 148.176 167.651" fill="#C4708A"/>
<path d="M149.201 128.524C148.254 128.387 147.288 128.309 146.299 128.309C135.428 128.309 126.619 137.134 126.619 148.025C126.619 158.916 135.428 167.741 146.299 167.741C146.931 167.741 147.556 167.711 148.176 167.651" stroke="#1D1D1B" stroke-width="2" stroke-miterlimit="10"/>
<path d="M26 404.134L266.8 401.686C259.1 367.001 256.99 337.081 249.748 298.336C247.048 283.88 237.882 266.499 223.941 259.573C209.583 252.45 188.657 243.201 186.768 226.25C185.23 212.487 188.216 198.252 195.142 186.269C199.35 178.996 204.946 172.565 208.767 165.072C213.72 155.375 215.484 144.072 213.714 133.325C213.07 129.42 211.949 125.569 210.358 121.944C208.129 116.869 204.97 112.242 200.911 108.498C193.938 102.085 184.175 98.5265 174.8 99.8879C160.824 101.912 153.85 111.274 149.69 124.315C149.321 125.473 148.975 126.649 148.647 127.861C144.624 142.723 146.555 158.444 147.288 173.831C148.022 189.212 147.241 205.584 138.742 218.422C122.751 242.562 90.6974 239.899 69.5927 256.952C48.3807 274.1 44.5901 306.671 38.3916 331.671C31.0488 361.293 26.4045 373.921 22 404.128L26 404.134Z" fill="#C4708A" stroke="#1D1D1B" stroke-width="2" stroke-miterlimit="10"/>
<path d="M211.759 321.927L199.964 426.781L220.86 494.013H60.259L78.5684 426.781L84.7014 312.194" fill="#C4708A"/>
<path d="M211.759 321.927L199.964 426.781L220.86 494.013H60.259L78.5684 426.781L84.7014 312.194" stroke="#1D1D1B" stroke-width="2" stroke-miterlimit="10"/>
<path d="M31.5912 329.988C32.5865 325.981 33.5103 321.795 34.4878 317.365C39.6671 293.935 45.5438 267.377 65.1882 251.5C75.0343 243.541 88.5577 241.845 99.9832 238.914L100.746 239.994C113.978 258.677 132.46 265.586 155.329 265.586H156.33C175.498 265.586 189.373 262.415 202.676 248.593L205.465 245.697C211.759 248.3 218.988 249.339 224.329 251.96C225.252 252.414 226.158 252.862 227.04 253.298C243.335 261.388 253.634 281.104 256.62 297.046C259.565 312.797 265.382 333.809 267.349 347.53L206.782 366.195L199.964 426.787L220.86 494.019H60.2592L88.1465 389.577L83.5095 349.476L31.5912 329.993V329.988Z" fill="#EE3819" stroke="#1D1D1B" stroke-width="2" stroke-miterlimit="10"/>
<mask id="mask0_148_1012" style="mask-type:luminance" maskUnits="userSpaceOnUse" x="31" y="238" width="237" height="257">
<path d="M31.5912 329.988C32.5865 325.981 33.5103 321.795 34.4878 317.365C39.6671 293.935 45.5438 267.377 65.1882 251.5C75.0343 243.541 88.5577 241.845 99.9832 238.914L100.746 239.994C113.978 258.677 132.46 265.586 155.329 265.586H156.33C175.498 265.586 189.373 262.415 202.676 248.593L205.465 245.697C211.759 248.3 218.988 249.339 224.329 251.96C225.252 252.414 226.158 252.862 227.04 253.298C243.335 261.388 253.634 281.104 256.62 297.046C259.565 312.797 265.382 333.809 267.349 347.53L206.782 366.195L199.964 426.787L220.86 494.019H60.2592L88.1465 389.577L83.5095 349.476L31.5912 329.993V329.988Z" fill="white"/>
</mask>
<g mask="url(#mask0_148_1012)">
<path d="M51.6767 291.093C65.9329 291.093 77.4899 279.515 77.4899 265.233C77.4899 250.951 65.9329 239.374 51.6767 239.374C37.4205 239.374 25.8636 250.951 25.8636 265.233C25.8636 279.515 37.4205 291.093 51.6767 291.093Z" fill="#AD672C" stroke="#1D1D1B" stroke-width="2" stroke-miterlimit="10"/>
<path d="M118.877 297.846C133.133 297.846 144.69 286.268 144.69 271.986C144.69 257.704 133.133 246.127 118.877 246.127C104.621 246.127 93.0637 257.704 93.0637 271.986C93.0637 286.268 104.621 297.846 118.877 297.846Z" fill="#EFC316" stroke="#1D1D1B" stroke-width="2" stroke-linecap="round" stroke-linejoin="round"/>
<path d="M111.88 396.312C126.136 396.312 137.693 384.734 137.693 370.452C137.693 356.17 126.136 344.592 111.88 344.592C97.6233 344.592 86.0664 356.17 86.0664 370.452C86.0664 384.734 97.6233 396.312 111.88 396.312Z" fill="#AD672C" stroke="#1D1D1B" stroke-width="2" stroke-miterlimit="10"/>
<path d="M170.312 455.848C184.569 455.848 196.126 444.27 196.126 429.988C196.126 415.706 184.569 404.128 170.312 404.128C156.056 404.128 144.499 415.706 144.499 429.988C144.499 444.27 156.056 455.848 170.312 455.848Z" fill="#EFC316" stroke="#1D1D1B" stroke-width="2" stroke-linecap="round" stroke-linejoin="round"/>
<path d="M86.0724 460.111C100.329 460.111 111.886 448.533 111.886 434.251C111.886 419.969 100.329 408.391 86.0724 408.391C71.8162 408.391 60.2592 419.969 60.2592 434.251C60.2592 448.533 71.8162 460.111 86.0724 460.111Z" fill="#518E2E" stroke="#1D1D1B" stroke-width="2" stroke-miterlimit="10"/>
<path d="M111.88 524.131C126.136 524.131 137.693 512.553 137.693 498.271C137.693 483.989 126.136 472.411 111.88 472.411C97.6233 472.411 86.0664 483.989 86.0664 498.271C86.0664 512.553 97.6233 524.131 111.88 524.131Z" fill="#FCE6CE" stroke="#1D1D1B" stroke-width="2" stroke-miterlimit="10"/>
<path d="M191.906 511.837C206.162 511.837 217.719 500.259 217.719 485.977C217.719 471.695 206.162 460.117 191.906 460.117C177.65 460.117 166.093 471.695 166.093 485.977C166.093 500.259 177.65 511.837 191.906 511.837Z" fill="#0AA2B5" stroke="#1D1D1B" stroke-width="2" stroke-miterlimit="10"/>
<path d="M175.253 368.171C189.509 368.171 201.066 356.593 201.066 342.311C201.066 328.029 189.509 316.452 175.253 316.452C160.997 316.452 149.44 328.029 149.44 342.311C149.44 356.593 160.997 368.171 175.253 368.171Z" fill="#0AA2B5" stroke="#1D1D1B" stroke-width="2" stroke-miterlimit="10"/>
<path d="M209.852 343.32C224.108 343.32 235.665 331.743 235.665 317.461C235.665 303.179 224.108 291.601 209.852 291.601C195.595 291.601 184.038 303.179 184.038 317.461C184.038 331.743 195.595 343.32 209.852 343.32Z" fill="#FCE6CE" stroke="#1D1D1B" stroke-width="2" stroke-miterlimit="10"/>
<path d="M217.713 271.986C231.969 271.986 243.526 260.409 243.526 246.127C243.526 231.845 231.969 220.267 217.713 220.267C203.457 220.267 191.9 231.845 191.9 246.127C191.9 260.409 203.457 271.986 217.713 271.986Z" fill="#AD672C" stroke="#1D1D1B" stroke-width="2" stroke-miterlimit="10"/>
<path d="M263.624 316.947C277.88 316.947 289.437 305.369 289.437 291.087C289.437 276.805 277.88 265.227 263.624 265.227C249.367 265.227 237.81 276.805 237.81 291.087C237.81 305.369 249.367 316.947 263.624 316.947Z" fill="#518E2E" stroke="#1D1D1B" stroke-width="2" stroke-miterlimit="10"/>
<path d="M69.5868 352.044C83.843 352.044 95.4 340.466 95.4 326.184C95.4 311.902 83.843 300.324 69.5868 300.324C55.3306 300.324 43.7737 311.902 43.7737 326.184C43.7737 340.466 55.3306 352.044 69.5868 352.044Z" fill="#0AA2B5" stroke="#1D1D1B" stroke-width="2" stroke-miterlimit="10"/>
</g>
<path d="M31.5912 329.988C32.5865 325.981 33.5103 321.795 34.4878 317.365C39.6671 293.935 45.5438 267.377 65.1882 251.5C75.0343 243.541 88.5577 241.845 99.9832 238.914L100.746 239.994C113.978 258.677 132.46 265.586 155.329 265.586H156.33C175.498 265.586 189.373 262.415 202.676 248.593L205.465 245.697C211.759 248.3 218.988 249.339 224.329 251.96C225.252 252.414 226.158 252.862 227.04 253.298C243.335 261.388 253.634 281.104 256.62 297.046C259.565 312.797 265.382 333.809 267.349 347.53L206.782 366.195L199.964 426.787L220.86 494.019H60.2592L88.1465 389.577L83.5095 349.476L31.5912 329.993V329.988Z" stroke="#1D1D1B" stroke-width="2" stroke-miterlimit="10"/>
<path d="M156.175 318.344C167.153 343.631 176.91 370.757 191.608 398.653C191.608 398.653 209.601 438.054 232.69 441.034C243.407 442.419 254.665 438.198 260.906 429.367C270.162 416.267 268.689 399.136 261.204 385.69C242.846 352.725 219.239 322.649 198.545 291.087L156.175 318.344Z" fill="#C4708A" stroke="#1D1D1B" stroke-width="2" stroke-miterlimit="10"/>
<path d="M132.859 318.344C121.88 343.631 112.124 370.757 97.4262 398.653C97.4262 398.653 79.4327 438.054 56.3433 441.034C45.6271 442.419 34.3685 438.198 28.1283 429.367C18.8722 416.267 20.3444 399.136 27.8303 385.69C46.1873 352.725 69.7953 322.649 90.4887 291.087L132.859 318.344Z" fill="#C4708A" stroke="#1D1D1B" stroke-width="2" stroke-miterlimit="10"/>
<path d="M112.416 240.359C112.416 238.615 111.933 237.242 111.325 236.042C110.222 233.874 109.62 231.492 109.62 229.062H171.796V229.074C171.796 231.504 171.194 233.88 170.092 236.042C169.484 237.236 169.007 238.609 169.007 240.359C169.007 246.186 171.629 246.371 171.796 251.841V252.933C171.629 258.415 169.007 258.594 169.007 264.415C169.007 270.237 171.629 270.422 171.796 275.891V276.984C171.629 282.453 169.007 282.639 169.007 288.46C169.007 294.282 171.629 294.473 171.796 299.942V300.491C171.796 312.326 162.218 321.921 150.405 321.921H131.005C119.192 321.921 109.615 312.326 109.615 300.491C109.615 294.467 112.41 294.467 112.41 288.454C112.41 282.441 109.615 282.441 109.615 276.423C109.615 270.404 112.41 270.41 112.41 264.397C112.41 258.385 109.615 258.385 109.615 252.372C109.615 246.359 112.41 246.359 112.41 240.347L112.416 240.359Z" fill="#8DC2A6" stroke="#1D1D1B" stroke-width="2" stroke-miterlimit="10"/>
<path d="M196.834 158.122C192.937 161.77 187.239 164.391 182.238 163.496C176.91 162.534 172.565 157.626 170.384 152.509C171.307 151.255 172.154 149.96 172.917 148.616C175.015 150.563 177.577 152.055 180.277 153.029C184.837 154.671 189.796 154.957 194.629 154.599C195.249 154.551 195.875 154.486 196.489 154.384C196.572 155.638 196.691 156.886 196.84 158.128L196.834 158.122Z" fill="#FCE6CE" stroke="#1D1D1B" stroke-width="2" stroke-miterlimit="10"/>
<path d="M198.217 166.35C197.615 163.633 197.144 160.886 196.834 158.122L198.217 166.35Z" fill="#FCE6CE"/>
<path d="M198.217 166.35C197.615 163.633 197.144 160.886 196.834 158.122" stroke="#1D1D1B" stroke-width="2" stroke-miterlimit="10"/>
<path d="M196.483 154.378C196.328 152.163 196.268 149.942 196.292 147.727L196.483 154.378Z" fill="#FCE6CE"/>
<path d="M196.483 154.378C196.328 152.163 196.268 149.942 196.292 147.727" stroke="#1D1D1B" stroke-width="2" stroke-miterlimit="10"/>
<path d="M163.482 159.812C166.075 157.662 168.399 155.202 170.378 152.509L163.482 159.812Z" fill="#FCE6CE"/>
<path d="M163.482 159.812C166.075 157.662 168.399 155.202 170.378 152.509" stroke="#1D1D1B" stroke-width="2" stroke-miterlimit="10"/>
<path d="M175.253 143.834C174.579 145.476 173.805 147.07 172.911 148.61L175.253 143.834Z" fill="#FCE6CE"/>
<path d="M175.253 143.834C174.579 145.476 173.805 147.07 172.911 148.61" stroke="#1D1D1B" stroke-width="2" stroke-miterlimit="10"/>
<path d="M170.385 152.511C170.354 152.463 170.336 152.414 170.312 152.36L170.385 152.511Z" fill="#FCE6CE"/>
<path d="M170.385 152.511C170.354 152.463 170.336 152.414 170.312 152.36" stroke="#1D1D1B" stroke-width="2" stroke-miterlimit="10"/>
<path d="M196.89 158.068C196.89 158.068 196.853 158.105 196.834 158.123L196.89 158.068Z" fill="#FCE6CE"/>
<path d="M196.89 158.068C196.89 158.068 196.853 158.105 196.834 158.123" stroke="#1D1D1B" stroke-width="2" stroke-miterlimit="10"/>
<path d="M196.513 154.372C196.513 154.372 196.489 154.372 196.483 154.378L196.513 154.372Z" fill="#FCE6CE"/>
<path d="M196.513 154.372C196.513 154.372 196.489 154.372 196.483 154.378" stroke="#1D1D1B" stroke-width="2" stroke-miterlimit="10"/>
<path d="M182.137 133.945C182.519 131.085 181.383 128.573 179.599 128.333C177.814 128.093 176.057 130.217 175.674 133.077C175.291 135.937 176.427 138.449 178.212 138.689C179.997 138.929 181.754 136.805 182.137 133.945Z" fill="#1D1D1B" stroke="#1D1D1B" stroke-width="2" stroke-miterlimit="10"/>
<path d="M201.458 137.496C201.84 134.636 200.704 132.123 198.92 131.883C197.135 131.643 195.378 133.767 194.995 136.627C194.612 139.487 195.748 142 197.533 142.24C199.318 142.479 201.075 140.355 201.458 137.496Z" fill="#1D1D1B" stroke="#1D1D1B" stroke-width="2" stroke-miterlimit="10"/>
<path d="M190.839 69.0364C187.698 58.5456 177.995 50.4968 167.195 48.8071C162.773 48.1144 158.148 48.4189 153.982 50.0609C145.226 53.5061 139.409 62.9401 139.564 72.3681C139.719 81.7902 145.459 90.7465 153.6 95.4635C162.046 100.354 176.529 102.199 184.354 95.5232C191.411 89.4986 193.372 77.527 190.833 69.0364H190.839Z" fill="#1D1D1B" stroke="#1D1D1B" stroke-width="2" stroke-miterlimit="10"/>
<path d="M146.233 156.265C146.287 161.913 146.311 167.705 144.362 173.001C142.413 178.297 138.026 183.08 132.436 183.815C129.176 184.244 125.796 183.241 123.138 181.295C121.487 180.083 120.075 178.483 119.359 176.566C118.644 174.649 118.686 172.398 119.729 170.637C120.468 169.401 121.714 168.434 123.138 168.207" stroke="#1D1D1B" stroke-width="2" stroke-miterlimit="10"/>
<path d="M214.292 144.335C213.618 150.282 212.009 158.552 210.847 164.421C209.685 170.29 209.22 176.512 211.246 182.143C212.194 184.776 213.731 187.272 216.008 188.884C218.762 190.824 222.499 191.272 225.628 190.036C228.757 188.794 231.183 185.904 231.862 182.602" stroke="#1D1D1B" stroke-width="2" stroke-miterlimit="10"/>
<path d="M149.678 124.321L149.851 125.103C163.393 120.816 176.421 114.923 188.592 107.608C195.535 112.833 202.807 117.633 210.346 121.95C208.117 116.875 204.958 112.248 200.899 108.504C193.926 102.091 184.164 98.5325 174.788 99.8938C160.812 101.918 153.839 111.28 149.678 124.321Z" fill="#1D1D1B" stroke="#1D1D1B" stroke-width="2" stroke-miterlimit="10"/>
<path d="M173.852 332.871C191.66 332.871 206.097 318.409 206.097 300.569C206.097 282.729 191.66 268.267 173.852 268.267C156.045 268.267 141.608 282.729 141.608 300.569C141.608 318.409 156.045 332.871 173.852 332.871Z" fill="#C4708A" stroke="#1D1D1B" stroke-width="2" stroke-miterlimit="10"/>
<path d="M109.519 332.871C127.327 332.871 141.763 318.409 141.763 300.569C141.763 282.729 127.327 268.267 109.519 268.267C91.7113 268.267 77.2751 282.729 77.2751 300.569C77.2751 318.409 91.7113 332.871 109.519 332.871Z" fill="#C4708A" stroke="#1D1D1B" stroke-width="2" stroke-miterlimit="10"/>
<path d="M188.216 392.061L199.964 426.782L201.251 416.697L188.216 392.061Z" fill="#1D1D1B" stroke="#1D1D1B" stroke-width="2" stroke-miterlimit="10"/>
<path d="M123.436 242.711H157.432" stroke="#0AA2B5" stroke-width="2" stroke-miterlimit="10"/>
<path d="M127.358 259.37C134.319 260.254 142.252 260.391 149.201 259.669" stroke="#0AA2B5" stroke-width="2" stroke-miterlimit="10"/>
<path d="M205.5 154.217C208.588 154.217 211.091 151.709 211.091 148.616C211.091 145.523 208.588 143.016 205.5 143.016C202.413 143.016 199.91 145.523 199.91 148.616C199.91 151.709 202.413 154.217 205.5 154.217Z" fill="#EE3819"/>
<path d="M165.735 146.228C168.822 146.228 171.325 143.72 171.325 140.627C171.325 137.534 168.822 135.027 165.735 135.027C162.647 135.027 160.144 137.534 160.144 140.627C160.144 143.72 162.647 146.228 165.735 146.228Z" fill="#EE3819"/>
<path d="M333.41 172.524C330.841 173.7 327.981 174.351 324.965 174.351C313.825 174.351 304.79 165.412 304.79 154.378C304.79 143.344 313.819 134.406 324.965 134.406" fill="#EFC316"/>
<path d="M333.41 172.524C330.841 173.7 327.981 174.351 324.965 174.351C313.825 174.351 304.79 165.412 304.79 154.378C304.79 143.344 313.819 134.406 324.965 134.406" stroke="#1D1D1B" stroke-width="2" stroke-linecap="round" stroke-linejoin="round"/>
<path d="M385.483 128.524C386.431 128.387 387.396 128.309 388.386 128.309C399.257 128.309 408.066 137.134 408.066 148.025C408.066 158.916 399.257 167.741 388.386 167.741C387.754 167.741 387.128 167.711 386.508 167.651" fill="#EFC316"/>
<path d="M385.483 128.524C386.431 128.387 387.396 128.309 388.386 128.309C399.257 128.309 408.066 137.134 408.066 148.025C408.066 158.916 399.257 167.741 388.386 167.741C387.754 167.741 387.128 167.711 386.508 167.651" stroke="#1D1D1B" stroke-width="2" stroke-linecap="round" stroke-linejoin="round"/>
<path d="M493 404.134L267.891 401.686C275.591 367.001 277.701 337.081 284.943 298.336C287.643 283.88 296.809 266.499 310.75 259.573C325.108 252.45 346.034 243.201 347.923 226.25C349.461 212.487 346.475 198.252 339.549 186.269C335.341 178.996 329.745 172.565 325.924 165.072C320.971 155.375 319.207 144.072 320.977 133.325C321.621 129.42 322.742 125.569 324.333 121.944C326.562 116.869 329.721 112.242 333.78 108.498C340.753 102.085 350.516 98.5265 359.891 99.8879C373.867 101.912 380.841 111.274 385.001 124.315C385.37 125.473 385.716 126.649 386.044 127.861C390.067 142.723 388.136 158.444 387.403 173.831C386.67 189.212 387.45 205.584 395.949 218.422C411.94 242.562 443.994 239.899 465.098 256.952C486.31 274.1 490.101 306.671 496.299 331.671C503.642 361.293 508.583 373.921 512.988 404.128L493 404.134Z" fill="#EFC316" stroke="#1D1D1B" stroke-width="2" stroke-linecap="round" stroke-linejoin="round"/>
<path d="M322.932 321.927L334.727 426.781L313.831 494.013H474.432L456.122 426.781L449.99 312.194" fill="#C4708A"/>
<path d="M322.932 321.927L334.727 426.781L313.831 494.013H474.432L456.122 426.781L449.99 312.194" stroke="#1D1D1B" stroke-width="2" stroke-miterlimit="10"/>
<path d="M503.094 329.988C502.098 325.981 501.175 321.795 500.197 317.365C495.018 293.935 489.141 267.377 469.497 251.5C459.651 243.541 446.127 241.845 434.702 238.914L433.939 239.994C420.707 258.677 402.225 265.586 379.356 265.586H378.355C359.187 265.586 345.312 262.415 332.009 248.593L329.22 245.697C322.926 248.3 315.697 249.339 310.356 251.96C309.433 252.414 308.527 252.862 307.645 253.298C291.35 261.388 281.051 281.104 278.065 297.046C275.12 312.797 269.303 333.809 267.336 347.53L327.903 366.195L334.721 426.787L313.825 494.019H474.426L446.538 389.577L451.175 349.476L503.094 329.993V329.988Z" fill="#518E2E" stroke="#1D1D1B" stroke-width="2" stroke-miterlimit="10"/>
<mask id="mask1_148_1012" style="mask-type:luminance" maskUnits="userSpaceOnUse" x="267" y="238" width="237" height="257">
<path d="M503.094 329.988C502.098 325.981 501.175 321.795 500.197 317.365C495.018 293.935 489.141 267.377 469.497 251.5C459.651 243.541 446.127 241.845 434.702 238.914L433.939 239.994C420.707 258.677 402.225 265.586 379.356 265.586H378.355C359.187 265.586 345.312 262.415 332.009 248.593L329.22 245.697C322.926 248.3 315.697 249.339 310.356 251.96C309.433 252.414 308.527 252.862 307.645 253.298C291.35 261.388 281.051 281.104 278.065 297.046C275.12 312.797 269.303 333.809 267.336 347.53L327.903 366.195L334.721 426.787L313.825 494.019H474.426L446.538 389.577L451.175 349.476L503.094 329.993V329.988Z" fill="white"/>
</mask>
<g mask="url(#mask1_148_1012)">
<path d="M483.014 291.093C497.271 291.093 508.827 279.515 508.827 265.233C508.827 250.951 497.271 239.374 483.014 239.374C468.758 239.374 457.201 250.951 457.201 265.233C457.201 279.515 468.758 291.093 483.014 291.093Z" fill="#AD672C" stroke="#1D1D1B" stroke-width="2" stroke-miterlimit="10"/>
<path d="M415.814 297.846C430.07 297.846 441.627 286.268 441.627 271.986C441.627 257.704 430.07 246.127 415.814 246.127C401.558 246.127 390.001 257.704 390.001 271.986C390.001 286.268 401.558 297.846 415.814 297.846Z" fill="#EFC316" stroke="#1D1D1B" stroke-width="2" stroke-linecap="round" stroke-linejoin="round"/>
<path d="M422.811 396.312C437.067 396.312 448.624 384.734 448.624 370.452C448.624 356.17 437.067 344.592 422.811 344.592C408.555 344.592 396.998 356.17 396.998 370.452C396.998 384.734 408.555 396.312 422.811 396.312Z" fill="#AD672C" stroke="#1D1D1B" stroke-width="2" stroke-miterlimit="10"/>
<path d="M364.379 455.848C378.635 455.848 390.192 444.27 390.192 429.988C390.192 415.706 378.635 404.128 364.379 404.128C350.122 404.128 338.565 415.706 338.565 429.988C338.565 444.27 350.122 455.848 364.379 455.848Z" fill="#EFC316" stroke="#1D1D1B" stroke-width="2" stroke-linecap="round" stroke-linejoin="round"/>
<path d="M448.619 460.111C462.875 460.111 474.432 448.533 474.432 434.251C474.432 419.969 462.875 408.391 448.619 408.391C434.362 408.391 422.805 419.969 422.805 434.251C422.805 448.533 434.362 460.111 448.619 460.111Z" fill="#8DC2A6" stroke="#1D1D1B" stroke-width="2" stroke-miterlimit="10"/>
<path d="M422.811 524.131C437.067 524.131 448.624 512.553 448.624 498.271C448.624 483.989 437.067 472.411 422.811 472.411C408.555 472.411 396.998 483.989 396.998 498.271C396.998 512.553 408.555 524.131 422.811 524.131Z" fill="#FCE6CE" stroke="#1D1D1B" stroke-width="2" stroke-miterlimit="10"/>
<path d="M342.785 511.837C357.041 511.837 368.598 500.259 368.598 485.977C368.598 471.695 357.041 460.117 342.785 460.117C328.529 460.117 316.972 471.695 316.972 485.977C316.972 500.259 328.529 511.837 342.785 511.837Z" fill="#0AA2B5" stroke="#1D1D1B" stroke-width="2" stroke-miterlimit="10"/>
<path d="M359.432 368.171C373.688 368.171 385.245 356.593 385.245 342.311C385.245 328.029 373.688 316.452 359.432 316.452C345.176 316.452 333.619 328.029 333.619 342.311C333.619 356.593 345.176 368.171 359.432 368.171Z" fill="#0AA2B5" stroke="#1D1D1B" stroke-width="2" stroke-miterlimit="10"/>
<path d="M324.839 343.32C339.096 343.32 350.653 331.743 350.653 317.461C350.653 303.179 339.096 291.601 324.839 291.601C310.583 291.601 299.026 303.179 299.026 317.461C299.026 331.743 310.583 343.32 324.839 343.32Z" fill="#FCE6CE" stroke="#1D1D1B" stroke-width="2" stroke-miterlimit="10"/>
<path d="M316.978 271.986C331.234 271.986 342.791 260.409 342.791 246.127C342.791 231.845 331.234 220.267 316.978 220.267C302.722 220.267 291.165 231.845 291.165 246.127C291.165 260.409 302.722 271.986 316.978 271.986Z" fill="#AD672C" stroke="#1D1D1B" stroke-width="2" stroke-miterlimit="10"/>
<path d="M271.067 316.947C285.324 316.947 296.881 305.369 296.881 291.087C296.881 276.805 285.324 265.227 271.067 265.227C256.811 265.227 245.254 276.805 245.254 291.087C245.254 305.369 256.811 316.947 271.067 316.947Z" fill="#8DC2A6" stroke="#1D1D1B" stroke-width="2" stroke-miterlimit="10"/>
<path d="M465.104 352.044C479.36 352.044 490.917 340.466 490.917 326.184C490.917 311.902 479.36 300.324 465.104 300.324C450.848 300.324 439.291 311.902 439.291 326.184C439.291 340.466 450.848 352.044 465.104 352.044Z" fill="#0AA2B5" stroke="#1D1D1B" stroke-width="2" stroke-miterlimit="10"/>
</g>
<path d="M503.094 329.988C502.098 325.981 501.175 321.795 500.197 317.365C495.018 293.935 489.141 267.377 469.497 251.5C459.651 243.541 446.127 241.845 434.702 238.914L433.939 239.994C420.707 258.677 402.225 265.586 379.356 265.586H378.355C359.187 265.586 345.312 262.415 332.009 248.593L329.22 245.697C322.926 248.3 315.697 249.339 310.356 251.96C309.433 252.414 308.527 252.862 307.645 253.298C291.35 261.388 281.051 281.104 278.065 297.046C275.12 312.797 269.303 333.809 267.336 347.53L327.903 366.195L334.721 426.787L313.825 494.019H474.426L446.538 389.577L451.175 349.476L503.094 329.993V329.988Z" stroke="#1D1D1B" stroke-width="2" stroke-miterlimit="10"/>
<path d="M378.516 318.344C367.537 343.631 357.781 370.757 343.083 398.653C343.083 398.653 325.09 438.054 302 441.034C291.284 442.419 280.025 438.198 273.785 429.367C264.529 416.267 266.001 399.136 273.487 385.69C291.844 352.725 315.452 322.649 336.146 291.087L378.516 318.344Z" fill="#EFC316" stroke="#1D1D1B" stroke-width="2" stroke-linecap="round" stroke-linejoin="round"/>
<path d="M401.832 318.344C412.811 343.631 422.567 370.757 437.265 398.653C437.265 398.653 455.258 438.054 478.348 441.034C489.064 442.419 500.323 438.198 506.563 429.367C515.819 416.267 514.347 399.136 506.861 385.69C488.504 352.725 464.896 322.649 444.202 291.087L401.832 318.344Z" fill="#EFC316" stroke="#1D1D1B" stroke-width="2" stroke-linecap="round" stroke-linejoin="round"/>
<path d="M422.275 240.359C422.275 238.615 422.758 237.242 423.366 236.042C424.468 233.874 425.07 231.492 425.07 229.062H362.895V229.074C362.895 231.504 363.496 233.88 364.599 236.042C365.207 237.236 365.684 238.609 365.684 240.359C365.684 246.186 363.061 246.371 362.895 251.841V252.933C363.061 258.415 365.684 258.594 365.684 264.415C365.684 270.237 363.061 270.422 362.895 275.891V276.984C363.061 282.453 365.684 282.639 365.684 288.46C365.684 294.282 363.061 294.473 362.895 299.942V300.491C362.895 312.326 372.472 321.921 384.285 321.921H403.685C415.498 321.921 425.076 312.326 425.076 300.491C425.076 294.467 422.281 294.467 422.281 288.454C422.281 282.441 425.076 282.441 425.076 276.423C425.076 270.404 422.281 270.41 422.281 264.397C422.281 258.385 425.076 258.385 425.076 252.372C425.076 246.359 422.281 246.359 422.281 240.347L422.275 240.359Z" fill="#8DC2A6" stroke="#1D1D1B" stroke-width="2" stroke-miterlimit="10"/>
<path d="M337.856 158.122C341.754 161.77 347.452 164.391 352.452 163.496C357.781 162.534 362.126 157.626 364.307 152.509C363.383 151.255 362.537 149.96 361.774 148.616C359.676 150.563 357.113 152.055 354.413 153.029C349.854 154.671 344.895 154.957 340.061 154.599C339.441 154.551 338.816 154.486 338.202 154.384C338.118 155.638 337.999 156.886 337.85 158.128L337.856 158.122Z" fill="#FCE6CE" stroke="#1D1D1B" stroke-width="2" stroke-miterlimit="10"/>
<path d="M337.856 158.122C337.54 160.88 337.076 163.627 336.474 166.35L337.856 158.122Z" fill="#FCE6CE"/>
<path d="M337.856 158.122C337.54 160.88 337.076 163.627 336.474 166.35" stroke="#1D1D1B" stroke-width="2" stroke-miterlimit="10"/>
<path d="M338.399 147.733C338.429 149.948 338.363 152.169 338.208 154.384L338.399 147.733Z" fill="#FCE6CE"/>
<path d="M338.399 147.733C338.429 149.948 338.363 152.169 338.208 154.384" stroke="#1D1D1B" stroke-width="2" stroke-miterlimit="10"/>
<path d="M364.307 152.509C366.286 155.202 368.61 157.662 371.203 159.812L364.307 152.509Z" fill="#FCE6CE"/>
<path d="M364.307 152.509C366.286 155.202 368.61 157.662 371.203 159.812" stroke="#1D1D1B" stroke-width="2" stroke-miterlimit="10"/>
<path d="M361.78 148.616C360.886 147.076 360.111 145.476 359.438 143.84L361.78 148.616Z" fill="#FCE6CE"/>
<path d="M361.78 148.616C360.886 147.076 360.111 145.476 359.438 143.84" stroke="#1D1D1B" stroke-width="2" stroke-miterlimit="10"/>
<path d="M364.38 152.36C364.355 152.408 364.337 152.457 364.307 152.511L364.38 152.36Z" fill="#FCE6CE"/>
<path d="M364.38 152.36C364.355 152.408 364.337 152.457 364.307 152.511" stroke="#1D1D1B" stroke-width="2" stroke-miterlimit="10"/>
<path d="M337.858 158.123C337.858 158.123 337.821 158.08 337.803 158.068L337.858 158.123Z" fill="#FCE6CE"/>
<path d="M337.858 158.123C337.858 158.123 337.821 158.08 337.803 158.068" stroke="#1D1D1B" stroke-width="2" stroke-miterlimit="10"/>
<path d="M338.208 154.378C338.208 154.378 338.184 154.372 338.178 154.372L338.208 154.378Z" fill="#FCE6CE"/>
<path d="M338.208 154.378C338.208 154.378 338.184 154.372 338.178 154.372" stroke="#1D1D1B" stroke-width="2" stroke-miterlimit="10"/>
<path d="M356.492 138.662C358.276 138.422 359.412 135.909 359.03 133.049C358.647 130.189 356.89 128.065 355.105 128.305C353.32 128.545 352.184 131.058 352.567 133.918C352.95 136.777 354.707 138.901 356.492 138.662Z" fill="#1D1D1B" stroke="#1D1D1B" stroke-width="2" stroke-miterlimit="10"/>
<path d="M337.173 142.207C338.957 141.967 340.093 139.454 339.71 136.594C339.328 133.735 337.57 131.611 335.786 131.85C334.001 132.09 332.865 134.603 333.248 137.463C333.631 140.323 335.388 142.447 337.173 142.207Z" fill="#1D1D1B" stroke="#1D1D1B" stroke-width="2" stroke-miterlimit="10"/>
<path d="M343.852 69.0364C346.993 58.5456 356.696 50.4968 367.496 48.8071C371.918 48.1144 376.543 48.4189 380.709 50.0609C389.465 53.5061 395.282 62.9401 395.127 72.3681C394.972 81.7961 389.232 90.7465 381.091 95.4635C372.645 100.354 358.162 102.199 350.337 95.5232C343.28 89.4986 341.319 77.527 343.858 69.0364H343.852Z" fill="#EE3819" stroke="#1D1D1B" stroke-width="2" stroke-miterlimit="10"/>
<path d="M388.457 156.265C388.404 161.913 388.38 167.705 390.329 173.001C392.278 178.297 396.664 183.08 402.255 183.815C405.515 184.244 408.895 183.241 411.553 181.295C413.204 180.083 414.616 178.483 415.331 176.566C416.047 174.649 416.005 172.398 414.962 170.637C414.223 169.401 412.977 168.434 411.553 168.207" stroke="#1D1D1B" stroke-width="2" stroke-miterlimit="10"/>
<path d="M320.399 144.335C321.073 150.282 322.682 158.552 323.844 164.421C325.006 170.29 325.471 176.512 323.445 182.143C322.497 184.776 320.959 187.272 318.683 188.884C315.929 190.824 312.192 191.272 309.063 190.036C305.934 188.794 303.508 185.904 302.829 182.602" stroke="#1D1D1B" stroke-width="2" stroke-miterlimit="10"/>
<path d="M385.012 124.321L384.84 125.103C371.298 120.816 358.27 114.923 346.099 107.608C339.156 112.833 331.884 117.633 324.345 121.95C326.574 116.875 329.733 112.248 333.791 108.504C340.765 102.091 350.527 98.5325 359.903 99.8938C373.879 101.918 380.852 111.28 385.012 124.321Z" fill="#EE3819" stroke="#1D1D1B" stroke-width="2" stroke-miterlimit="10"/>
<path d="M360.838 332.871C378.646 332.871 393.082 318.409 393.082 300.569C393.082 282.729 378.646 268.267 360.838 268.267C343.03 268.267 328.594 282.729 328.594 300.569C328.594 318.409 343.03 332.871 360.838 332.871Z" fill="#EFC316" stroke="#1D1D1B" stroke-width="2" stroke-linecap="round" stroke-linejoin="round"/>
<path d="M425.172 332.871C442.98 332.871 457.416 318.409 457.416 300.569C457.416 282.729 442.98 268.267 425.172 268.267C407.364 268.267 392.928 282.729 392.928 300.569C392.928 318.409 407.364 332.871 425.172 332.871Z" fill="#EFC316" stroke="#1D1D1B" stroke-width="2" stroke-linecap="round" stroke-linejoin="round"/>
<path d="M346.469 392.061L334.727 426.782L333.44 416.697L346.469 392.061Z" fill="#1D1D1B" stroke="#1D1D1B" stroke-width="2" stroke-miterlimit="10"/>
<path d="M411.255 242.711C399.925 242.711 388.589 242.711 377.259 242.711" stroke="#0AA2B5" stroke-width="2" stroke-miterlimit="10"/>
<path d="M407.333 259.37C400.372 260.254 392.439 260.391 385.489 259.669" stroke="#0AA2B5" stroke-width="2" stroke-miterlimit="10"/>
<path d="M329.19 154.217C332.278 154.217 334.781 151.709 334.781 148.616C334.781 145.523 332.278 143.016 329.19 143.016C326.103 143.016 323.6 145.523 323.6 148.616C323.6 151.709 326.103 154.217 329.19 154.217Z" fill="#AD672C"/>
<path d="M367.961 146.228C371.048 146.228 373.551 143.72 373.551 140.627C373.551 137.534 371.048 135.027 367.961 135.027C364.873 135.027 362.37 137.534 362.37 140.627C362.37 143.72 364.873 146.228 367.961 146.228Z" fill="#AD672C"/>
</g>
<path d="M213.537 37.457L231.537 39.2827L221.778 77.457L213.537 37.457Z" fill="#C4708A" stroke="#1D1D1B" stroke-width="1.5" stroke-miterlimit="10"/>
<path d="M277.537 80.2725L269.002 72.457L262.537 89.457L277.537 80.2725Z" stroke="#1D1D1B" stroke-width="1.5" stroke-miterlimit="10"/>
<defs>
<clipPath id="clip0_148_1012">
<rect width="517" height="491" fill="white"/>
</clipPath>
</defs>
</svg>
