<svg width="188" height="168" viewBox="0 0 188 168" fill="none" xmlns="http://www.w3.org/2000/svg">
<g clip-path="url(#clip0_148_1135)">
<path d="M8.49069 51.2234C45.4887 -3.52863 113.542 -30.8602 197.204 61.4225C286.845 160.298 63.0692 305.794 -25.7181 160.893C-59.8564 55.4644 119.828 109.171 169.829 126.073" stroke="#EE3819" stroke-width="2" stroke-miterlimit="10"/>
<path d="M63.0343 82.8176L54.5656 82.9597L55.3734 91.3813L48.5024 86.3407L44.2113 93.6106L41.3808 85.5881L33.7369 89.2276L35.8286 81.0373L27.4322 79.6896L33.9323 74.3283L28.0595 68.1836L36.5293 68.0401L35.7204 59.6199L42.5914 64.6605L46.8825 57.3906L49.713 65.4131L57.3579 61.7723L55.2663 69.9625L63.6626 71.3103L57.1615 76.6729L63.0343 82.8176Z" fill="#518E2E"/>
<path d="M63.0343 82.8176L54.5656 82.9597L55.3734 91.3813L48.5024 86.3407L44.2113 93.6106L41.3808 85.5881L33.7369 89.2276L35.8286 81.0373L27.4322 79.6896L33.9323 74.3283L28.0595 68.1836L36.5293 68.0401L35.7204 59.6199L42.5914 64.6605L46.8825 57.3906L49.713 65.4131L57.3579 61.7723L55.2663 69.9625L63.6626 71.3103L57.1615 76.6729L63.0343 82.8176Z" stroke="#1D1D1B" stroke-width="1.5" stroke-miterlimit="10"/>
<path d="M176.773 30.5437C178.305 30.5437 179.546 29.3027 179.546 27.7718C179.546 26.241 178.305 25 176.773 25C175.242 25 174 26.241 174 27.7718C174 29.3027 175.242 30.5437 176.773 30.5437Z" fill="#1D1D1B" stroke="#1D1D1B" stroke-width="1.5" stroke-miterlimit="10"/>
<path d="M32.7731 123.544C34.3046 123.544 35.5462 122.303 35.5462 120.772C35.5462 119.241 34.3046 118 32.7731 118C31.2415 118 30 119.241 30 120.772C30 122.303 31.2415 123.544 32.7731 123.544Z" fill="#1D1D1B" stroke="#1D1D1B" stroke-width="1.5" stroke-miterlimit="10"/>
<path d="M128 41.2812L155.912 8L156.668 33.384L128 41.2812Z" fill="#EFC316" stroke="#1D1D1B" stroke-width="1.5" stroke-linecap="round" stroke-linejoin="round"/>
</g>
<circle cx="103" cy="77" r="22" fill="#FCE6CE"/>
<path d="M103.275 84.15L94.2 73.15H112.35L103.275 84.15Z" fill="#1D1D1B" stroke="#1D1D1B" stroke-width="5"/>
<defs>
<clipPath id="clip0_148_1135">
<rect width="188" height="168" fill="white"/>
</clipPath>
</defs>
</svg>
