<svg width="242" height="113" viewBox="0 0 242 113" fill="none" xmlns="http://www.w3.org/2000/svg">
<g clip-path="url(#clip0_148_1147)">
<path d="M235.548 85.4165C101.854 36.9587 143.836 145.378 221.823 137.541C313.942 128.284 327.889 -18.0903 58.3005 96.7582C17.5119 115.23 -34.3046 98.5844 -6.58357 51.702C33.8614 -16.7057 194.289 201.473 115.661 164.953C56.6458 137.544 17.5092 78.4913 111.456 0.556152" stroke="#AD672C" stroke-width="2" stroke-miterlimit="10"/>
<circle cx="207" cy="78" r="20" fill="#C4708A"/>
<path d="M207 84L199 74H215L207 84Z" fill="#FCE6CE" stroke="#FCE6CE" stroke-width="5"/>
<path d="M18.4957 24L6 29.0288L25.6458 48.2L18.4957 24Z" fill="#0AA2B5" stroke="#1D1D1B" stroke-width="1.5" stroke-miterlimit="10"/>
<path d="M23.0252 90.3218C27.1255 90.3218 30.4494 87.427 30.4494 83.8561C30.4494 80.2852 27.1255 77.3904 23.0252 77.3904C18.925 77.3904 15.6011 80.2852 15.6011 83.8561C15.6011 87.427 18.925 90.3218 23.0252 90.3218Z" fill="#EE3819" stroke="#1D1D1B" stroke-width="1.5" stroke-miterlimit="10"/>
<path d="M220.859 30.6928C221.837 30.6928 222.63 29.9 222.63 28.9221C222.63 27.9441 221.837 27.1514 220.859 27.1514C219.881 27.1514 219.088 27.9441 219.088 28.9221C219.088 29.9 219.881 30.6928 220.859 30.6928Z" fill="#1D1D1B" stroke="#1D1D1B" stroke-width="1.5" stroke-miterlimit="10"/>
<path d="M87.0532 35.6567L78 40.8966L87.6508 44.4233L84.3207 54.2735L93.7844 49.905L96.7577 60L103.332 51.8526L110.407 59.5931L111.071 49.1973L121.312 49.7281L114.948 41.3448L124 36.1034L114.351 32.5782L117.681 22.7265L108.217 27.095L105.242 17L98.6693 25.1488L91.5943 17.4084L90.9301 27.8027L80.689 27.2719L87.0532 35.6567Z" fill="#FCE6CE" stroke="#1D1D1B" stroke-width="1.5" stroke-miterlimit="10"/>
<path d="M126.773 96.5437C128.305 96.5437 129.546 95.3027 129.546 93.7718C129.546 92.241 128.305 91 126.773 91C125.242 91 124 92.241 124 93.7718C124 95.3027 125.242 96.5437 126.773 96.5437Z" fill="#1D1D1B" stroke="#1D1D1B" stroke-width="1.5" stroke-miterlimit="10"/>
</g>
<defs>
<clipPath id="clip0_148_1147">
<rect width="242" height="113" fill="white"/>
</clipPath>
</defs>
</svg>
