<svg width="683" height="102" viewBox="0 0 683 102" fill="none" xmlns="http://www.w3.org/2000/svg">
<path d="M394.79 32.0601C376.14 32.0601 363.86 45.7801 363.86 64.0701C363.86 82.3601 376.14 95.9701 394.79 95.9701C413.44 95.9701 425.85 82.6101 425.85 64.0701C425.85 45.5301 413.45 32.0601 394.79 32.0601ZM394.79 84.4101C383.84 84.4101 377.22 76.1101 377.22 64.0701C377.22 52.0301 383.84 43.6101 394.79 43.6101C405.74 43.6101 412.49 52.1601 412.49 64.0701C412.49 75.9801 405.75 84.4101 394.79 84.4101Z" fill="#FCE6CE"/>
<path d="M482.24 36.0299C480.04 34.4999 476.72 32.2599 470.41 32.4299H470.33C470.21 32.4199 470.08 32.4199 469.94 32.4199C461.39 32.4199 455.13 37.7199 449.24 45.8999L448.59 37.1199C448.48 35.6199 447.23 34.4699 445.73 34.4699H434.45C432.42 34.4699 430.78 35.5699 430.78 37.4499C430.78 39.3299 431.8 40.7399 433.61 41.8099C436.75 43.6599 436.84 47.4799 436.84 47.9099V80.1199C436.84 80.5499 436.75 84.3699 433.61 86.2199C431.8 87.2899 430.78 88.6999 430.78 90.5799C430.78 92.4599 432.42 93.5599 434.45 93.5599H452.35C454.38 93.5599 456.02 92.4599 456.02 90.5799C456.02 88.6999 455 87.2899 453.19 86.2199C450.05 84.3699 449.96 80.5499 449.96 80.1199V56.8499C454.38 50.3199 459.36 47.1099 464.65 46.4099C464.67 46.3999 464.69 46.3999 464.72 46.3999C465.24 46.3599 465.84 46.3099 466.48 46.2799C466.71 46.2799 466.95 46.2699 467.19 46.2699C467.97 46.2699 468.78 46.3299 469.55 46.5099C470.85 46.8199 472.04 47.4699 472.81 48.7799H472.83C474.45 52.4899 478.69 54.3499 482.56 52.9599C486.58 51.5099 488.67 47.0699 487.22 43.0399C486.64 41.4299 485.31 38.1699 482.24 36.0299Z" fill="#FCE6CE"/>
<path d="M349.45 15.0699C349.45 15.0699 349.7 14.9399 350.18 14.7699C350.26 14.7399 350.34 14.7199 350.43 14.6899C350.6 14.6399 350.79 14.5799 350.99 14.5299C351.3 14.4499 351.62 14.3799 351.95 14.3199C352.18 14.2899 352.41 14.2399 352.65 14.2199C352.8 14.1999 352.96 14.1799 353.13 14.1699C353.25 14.1599 353.38 14.1599 353.51 14.1499C353.75 14.1399 354 14.1299 354.25 14.1299C354.44 14.1299 354.63 14.1399 354.82 14.1499C357.69 14.3599 360.81 16.1399 361.4 19.8899H361.42C361.68 23.8099 364.94 26.9099 368.93 26.9099C372.92 26.9099 376.45 23.5399 376.45 19.3799C376.45 17.7199 376.06 13.8999 373.68 11.1499C372.27 9.51994 370.02 7.39994 366.6 5.69994C364.53 4.67994 362.02 3.79994 359 3.27994C359 3.27994 358.34 3.12994 357.29 2.96994C357.26 2.96994 357.22 2.95994 357.18 2.95994C355.93 2.81994 354.7 2.72994 353.51 2.69994C353.23 2.68994 352.96 2.68994 352.69 2.68994C351.56 2.68994 350.48 2.73994 349.45 2.83994C337.67 3.93994 331.87 11.3899 331.87 26.8799V34.4699H324.37C322.79 34.4699 321.51 35.7499 321.51 37.3299V42.0799C321.51 43.6599 322.79 44.9399 324.37 44.9399H331.87V80.0799H331.86C331.86 80.0799 331.96 84.2599 328.63 86.2199C326.82 87.2899 325.8 88.6999 325.8 90.5799C325.8 92.4599 327.44 93.5599 329.47 93.5599H347.37C349.4 93.5599 351.05 92.4599 351.05 90.5799C351.05 88.6999 350.02 87.2899 348.21 86.2199C345.06 84.3599 344.98 80.4999 344.98 80.1099V44.9399H359.93C361.51 44.9399 362.8 43.6599 362.8 42.0799V37.3299C362.8 35.7499 361.51 34.4699 359.93 34.4699H344.98V26.3999C344.98 19.9799 346.48 16.5599 349.45 15.0699Z" fill="#FCE6CE"/>
<path d="M514.93 86.22C511.79 84.37 511.7 80.55 511.7 80.12V12.75H602.68C604.26 12.75 605.54 11.47 605.54 9.89V2.86C605.54 1.28 604.26 0 602.68 0H405.45C403.87 0 402.59 1.28 402.59 2.86V9.89C402.59 11.47 403.87 12.75 405.45 12.75H497.86V80.12C497.86 80.55 497.77 84.37 494.63 86.22C492.82 87.29 491.8 88.7 491.8 90.58C491.8 92.46 493.44 93.56 495.47 93.56H514.09C516.12 93.56 517.76 92.46 517.76 90.58C517.76 88.7 516.74 87.29 514.93 86.22Z" fill="#FCE6CE"/>
<path d="M284.15 32.0601C266.94 32.0601 255.38 45.3001 255.38 64.2001C255.38 83.1001 266.34 95.9701 285 95.9701C292.58 95.9701 300.18 93.6501 306.21 90.1301C307.21 89.5401 307.78 88.4301 307.63 87.2801L306.27 80.1701C306.07 79.1301 304.84 78.6701 304 79.3201C298.41 83.5801 291.69 85.1401 285.84 85.1401C276.09 85.1401 269.1 78.4001 268.86 67.0801H310.28C310.76 67.0801 311.17 66.7201 311.23 66.2401C311.35 65.2401 311.35 64.6301 311.35 63.4701C311.35 44.1001 301 32.0601 284.15 32.0601ZM269.1 58.0601C270.19 48.3101 276.21 42.4101 284.39 42.4101C292.57 42.4101 297.87 48.1901 298.48 58.1801L269.1 58.0601Z" fill="#FCE6CE"/>
<path d="M247.73 86.2201C244.59 84.3701 244.5 80.5501 244.5 80.1201V7.9601C244.5 6.3801 243.22 5.1001 241.64 5.1001H234.24C232.66 5.1001 231.37 6.3801 231.37 7.9601V80.1201C231.37 80.5501 231.28 84.3701 228.15 86.2201C226.34 87.2901 225.31 88.7001 225.31 90.5801C225.31 92.4601 226.96 93.5601 228.98 93.5601H246.89C248.92 93.5601 250.56 92.4601 250.56 90.5801C250.56 88.7001 249.54 87.2901 247.73 86.2201Z" fill="#FCE6CE"/>
<path d="M195.19 32.0601C188.7 32.0601 182.19 34.9501 176.54 39.7601V7.9601C176.54 6.3801 175.26 5.1001 173.68 5.1001H166.28C164.7 5.1001 163.42 6.3801 163.42 7.9601V80.1101C163.42 80.5001 163.34 84.3601 160.19 86.2201C158.38 87.2901 157.36 88.7001 157.36 90.5801C157.36 92.4601 159 93.5601 161.03 93.5601H170.75C172.89 93.5601 174.69 91.9701 174.95 89.8501L174.97 89.7101C180.27 93.6801 186.77 95.9701 193.03 95.9701C208.91 95.9701 220.35 82.3701 220.35 63.4701C220.35 44.5701 210.36 32.0601 195.19 32.0601ZM189.78 84.5401C185.2 84.5401 181.23 83.4501 176.54 80.6801V49.6301C181.11 45.6601 186.17 43.4901 191.34 43.4901C201.09 43.4901 206.99 51.0701 206.99 63.4701C206.99 75.8701 200.25 84.5401 189.78 84.5401Z" fill="#FCE6CE"/>
<path d="M78.32 86.22C75.17 84.36 75.09 80.5 75.09 80.11V12.75H141.51C143.09 12.75 144.37 11.47 144.37 9.89V2.86C144.37 1.28 143.09 0 141.51 0H28.77C22.01 0 0 5.21 0 26.73C0 40.98 11.72 48.32 19.39 49.5C25.78 50.49 37.06 49.2 40.5 43.96C43.95 38.72 40.2 33.52 35.87 33.18C31.55 32.85 30.29 35.07 28.37 37.53C26.58 39.82 23.01 39.32 23.01 39.32C23.01 39.32 12.79 37.89 12.23 27.17C11.51 13.19 24.22 12.45 29.38 12.63C30.49 12.67 31.93 12.7 33.57 12.72V12.75H36.46C44.67 12.81 55.29 12.75 55.29 12.75H61.25V80.12C61.25 80.55 61.16 84.37 58.02 86.22C56.21 87.29 55.19 88.7 55.19 90.58C55.19 92.46 56.83 93.56 58.86 93.56H77.49C79.51 93.56 81.16 92.46 81.16 90.58C81.16 88.7 80.13 87.29 78.32 86.22Z" fill="#FCE6CE"/>
<path d="M147.6 86.2201C144.46 84.3701 144.37 80.5501 144.37 80.1201V52.4001C144.37 38.9201 137.39 32.0601 123.3 32.0601C120.93 32.0601 118.34 32.3501 115.7 32.8901V32.8401L114.29 33.1701L110.61 34.0401C107.64 34.7901 105.31 35.8101 103.46 36.9801C101.73 38.0801 100.42 39.2901 99.41 40.5201C98.43 41.7001 97.72 42.8801 97.15 43.9701C96.38 45.4501 95.75 47.3201 95.66 49.3301C95.61 50.1901 95.66 51.0701 95.86 51.9501C96.8 56.2801 103.46 58.0001 106.79 54.2901C108.48 52.4101 108.34 51.8501 109.38 49.3301C109.56 48.8601 109.8 48.3301 110.09 47.7001C110.75 46.2901 112.42 45.0101 114.29 44.1901C114.73 44.0001 115.19 43.8301 115.64 43.7001C115.66 43.6901 115.68 43.6901 115.7 43.6801C117.59 43.2401 119.43 43.0101 121.14 43.0101C128.36 43.0101 131.25 46.1401 131.37 53.7201V57.0901C105.86 60.3401 95.75 67.2001 95.75 80.3201C95.75 90.1901 102 95.9701 112.35 95.9701C119.82 95.9701 125.35 93.3201 132.45 85.9801L133.09 89.9901C133.42 92.0501 135.19 93.5601 137.27 93.5601H146.76C148.79 93.5601 150.43 92.4601 150.43 90.5801C150.43 88.7001 149.41 87.2901 147.6 86.2201ZM131.37 78.5201C125.35 83.6901 120.66 86.2201 115.72 86.2201C110.78 86.2201 108.38 83.6901 108.38 79.0001C108.38 72.0201 112.84 68.1601 131.37 65.4001V78.5201Z" fill="#FCE6CE"/>
<path d="M552.73 32.0601C535.51 32.0601 523.96 45.3001 523.96 64.2001C523.96 83.1001 534.91 95.9701 553.57 95.9701C561.16 95.9701 568.75 93.6501 574.78 90.1301C575.79 89.5401 576.35 88.4301 576.2 87.2801L574.84 80.1701C574.64 79.1301 573.42 78.6701 572.57 79.3201C566.98 83.5801 560.26 85.1401 554.41 85.1401C544.66 85.1401 537.68 78.4001 537.44 67.0801H578.85C579.34 67.0801 579.75 66.7201 579.8 66.2401C579.93 65.2401 579.93 64.6301 579.93 63.4701C579.93 44.1001 569.58 32.0601 552.73 32.0601ZM537.68 58.0601C538.77 48.3101 544.78 42.4101 552.97 42.4101C561.16 42.4101 566.45 48.1901 567.05 58.1801L537.68 58.0601Z" fill="#FCE6CE"/>
<path d="M677.02 60.5401C671.78 57.1001 666.58 60.8501 666.25 65.1701C665.91 69.4901 668.14 70.7501 670.6 72.6801C672.88 74.4601 672.38 78.0401 672.38 78.0401C672.38 78.0401 670.95 88.2001 660.23 88.8101C656.94 89.0001 654.35 88.0201 652.33 86.4101C648.28 83.2001 646.54 77.4801 646.18 73.6001V69.1901C646.3 64.3101 646.24 60.9501 646.23 60.3601V60.2701H646.18V54.4401C646.18 40.0001 639.32 32.0601 627.28 32.0601C618.38 32.0601 611.16 36.7501 605.02 43.3701L604.59 37.1301C604.49 35.6301 603.25 34.4701 601.74 34.4701H590.47C588.44 34.4701 586.8 35.5701 586.8 37.4501C586.8 39.3301 587.82 40.7401 589.63 41.8101C592.77 43.6601 592.86 47.4801 592.86 47.9101V80.1201C592.86 80.5501 592.77 84.3701 589.63 86.2201C587.82 87.2901 586.8 88.7001 586.8 90.5801C586.8 92.4601 588.44 93.5601 590.47 93.5601H608.37C610.4 93.5601 612.04 92.4601 612.04 90.5801C612.04 88.7001 611.02 87.2901 609.21 86.2201C606.07 84.3701 605.98 80.5501 605.98 80.1201V52.7601C611.16 47.3401 617.05 43.6101 623.07 43.6101C629.81 43.6101 633.06 47.8201 633.06 57.4501V72.2801C633.06 74.2901 633.52 77.6601 634.75 81.4001C635.28 83.0301 635.95 84.7301 636.8 86.4101C640.51 93.8401 647.48 101.04 659.79 101.04C674.04 101.04 681.38 89.3201 682.56 81.6501C683.55 75.2601 682.26 63.9901 677.02 60.5401Z" fill="#FCE6CE"/>
</svg>
