<svg width="1115" height="969" viewBox="0 0 1115 969" fill="none" xmlns="http://www.w3.org/2000/svg">
<path d="M141.18 319.081C135.486 317.807 132.351 308.141 132.546 301.223C133.022 284.43 157.599 273.424 162.294 271.318C196.979 255.785 246.523 265.303 249.953 282.143C253.016 297.177 219.549 325.823 187.332 321.04C152.424 315.857 130.696 273.219 138.425 246.861C149.142 210.337 216.804 203.814 214.716 195.199C213.494 190.159 189.007 186.893 173.748 199.354C156.757 213.228 157.571 241.407 167.036 259.874C177.277 279.852 199.514 292.19 221.275 290.236C237.876 288.743 262.791 278.43 265.169 258.357C266.71 245.339 258.643 229.298 247.484 226.764C229.523 222.689 212.557 255.637 204.532 251.278C198.848 248.192 201.597 228.542 210.254 213.927C219.411 198.465 238.037 183.817 246.157 188.538C256.74 194.69 252.103 233.116 237.138 237.96C232.582 239.434 226.251 238.065 223.687 234.019C216.452 222.618 236.306 185.438 262.415 184.806C272.456 184.563 284.956 189.688 289.708 199.958C295.996 213.561 286.669 231.746 274.882 240.352C254.272 255.404 235.597 234.266 207.757 243.452C165.662 257.344 156.905 322.59 141.175 319.067L141.18 319.081Z" stroke="#E2BA1D" stroke-width="1.5" stroke-linecap="round" stroke-linejoin="round"/>
<path d="M869.728 191.714H210.906V425.966H869.728V191.714Z" fill="#FCE6CE" stroke="#1D1D1B" stroke-width="1.5" stroke-miterlimit="10"/>
<path d="M829.232 261.355C823.985 246.839 909.132 180.833 953.188 207.187C980.395 223.462 979.511 267.521 979.349 271.315C978.283 296.647 965.859 334.255 933.876 344.786C890.349 359.116 842.317 312.997 846.669 299.956C850.284 289.13 888.337 306.065 935.118 285.636C944.769 281.423 999.317 256.172 995.54 219.639C992.387 189.163 949.963 163.641 930.137 172.941C909.232 182.749 926.132 225.335 897.745 250.766C874.429 271.662 832.461 270.307 829.227 261.35L829.232 261.355Z" stroke="#EE3819" stroke-width="1.5" stroke-miterlimit="10"/>
<path d="M320.711 191.714H210.906V411.374H320.711V191.714Z" fill="#FCE6CE" stroke="#1D1D1B" stroke-width="1.5" stroke-miterlimit="10"/>
<path d="M430.516 191.714H320.711V411.374H430.516V191.714Z" fill="#FCE6CE" stroke="#1D1D1B" stroke-width="1.5" stroke-miterlimit="10"/>
<path d="M858.5 184C826.191 184 800 161.39 800 133.5C800 105.61 826.191 83 858.5 83C890.809 83 917 105.61 917 133.5C917 161.39 890.809 184 858.5 184Z" fill="#FCE6CE" stroke="#1D1D1B" stroke-width="1.5" stroke-miterlimit="10"/>
<path d="M856 183.457L845.731 197L843 181" fill="#FCE6CE"/>
<path d="M856 183.457L845.731 197L843 181" stroke="#1D1D1B" stroke-width="1.5" stroke-miterlimit="10"/>
<path d="M894.952 148.061C895.895 128.818 882.958 110.941 863.157 105.992C845.828 101.662 828.197 111.912 823.776 128.884C820.39 141.878 828.403 155.102 841.675 158.419C851.839 160.957 862.175 154.947 864.767 144.993C866.75 137.37 862.051 129.616 854.272 127.674C848.314 126.187 842.25 129.71 840.732 135.545C839.568 140.016 842.322 144.561 846.886 145.701C850.383 146.574 853.937 144.505 854.828 141.085C855.513 138.463 853.894 135.799 851.216 135.128C849.166 134.616 847.083 135.827 846.561 137.835" stroke="#0AA2B5" stroke-width="1.5" stroke-miterlimit="10"/>
<path d="M540.317 191.714H430.512V411.374H540.317V191.714Z" fill="#FCE6CE" stroke="#1D1D1B" stroke-width="1.5" stroke-miterlimit="10"/>
<path d="M650.122 191.714H540.317V411.374H650.122V191.714Z" fill="#FCE6CE" stroke="#1D1D1B" stroke-width="1.5" stroke-miterlimit="10"/>
<path d="M759.927 191.714H650.122V411.374H759.927V191.714Z" fill="#FCE6CE" stroke="#1D1D1B" stroke-width="1.5" stroke-miterlimit="10"/>
<path d="M869.733 191.714H759.927V411.374H869.733V191.714Z" fill="#FCE6CE" stroke="#1D1D1B" stroke-width="1.5" stroke-miterlimit="10"/>
<path d="M869.733 301.542V191.714L210.911 191.714V301.542L869.733 301.542Z" stroke="#1D1D1B" stroke-width="1.5" stroke-miterlimit="10"/>
<path d="M869.728 411.374V301.546L210.906 301.546V411.374L869.728 411.374Z" stroke="#1D1D1B" stroke-width="1.5" stroke-miterlimit="10"/>
<path d="M217.151 333.43C239.73 333.43 258.034 315.615 258.034 293.64C258.034 271.664 239.73 253.85 217.151 253.85C194.572 253.85 176.269 271.664 176.269 293.64C176.269 315.615 194.572 333.43 217.151 333.43Z" fill="#EFC316" stroke="#1D1D1B" stroke-width="1.5" stroke-linecap="round" stroke-linejoin="round"/>
<path d="M256.926 299.169L272.499 290.844L256.422 285.538" fill="#EFC316"/>
<path d="M256.926 299.169L272.499 290.844L256.422 285.538" stroke="#1D1D1B" stroke-width="1.5" stroke-linecap="round" stroke-linejoin="round"/>
<path d="M226.289 302.031H208.014L202.63 273.134H231.678L226.289 302.031Z" fill="#FCE6CE"/>
<path d="M227.73 306.548H206.573V313.585H227.73V306.548Z" fill="#FCE6CE"/>
<path d="M530 211L548 212.826L538.241 251L530 211Z" fill="#C4708A" stroke="#1D1D1B" stroke-width="1.5" stroke-miterlimit="10"/>
<path d="M514.445 233L496 241.52L525 274L514.445 233Z" fill="#0AA2B5" stroke="#1D1D1B" stroke-width="1.5" stroke-miterlimit="10"/>
<path d="M485 263.228L490.98 253L504 273L485 263.228Z" fill="#FCE6CE" stroke="#1D1D1B" stroke-width="1.5" stroke-miterlimit="10"/>
<path d="M563.119 231L577 234.262L560 261L563.119 231Z" fill="#EFC316" stroke="#1D1D1B" stroke-width="1.5" stroke-linecap="round" stroke-linejoin="round"/>
<path d="M594 253.815L585.466 246L579 263L594 253.815Z" stroke="#1D1D1B" stroke-width="1.5" stroke-miterlimit="10"/>
<path d="M611.147 718.859H481.359V893.58H611.147V718.859Z" fill="#518E2E" stroke="#1D1D1B" stroke-width="1.5" stroke-miterlimit="10"/>
<path d="M481.355 718.859H306.556V893.58H481.355V718.859Z" fill="#EFC316" stroke="#1D1D1B" stroke-width="1.5" stroke-linecap="round" stroke-linejoin="round"/>
<path d="M574.103 718.864C574.103 740.705 557.945 740.705 557.945 762.547C557.945 784.389 574.103 784.389 574.103 806.227C574.103 828.069 557.945 828.069 557.945 849.906C557.945 871.748 574.103 871.748 574.103 893.585H518.403C518.403 871.743 534.561 871.743 534.561 849.906C534.561 828.064 518.403 828.064 518.403 806.227C518.403 784.385 534.561 784.385 534.561 762.547C534.561 740.705 518.403 740.705 518.403 718.864H574.103Z" fill="#EE3819" stroke="#1D1D1B" stroke-width="1.5" stroke-miterlimit="10"/>
<path d="M785.946 693.213H306.579V718.864H785.946V693.213Z" fill="#C4708A" stroke="#1D1D1B" stroke-width="1.5" stroke-miterlimit="10"/>
<path d="M785.946 718.859H611.147V893.58H785.946V718.859Z" fill="#FCE6CE" stroke="#1D1D1B" stroke-width="1.5" stroke-miterlimit="10"/>
<path d="M698.544 882.83C740.872 882.83 775.186 848.531 775.186 806.222C775.186 763.912 740.872 729.613 698.544 729.613C656.215 729.613 621.901 763.912 621.901 806.222C621.901 848.531 656.215 882.83 698.544 882.83Z" fill="#0AA2B5" stroke="#1D1D1B" stroke-width="1.5" stroke-miterlimit="10"/>
<path d="M695.652 765.4C671.218 765.4 651.411 785.198 651.411 809.621C651.411 834.045 671.218 853.842 695.652 853.842C720.086 853.842 739.893 834.045 739.893 809.621C739.893 785.198 720.086 765.4 695.652 765.4ZM695.652 820.447C689.673 820.447 684.821 815.598 684.821 809.621C684.821 803.645 689.673 798.795 695.652 798.795C701.631 798.795 706.483 803.645 706.483 809.621C706.483 815.598 701.631 820.447 695.652 820.447Z" fill="#AD672C" stroke="#1D1D1B" stroke-width="1.5" stroke-miterlimit="10"/>
<path d="M740.026 801.596C740.026 804.168 737.914 806.521 737.486 808.97C737.044 811.49 738.218 814.419 737.362 816.767C736.506 819.116 733.7 820.647 732.444 822.82C731.174 825.011 731.269 828.173 729.647 830.103C728.02 832.039 724.891 832.49 722.955 834.116C721.019 835.742 720.039 838.742 717.846 840.012C715.672 841.267 712.576 840.625 710.188 841.495C707.838 842.351 705.883 844.838 703.367 845.28C700.917 845.708 698.235 844.044 695.661 844.044C693.088 844.044 690.405 845.708 687.956 845.28C685.435 844.838 683.48 842.351 681.13 841.495C678.738 840.625 675.646 841.267 673.467 840.012C671.275 838.742 670.29 835.738 668.359 834.116C666.423 832.49 663.293 832.039 661.666 830.103C660.044 828.173 660.139 825.016 658.869 822.82C657.614 820.647 654.822 819.154 653.951 816.767C653.095 814.419 654.27 811.485 653.827 808.97C653.399 806.521 651.287 804.168 651.287 801.596C651.287 799.024 653.399 796.67 653.827 794.222C654.256 791.773 653.095 788.773 653.951 786.424C654.822 784.033 657.614 782.545 658.869 780.372C660.139 778.18 660.044 775.018 661.666 773.088C663.293 771.153 666.423 770.701 668.359 769.075C670.29 767.454 671.275 764.449 673.467 763.18C675.641 761.925 678.738 762.566 681.125 761.696C683.475 760.841 685.43 758.354 687.946 757.912C690.396 757.484 693.079 759.148 695.652 759.148C698.225 759.148 700.908 757.484 703.358 757.912C705.879 758.354 707.829 760.841 710.179 761.696C712.571 762.566 715.663 761.925 717.837 763.18C720.029 764.449 721.014 767.454 722.945 769.075C724.881 770.701 728.011 771.153 729.638 773.088C731.264 775.023 731.164 778.175 732.434 780.372C733.69 782.545 736.482 784.038 737.353 786.424C738.209 788.773 737.034 791.707 737.476 794.222C737.904 796.67 740.016 799.024 740.016 801.596H740.026Z" fill="#518E2E"/>
<path d="M740.026 801.596C740.026 804.168 737.914 806.521 737.486 808.97C737.044 811.49 738.218 814.419 737.362 816.767C736.506 819.116 733.7 820.647 732.444 822.82C731.174 825.011 731.269 828.173 729.647 830.103C728.02 832.039 724.891 832.49 722.955 834.116C721.019 835.742 720.039 838.742 717.846 840.012C715.672 841.267 712.576 840.625 710.188 841.495C707.838 842.351 705.883 844.838 703.367 845.28C700.917 845.708 698.235 844.044 695.661 844.044C693.088 844.044 690.405 845.708 687.956 845.28C685.435 844.838 683.48 842.351 681.13 841.495C678.738 840.625 675.646 841.267 673.467 840.012C671.275 838.742 670.29 835.738 668.359 834.116C666.423 832.49 663.293 832.039 661.666 830.103C660.044 828.173 660.139 825.016 658.869 822.82C657.614 820.647 654.822 819.154 653.951 816.767C653.095 814.419 654.27 811.485 653.827 808.97C653.399 806.521 651.287 804.168 651.287 801.596C651.287 799.024 653.399 796.67 653.827 794.222C654.256 791.773 653.095 788.773 653.951 786.424C654.822 784.033 657.614 782.545 658.869 780.372C660.139 778.18 660.044 775.018 661.666 773.088C663.293 771.153 666.423 770.701 668.359 769.075C670.29 767.454 671.275 764.449 673.467 763.18C675.641 761.925 678.738 762.566 681.125 761.696C683.475 760.841 685.43 758.354 687.946 757.912C690.396 757.484 693.079 759.148 695.652 759.148C698.225 759.148 700.908 757.484 703.358 757.912C705.879 758.354 707.829 760.841 710.179 761.696C712.571 762.566 715.663 761.925 717.837 763.18C720.029 764.449 721.014 767.454 722.945 769.075C724.881 770.701 728.011 771.153 729.638 773.088C731.264 775.023 731.164 778.175 732.434 780.372C733.69 782.545 736.482 784.038 737.353 786.424C738.209 788.773 737.034 791.707 737.476 794.222C737.904 796.67 740.016 799.024 740.016 801.596H740.026Z" stroke="#1D1D1B" stroke-width="1.5" stroke-miterlimit="10"/>
<path d="M695.652 752.154C671.218 752.154 651.411 771.952 651.411 796.375C651.411 820.799 671.218 840.597 695.652 840.597C720.086 840.597 739.893 820.799 739.893 796.375C739.893 771.952 720.086 752.154 695.652 752.154ZM695.652 807.201C689.673 807.201 684.821 802.352 684.821 796.375C684.821 790.399 689.673 785.55 695.652 785.55C701.631 785.55 706.483 790.399 706.483 796.375C706.483 802.352 701.631 807.201 695.652 807.201Z" fill="#AD672C" stroke="#1D1D1B" stroke-width="1.5" stroke-miterlimit="10"/>
<path d="M698.544 818.422L695.652 829.428" stroke="#1D1D1B" stroke-width="1.5" stroke-miterlimit="10"/>
<path d="M675.589 813.368L683.822 810.325" stroke="#1D1D1B" stroke-width="1.5" stroke-miterlimit="10"/>
<path d="M714.869 780.039L716.652 771.448" stroke="#1D1D1B" stroke-width="1.5" stroke-miterlimit="10"/>
<path d="M663.441 796.746L668.502 789.405" stroke="#1D1D1B" stroke-width="1.5" stroke-miterlimit="10"/>
<path d="M675.589 771.524L679.708 780.633" stroke="#1D1D1B" stroke-width="1.5" stroke-miterlimit="10"/>
<path d="M701.921 766.318L695.652 774.225" stroke="#1D1D1B" stroke-width="1.5" stroke-miterlimit="10"/>
<path d="M717.789 791.431L724.072 799.865" stroke="#1D1D1B" stroke-width="1.5" stroke-miterlimit="10"/>
<path d="M710.231 810.838L719.506 815.897" stroke="#1D1D1B" stroke-width="1.5" stroke-miterlimit="10"/>
<path d="M413.964 364.895C406.715 358.177 402.714 348.002 403.442 339.772C404.17 331.542 408.979 323.688 416.185 319.637C424.652 314.883 435.558 315.42 443.402 309.696C449.134 305.512 452.325 298.584 457.905 294.191C464.374 289.099 475.618 288.728 482.943 292.48L482.663 292.342C488.941 289.974 494.459 294.077 497.085 296.949C500.243 300.405 501.251 305.697 499.663 310.1C497.346 313.922 495.158 317.864 492.694 321.591C488.946 327.263 490.344 334.918 493.298 340.885C495.943 346.219 500.357 350.784 501.603 356.608C502.997 363.136 499.858 370.139 494.63 374.294C489.503 378.369 483.428 379.405 477.078 379.453C472.412 379.486 469.515 382.491 465.839 385.201L427.753 377.214L413.959 364.89L413.964 364.895Z" fill="#0AA2B5" stroke="#1D1D1B" stroke-width="1.5" stroke-miterlimit="10"/>
<path d="M368.177 324.344H368.192" stroke="#1D1D1B" stroke-width="1.5" stroke-miterlimit="10"/>
<path d="M451.198 324.344H451.213" stroke="#1D1D1B" stroke-width="1.5" stroke-miterlimit="10"/>
<path d="M320.94 376.272C318.228 366.24 323.708 361.02 327.194 358.814" stroke="#1D1D1B" stroke-width="1.5" stroke-miterlimit="10"/>
<path d="M351.191 375.782C351.191 375.782 354.483 359.788 348.366 345.202C348.366 345.202 343.59 328.951 336.113 329.859C328.64 330.763 324.564 337.105 329.772 357.478C329.772 357.478 328.655 357.872 327.19 358.809C323.703 361.015 318.228 366.236 320.935 376.267" fill="#EFC316"/>
<path d="M351.191 375.782C351.191 375.782 354.483 359.788 348.366 345.202C348.366 345.202 343.59 328.951 336.113 329.859C328.64 330.763 324.564 337.105 329.772 357.478C329.772 357.478 328.655 357.872 327.19 358.809C323.703 361.015 318.228 366.236 320.935 376.267" stroke="#1D1D1B" stroke-width="1.5" stroke-miterlimit="10"/>
<path d="M385.814 501.076C382.099 503.344 378.071 505.008 373.718 505.836V515.986H454.941C450.817 515.587 446.755 514.555 443.345 512.259C441.266 510.856 439.454 508.94 438.569 506.587C437.685 504.233 437.846 501.419 439.335 499.403C437.223 498.324 436.143 495.789 436.243 493.426C436.343 491.064 437.447 488.848 438.788 486.889C437.104 485.472 435.915 483.571 435.244 481.483C425.436 479.781 422.739 475.417 423.306 469.921C424.076 462.437 440.99 461.377 440.99 461.377C456.573 458.638 471.447 465.385 471.447 465.385L478.805 465.266L493.389 464.938L489.74 435.879C489.74 435.879 507.478 431.742 520.22 426.997C514.032 413.666 508.091 400.876 506.07 396.626C501.394 386.794 496.224 380.099 490.359 375.331C488.451 373.781 486.04 372.426 482.92 371.289C482.277 371.056 481.659 370.823 481.069 370.59C480.746 370.462 480.432 370.334 480.118 370.205C476.969 368.898 473.283 367.001 471.432 365.641L461.363 379.857L453.885 361.88L444.277 377.66L426.668 360.749C425.983 360.749 425.313 360.763 424.642 360.792C404.541 361.652 391.356 375.644 382.161 397.263L376.539 410.181L373.723 416.666L421.084 435.755C415.324 452.904 405.592 479.206 400.103 488.097C395.998 493.189 391.242 497.767 385.819 501.072L385.814 501.076Z" fill="#518E2E" stroke="#1D1D1B" stroke-width="1.5" stroke-miterlimit="10"/>
<path d="M425.403 421.967C424.752 424.511 423.177 429.527 421.084 435.76" stroke="#1D1D1B" stroke-width="1.5" stroke-miterlimit="10"/>
<path d="M254.628 359.218C259.394 363.155 264.608 366.459 270.12 369.06C262.339 368.028 253.111 368.099 251.427 373.443C250.552 376.253 251.77 379.391 253.796 381.535C255.822 383.68 258.538 385.011 261.211 386.242C274.739 392.447 293.385 397.372 307.945 400.467C307.945 400.467 318.138 448.92 322.214 460.602C326.291 472.279 331.252 506.416 367.492 506.416C369.632 506.416 371.702 506.216 373.709 505.836C378.061 505.008 382.09 503.344 385.805 501.076C391.232 497.772 395.989 493.198 400.089 488.102C405.578 479.211 415.31 452.904 421.07 435.76L373.709 416.671C369.537 426.256 366.555 432.883 364.557 437.248L351.305 375.288C351.305 375.288 354.602 359.299 348.49 344.707C348.49 344.707 343.714 328.466 336.237 329.365C328.764 330.268 324.688 336.61 329.896 356.988C329.896 356.988 328.778 357.383 327.313 358.319C319.703 354.364 312.107 350.341 304.334 346.742C294.112 342.002 290.069 329.721 278.868 326.108C276.456 325.328 273.707 324.967 271.481 326.179C269.697 327.154 268.536 329.046 268.127 331.038C266.415 339.325 278.178 351.364 286.492 357.863C287.715 358.685 288.876 359.532 289.95 360.383C288.918 359.693 287.743 358.842 286.492 357.863C278.777 352.647 268.498 348.092 260.265 346.043C258.429 345.582 256.536 345.202 254.666 345.482C252.802 345.753 250.942 346.804 250.067 348.582C249.139 350.46 249.486 352.823 250.485 354.663C251.484 356.503 253.04 357.91 254.619 359.213L254.628 359.218Z" fill="#EFC316"/>
<path d="M286.492 357.863C278.178 351.364 266.415 339.325 268.127 331.038C268.536 329.046 269.697 327.154 271.481 326.179C273.707 324.967 276.456 325.328 278.868 326.108C290.069 329.721 294.112 342.002 304.334 346.742C312.107 350.341 319.703 354.364 327.313 358.319C328.778 357.383 329.896 356.988 329.896 356.988C324.688 336.61 328.764 330.268 336.237 329.365C343.714 328.466 348.49 344.707 348.49 344.707C354.602 359.299 351.305 375.288 351.305 375.288L364.557 437.248C366.555 432.883 369.537 426.256 373.709 416.671L421.07 435.76C415.31 452.904 405.578 479.211 400.089 488.102C395.989 493.198 391.232 497.772 385.805 501.076C382.09 503.344 378.061 505.008 373.709 505.836C371.702 506.216 369.632 506.416 367.492 506.416C331.252 506.416 326.291 472.279 322.214 460.602C318.138 448.92 307.945 400.467 307.945 400.467C293.385 397.372 274.739 392.447 261.211 386.242C258.538 385.011 255.822 383.68 253.796 381.535C251.77 379.391 250.552 376.253 251.427 373.443C253.111 368.099 262.339 368.028 270.12 369.06C264.608 366.459 259.394 363.155 254.628 359.218L254.619 359.213C253.04 357.91 251.484 356.503 250.485 354.663C249.486 352.823 249.139 350.46 250.067 348.582C250.942 346.804 252.802 345.753 254.666 345.482C256.536 345.202 258.429 345.582 260.265 346.043C268.498 348.092 278.777 352.647 286.492 357.863ZM286.492 357.863C287.715 358.685 288.876 359.532 289.95 360.383C288.918 359.693 287.743 358.842 286.492 357.863Z" stroke="#1D1D1B" stroke-width="1.5" stroke-linecap="round" stroke-linejoin="round"/>
<path d="M283.51 322.062C283.51 325.875 283.529 330.258 286.716 332.907C286.169 333.525 285.946 334.376 285.946 335.203C285.946 337.804 287.606 340.761 288.828 342.991C289.841 344.836 291.011 346.523 292.291 348.168C293.447 349.652 294.384 350.997 296.134 351.867C296.7 352.148 297.395 352.357 297.937 352.039C298.146 355.291 300.738 356.836 303.231 358.381C305.909 360.04 308.81 361.357 311.85 362.199C313.581 362.679 315.579 362.731 317.039 361.685C317.881 363.754 319.822 364.134 321.796 364.248C322.552 364.296 323.313 364.315 324.079 364.315C331.499 364.315 341.564 362.494 346.216 356.042C346.601 355.505 346.939 354.81 346.677 354.202C351.648 354.069 355.239 349.495 357.703 345.701C359.482 342.962 361.656 339.515 362.051 336.211C362.16 335.303 362.022 334.333 361.489 333.587C364.876 331.1 364.638 325.827 364.638 322.062C364.638 316.889 364.172 311.621 360.248 307.808C358.098 305.721 355.02 304.48 352.057 304.936C348.58 305.473 346.573 308.464 345.231 311.445C344.732 312.562 340.441 321.491 341.493 321.924C337.754 320.379 332.431 322.033 329.906 325.048L329.078 326.032L328.869 325.818C327.142 324.073 324.74 323.079 322.319 322.794C321.054 322.642 316.283 322.456 315.917 324.306C316.93 319.176 310.989 316.18 306.708 316.684C307.65 316.575 307.312 313.228 307.245 312.695C307.031 310.951 306.508 309.415 305.899 307.798C305.295 306.196 305.01 304.532 304.068 303.063C302.489 300.595 299.963 298.637 297.066 298.19C285.717 296.45 283.505 314.516 283.505 322.057L283.51 322.062Z" fill="#AD672C" stroke="#1D1D1B" stroke-width="1.5" stroke-miterlimit="10"/>
<path d="M323.703 336.701L320.212 355.181" stroke="#1D1D1B" stroke-width="1.5" stroke-miterlimit="10"/>
<path d="M351.315 375.288C351.315 375.288 354.607 359.294 348.49 344.707C348.49 344.707 343.714 328.456 336.237 329.365C328.764 330.268 324.688 336.61 329.896 356.983C329.896 356.983 328.778 357.378 327.313 358.314C323.827 360.52 318.352 365.741 321.058 375.773" fill="#EFC316"/>
<path d="M351.315 375.288C351.315 375.288 354.607 359.294 348.49 344.707C348.49 344.707 343.714 328.456 336.237 329.365C328.764 330.268 324.688 336.61 329.896 356.983C329.896 356.983 328.778 357.378 327.313 358.314C323.827 360.52 318.352 365.741 321.058 375.773" stroke="#1D1D1B" stroke-width="1.5" stroke-linecap="round" stroke-linejoin="round"/>
<path d="M421.084 498.571C426.678 498.571 431.867 496.251 435.701 492.033C439.302 488.073 441.281 482.857 441.281 477.342C441.281 471.827 439.297 466.611 435.701 462.651C431.867 458.434 426.678 456.114 421.084 456.114C415.49 456.114 410.301 458.434 406.467 462.651C402.867 466.611 400.888 471.827 400.888 477.342C400.888 482.857 402.871 488.073 406.467 492.033C410.301 496.251 415.49 498.571 421.084 498.571Z" fill="#0AA2B5" stroke="#1D1D1B" stroke-width="1.5" stroke-miterlimit="10"/>
<path d="M421.084 494.159C425.417 494.159 429.446 492.352 432.433 489.067C435.292 485.919 436.866 481.754 436.866 477.342C436.866 472.925 435.292 468.765 432.433 465.618C429.446 462.332 425.417 460.526 421.084 460.526C416.751 460.526 412.722 462.332 409.735 465.618C406.876 468.765 405.302 472.925 405.302 477.342C405.302 481.759 406.876 485.919 409.735 489.067C412.722 492.352 416.751 494.159 421.084 494.159Z" fill="#518E2E" stroke="#1D1D1B" stroke-width="1.5" stroke-miterlimit="10"/>
<path d="M406.382 515.991H359.801C351.686 515.991 345.103 509.406 345.103 501.3V454.906C345.103 452.657 346.929 450.831 349.179 450.831H417.008C419.258 450.831 421.084 452.657 421.084 454.906V501.3C421.084 509.411 414.496 515.991 406.386 515.991H406.382Z" fill="#0AA2B5" stroke="#1D1D1B" stroke-width="1.5" stroke-miterlimit="10"/>
<path d="M483.78 434.248V434.254" stroke="#1D1D1B" stroke-width="1.5" stroke-miterlimit="10"/>
<path d="M435.244 481.483C435.915 483.57 437.104 485.472 438.788 486.889C437.447 488.848 436.338 491.063 436.243 493.426C436.139 495.789 437.218 498.323 439.335 499.403C437.842 501.423 437.685 504.233 438.569 506.587C439.454 508.935 441.271 510.851 443.345 512.259C446.755 514.555 450.817 515.582 454.941 515.986C456.131 516.105 457.329 516.172 458.509 516.2C463.032 516.314 502.816 516.757 518.018 516.172C521.21 516.048 523.935 515.877 525.905 515.658C538.205 514.265 545.297 502.246 545.297 492.133C545.297 478.773 539.922 469.326 537.501 464.329C537.501 464.329 528.635 445.159 520.216 427.002C507.473 431.747 489.736 435.883 489.736 435.883L493.384 464.942L478.8 465.271L471.442 465.389C471.442 465.389 456.568 458.638 440.986 461.381C440.986 461.381 424.071 462.442 423.301 469.925C422.735 475.421 425.436 479.786 435.24 481.488L435.244 481.483Z" fill="#EFC316" stroke="#1D1D1B" stroke-width="1.5" stroke-linecap="round" stroke-linejoin="round"/>
<path d="M520.539 464.329L493.389 464.943L491.986 453.765L499.02 464.329" fill="#1D1D1B"/>
<path d="M520.539 464.329L493.389 464.943L491.986 453.765L499.02 464.329" stroke="#1D1D1B" stroke-width="1.5" stroke-linecap="round" stroke-linejoin="round"/>
<path d="M437.946 471.104C437.946 471.104 433.537 475.464 435.249 481.483L437.946 471.104Z" fill="#EFC316"/>
<path d="M437.946 471.104C437.946 471.104 433.537 475.464 435.249 481.483" stroke="#1D1D1B" stroke-width="1.5" stroke-linecap="round" stroke-linejoin="round"/>
<path d="M364.438 437.738L367.444 451.321" stroke="#1D1D1B" stroke-width="1.5" stroke-miterlimit="10"/>
<path d="M450.699 310.832C448.929 309.7 446.589 309.895 444.634 310.665C440.971 312.106 438.132 315.534 437.499 319.418C436.866 323.303 438.522 327.501 441.694 329.831C443.93 331.471 447.231 332.089 449.429 330.392L450.699 310.837V310.832Z" fill="#EFC316" stroke="#1D1D1B" stroke-width="1.5" stroke-linecap="round" stroke-linejoin="round"/>
<path d="M468.93 362.931C456.535 361.6 444.139 360.278 431.739 358.947C433.461 358.115 435.078 357.093 436.572 355.909C446.798 356.398 457.011 356.883 467.232 357.368C467.247 357.682 467.275 357.996 467.304 358.314C467.484 360.093 468.065 361.624 468.93 362.931Z" fill="white" stroke="#1D1D1B" stroke-width="1.5" stroke-miterlimit="10"/>
<path d="M493.284 304.846C492.704 298.508 489.679 292.898 482.972 290.464C482.691 290.364 482.415 290.269 482.13 290.183C482.125 290.178 482.125 290.183 482.125 290.183H482.12C473.235 287.454 463.213 292.023 457.382 299.022C457.011 299.459 456.668 299.901 456.34 300.353C452.178 306.087 449.433 312.848 448.425 319.865C447.397 327.049 448.154 334.504 446.166 341.488C444.529 347.227 441.124 352.31 436.572 355.899C446.798 356.389 457.01 356.874 467.232 357.359C467.009 353.08 468.241 349.148 470.51 345.473C475.323 337.699 483.338 332.517 488.237 324.8C491.71 319.337 493.907 311.669 493.279 304.841L493.284 304.846Z" fill="#EFC316" stroke="#1D1D1B" stroke-width="1.5" stroke-linecap="round" stroke-linejoin="round"/>
<path d="M464.026 312.363C464.155 316.357 462.114 320.369 458.404 323.431" stroke="#1D1D1B" stroke-width="1.5" stroke-miterlimit="10"/>
<path d="M462.918 317.992C470.648 322.533 479.338 322.048 486.815 316.575" stroke="#1D1D1B" stroke-width="1.5" stroke-miterlimit="10"/>
<path d="M473.073 312.049C473.967 312.049 474.691 310.612 474.691 308.84C474.691 307.067 473.967 305.63 473.073 305.63C472.18 305.63 471.456 307.067 471.456 308.84C471.456 310.612 472.18 312.049 473.073 312.049Z" fill="#1D1D1B" stroke="#1D1D1B" stroke-width="1.5" stroke-miterlimit="10"/>
<path d="M483.371 312.049C484.265 312.049 484.989 310.612 484.989 308.84C484.989 307.067 484.265 305.63 483.371 305.63C482.478 305.63 481.754 307.067 481.754 308.84C481.754 310.612 482.478 312.049 483.371 312.049Z" fill="#1D1D1B" stroke="#1D1D1B" stroke-width="1.5" stroke-miterlimit="10"/>
<path d="M426.668 360.753L444.277 377.665L453.885 361.885L461.363 379.862L471.432 365.646C470.462 364.866 469.611 363.958 468.935 362.936C456.54 361.605 444.144 360.278 431.744 358.947C430.136 359.727 428.443 360.34 426.673 360.758L426.668 360.753Z" fill="#FCE6CE" stroke="#1D1D1B" stroke-width="1.5" stroke-miterlimit="10"/>
<path d="M482.12 290.183H482.125C482.125 290.183 482.125 290.183 482.13 290.188" stroke="#1D1D1B" stroke-width="1.5" stroke-miterlimit="10"/>
<path d="M342.943 324.9L354.958 333.529" stroke="#1D1D1B" stroke-width="1.5" stroke-miterlimit="10"/>
<path d="M313.486 328.742C312.915 329.526 301.186 344.964 301.186 344.964L313.486 328.742Z" fill="#0AA2B5"/>
<path d="M313.486 328.742C312.915 329.526 301.186 344.964 301.186 344.964" stroke="#1D1D1B" stroke-width="1.5" stroke-miterlimit="10"/>
<path d="M489.74 435.883L488.742 426.959" stroke="#1D1D1B" stroke-width="1.5" stroke-miterlimit="10"/>
<path d="M452.644 302.773C460.24 302.939 482.097 298.166 486.168 291.752C486.168 291.752 477.397 283.817 462.404 291.657" fill="#0AA2B5"/>
<path d="M452.644 302.773C460.24 302.939 482.097 298.166 486.168 291.752C486.168 291.752 477.397 283.817 462.404 291.657" stroke="#1D1D1B" stroke-width="1.5" stroke-miterlimit="10"/>
<path d="M434.246 329.079C434.864 333.102 433.68 337.286 431.43 340.675C429.551 343.509 426.64 345.972 423.244 346.1" stroke="#1D1D1B" stroke-width="1.5" stroke-miterlimit="10"/>
<path d="M421.717 333.42C416.456 336.387 413.017 342.335 413.069 348.373" stroke="#1D1D1B" stroke-width="1.5" stroke-miterlimit="10"/>
<path d="M270.125 369.06L283.358 372.811" stroke="#1D1D1B" stroke-width="1.5" stroke-miterlimit="10"/>
<path d="M304.211 321.629L292.595 329.369" stroke="#1D1D1B" stroke-width="1.5" stroke-miterlimit="10"/>
<path d="M722.428 324.344H722.412" stroke="#1D1D1B" stroke-width="1.5" stroke-miterlimit="10"/>
<path d="M639.406 324.344H639.391" stroke="#1D1D1B" stroke-width="1.5" stroke-miterlimit="10"/>
<path d="M769.664 376.272C772.375 366.24 766.896 361.02 763.409 358.814" stroke="#1D1D1B" stroke-width="1.5" stroke-miterlimit="10"/>
<path d="M739.412 375.782C739.412 375.782 736.121 359.788 742.238 345.202C742.238 345.202 747.013 328.951 754.491 329.859C761.963 330.763 766.04 337.105 760.831 357.478C760.831 357.478 761.949 357.872 763.414 358.809C766.901 361.015 772.375 366.236 769.669 376.267" fill="#EFC316"/>
<path d="M739.412 375.782C739.412 375.782 736.121 359.788 742.238 345.202C742.238 345.202 747.013 328.951 754.491 329.859C761.963 330.763 766.04 337.105 760.831 357.478C760.831 357.478 761.949 357.872 763.414 358.809C766.901 361.015 772.375 366.236 769.669 376.267" stroke="#1D1D1B" stroke-width="1.5" stroke-miterlimit="10"/>
<path d="M704.785 501.076C708.499 503.344 712.528 505.008 716.88 505.836V515.986H635.657C639.781 515.587 643.843 514.555 647.254 512.259C649.333 510.856 651.145 508.94 652.03 506.587C652.914 504.233 652.752 501.419 651.264 499.403C653.376 498.324 654.455 495.789 654.355 493.426C654.256 491.064 653.152 488.848 651.811 486.889C653.495 485.472 654.684 483.571 655.354 481.483C665.162 479.781 667.859 475.417 667.293 469.921C666.523 462.437 649.608 461.377 649.608 461.377C634.026 458.638 619.152 465.385 619.152 465.385L611.794 465.266L597.21 464.938L600.858 435.879C600.858 435.879 583.121 431.742 570.378 426.997C576.567 413.666 582.508 400.876 584.529 396.626C589.205 386.794 594.375 380.099 600.24 375.331C602.147 373.781 604.559 372.426 607.679 371.289C608.321 371.056 608.94 370.823 609.53 370.59C609.853 370.462 610.167 370.334 610.481 370.205C613.63 368.898 617.316 367.001 619.166 365.641L629.236 379.857L636.713 361.88L646.322 377.66L663.93 360.749C664.615 360.749 665.286 360.763 665.957 360.792C686.058 361.652 699.243 375.644 708.438 397.263L714.06 410.181L716.876 416.666L669.515 435.755C675.275 452.904 685.007 479.206 690.496 488.097C694.601 493.189 699.357 497.767 704.78 501.072L704.785 501.076Z" fill="#EE3819" stroke="#1D1D1B" stroke-width="1.5" stroke-miterlimit="10"/>
<path d="M669.519 435.76C667.427 429.531 665.852 424.511 665.201 421.967" stroke="#1D1D1B" stroke-width="1.5" stroke-miterlimit="10"/>
<path d="M835.971 359.218C831.205 363.155 825.991 366.459 820.478 369.06C828.26 368.028 837.488 368.099 839.172 373.443C840.047 376.253 838.829 379.391 836.803 381.535C834.777 383.68 832.061 385.011 829.388 386.242C815.86 392.447 797.214 397.372 782.654 400.467C782.654 400.467 772.461 448.92 768.385 460.602C764.308 472.279 759.347 506.416 723.107 506.416C720.966 506.416 718.897 506.216 716.89 505.836C712.538 505.008 708.509 503.344 704.794 501.076C699.367 497.772 694.61 493.198 690.51 488.102C685.021 479.211 675.289 452.904 669.529 435.76L716.89 416.671C721.062 426.256 724.044 432.883 726.042 437.248L739.294 375.288C739.294 375.288 735.997 359.299 742.109 344.707C742.109 344.707 746.885 328.466 754.362 329.365C761.835 330.268 765.911 336.61 760.703 356.988C760.703 356.988 761.821 357.383 763.286 358.319C770.896 354.364 778.492 350.341 786.265 346.742C796.486 342.002 800.53 329.721 811.731 326.108C814.143 325.328 816.892 324.967 819.118 326.179C820.902 327.154 822.062 329.046 822.472 331.038C824.184 339.325 812.421 351.364 804.106 357.863C802.884 358.685 801.723 359.532 800.648 360.383C801.681 359.693 802.855 358.842 804.106 357.863C811.822 352.647 822.101 348.092 830.334 346.043C832.17 345.582 834.063 345.202 835.933 345.482C837.797 345.753 839.657 346.804 840.532 348.582C841.46 350.46 841.112 352.823 840.114 354.663C839.115 356.503 837.559 357.91 835.98 359.213L835.971 359.218Z" fill="#C4708A"/>
<path d="M804.106 357.863C812.421 351.364 824.184 339.325 822.472 331.038C822.062 329.046 820.902 327.154 819.118 326.179C816.892 324.967 814.143 325.328 811.731 326.108C800.53 329.721 796.486 342.002 786.265 346.742C778.492 350.341 770.896 354.364 763.286 358.319C761.821 357.383 760.703 356.988 760.703 356.988C765.911 336.61 761.835 330.268 754.362 329.365C746.885 328.466 742.109 344.707 742.109 344.707C735.997 359.299 739.294 375.288 739.294 375.288L726.042 437.248C724.044 432.883 721.062 426.256 716.89 416.671L669.529 435.76C675.289 452.904 685.021 479.211 690.51 488.102C694.61 493.198 699.367 497.772 704.794 501.076C708.509 503.344 712.538 505.008 716.89 505.836C718.897 506.216 720.966 506.416 723.107 506.416C759.347 506.416 764.308 472.279 768.385 460.602C772.461 448.92 782.654 400.467 782.654 400.467C797.214 397.372 815.86 392.447 829.388 386.242C832.061 385.011 834.777 383.68 836.803 381.535C838.829 379.391 840.047 376.253 839.172 373.443C837.488 368.099 828.26 368.028 820.478 369.06C825.991 366.459 831.205 363.155 835.971 359.218L835.98 359.213C837.559 357.91 839.115 356.503 840.114 354.663C841.112 352.823 841.46 350.46 840.532 348.582C839.657 346.804 837.797 345.753 835.933 345.482C834.063 345.202 832.17 345.582 830.334 346.043C822.101 348.092 811.822 352.647 804.106 357.863ZM804.106 357.863C802.884 358.685 801.723 359.532 800.648 360.383C801.681 359.693 802.855 358.842 804.106 357.863Z" stroke="#1D1D1B" stroke-width="1.5" stroke-miterlimit="10"/>
<path d="M807.094 322.062C807.094 325.875 807.075 330.258 803.888 332.907C804.435 333.525 804.658 334.376 804.658 335.203C804.658 337.804 802.998 340.761 801.776 342.991C800.763 344.836 799.592 346.523 798.313 348.168C797.157 349.652 796.22 350.997 794.47 351.867C793.904 352.148 793.209 352.357 792.667 352.039C792.458 355.291 789.865 356.836 787.373 358.381C784.695 360.04 781.793 361.357 778.754 362.199C777.023 362.679 775.025 362.731 773.565 361.685C772.723 363.754 770.782 364.134 768.808 364.248C768.052 364.296 767.291 364.315 766.525 364.315C759.105 364.315 749.04 362.494 744.388 356.042C744.002 355.505 743.665 354.81 743.926 354.202C738.956 354.069 735.365 349.495 732.901 345.701C731.122 342.962 728.948 339.515 728.553 336.211C728.444 335.303 728.582 334.333 729.114 333.587C725.728 331.1 725.966 325.827 725.966 322.062C725.966 316.889 726.432 311.621 730.356 307.808C732.506 305.721 735.583 304.48 738.547 304.936C742.024 305.473 744.031 308.464 745.372 311.445C745.872 312.562 750.162 321.491 749.111 321.924C752.85 320.379 758.172 322.033 760.698 325.048L761.526 326.032L761.735 325.818C763.462 324.073 765.864 323.079 768.285 322.794C769.55 322.642 774.321 322.456 774.687 324.306C773.674 319.176 779.615 316.18 783.896 316.684C782.954 316.575 783.292 313.228 783.358 312.695C783.572 310.951 784.096 309.415 784.704 307.798C785.313 306.182 785.594 304.532 786.536 303.063C788.115 300.595 790.641 298.637 793.537 298.19C804.886 296.45 807.098 314.516 807.098 322.057L807.094 322.062Z" fill="#AD672C" stroke="#1D1D1B" stroke-width="1.5" stroke-miterlimit="10"/>
<path d="M766.901 336.701L770.392 355.181" stroke="#1D1D1B" stroke-width="1.5" stroke-miterlimit="10"/>
<path d="M739.284 375.288C739.284 375.288 735.992 359.294 742.109 344.707C742.109 344.707 746.885 328.456 754.362 329.365C761.835 330.268 765.911 336.61 760.703 356.983C760.703 356.983 761.821 357.378 763.286 358.314C766.772 360.52 772.247 365.741 769.54 375.773" fill="#C4708A"/>
<path d="M739.284 375.288C739.284 375.288 735.992 359.294 742.109 344.707C742.109 344.707 746.885 328.456 754.362 329.365C761.835 330.268 765.911 336.61 760.703 356.983C760.703 356.983 761.821 357.378 763.286 358.314C766.772 360.52 772.247 365.741 769.54 375.773" stroke="#1D1D1B" stroke-width="1.5" stroke-miterlimit="10"/>
<path d="M669.519 498.571C663.926 498.571 658.736 496.251 654.902 492.033C651.302 488.073 649.323 482.857 649.323 477.342C649.323 471.827 651.307 466.611 654.902 462.651C658.736 458.434 663.926 456.114 669.519 456.114C675.113 456.114 680.303 458.434 684.136 462.651C687.737 466.611 689.716 471.827 689.716 477.342C689.716 482.857 687.732 488.073 684.136 492.033C680.303 496.251 675.113 498.571 669.519 498.571Z" fill="#EFC316" stroke="#1D1D1B" stroke-width="1.5" stroke-linecap="round" stroke-linejoin="round"/>
<path d="M669.519 494.159C665.186 494.159 661.157 492.352 658.17 489.067C655.312 485.919 653.737 481.754 653.737 477.342C653.737 472.925 655.312 468.765 658.17 465.618C661.157 462.332 665.186 460.526 669.519 460.526C673.853 460.526 677.882 462.332 680.869 465.618C683.727 468.765 685.302 472.925 685.302 477.342C685.302 481.759 683.727 485.919 680.869 489.067C677.882 492.352 673.853 494.159 669.519 494.159Z" fill="#EE3819" stroke="#1D1D1B" stroke-width="1.5" stroke-miterlimit="10"/>
<path d="M673.596 450.827H741.424C743.674 450.827 745.501 452.652 745.501 454.901V501.295C745.501 509.406 738.913 515.986 730.803 515.986H684.222C676.107 515.986 669.524 509.402 669.524 501.295V454.901C669.524 452.652 671.351 450.827 673.601 450.827H673.596Z" fill="#EFC316" stroke="#1D1D1B" stroke-width="1.5" stroke-linecap="round" stroke-linejoin="round"/>
<path d="M606.823 434.248V434.254" stroke="#1D1D1B" stroke-width="1.5" stroke-miterlimit="10"/>
<path d="M655.354 481.483C654.684 483.57 653.495 485.472 651.811 486.889C653.152 488.848 654.26 491.063 654.356 493.426C654.46 495.789 653.38 498.323 651.264 499.403C652.757 501.423 652.914 504.233 652.03 506.587C651.145 508.935 649.328 510.851 647.254 512.259C643.844 514.555 639.781 515.582 635.658 515.986C634.468 516.105 633.27 516.172 632.09 516.2C627.567 516.314 587.783 516.757 572.581 516.172C569.389 516.048 566.664 515.877 564.694 515.658C552.394 514.265 545.302 502.246 545.302 492.133C545.302 478.773 550.677 469.326 553.098 464.329C553.098 464.329 561.964 445.159 570.383 427.002C583.126 431.747 600.863 435.883 600.863 435.883L597.215 464.942L611.799 465.271L619.157 465.389C619.157 465.389 634.031 458.638 649.613 461.381C649.613 461.381 666.528 462.442 667.298 469.925C667.864 475.421 665.162 479.786 655.359 481.488L655.354 481.483Z" fill="#C4708A" stroke="#1D1D1B" stroke-width="1.5" stroke-miterlimit="10"/>
<path d="M570.064 464.329L597.215 464.943L598.68 453.251L591.464 464.634" fill="#1D1D1B"/>
<path d="M570.064 464.329L597.215 464.943L598.68 453.251L591.464 464.634" stroke="#1D1D1B" stroke-width="1.5" stroke-miterlimit="10"/>
<path d="M652.657 471.104C652.657 471.104 657.067 475.464 655.354 481.483L652.657 471.104Z" fill="#C4708A"/>
<path d="M652.657 471.104C652.657 471.104 657.067 475.464 655.354 481.483" stroke="#1D1D1B" stroke-width="1.5" stroke-miterlimit="10"/>
<path d="M726.161 437.738L723.159 451.321" stroke="#1D1D1B" stroke-width="1.5" stroke-miterlimit="10"/>
<path d="M639.905 310.832C641.675 309.7 644.015 309.895 645.97 310.665C649.632 312.106 652.472 315.534 653.105 319.418C653.737 323.303 652.082 327.501 648.909 329.831C646.674 331.471 643.373 332.089 641.175 330.392L639.905 310.837V310.832Z" fill="#C4708A" stroke="#1D1D1B" stroke-width="1.5" stroke-miterlimit="10"/>
<path d="M621.673 362.931C634.069 361.6 646.464 360.278 658.865 358.947C657.143 358.115 655.526 357.093 654.032 355.909C643.805 356.398 633.593 356.883 623.371 357.368C623.357 357.682 623.328 357.996 623.3 358.314C623.119 360.093 622.539 361.624 621.673 362.931Z" fill="#8DC2A6" stroke="#1D1D1B" stroke-width="1.5" stroke-miterlimit="10"/>
<path d="M602.366 324.81C607.266 332.526 615.285 337.709 620.094 345.482C622.368 349.153 623.595 353.089 623.371 357.368C633.593 356.883 643.805 356.398 654.032 355.909C649.485 352.319 646.074 347.237 644.438 341.498C642.45 334.514 643.201 327.059 642.179 319.875C641.17 312.862 638.431 306.101 634.264 300.363C633.936 299.911 633.593 299.469 633.222 299.031C633.222 299.031 620.508 298.589 608.483 290.188H608.478C608.478 290.188 608.478 290.188 608.474 290.193C608.402 290.449 605.981 298.389 597.324 304.855C596.696 311.683 598.899 319.357 602.366 324.815V324.81Z" fill="#C4708A" stroke="#1D1D1B" stroke-width="1.5" stroke-miterlimit="10"/>
<path d="M624.946 305.63C624.789 312.805 627.319 320.008 631.938 325.509" stroke="#1D1D1B" stroke-width="1.5" stroke-miterlimit="10"/>
<path d="M627.681 317.992C619.951 322.533 611.261 322.048 603.784 316.575" stroke="#1D1D1B" stroke-width="1.5" stroke-miterlimit="10"/>
<path d="M617.526 312.049C618.419 312.049 619.143 310.612 619.143 308.84C619.143 307.067 618.419 305.63 617.526 305.63C616.632 305.63 615.908 307.067 615.908 308.84C615.908 310.612 616.632 312.049 617.526 312.049Z" fill="#1D1D1B" stroke="#1D1D1B" stroke-width="1.5" stroke-miterlimit="10"/>
<path d="M607.232 312.049C608.125 312.049 608.85 310.612 608.85 308.84C608.85 307.067 608.125 305.63 607.232 305.63C606.339 305.63 605.615 307.067 605.615 308.84C605.615 310.612 606.339 312.049 607.232 312.049Z" fill="#1D1D1B" stroke="#1D1D1B" stroke-width="1.5" stroke-miterlimit="10"/>
<path d="M663.935 360.753L646.326 377.665L636.718 361.885L629.241 379.862L619.171 365.646C620.142 364.866 620.993 363.958 621.668 362.936C634.064 361.605 646.46 360.278 658.86 358.947C660.468 359.727 662.161 360.34 663.93 360.758L663.935 360.753Z" fill="#0AA2B5" stroke="#1D1D1B" stroke-width="1.5" stroke-miterlimit="10"/>
<path d="M608.483 290.183C620.508 298.589 633.222 299.026 633.222 299.026C627.391 292.028 617.364 287.454 608.483 290.183Z" fill="#1D1D1B" stroke="#1D1D1B" stroke-width="1.5" stroke-miterlimit="10"/>
<path d="M597.32 304.846C605.977 298.385 608.398 290.445 608.469 290.183C608.184 290.264 607.908 290.359 607.627 290.464C600.925 292.898 597.9 298.508 597.315 304.846H597.32Z" fill="#1D1D1B" stroke="#1D1D1B" stroke-width="1.5" stroke-miterlimit="10"/>
<path d="M608.483 290.183H608.478C608.478 290.183 608.478 290.183 608.474 290.188" stroke="#1D1D1B" stroke-width="1.5" stroke-miterlimit="10"/>
<path d="M747.655 324.9L735.645 333.529" stroke="#1D1D1B" stroke-width="1.5" stroke-miterlimit="10"/>
<path d="M777.118 328.742C777.688 329.526 789.418 344.964 789.418 344.964L777.118 328.742Z" fill="#0AA2B5"/>
<path d="M777.118 328.742C777.688 329.526 789.418 344.964 789.418 344.964" stroke="#1D1D1B" stroke-width="1.5" stroke-miterlimit="10"/>
<path d="M600.863 435.883L601.862 426.959" stroke="#1D1D1B" stroke-width="1.5" stroke-miterlimit="10"/>
<path d="M788.591 317.921L800.891 326.507" stroke="#1D1D1B" stroke-width="1.5" stroke-miterlimit="10"/>
<path d="M820.478 369.06L807.246 372.811" stroke="#1D1D1B" stroke-width="1.5" stroke-miterlimit="10"/>
<path d="M306.575 693.208H91.64V922.744H306.575V693.208Z" stroke="#1D1D1B" stroke-width="1.5" stroke-miterlimit="10"/>
<path d="M187.585 765.02V773.811" stroke="#1D1D1B" stroke-width="1.5" stroke-miterlimit="10"/>
<path d="M200.66 759.276L210.354 760.532" stroke="#1D1D1B" stroke-width="1.5" stroke-miterlimit="10"/>
<path d="M223.459 758.021C223.459 758.021 222.921 764.521 220.048 768.267" stroke="#1D1D1B" stroke-width="1.5" stroke-miterlimit="10"/>
<path d="M157.932 751.56C157.932 751.56 163.24 755.696 166.009 763.142" stroke="#1D1D1B" stroke-width="1.5" stroke-miterlimit="10"/>
<path d="M149.855 752.458L141.237 753.775" stroke="#1D1D1B" stroke-width="1.5" stroke-miterlimit="10"/>
<path d="M213.589 747.252L221.756 745.279" stroke="#1D1D1B" stroke-width="1.5" stroke-miterlimit="10"/>
<path d="M323.585 693.28V516.314H307.579V693.28H323.585Z" fill="#518E2E" stroke="#1D1D1B" stroke-width="1.5" stroke-miterlimit="10"/>
<path d="M739.841 194.162C761.844 194.162 779.682 177.784 779.682 157.581C779.682 137.378 761.844 121 739.841 121C717.837 121 700 137.378 700 157.581C700 177.784 717.837 194.162 739.841 194.162Z" fill="#FCE6CE" stroke="#1D1D1B" stroke-width="1.5" stroke-miterlimit="10"/>
<path d="M1009 372.281L1036.91 339L1037.67 364.384L1009 372.281Z" fill="#EFC316" stroke="#1D1D1B" stroke-width="1.5" stroke-linecap="round" stroke-linejoin="round"/>
<path d="M230.756 448.018C228.468 465.186 170.205 483.353 149.59 463.902C126.62 442.222 144.586 373.473 184.755 355.32C203.648 346.781 229.747 349.073 231.916 356.685C236.202 371.747 150.669 420.423 125.26 399.328C109.363 386.124 125.055 352.292 112.793 346.753C100.393 341.152 66.5543 367.715 68.0479 396.133C68.9374 413.068 82.251 428.315 97.101 436.089C142.75 459.994 199.543 411.532 225.214 436.545C226.651 437.943 231.474 442.645 230.756 448.018Z" stroke="#EE3819" stroke-width="1.5" stroke-miterlimit="10"/>
<path d="M437.077 227.58C474.123 227.58 504.154 209.765 504.154 187.79C504.154 165.815 474.123 148 437.077 148C400.031 148 370 165.815 370 187.79C370 209.765 400.031 227.58 437.077 227.58Z" fill="#FCE6CE" stroke="#1D1D1B" stroke-width="1.5" stroke-miterlimit="10"/>
<path d="M449 225.5L465.173 237.775V222" fill="#FCE6CE"/>
<path d="M449 225.5L465.173 237.775V222" stroke="#1D1D1B" stroke-width="1.5" stroke-miterlimit="10"/>
<path d="M472.837 176.422C466.877 176.422 466.877 180.249 460.917 180.249C454.957 180.249 454.957 176.422 448.997 176.422C443.037 176.422 443.037 180.249 437.077 180.249C431.117 180.249 431.117 176.422 425.157 176.422C419.197 176.422 419.197 180.249 413.237 180.249C407.277 180.249 407.277 176.422 401.317 176.422" stroke="#518E2E" stroke-width="1.5" stroke-miterlimit="10"/>
<path d="M472.837 191.893C466.877 191.893 466.877 195.72 460.917 195.72C454.957 195.72 454.957 191.893 448.997 191.893C443.037 191.893 443.037 195.72 437.077 195.72C431.117 195.72 431.117 191.893 425.157 191.893C419.197 191.893 419.197 195.72 413.237 195.72C407.277 195.72 407.277 191.893 401.317 191.893" stroke="#518E2E" stroke-width="1.5" stroke-miterlimit="10"/>
<path d="M911.333 407.597L930.345 394.465L907 369L911.333 407.597Z" fill="#EE3819" stroke="#1D1D1B" stroke-width="1.5" stroke-miterlimit="10"/>
<path d="M554.263 693.275V516.31H538.257V693.275H554.263Z" fill="#518E2E" stroke="#1D1D1B" stroke-width="1.5" stroke-miterlimit="10"/>
<path d="M484.527 516.314H430.792V545.797H484.527V516.314Z" fill="#FCE6CE" stroke="#1D1D1B" stroke-width="1.5" stroke-miterlimit="10"/>
<path d="M538.262 516.314H484.527V545.797H538.262V516.314Z" fill="#EE3819" stroke="#1D1D1B" stroke-width="1.5" stroke-miterlimit="10"/>
<path d="M484.522 575.279H538.257V545.797H484.522V575.279Z" fill="#FCE6CE" stroke="#1D1D1B" stroke-width="1.5" stroke-miterlimit="10"/>
<path d="M430.788 575.279H484.522V545.797H430.788V575.279Z" fill="#EE3819" stroke="#1D1D1B" stroke-width="1.5" stroke-miterlimit="10"/>
<path d="M484.527 575.279H430.792V604.761H484.527V575.279Z" fill="#FCE6CE" stroke="#1D1D1B" stroke-width="1.5" stroke-miterlimit="10"/>
<path d="M538.262 575.279H484.527V604.761H538.262V575.279Z" fill="#EE3819" stroke="#1D1D1B" stroke-width="1.5" stroke-miterlimit="10"/>
<path d="M484.522 634.244H538.257V604.762H484.522V634.244Z" fill="#FCE6CE" stroke="#1D1D1B" stroke-width="1.5" stroke-miterlimit="10"/>
<path d="M430.788 634.244H484.522V604.762H430.788V634.244Z" fill="#EE3819" stroke="#1D1D1B" stroke-width="1.5" stroke-miterlimit="10"/>
<path d="M484.527 634.244H430.792V663.726H484.527V634.244Z" fill="#FCE6CE" stroke="#1D1D1B" stroke-width="1.5" stroke-miterlimit="10"/>
<path d="M538.262 634.244H484.527V663.726H538.262V634.244Z" fill="#EE3819" stroke="#1D1D1B" stroke-width="1.5" stroke-miterlimit="10"/>
<path d="M484.522 693.213H538.257V663.731H484.522V693.213Z" fill="#FCE6CE" stroke="#1D1D1B" stroke-width="1.5" stroke-miterlimit="10"/>
<path d="M430.788 693.213H484.522V663.731H430.788V693.213Z" fill="#EE3819" stroke="#1D1D1B" stroke-width="1.5" stroke-miterlimit="10"/>
<path d="M377.057 516.314H323.323V545.797H377.057V516.314Z" fill="#FCE6CE" stroke="#1D1D1B" stroke-width="1.5" stroke-miterlimit="10"/>
<path d="M430.792 516.314H377.057V545.797H430.792V516.314Z" fill="#EE3819" stroke="#1D1D1B" stroke-width="1.5" stroke-miterlimit="10"/>
<path d="M377.057 575.279H430.792V545.797H377.057V575.279Z" fill="#FCE6CE" stroke="#1D1D1B" stroke-width="1.5" stroke-miterlimit="10"/>
<path d="M323.323 575.279H377.057V545.797H323.323V575.279Z" fill="#EE3819" stroke="#1D1D1B" stroke-width="1.5" stroke-miterlimit="10"/>
<path d="M377.057 575.279H323.323V604.761H377.057V575.279Z" fill="#FCE6CE" stroke="#1D1D1B" stroke-width="1.5" stroke-miterlimit="10"/>
<path d="M430.792 575.279H377.057V604.761H430.792V575.279Z" fill="#EE3819" stroke="#1D1D1B" stroke-width="1.5" stroke-miterlimit="10"/>
<path d="M377.057 634.244H430.792V604.762H377.057V634.244Z" fill="#FCE6CE" stroke="#1D1D1B" stroke-width="1.5" stroke-miterlimit="10"/>
<path d="M323.323 634.244H377.057V604.762H323.323V634.244Z" fill="#EE3819" stroke="#1D1D1B" stroke-width="1.5" stroke-miterlimit="10"/>
<path d="M377.057 634.244H323.323V663.726H377.057V634.244Z" fill="#FCE6CE" stroke="#1D1D1B" stroke-width="1.5" stroke-miterlimit="10"/>
<path d="M430.792 634.244H377.057V663.726H430.792V634.244Z" fill="#EE3819" stroke="#1D1D1B" stroke-width="1.5" stroke-miterlimit="10"/>
<path d="M377.057 693.213H430.792V663.731H377.057V693.213Z" fill="#FCE6CE" stroke="#1D1D1B" stroke-width="1.5" stroke-miterlimit="10"/>
<path d="M323.323 693.213H377.057V663.731H323.323V693.213Z" fill="#EE3819" stroke="#1D1D1B" stroke-width="1.5" stroke-miterlimit="10"/>
<path d="M785.946 693.28V516.314H769.94V693.28H785.946Z" fill="#518E2E" stroke="#1D1D1B" stroke-width="1.5" stroke-miterlimit="10"/>
<path d="M716.205 516.314H662.47V545.797H716.205V516.314Z" fill="#FCE6CE" stroke="#1D1D1B" stroke-width="1.5" stroke-miterlimit="10"/>
<path d="M769.94 516.314H716.205V545.797H769.94V516.314Z" fill="#EE3819" stroke="#1D1D1B" stroke-width="1.5" stroke-miterlimit="10"/>
<path d="M716.205 575.279H769.94V545.797H716.205V575.279Z" fill="#FCE6CE" stroke="#1D1D1B" stroke-width="1.5" stroke-miterlimit="10"/>
<path d="M662.475 575.279H716.21V545.797H662.475V575.279Z" fill="#EE3819" stroke="#1D1D1B" stroke-width="1.5" stroke-miterlimit="10"/>
<path d="M716.205 575.279H662.47V604.761H716.205V575.279Z" fill="#FCE6CE" stroke="#1D1D1B" stroke-width="1.5" stroke-miterlimit="10"/>
<path d="M769.94 575.279H716.205V604.761H769.94V575.279Z" fill="#EE3819" stroke="#1D1D1B" stroke-width="1.5" stroke-miterlimit="10"/>
<path d="M716.205 634.244H769.94V604.762H716.205V634.244Z" fill="#FCE6CE" stroke="#1D1D1B" stroke-width="1.5" stroke-miterlimit="10"/>
<path d="M662.475 634.244H716.21V604.762H662.475V634.244Z" fill="#EE3819" stroke="#1D1D1B" stroke-width="1.5" stroke-miterlimit="10"/>
<path d="M716.205 634.244H662.47V663.726H716.205V634.244Z" fill="#FCE6CE" stroke="#1D1D1B" stroke-width="1.5" stroke-miterlimit="10"/>
<path d="M769.94 634.244H716.205V663.726H769.94V634.244Z" fill="#EE3819" stroke="#1D1D1B" stroke-width="1.5" stroke-miterlimit="10"/>
<path d="M716.205 693.213H769.94V663.731H716.205V693.213Z" fill="#FCE6CE" stroke="#1D1D1B" stroke-width="1.5" stroke-miterlimit="10"/>
<path d="M662.475 693.213H716.21V663.731H662.475V693.213Z" fill="#EE3819" stroke="#1D1D1B" stroke-width="1.5" stroke-miterlimit="10"/>
<path d="M608.74 516.314H555.005V545.797H608.74V516.314Z" fill="#FCE6CE" stroke="#1D1D1B" stroke-width="1.5" stroke-miterlimit="10"/>
<path d="M662.47 516.314H608.735V545.797H662.47V516.314Z" fill="#EE3819" stroke="#1D1D1B" stroke-width="1.5" stroke-miterlimit="10"/>
<path d="M608.74 575.279H662.475V545.797H608.74V575.279Z" fill="#FCE6CE" stroke="#1D1D1B" stroke-width="1.5" stroke-miterlimit="10"/>
<path d="M555 575.279H608.735V545.797H555V575.279Z" fill="#EE3819" stroke="#1D1D1B" stroke-width="1.5" stroke-miterlimit="10"/>
<path d="M608.74 575.279H555.005V604.761H608.74V575.279Z" fill="#FCE6CE" stroke="#1D1D1B" stroke-width="1.5" stroke-miterlimit="10"/>
<path d="M662.47 575.279H608.735V604.761H662.47V575.279Z" fill="#EE3819" stroke="#1D1D1B" stroke-width="1.5" stroke-miterlimit="10"/>
<path d="M608.74 634.244H662.475V604.762H608.74V634.244Z" fill="#FCE6CE" stroke="#1D1D1B" stroke-width="1.5" stroke-miterlimit="10"/>
<path d="M555 634.244H608.735V604.762H555V634.244Z" fill="#EE3819" stroke="#1D1D1B" stroke-width="1.5" stroke-miterlimit="10"/>
<path d="M608.74 634.244H555.005V663.726H608.74V634.244Z" fill="#FCE6CE" stroke="#1D1D1B" stroke-width="1.5" stroke-miterlimit="10"/>
<path d="M662.47 634.244H608.735V663.726H662.47V634.244Z" fill="#EE3819" stroke="#1D1D1B" stroke-width="1.5" stroke-miterlimit="10"/>
<path d="M608.74 693.213H662.475V663.731H608.74V693.213Z" fill="#FCE6CE" stroke="#1D1D1B" stroke-width="1.5" stroke-miterlimit="10"/>
<path d="M555 693.213H608.735V663.731H555V693.213Z" fill="#EE3819" stroke="#1D1D1B" stroke-width="1.5" stroke-miterlimit="10"/>
<path d="M785.946 893.585H306.556V922.744H785.946V893.585Z" fill="#EE3819" stroke="#1D1D1B" stroke-width="1.5" stroke-miterlimit="10"/>
<path d="M999.62 893.585H785.946V922.744H999.62V893.585Z" fill="#0AA2B5" stroke="#1D1D1B" stroke-width="1.5" stroke-miterlimit="10"/>
<path d="M288.252 855.069V862.767C286.435 889.216 246.904 910.349 198.406 910.349C149.908 910.349 108.497 888.193 108.497 860.86V855.069H288.252Z" fill="#EFC316" stroke="#1D1D1B" stroke-width="1.5" stroke-miterlimit="10"/>
<path d="M198.377 904.558C248.032 904.558 288.286 882.401 288.286 855.069C288.286 827.737 248.032 805.58 198.377 805.58C148.722 805.58 108.469 827.737 108.469 855.069C108.469 882.401 148.722 904.558 198.377 904.558Z" fill="#EFC316" stroke="#1D1D1B" stroke-width="1.5" stroke-miterlimit="10"/>
<path d="M198.377 890.119C240.057 890.119 273.845 874.427 273.845 855.069C273.845 835.712 240.057 820.019 198.377 820.019C156.698 820.019 122.91 835.712 122.91 855.069C122.91 874.427 156.698 890.119 198.377 890.119Z" fill="#EFC316" stroke="#1D1D1B" stroke-width="1.5" stroke-miterlimit="10"/>
<path d="M288.252 744.276V751.974C286.435 778.423 246.904 799.556 198.406 799.556C149.908 799.556 108.497 777.4 108.497 750.067V744.276H288.252Z" fill="#EFC316" stroke="#1D1D1B" stroke-width="1.5" stroke-miterlimit="10"/>
<path d="M198.377 793.765C248.032 793.765 288.286 771.608 288.286 744.276C288.286 716.944 248.032 694.787 198.377 694.787C148.722 694.787 108.469 716.944 108.469 744.276C108.469 771.608 148.722 793.765 198.377 793.765Z" fill="#EFC316" stroke="#1D1D1B" stroke-width="1.5" stroke-miterlimit="10"/>
<path d="M198.377 779.326C240.057 779.326 273.845 763.634 273.845 744.276C273.845 724.919 240.057 709.226 198.377 709.226C156.698 709.226 122.91 724.919 122.91 744.276C122.91 763.634 156.698 779.326 198.377 779.326Z" fill="#EFC316" stroke="#1D1D1B" stroke-width="1.5" stroke-miterlimit="10"/>
<path d="M198.449 768.319C230.876 768.319 257.164 755.386 257.164 739.431C257.164 723.477 230.876 710.543 198.449 710.543C166.021 710.543 139.734 723.477 139.734 739.431C139.734 755.386 166.021 768.319 198.449 768.319Z" fill="#AD672C" stroke="#1D1D1B" stroke-width="1.5" stroke-miterlimit="10"/>
<path d="M256.854 719.063C256.469 720.58 255.518 722.025 254.262 723.095C254.871 725.03 255.18 727.231 254.219 729.024C252.94 731.406 249.962 732.195 247.313 732.746C247.379 735.894 246.613 738.418 243.912 740.306C241.491 741.999 238.194 742.674 235.293 742.978C233.005 743.216 230.598 742.935 228.619 741.761C225.58 747.813 217.151 748.931 212.3 744.19C211.363 746.016 209.47 747.205 207.491 747.751C203.058 748.983 197.688 748.089 193.174 747.656C192.08 747.552 190.962 747.39 189.991 746.877C189.102 746.411 188.36 745.664 187.908 744.766C187.532 746.202 185.939 746.934 184.483 747.233C179.265 748.298 172.283 746.853 168.049 743.639C167.502 743.22 166.917 742.469 167.35 741.937C166.713 742.593 165.742 742.793 164.834 742.892C160.039 743.42 154.498 742.051 150.95 738.623C149.708 737.425 149.033 735.456 149.832 733.93C148.005 734.43 146.007 733.973 144.381 733.008C141.988 731.586 139.938 729.247 139.852 726.352C139.795 724.426 140.694 722.358 142.126 721.069C139.643 719.966 139.339 717.603 139.729 715.754C140.247 713.282 142.383 711.004 143.71 710.267C143.006 709.497 142.83 708.351 143.049 707.334C143.268 706.316 143.834 705.408 144.476 704.586C148.186 699.822 154.741 696.974 160.353 695.072C172.478 690.955 185.744 690.275 198.444 690.275C212.29 690.275 227.145 691.15 240.03 696.693C246.223 699.356 256.122 705.047 254.98 712.768C254.952 712.963 254.918 713.172 254.985 713.358C255.056 713.553 255.218 713.695 255.37 713.838C256.964 715.336 257.311 717.247 256.854 719.054V719.063Z" fill="#EFC316" stroke="#1D1D1B" stroke-width="1.5" stroke-miterlimit="10"/>
<path d="M256.854 707.139C256.469 708.656 255.518 710.101 254.262 711.171C254.871 713.106 255.18 715.307 254.219 717.1C252.94 719.482 249.962 720.271 247.313 720.822C247.379 723.97 246.613 726.494 243.912 728.382C241.491 730.074 238.194 730.75 235.293 731.054C233.005 731.292 230.598 731.011 228.619 729.837C225.58 735.889 217.151 737.007 212.3 732.266C211.363 734.092 209.47 735.281 207.491 735.827C203.058 737.059 197.688 736.165 193.174 735.732C192.08 735.628 190.962 735.466 189.991 734.953C189.102 734.487 188.36 733.74 187.908 732.842C187.532 734.277 185.939 735.01 184.483 735.309C179.265 736.374 172.283 734.929 168.049 731.715C167.502 731.296 166.917 730.545 167.35 730.013C166.713 730.669 165.742 730.868 164.834 730.968C160.039 731.496 154.498 730.127 150.95 726.699C149.708 725.501 149.033 723.532 149.832 722.006C148.005 722.505 146.007 722.049 144.381 721.084C141.988 719.662 139.938 717.323 139.852 714.428C139.795 712.502 140.694 710.434 142.126 709.145C139.643 708.042 139.339 705.679 139.729 703.83C140.247 701.358 142.383 699.08 143.71 698.343C143.006 697.573 142.83 696.427 143.049 695.41C143.268 694.392 143.834 693.484 144.476 692.662C148.186 687.898 154.741 685.05 160.353 683.148C172.478 679.031 185.744 678.351 198.444 678.351C212.29 678.351 227.145 679.226 240.03 684.769C246.223 687.432 256.122 693.123 254.98 700.844C254.952 701.039 254.918 701.248 254.985 701.434C255.056 701.629 255.218 701.771 255.37 701.914C256.964 703.412 257.311 705.323 256.854 707.13V707.139Z" fill="#FCE6CE" stroke="#1D1D1B" stroke-width="1.5" stroke-miterlimit="10"/>
<path d="M256.854 693.541C256.469 695.058 255.518 696.503 254.262 697.573C254.871 699.508 255.18 701.71 254.219 703.502C252.94 705.884 249.962 706.673 247.313 707.225C247.379 710.372 246.613 712.897 243.912 714.784C241.491 716.477 238.194 717.152 235.293 717.456C233.005 717.694 230.598 717.413 228.619 716.239C225.58 722.292 217.151 723.409 212.3 718.669C211.363 720.494 209.47 721.683 207.491 722.23C203.058 723.461 197.688 722.567 193.174 722.135C192.08 722.03 190.962 721.868 189.991 721.355C189.102 720.889 188.36 720.143 187.908 719.244C187.532 720.68 185.939 721.412 184.483 721.711C179.265 722.776 172.283 721.331 168.049 718.117C167.502 717.699 166.917 716.948 167.35 716.415C166.713 717.071 165.742 717.271 164.834 717.371C160.039 717.898 154.498 716.529 150.95 713.101C149.708 711.903 149.033 709.935 149.832 708.409C148.005 708.908 146.007 708.451 144.381 707.486C141.988 706.065 139.938 703.725 139.852 700.83C139.795 698.904 140.694 696.836 142.126 695.548C139.643 694.445 139.339 692.082 139.729 690.232C140.247 687.76 142.383 685.483 143.71 684.746C143.006 683.975 142.83 682.83 143.049 681.812C143.268 680.795 143.834 679.887 144.476 679.064C148.186 674.3 154.741 671.452 160.353 669.55C172.478 665.433 185.744 664.753 198.444 664.753C212.29 664.753 227.145 665.628 240.03 671.172C246.223 673.834 256.122 679.525 254.98 687.246C254.952 687.441 254.918 687.651 254.985 687.836C255.056 688.031 255.218 688.174 255.37 688.316C256.964 689.814 257.311 691.725 256.854 693.532V693.541Z" fill="#EE3819" stroke="#1D1D1B" stroke-width="1.5" stroke-miterlimit="10"/>
<path d="M198.449 708.299C230.876 708.299 257.164 695.365 257.164 679.411C257.164 663.457 230.876 650.523 198.449 650.523C166.021 650.523 139.734 663.457 139.734 679.411C139.734 695.365 166.021 708.299 198.449 708.299Z" fill="#AD672C" stroke="#1D1D1B" stroke-width="1.5" stroke-miterlimit="10"/>
<path d="M182.761 657.626C182.761 657.626 183.489 664.92 195.414 664.92C203.833 664.92 210.497 662.894 210.497 657.626" stroke="#1D1D1B" stroke-width="1.5" stroke-miterlimit="10"/>
<path d="M198.449 879.112C230.876 879.112 257.164 866.179 257.164 850.224C257.164 834.27 230.876 821.336 198.449 821.336C166.021 821.336 139.734 834.27 139.734 850.224C139.734 866.179 166.021 879.112 198.449 879.112Z" fill="#AD672C" stroke="#1D1D1B" stroke-width="1.5" stroke-miterlimit="10"/>
<path d="M256.854 829.856C256.469 831.373 255.518 832.818 254.262 833.888C254.871 835.823 255.18 838.024 254.219 839.817C252.94 842.199 249.962 842.988 247.313 843.54C247.379 846.687 246.613 849.212 243.912 851.099C241.491 852.792 238.194 853.467 235.293 853.771C233.005 854.009 230.598 853.728 228.619 852.554C225.58 858.607 217.151 859.724 212.3 854.984C211.363 856.809 209.47 857.998 207.491 858.545C203.058 859.776 197.688 858.882 193.174 858.45C192.08 858.345 190.962 858.183 189.991 857.67C189.102 857.204 188.36 856.457 187.908 855.559C187.532 856.995 185.939 857.727 184.483 858.026C179.265 859.091 172.283 857.646 168.049 854.432C167.502 854.014 166.917 853.263 167.35 852.73C166.713 853.386 165.742 853.586 164.834 853.686C160.039 854.213 154.498 852.844 150.95 849.416C149.708 848.218 149.033 846.25 149.832 844.723C148.005 845.223 146.007 844.766 144.381 843.801C141.988 842.38 139.938 840.04 139.852 837.145C139.795 835.219 140.694 833.151 142.126 831.863C139.643 830.76 139.339 828.397 139.729 826.547C140.247 824.075 142.383 821.798 143.71 821.061C143.006 820.29 142.83 819.145 143.049 818.127C143.268 817.11 143.834 816.202 144.476 815.379C148.186 810.615 154.741 807.767 160.353 805.865C172.478 801.748 185.744 801.068 198.444 801.068C212.29 801.068 227.145 801.943 240.03 807.487C246.223 810.149 256.122 815.84 254.98 823.561C254.952 823.756 254.918 823.966 254.985 824.151C255.056 824.346 255.218 824.489 255.37 824.631C256.964 826.129 257.311 828.04 256.854 829.847V829.856Z" fill="#C4708A" stroke="#1D1D1B" stroke-width="1.5" stroke-miterlimit="10"/>
<path d="M256.854 817.927C256.469 819.444 255.518 820.889 254.262 821.959C254.871 823.894 255.18 826.096 254.219 827.888C252.94 830.27 249.962 831.059 247.313 831.611C247.379 834.758 246.613 837.283 243.912 839.17C241.491 840.863 238.194 841.538 235.293 841.842C233.005 842.08 230.598 841.799 228.619 840.625C225.58 846.677 217.151 847.795 212.3 843.055C211.363 844.88 209.47 846.069 207.491 846.616C203.058 847.847 197.688 846.953 193.174 846.521C192.08 846.416 190.962 846.254 189.991 845.741C189.102 845.275 188.36 844.529 187.908 843.63C187.532 845.066 185.939 845.798 184.483 846.097C179.265 847.162 172.283 845.717 168.049 842.503C167.502 842.085 166.917 841.333 167.35 840.801C166.713 841.457 165.742 841.657 164.834 841.757C160.039 842.284 154.498 840.915 150.95 837.487C149.708 836.289 149.033 834.321 149.832 832.795C148.005 833.294 146.007 832.837 144.381 831.872C141.988 830.451 139.938 828.111 139.852 825.216C139.795 823.29 140.694 821.222 142.126 819.934C139.643 818.831 139.339 816.468 139.729 814.618C140.247 812.146 142.383 809.869 143.71 809.132C143.006 808.361 142.83 807.216 143.049 806.198C143.268 805.181 143.834 804.273 144.476 803.45C148.186 798.686 154.741 795.838 160.353 793.936C172.478 789.819 185.744 789.139 198.444 789.139C212.29 789.139 227.145 790.014 240.03 795.558C246.223 798.22 256.122 803.911 254.98 811.632C254.952 811.827 254.918 812.037 254.985 812.222C255.056 812.417 255.218 812.56 255.37 812.702C256.964 814.2 257.311 816.111 256.854 817.918V817.927Z" fill="#FCE6CE" stroke="#1D1D1B" stroke-width="1.5" stroke-miterlimit="10"/>
<path d="M256.854 804.334C256.469 805.851 255.518 807.296 254.262 808.366C254.871 810.301 255.18 812.502 254.219 814.295C252.94 816.677 249.962 817.466 247.313 818.018C247.379 821.165 246.613 823.69 243.912 825.577C241.491 827.27 238.194 827.945 235.293 828.249C233.005 828.487 230.598 828.206 228.619 827.032C225.58 833.085 217.151 834.202 212.3 829.462C211.363 831.287 209.47 832.476 207.491 833.023C203.058 834.254 197.688 833.36 193.174 832.928C192.08 832.823 190.962 832.661 189.991 832.148C189.102 831.682 188.36 830.936 187.908 830.037C187.532 831.473 185.939 832.205 184.483 832.504C179.265 833.569 172.283 832.124 168.049 828.91C167.502 828.492 166.917 827.741 167.35 827.208C166.713 827.864 165.742 828.064 164.834 828.164C160.039 828.691 154.498 827.322 150.95 823.894C149.708 822.696 149.033 820.728 149.832 819.202C148.005 819.701 146.007 819.244 144.381 818.279C141.988 816.858 139.938 814.518 139.852 811.623C139.795 809.697 140.694 807.629 142.126 806.341C139.643 805.238 139.339 802.875 139.729 801.025C140.247 798.553 142.383 796.276 143.71 795.539C143.006 794.768 142.83 793.623 143.049 792.605C143.268 791.588 143.834 790.68 144.476 789.857C148.186 785.093 154.741 782.245 160.353 780.343C172.478 776.226 185.744 775.546 198.444 775.546C212.29 775.546 227.145 776.421 240.03 781.965C246.223 784.627 256.122 790.318 254.98 798.039C254.952 798.234 254.918 798.444 254.985 798.629C255.056 798.824 255.218 798.967 255.37 799.109C256.964 800.607 257.311 802.518 256.854 804.325V804.334Z" fill="#518E2E" stroke="#1D1D1B" stroke-width="1.5" stroke-miterlimit="10"/>
<path d="M198.449 819.092C230.876 819.092 257.164 806.159 257.164 790.204C257.164 774.25 230.876 761.316 198.449 761.316C166.021 761.316 139.734 774.25 139.734 790.204C139.734 806.159 166.021 819.092 198.449 819.092Z" fill="#AD672C" stroke="#1D1D1B" stroke-width="1.5" stroke-miterlimit="10"/>
<path d="M182.761 768.419C182.761 768.419 183.489 775.713 195.414 775.713C203.833 775.713 210.497 773.687 210.497 768.419" stroke="#1D1D1B" stroke-width="1.5" stroke-miterlimit="10"/>
<path d="M595.555 562.024H360.671C349.759 562.024 340.912 570.866 340.912 581.774V625.985C340.912 636.893 349.759 645.735 360.671 645.735H595.555C606.467 645.735 615.314 636.893 615.314 625.985V581.774C615.314 570.866 606.467 562.024 595.555 562.024Z" fill="#EFC316" stroke="#1D1D1B" stroke-width="1.5" stroke-miterlimit="10"/>
<path d="M568 541.019H388.226C371.999 541.019 358.845 554.167 358.845 570.387V637.377C358.845 653.597 371.999 666.745 388.226 666.745H568C584.227 666.745 597.381 653.597 597.381 637.377V570.387C597.381 554.167 584.227 541.019 568 541.019Z" fill="#EFC316" stroke="#1D1D1B" stroke-width="1.5" stroke-miterlimit="10"/>
<path d="M428.428 644.861C424.214 642.75 419.381 640.301 418.216 635.318C417.231 635.585 416.166 635.352 415.253 634.895C412.38 633.459 410.025 629.989 408.237 627.402C406.757 625.263 405.54 623.038 404.427 620.713C403.428 618.616 402.458 616.833 402.467 614.423C402.467 613.643 402.624 612.758 403.276 612.335C399.799 610.305 399.523 606.587 399.195 602.979C398.843 599.099 398.995 595.172 399.746 591.349C400.174 589.172 401.221 586.937 403.185 585.905C401.368 583.832 402.02 581.479 402.986 579.235C403.352 578.374 403.751 577.523 404.175 576.677C408.284 568.48 415.866 558.377 425.57 556.813C426.378 556.684 427.33 556.699 427.862 557.322C430.759 551.906 437.799 550.47 443.364 549.852C447.374 549.405 452.387 548.911 456.259 550.299C457.324 550.68 458.319 551.374 458.851 552.372C463.475 550.009 469.168 553.19 473.33 555.272C479.048 558.135 484.613 561.563 486.653 568.01C487.771 571.542 487.443 575.626 485.293 578.645C482.772 582.187 478.358 582.748 474.324 582.582C472.817 582.52 460.573 582.311 460.673 580.913C460.312 585.896 455.536 590.859 450.808 591.982L449.262 592.348L449.381 592.699C450.356 595.576 450.123 598.776 449.1 601.605C448.563 603.088 446.137 608.456 443.887 607.833C450.114 609.554 450.137 617.77 447.212 622.22C447.854 621.24 451.365 623.465 451.921 623.832C453.733 625.034 455.141 626.461 456.587 628.025C458.024 629.575 459.708 630.816 460.806 632.665C462.661 635.78 463.427 639.65 462.314 643.097C457.957 656.595 436.767 649.035 428.433 644.861H428.428Z" fill="#AD672C" stroke="#1D1D1B" stroke-width="1.5" stroke-miterlimit="10"/>
<path d="M434.493 592.381L412.137 586.01" stroke="#1D1D1B" stroke-width="1.5" stroke-miterlimit="10"/>
<path d="M458.185 577.661L455.298 559.618" stroke="#1D1D1B" stroke-width="1.5" stroke-miterlimit="10"/>
<path d="M437.637 608.066C436.453 608.261 412.898 612.668 412.898 612.668L437.637 608.066Z" fill="#0AA2B5"/>
<path d="M437.637 608.066C436.453 608.261 412.898 612.668 412.898 612.668" stroke="#1D1D1B" stroke-width="1.5" stroke-miterlimit="10"/>
<path d="M440.524 580.343L433.299 565.49" stroke="#1D1D1B" stroke-width="1.5" stroke-miterlimit="10"/>
<path d="M439.478 625.98L428.138 632.817" stroke="#1D1D1B" stroke-width="1.5" stroke-miterlimit="10"/>
<path d="M464.925 582.073L480.246 569.978L476.493 582.073L469.739 582.411L464.925 582.073Z" fill="#1D1D1B" stroke="#1D1D1B" stroke-width="1.5" stroke-miterlimit="10"/>
<path d="M468.569 626.023C466.89 621.621 464.978 616.553 467.489 612.093C466.585 611.622 465.953 610.733 465.591 609.782C464.44 606.782 465.054 602.631 465.482 599.522C465.839 596.945 466.443 594.482 467.199 592.02C467.879 589.799 468.369 587.831 470.005 586.062C470.533 585.492 471.247 584.94 472.013 585.069C470.819 581.222 473.13 578.298 475.328 575.417C477.687 572.322 480.456 569.526 483.595 567.211C485.383 565.894 487.662 564.952 489.812 565.518C489.874 562.761 491.943 561.467 494.174 560.464C495.025 560.079 495.895 559.718 496.78 559.38C505.347 556.109 517.766 553.784 525.981 559.181C526.666 559.632 527.355 560.284 527.327 561.101C533.125 559.066 539.285 562.761 543.804 566.06C547.062 568.437 551.091 571.461 553.007 575.098C553.535 576.097 553.802 577.281 553.516 578.374C558.52 579.753 560.57 585.943 562.23 590.294C564.509 596.265 566.297 602.551 563.443 608.679C561.878 612.036 558.877 614.827 555.253 615.602C551 616.51 547.366 613.947 544.503 611.094C543.432 610.029 534.547 601.609 535.57 600.644C531.936 604.072 525.063 604.509 520.815 602.142L519.426 601.367L519.274 601.704C518.047 604.481 515.711 606.687 513.048 608.08C511.649 608.812 506.231 611.128 504.995 609.15C508.424 614.622 502.888 620.698 497.722 622.001C498.859 621.716 499.943 625.724 500.105 626.37C500.628 628.481 500.7 630.483 500.709 632.613C500.719 634.729 501.123 636.778 500.685 638.884C499.948 642.431 497.898 645.807 494.749 647.594C482.415 654.602 471.899 634.719 468.574 626.014L468.569 626.023Z" fill="#AD672C" stroke="#1D1D1B" stroke-width="1.5" stroke-miterlimit="10"/>
<path d="M508.51 591.425L496.333 571.633" stroke="#1D1D1B" stroke-width="1.5" stroke-miterlimit="10"/>
<path d="M535.927 596.574L545.987 581.322" stroke="#1D1D1B" stroke-width="1.5" stroke-miterlimit="10"/>
<path d="M500.224 605.113C499.215 604.457 478.876 591.801 478.876 591.801L500.224 605.113Z" fill="#0AA2B5"/>
<path d="M500.224 605.113C499.215 604.457 478.876 591.801 478.876 591.801" stroke="#1D1D1B" stroke-width="1.5" stroke-miterlimit="10"/>
<path d="M521.091 586.623L525.8 570.791" stroke="#1D1D1B" stroke-width="1.5" stroke-miterlimit="10"/>
<path d="M489.474 619.562L476.493 616.947" stroke="#1D1D1B" stroke-width="1.5" stroke-miterlimit="10"/>
<path d="M344.413 817.095C345.869 843.616 366.612 865.191 393.996 865.191C421.379 865.191 442.826 843.649 443.578 817.095C443.997 802.266 442.108 795.348 442.108 795.348H345.873C345.873 795.348 343.709 804.42 344.404 817.095H344.413Z" fill="#EFC316" stroke="#1D1D1B" stroke-width="1.5" stroke-linecap="round" stroke-linejoin="round"/>
<path d="M393.996 843.445C420.57 843.445 442.113 821.911 442.113 795.348C442.113 768.786 420.57 747.252 393.996 747.252C367.421 747.252 345.878 768.786 345.878 795.348C345.878 821.911 367.421 843.445 393.996 843.445Z" fill="#EFC316" stroke="#1D1D1B" stroke-width="1.5" stroke-linecap="round" stroke-linejoin="round"/>
<path d="M380.306 749.159C399.742 746.81 418.373 759.186 423.344 778.656C427.477 794.864 417.688 811.352 401.473 815.484C389.058 818.65 376.425 811.152 373.257 798.743C370.831 789.239 376.572 779.568 386.081 777.148C393.363 775.294 400.769 779.687 402.624 786.966C404.046 792.539 400.679 798.211 395.104 799.632C390.832 800.721 386.49 798.144 385.4 793.875C384.568 790.608 386.542 787.28 389.81 786.448C392.312 785.811 394.861 787.323 395.499 789.824" stroke="#1D1D1B" stroke-width="1.5" stroke-miterlimit="10"/>
<path d="M643.796 79.133C645.327 79.133 646.569 77.892 646.569 76.3612C646.569 74.8304 645.327 73.5894 643.796 73.5894C642.264 73.5894 641.023 74.8304 641.023 76.3612C641.023 77.892 642.264 79.133 643.796 79.133Z" fill="#1D1D1B" stroke="#1D1D1B" stroke-width="1.5" stroke-miterlimit="10"/>
<path d="M546.253 177.417C547.785 177.417 549.026 176.176 549.026 174.645C549.026 173.115 547.785 171.874 546.253 171.874C544.722 171.874 543.48 173.115 543.48 174.645C543.48 176.176 544.722 177.417 546.253 177.417Z" fill="#1D1D1B" stroke="#1D1D1B" stroke-width="1.5" stroke-miterlimit="10"/>
<path d="M385.773 51.5437C387.305 51.5437 388.546 50.3027 388.546 48.7718C388.546 47.241 387.305 46 385.773 46C384.242 46 383 47.241 383 48.7718C383 50.3027 384.242 51.5437 385.773 51.5437Z" fill="#1D1D1B" stroke="#1D1D1B" stroke-width="1.5" stroke-miterlimit="10"/>
<path d="M141.237 215.087C142.768 215.087 144.01 213.846 144.01 212.315C144.01 210.784 142.768 209.543 141.237 209.543C139.705 209.543 138.464 210.784 138.464 212.315C138.464 213.846 139.705 215.087 141.237 215.087Z" fill="#1D1D1B" stroke="#1D1D1B" stroke-width="1.5" stroke-miterlimit="10"/>
<path d="M256.422 240.147C257.953 240.147 259.195 238.906 259.195 237.376C259.195 235.845 257.953 234.604 256.422 234.604C254.89 234.604 253.648 235.845 253.648 237.376C253.648 238.906 254.89 240.147 256.422 240.147Z" fill="#1D1D1B" stroke="#1D1D1B" stroke-width="1.5" stroke-miterlimit="10"/>
<path d="M893.378 237.754C894.692 237.754 895.757 236.69 895.757 235.377C895.757 234.064 894.692 233 893.378 233C892.065 233 891 234.064 891 235.377C891 236.69 892.065 237.754 893.378 237.754Z" fill="#1D1D1B" stroke="#1D1D1B" stroke-width="1.5" stroke-miterlimit="10"/>
<path d="M945.378 106.754C946.692 106.754 947.757 105.69 947.757 104.377C947.757 103.064 946.692 102 945.378 102C944.065 102 943 103.064 943 104.377C943 105.69 944.065 106.754 945.378 106.754Z" fill="#1D1D1B" stroke="#1D1D1B" stroke-width="1.5" stroke-miterlimit="10"/>
<path d="M892.012 740.953C950.591 740.953 998.079 693.486 998.079 634.933C998.079 576.38 950.591 528.914 892.012 528.914C833.433 528.914 785.946 576.38 785.946 634.933C785.946 693.486 833.433 740.953 892.012 740.953Z" fill="#8DC2A6" stroke="#1D1D1B" stroke-width="1.5" stroke-miterlimit="10"/>
<path d="M975.466 591.786V545.716C975.466 545.716 978.373 519.096 953.905 510.138C929.437 501.181 906.667 500.411 893.097 500.411C879.526 500.411 856.757 501.176 832.289 510.138C807.821 519.096 810.728 545.716 810.728 545.716V591.786" stroke="#1D1D1B" stroke-width="1.5" stroke-miterlimit="10"/>
<path d="M957.686 543.89L957.596 544.475V600.192H828.603L828.565 575.455L828.546 563.231L828.517 546.101C828.517 542.73 828.374 539.502 829.701 535.66C831.219 531.267 833.911 528.571 838.439 526.912C859.582 519.167 879.76 518.273 893.102 518.273C906.444 518.273 926.616 519.167 947.764 526.912C952.288 528.571 954.985 531.262 956.502 535.66C957.819 539.478 957.724 543.129 957.686 543.89Z" fill="#EE3819" stroke="#1D1D1B" stroke-width="1.5" stroke-miterlimit="10"/>
<path d="M957.596 565.319V577.542C954.209 576.672 952.587 574.656 947.013 574.656C939.312 574.656 939.312 577.856 931.616 577.856C923.919 577.856 923.915 574.656 916.219 574.656C908.522 574.656 908.518 577.856 900.822 577.856C893.125 577.856 893.121 574.656 885.425 574.656C877.728 574.656 877.719 577.856 870.023 577.856C862.327 577.856 862.322 574.656 854.626 574.656C846.93 574.656 846.925 577.856 839.224 577.856C833.488 577.856 832.084 576.444 828.574 575.455L828.555 563.231C831.994 564.082 833.602 566.132 839.219 566.132C846.92 566.132 846.92 562.932 854.616 562.932C862.312 562.932 862.317 566.132 870.013 566.132C877.709 566.132 877.714 562.932 885.41 562.932C893.106 562.932 893.111 566.132 900.807 566.132C908.503 566.132 908.508 562.932 916.204 562.932C923.9 562.932 923.91 566.132 931.606 566.132C939.302 566.132 939.307 562.932 947.003 562.932C952.706 562.932 954.133 564.33 957.601 565.314L957.596 565.319Z" fill="#C4708A" stroke="#1D1D1B" stroke-width="1.5" stroke-miterlimit="10"/>
<path d="M957.596 565.319V577.542C954.209 576.672 952.587 574.656 947.013 574.656C939.312 574.656 939.312 577.856 931.616 577.856C923.919 577.856 923.915 574.656 916.219 574.656C908.522 574.656 908.518 577.856 900.822 577.856C893.125 577.856 893.121 574.656 885.425 574.656C877.728 574.656 877.719 577.856 870.023 577.856C862.327 577.856 862.322 574.656 854.626 574.656C846.93 574.656 846.925 577.856 839.224 577.856C833.488 577.856 832.084 576.444 828.574 575.455L828.555 563.231C831.994 564.082 833.602 566.132 839.219 566.132C846.92 566.132 846.92 562.932 854.616 562.932C862.312 562.932 862.317 566.132 870.013 566.132C877.709 566.132 877.714 562.932 885.41 562.932C893.106 562.932 893.111 566.132 900.807 566.132C908.503 566.132 908.508 562.932 916.204 562.932C923.9 562.932 923.91 566.132 931.606 566.132C939.302 566.132 939.307 562.932 947.003 562.932C952.706 562.932 954.133 564.33 957.601 565.314L957.596 565.319Z" fill="#C4708A" stroke="#1D1D1B" stroke-width="1.5" stroke-miterlimit="10"/>
<path d="M957.596 554.155V566.379C954.209 565.509 952.587 563.493 947.013 563.493C939.312 563.493 939.312 566.693 931.616 566.693C923.919 566.693 923.915 563.493 916.219 563.493C908.522 563.493 908.518 566.693 900.822 566.693C893.125 566.693 893.121 563.493 885.425 563.493C877.728 563.493 877.719 566.693 870.023 566.693C862.327 566.693 862.322 563.493 854.626 563.493C846.93 563.493 846.925 566.693 839.224 566.693C833.488 566.693 832.084 565.28 828.574 564.292L828.555 552.068C831.994 552.919 833.602 554.968 839.219 554.968C846.92 554.968 846.92 551.768 854.616 551.768C862.312 551.768 862.317 554.968 870.013 554.968C877.709 554.968 877.714 551.768 885.41 551.768C893.106 551.768 893.111 554.968 900.807 554.968C908.503 554.968 908.508 551.768 916.204 551.768C923.9 551.768 923.91 554.968 931.606 554.968C939.302 554.968 939.307 551.768 947.003 551.768C952.706 551.768 954.133 553.166 957.601 554.15L957.596 554.155Z" fill="#C4708A" stroke="#1D1D1B" stroke-width="1.5" stroke-miterlimit="10"/>
<path d="M957.596 554.155V566.379C954.209 565.509 952.587 563.493 947.013 563.493C939.312 563.493 939.312 566.693 931.616 566.693C923.919 566.693 923.915 563.493 916.219 563.493C908.522 563.493 908.518 566.693 900.822 566.693C893.125 566.693 893.121 563.493 885.425 563.493C877.728 563.493 877.719 566.693 870.023 566.693C862.327 566.693 862.322 563.493 854.626 563.493C846.93 563.493 846.925 566.693 839.224 566.693C833.488 566.693 832.084 565.28 828.574 564.292L828.555 552.068C831.994 552.919 833.602 554.968 839.219 554.968C846.92 554.968 846.92 551.768 854.616 551.768C862.312 551.768 862.317 554.968 870.013 554.968C877.709 554.968 877.714 551.768 885.41 551.768C893.106 551.768 893.111 554.968 900.807 554.968C908.503 554.968 908.508 551.768 916.204 551.768C923.9 551.768 923.91 554.968 931.606 554.968C939.302 554.968 939.307 551.768 947.003 551.768C952.706 551.768 954.133 553.166 957.601 554.15L957.596 554.155Z" fill="#C4708A" stroke="#1D1D1B" stroke-width="1.5" stroke-miterlimit="10"/>
<path d="M984.528 593.536C981.873 588.187 974.796 588.287 969.83 589.614C962.942 591.458 958.343 597.207 951.322 598.818C945.5 600.154 939.478 597.901 934.707 594.368C927.239 588.834 918.245 586.937 909.978 593.008C902.149 598.766 900.607 599.284 892.012 599.284C883.417 599.284 881.876 598.761 874.047 593.008C865.78 586.932 856.785 588.834 849.317 594.368C844.547 597.906 838.525 600.154 832.703 598.818C825.682 597.207 821.087 591.458 814.195 589.614C809.229 588.287 802.151 588.187 799.497 593.536C795.207 602.18 804.458 608.494 811.917 608.494H847.386C854.464 608.494 861.494 609.853 867.982 612.673C875.093 615.768 882.204 620.865 882.204 628.881C882.204 644.918 872.368 648.655 853.76 648.655H853.456C847.324 648.655 842.354 653.623 842.354 659.751H892.012H941.671C941.671 653.623 936.7 648.655 930.569 648.655H930.265C911.657 648.655 901.82 644.918 901.82 628.881C901.82 620.865 908.931 615.763 916.042 612.673C922.53 609.849 929.561 608.494 936.638 608.494H972.108C979.566 608.494 988.818 602.185 984.528 593.536Z" fill="#0AA2B5" stroke="#1D1D1B" stroke-width="1.5" stroke-miterlimit="10"/>
<path d="M893.097 500.416C898.451 500.416 902.791 496.077 902.791 490.726C902.791 485.375 898.451 481.036 893.097 481.036C887.743 481.036 883.403 485.375 883.403 490.726C883.403 496.077 887.743 500.416 893.097 500.416Z" fill="#8DC2A6" stroke="#1D1D1B" stroke-width="1.5" stroke-miterlimit="10"/>
<path d="M896.117 496.046C897.673 495.243 898.776 493.16 898.776 490.726C898.776 488.292 897.744 486.357 896.279 485.496" fill="#8DC2A6"/>
<path d="M896.065 495.941C899.014 493.579 899.085 488.054 896.222 485.596L896.341 485.391C900.26 487.284 900.26 494.453 896.174 496.155L896.065 495.946V495.941Z" fill="#1D1D1B"/>
<path d="M890.243 485.325C888.602 486.067 887.418 488.201 887.418 490.726C887.418 493.079 888.45 495.095 889.915 495.956" fill="#8DC2A6"/>
<path d="M890.29 485.429C887.17 487.678 887.075 493.384 889.977 495.851L889.858 496.056C885.881 494.144 885.943 486.756 890.195 485.211L890.295 485.429H890.29Z" fill="#1D1D1B"/>
<mask id="mask0_148_545" style="mask-type:luminance" maskUnits="userSpaceOnUse" x="785" y="740" width="214" height="154">
<path d="M998.079 740.953H785.442V893.585H998.079V740.953Z" fill="white"/>
</mask>
<g mask="url(#mask0_148_545)">
<path d="M900.936 763.788C900.936 749.164 911.757 749.164 911.757 734.539H874.461C874.461 749.164 885.282 749.164 885.282 763.788C885.282 778.413 874.461 778.413 874.461 793.038C874.461 807.662 885.282 807.662 885.282 822.287C885.282 836.912 874.461 836.912 874.461 851.536C874.461 866.161 885.282 866.161 885.282 880.786C885.282 895.41 874.461 895.41 874.461 910.035C874.461 924.66 885.282 924.66 885.282 939.285C885.282 953.909 874.461 953.909 874.461 968.534H911.757C911.757 953.909 900.936 953.909 900.936 939.285C900.936 924.66 911.757 924.66 911.757 910.035C911.757 895.41 900.936 895.41 900.936 880.786C900.936 866.161 911.757 866.161 911.757 851.536C911.757 836.912 900.936 836.912 900.936 822.287C900.936 807.662 911.757 807.662 911.757 793.038C911.757 778.413 900.936 778.413 900.936 763.788Z" fill="#0AA2B5" stroke="#1D1D1B" stroke-width="1.5" stroke-miterlimit="10"/>
</g>
<path d="M0 923.039H1115" stroke="#1D1D1B" stroke-width="1.5" stroke-miterlimit="10"/>
<path d="M237.621 211.018C283.252 211.018 320.243 189.076 320.243 162.009C320.243 134.942 283.252 113 237.621 113C191.991 113 155 134.942 155 162.009C155 189.076 191.991 211.018 237.621 211.018Z" fill="#FCE6CE" stroke="#1D1D1B" stroke-width="1.5" stroke-miterlimit="10"/>
<path d="M254.522 209.297L269.695 223.465V207.2" fill="#FCE6CE"/>
<path d="M254.522 209.297L269.695 223.465V207.2" stroke="#1D1D1B" stroke-width="1.5" stroke-miterlimit="10"/>
<path d="M221.678 196.117C210.676 175.179 209.177 152.804 219.328 141.341C239.244 118.853 299.509 134.685 299.509 160.697C299.509 186.708 257.342 195.604 224.065 184.103C206.247 177.946 184.305 160.307 188.876 146.124C193.19 132.75 216.602 125.086 234.311 130.026C257.485 136.497 271.198 164.648 259.863 181.673C246.844 201.224 205.391 199.184 197.752 186.609C191.725 176.686 204.292 156.147 221.725 150.503C248.566 141.817 282.466 169.892 279.56 184.75C277.634 194.587 258.693 203.102 249.294 198.466C230.896 189.385 241.822 126.327 257.076 124.311C266.318 123.094 283.751 143.4 277.462 160.744C273.296 172.245 258.864 181.992 243.301 179.605C231.761 177.837 222.039 169.773 219.518 160.017C215.118 142.963 233.93 125.352 249.893 125.718C254.759 125.832 262.632 127.687 264.877 132.722C270.023 144.256 241.489 163.098 238.601 165C223.357 175.065 193.904 188.886 182.769 179.601C178.426 175.978 177.085 169.022 179.772 164.51C186.27 153.608 215.708 158.063 225.74 159.579C238.088 161.448 257.299 166.355 279.265 179.543" stroke="#C4708A" stroke-width="1.5" stroke-miterlimit="10"/>
<path d="M357.56 297.552C386.273 297.552 409.55 270.04 409.55 236.101C409.55 202.163 386.273 174.65 357.56 174.65C328.847 174.65 305.571 202.163 305.571 236.101C305.571 270.04 328.847 297.552 357.56 297.552Z" fill="#FCE6CE" stroke="#1D1D1B" stroke-width="1.5" stroke-miterlimit="10"/>
<path d="M390 282.82L414.059 288.454L400.802 268" fill="#FCE6CE"/>
<path d="M390 282.82L414.059 288.454L400.802 268" stroke="#1D1D1B" stroke-width="1.5" stroke-miterlimit="10"/>
<path d="M375.026 223.269C381.079 223.269 385.986 218.365 385.986 212.315C385.986 206.265 381.079 201.361 375.026 201.361C368.974 201.361 364.067 206.265 364.067 212.315C364.067 218.365 368.974 223.269 375.026 223.269Z" fill="#0AA2B5" stroke="#1D1D1B" stroke-width="1.5" stroke-miterlimit="10"/>
<path d="M337.036 214.644C343.088 214.644 347.995 209.74 347.995 203.69C347.995 197.64 343.088 192.736 337.036 192.736C330.983 192.736 326.077 197.64 326.077 203.69C326.077 209.74 330.983 214.644 337.036 214.644Z" fill="#8DC2A6" stroke="#1D1D1B" stroke-width="1.5" stroke-miterlimit="10"/>
<path d="M364.072 284.002C370.125 284.002 375.031 279.098 375.031 273.048C375.031 266.998 370.125 262.094 364.072 262.094C358.019 262.094 353.113 266.998 353.113 273.048C353.113 279.098 358.019 284.002 364.072 284.002Z" fill="#8DC2A6" stroke="#1D1D1B" stroke-width="1.5" stroke-miterlimit="10"/>
<path d="M380.848 248.896C386.901 248.896 391.808 243.991 391.808 237.941C391.808 231.891 386.901 226.987 380.848 226.987C374.796 226.987 369.889 231.891 369.889 237.941C369.889 243.991 374.796 248.896 380.848 248.896Z" fill="#FCE6CE" stroke="#1D1D1B" stroke-width="1.5" stroke-miterlimit="10"/>
<path d="M335.404 259.655C341.457 259.655 346.363 254.75 346.363 248.701C346.363 242.651 341.457 237.746 335.404 237.746C329.352 237.746 324.445 242.651 324.445 248.701C324.445 254.75 329.352 259.655 335.404 259.655Z" fill="#FCE6CE" stroke="#1D1D1B" stroke-width="1.5" stroke-miterlimit="10"/>
<path d="M347.995 240.266C354.047 240.266 358.954 235.362 358.954 229.312C358.954 223.262 354.047 218.358 347.995 218.358C341.942 218.358 337.036 223.262 337.036 229.312C337.036 235.362 341.942 240.266 347.995 240.266Z" fill="#EE3819" stroke="#1D1D1B" stroke-width="1.5" stroke-miterlimit="10"/>
<path d="M813 77.0418L799.964 87.3698L811.274 99.5376L794.545 99.8775L796.53 116.334L782.542 107.203L774.966 122L768.454 106.733L753.753 114.651L757.49 98.5344L741 95.9616L754.036 85.6302L742.726 73.4658L759.455 73.1258L757.47 56.6689L771.458 65.8006L779.034 51L785.546 66.2671L800.247 58.3486L796.51 74.4689L813 77.0418Z" fill="#8DC2A6"/>
<path d="M813 77.0418L799.964 87.3698L811.274 99.5376L794.545 99.8775L796.53 116.334L782.542 107.203L774.966 122L768.454 106.733L753.753 114.651L757.49 98.5344L741 95.9616L754.036 85.6302L742.726 73.4658L759.455 73.1258L757.47 56.6689L771.458 65.8006L779.034 51L785.546 66.2671L800.247 58.3486L796.51 74.4689L813 77.0418Z" stroke="#1D1D1B" stroke-width="1.5" stroke-miterlimit="10"/>
<path d="M142.034 259.818L133.566 259.96L134.373 268.381L127.502 263.341L123.211 270.611L120.381 262.588L112.737 266.228L114.829 258.037L106.432 256.69L112.932 251.328L107.06 245.184L115.529 245.04L114.72 236.62L121.591 241.661L125.883 234.391L128.713 242.413L136.358 238.772L134.266 246.963L142.663 248.31L136.161 253.673L142.034 259.818Z" fill="#518E2E"/>
<path d="M142.034 259.818L133.566 259.96L134.373 268.381L127.502 263.341L123.211 270.611L120.381 262.588L112.737 266.228L114.829 258.037L106.432 256.69L112.932 251.328L107.06 245.184L115.529 245.04L114.72 236.62L121.591 241.661L125.883 234.391L128.713 242.413L136.358 238.772L134.266 246.963L142.663 248.31L136.161 253.673L142.034 259.818Z" stroke="#1D1D1B" stroke-width="1.5" stroke-miterlimit="10"/>
<path d="M759.927 233.192C801.83 233.192 835.799 221.026 835.799 206.02C835.799 191.013 801.83 178.848 759.927 178.848C718.025 178.848 684.056 191.013 684.056 206.02C684.056 221.026 718.025 233.192 759.927 233.192Z" fill="#FCE6CE" stroke="#1D1D1B" stroke-width="1.5" stroke-miterlimit="10"/>
<path d="M719.327 228.279L699.549 242.176L702.284 222.069" fill="#FCE6CE"/>
<path d="M719.327 228.279L699.549 242.176L702.284 222.069" stroke="#1D1D1B" stroke-width="1.5" stroke-miterlimit="10"/>
<path d="M722.56 215.139C727.598 215.139 731.683 211.056 731.683 206.02C731.683 200.984 727.598 196.901 722.56 196.901C717.521 196.901 713.437 200.984 713.437 206.02C713.437 211.056 717.521 215.139 722.56 215.139Z" fill="#518E2E" stroke="#1D1D1B" stroke-width="1.5" stroke-miterlimit="10"/>
<path d="M747.47 215.139C752.509 215.139 756.593 211.056 756.593 206.02C756.593 200.984 752.509 196.901 747.47 196.901C742.431 196.901 738.347 200.984 738.347 206.02C738.347 211.056 742.431 215.139 747.47 215.139Z" fill="#FCE6CE" stroke="#1D1D1B" stroke-width="1.5" stroke-miterlimit="10"/>
<path d="M772.38 215.139C777.419 215.139 781.503 211.056 781.503 206.02C781.503 200.984 777.419 196.901 772.38 196.901C767.342 196.901 763.257 200.984 763.257 206.02C763.257 211.056 767.342 215.139 772.38 215.139Z" fill="#0AA2B5" stroke="#1D1D1B" stroke-width="1.5" stroke-miterlimit="10"/>
<path d="M797.295 215.139C802.333 215.139 806.418 211.056 806.418 206.02C806.418 200.984 802.333 196.901 797.295 196.901C792.256 196.901 788.172 200.984 788.172 206.02C788.172 211.056 792.256 215.139 797.295 215.139Z" fill="#C4708A" stroke="#1D1D1B" stroke-width="1.5" stroke-miterlimit="10"/>
<path d="M175.37 605.817C218.347 605.817 253.187 571.908 253.187 530.079C253.187 488.249 218.347 454.34 175.37 454.34C132.392 454.34 97.5524 488.249 97.5524 530.079C97.5524 571.908 132.392 605.817 175.37 605.817Z" fill="#EFC316" stroke="#1D1D1B" stroke-width="1.5" stroke-linecap="round" stroke-linejoin="round"/>
<path d="M245.418 505.642L264.221 481L232 481.433" fill="#EFC316"/>
<path d="M245.418 505.642L264.221 481L232 481.433" stroke="#1D1D1B" stroke-width="1.5" stroke-linecap="round" stroke-linejoin="round"/>
<path d="M211.125 494.249C205.165 494.249 205.165 502.893 199.205 502.893C193.245 502.893 193.245 494.249 187.285 494.249C181.325 494.249 181.325 502.893 175.365 502.893C169.405 502.893 169.405 494.249 163.445 494.249C157.485 494.249 157.485 502.893 151.525 502.893C145.565 502.893 145.565 494.249 139.605 494.249" stroke="#518E2E" stroke-width="1.5" stroke-miterlimit="10"/>
<path d="M211.125 515.402C205.165 515.402 205.165 524.045 199.205 524.045C193.245 524.045 193.245 515.402 187.285 515.402C181.325 515.402 181.325 524.045 175.365 524.045C169.405 524.045 169.405 515.402 163.445 515.402C157.485 515.402 157.485 524.045 151.525 524.045C145.565 524.045 145.565 515.402 139.605 515.402" stroke="#518E2E" stroke-width="1.5" stroke-miterlimit="10"/>
<path d="M211.125 536.554C205.165 536.554 205.165 545.198 199.205 545.198C193.245 545.198 193.245 536.554 187.285 536.554C181.325 536.554 181.325 545.198 175.365 545.198C169.405 545.198 169.405 536.554 163.445 536.554C157.485 536.554 157.485 545.198 151.525 545.198C145.565 545.198 145.565 536.554 139.605 536.554" stroke="#518E2E" stroke-width="1.5" stroke-miterlimit="10"/>
<path d="M211.125 557.707C205.165 557.707 205.165 566.35 199.205 566.35C193.245 566.35 193.245 557.707 187.285 557.707C181.325 557.707 181.325 566.35 175.365 566.35C169.405 566.35 169.405 557.707 163.445 557.707C157.485 557.707 157.485 566.35 151.525 566.35C145.565 566.35 145.565 557.707 139.605 557.707" stroke="#518E2E" stroke-width="1.5" stroke-miterlimit="10"/>
<path d="M214.497 502.327C218.96 502.327 222.579 498.71 222.579 494.249C222.579 489.788 218.96 486.171 214.497 486.171C210.034 486.171 206.416 489.788 206.416 494.249C206.416 498.71 210.034 502.327 214.497 502.327Z" fill="#8DC2A6" stroke="#1D1D1B" stroke-width="1.5" stroke-miterlimit="10"/>
<path d="M153.333 530.083C157.796 530.083 161.414 526.467 161.414 522.006C161.414 517.544 157.796 513.928 153.333 513.928C148.869 513.928 145.251 517.544 145.251 522.006C145.251 526.467 148.869 530.083 153.333 530.083Z" fill="#EE3819" stroke="#1D1D1B" stroke-width="1.5" stroke-miterlimit="10"/>
<path d="M171.346 572.117C175.809 572.117 179.427 568.501 179.427 564.039C179.427 559.578 175.809 555.962 171.346 555.962C166.882 555.962 163.264 559.578 163.264 564.039C163.264 568.501 166.882 572.117 171.346 572.117Z" fill="#FCE6CE" stroke="#1D1D1B" stroke-width="1.5" stroke-miterlimit="10"/>
<path d="M187.504 572.117C191.967 572.117 195.585 568.501 195.585 564.039C195.585 559.578 191.967 555.962 187.504 555.962C183.04 555.962 179.422 559.578 179.422 564.039C179.422 568.501 183.04 572.117 187.504 572.117Z" fill="#0AA2B5" stroke="#1D1D1B" stroke-width="1.5" stroke-miterlimit="10"/>
<path d="M223.958 564.021H214.264L211.405 542.973H226.817L223.958 564.021Z" fill="#FCE6CE" stroke="#1D1D1B" stroke-width="1.5" stroke-miterlimit="10"/>
<path d="M224.724 567.311H213.498V572.436H224.724V567.311Z" fill="#FCE6CE" stroke="#1D1D1B" stroke-width="1.5" stroke-miterlimit="10"/>
<path d="M942.334 355.434C988.006 355.434 1025.03 333.429 1025.03 306.283C1025.03 279.138 988.006 257.133 942.334 257.133C896.663 257.133 859.639 279.138 859.639 306.283C859.639 333.429 896.663 355.434 942.334 355.434Z" fill="#FCE6CE" stroke="#1D1D1B" stroke-width="1.5" stroke-miterlimit="10"/>
<path d="M882.524 339.261L862 342.513L871.122 329" fill="#FCE6CE"/>
<path d="M882.524 339.261L862 342.513L871.122 329" stroke="#1D1D1B" stroke-width="1.5" stroke-miterlimit="10"/>
<path d="M958.293 340.491C969.305 319.491 970.804 297.052 960.645 285.556C940.711 263.003 880.391 278.881 880.391 304.967C880.391 331.054 922.596 339.976 955.903 328.441C973.737 322.266 995.699 304.576 991.124 290.353C986.805 276.94 963.373 269.254 945.648 274.208C922.453 280.697 908.728 308.93 920.073 326.005C933.103 345.612 974.594 343.566 982.24 330.954C988.272 321.003 975.694 300.404 958.245 294.744C931.38 286.033 897.449 314.189 900.358 329.09C902.286 338.955 921.244 347.495 930.651 342.846C949.066 333.739 938.131 270.498 922.863 268.476C913.612 267.256 896.164 287.621 902.458 305.015C906.628 316.549 921.073 326.324 936.65 323.931C948.2 322.157 957.931 314.07 960.454 304.286C964.858 287.182 946.029 269.521 930.052 269.888C925.181 270.002 917.302 271.862 915.055 276.911C909.904 288.479 938.464 307.375 941.354 309.283C956.612 319.377 986.091 333.238 997.236 323.926C1001.58 320.292 1002.93 313.317 1000.24 308.792C993.732 297.858 964.268 302.326 954.227 303.847C941.868 305.721 922.639 310.642 900.653 323.869" stroke="#518E2E" stroke-width="1.5" stroke-miterlimit="10"/>
<path d="M944.16 158.102L917 173.578L945.952 183.994L935.962 213.087L964.353 200.185L973.273 230L992.997 205.937L1014.22 228.798L1016.21 198.094L1046.94 199.662L1027.84 174.902L1055 159.422L1026.05 149.01L1036.04 119.913L1007.65 132.816L998.727 103L979.008 127.068L957.783 104.206L955.79 134.906L925.067 133.338L944.16 158.102Z" fill="#FCE6CE" stroke="#1D1D1B" stroke-width="1.5" stroke-miterlimit="10"/>
</svg>
