<svg width="563" height="405" viewBox="0 0 563 405" fill="none" xmlns="http://www.w3.org/2000/svg">
<g clip-path="url(#clip0_148_1115)">
<path d="M399.409 319.4C394.497 260.994 343.58 154.543 449.536 112.682C555.493 70.8207 680.446 210.966 585.316 242.283C490.186 273.599 389.983 46.735 250.364 45.4285C110.745 44.122 100.98 216.945 207.472 281.587C282.107 326.896 319.2 290.827 448.023 274.75C626.757 252.452 490.626 480.097 220.184 186.556C149.497 109.828 71.9974 125.497 96.0686 213.664C122.643 293.557 219.176 366.625 299.658 382.652C344.184 391.52 404.33 377.807 399.414 319.396L399.409 319.4Z" stroke="#AD672C" stroke-width="2" stroke-miterlimit="10"/>
<path d="M489 128C478.507 128 470 119.493 470 109C470 98.5066 478.507 90 489 90C499.493 90 508 98.5066 508 109C508 119.493 499.493 128 489 128Z" fill="#FCE6CE" stroke="#1D1D1B" stroke-width="1.5" stroke-miterlimit="10"/>
<path d="M511.378 398.754C512.692 398.754 513.757 397.69 513.757 396.377C513.757 395.064 512.692 394 511.378 394C510.065 394 509 395.064 509 396.377C509 397.69 510.065 398.754 511.378 398.754Z" fill="#1D1D1B" stroke="#1D1D1B" stroke-width="1.5" stroke-miterlimit="10"/>
<path d="M311.034 315.818L302.566 315.96L303.373 324.381L296.502 319.341L292.211 326.611L289.381 318.588L281.737 322.228L283.829 314.037L275.432 312.69L281.932 307.328L276.06 301.184L284.529 301.04L283.72 292.62L290.591 297.661L294.883 290.391L297.713 298.413L305.358 294.772L303.266 302.963L311.663 304.31L305.161 309.673L311.034 315.818Z" fill="#518E2E"/>
<path d="M311.034 315.818L302.566 315.96L303.373 324.381L296.502 319.341L292.211 326.611L289.381 318.588L281.737 322.228L283.829 314.037L275.432 312.69L281.932 307.328L276.06 301.184L284.529 301.04L283.72 292.62L290.591 297.661L294.883 290.391L297.713 298.413L305.358 294.772L303.266 302.963L311.663 304.31L305.161 309.673L311.034 315.818Z" stroke="#1D1D1B" stroke-width="1.5" stroke-miterlimit="10"/>
<path d="M489.123 260.238C494.162 260.238 498.246 256.155 498.246 251.119C498.246 246.083 494.162 242 489.123 242C484.085 242 480 246.083 480 251.119C480 256.155 484.085 260.238 489.123 260.238Z" fill="#C4708A" stroke="#1D1D1B" stroke-width="1.5" stroke-miterlimit="10"/>
</g>
<defs>
<clipPath id="clip0_148_1115">
<rect width="563" height="405" fill="white"/>
</clipPath>
</defs>
</svg>
