<svg width="339" height="396" viewBox="0 0 339 396" fill="none" xmlns="http://www.w3.org/2000/svg">
<g clip-path="url(#clip0_148_115)">
<path d="M123.29 67.9772C123.29 61.039 127.974 55.834 135.092 55.834C142.209 55.834 146.939 61.0376 146.939 67.9772C146.939 74.9168 142.257 80.0749 135.092 80.0749C127.927 80.0749 123.29 75.0079 123.29 67.9772ZM141.843 67.9772C141.843 63.4594 139.271 60.218 135.092 60.218C130.913 60.218 128.388 63.4594 128.388 67.9772C128.388 72.4951 130.914 75.6923 135.092 75.6923C139.27 75.6923 141.843 72.542 141.843 67.9772Z" fill="black"/>
<path d="M127.036 47.9036C126.498 47.2854 125.641 46.4796 124.334 45.8338C123.543 45.4446 122.588 45.1148 121.437 44.9189C121.437 44.9189 121.14 44.854 120.685 44.7892C120.317 44.7353 119.844 44.6829 119.34 44.665C118.836 44.6456 118.299 44.6622 117.803 44.7478C117.801 44.7478 117.797 44.7478 117.794 44.7478C113.297 45.1645 111.083 47.9933 111.083 53.869V56.7461H108.225C107.621 56.7461 107.133 57.2318 107.133 57.8307V59.6329C107.133 60.2318 107.621 60.7175 108.225 60.7175H111.083V74.0489H111.082C111.082 74.0489 111.119 75.6316 109.85 76.3782C109.159 76.7838 108.769 77.3165 108.769 78.0313C108.769 78.7461 109.397 79.1628 110.17 79.1628H112.066H115.105H117.001C117.774 79.1628 118.402 78.7447 118.402 78.0313C118.402 77.3179 118.012 76.7838 117.32 76.3782C116.052 75.633 116.089 74.0489 116.089 74.0489V60.7175H121.794C122.396 60.7175 122.885 60.2318 122.885 59.6329V57.8307C122.885 57.2318 122.396 56.7461 121.794 56.7461H116.089V53.6868C116.089 51.2513 116.664 49.9556 117.795 49.3898C117.798 49.3898 117.801 49.387 117.803 49.3857C117.813 49.3801 117.834 49.3705 117.866 49.3567C118.044 49.278 118.554 49.0835 119.315 49.0393C119.323 49.0393 119.332 49.0393 119.341 49.0393C119.4 49.0352 119.458 49.0338 119.519 49.0338C119.554 49.0324 119.588 49.0324 119.624 49.0324C119.663 49.0324 119.702 49.0338 119.741 49.0338C120.86 49.0779 122.121 49.7541 122.355 51.2182H122.36C122.46 52.7043 123.704 53.88 125.225 53.88C126.746 53.88 128.095 52.6022 128.095 51.025C128.095 50.393 127.947 48.9455 127.038 47.9036H127.036Z" fill="black"/>
<path d="M170.356 60.0001C170.134 59.3875 169.626 58.1524 168.454 57.341C167.615 56.7587 166.342 55.9087 163.925 55.9763C163.873 55.9735 163.82 55.9722 163.762 55.9722C160.501 55.9722 158.114 57.9813 155.863 61.0848L155.616 57.7536C155.574 57.1865 155.099 56.7491 154.527 56.7491H150.221C149.448 56.7491 148.82 57.1658 148.82 57.8806C148.82 58.5954 149.21 59.128 149.901 59.5337C151.071 60.2209 151.131 61.6202 151.133 61.834V74.0808C151.13 74.2933 151.071 75.6939 149.901 76.3811C149.21 76.7868 148.82 77.3194 148.82 78.0342C148.82 78.749 149.448 79.1658 150.221 79.1658H157.052C157.825 79.1658 158.453 78.7476 158.453 78.0342C158.453 77.3208 158.063 76.7868 157.371 76.3811C156.201 75.6939 156.142 74.2947 156.14 74.0808V65.2397C157.846 62.7365 159.768 61.518 161.813 61.271C162.703 61.2076 164.196 61.0544 164.861 62.1804L164.866 62.1776C165.484 63.5838 167.104 64.2917 168.576 63.7632C170.113 63.2126 170.91 61.5291 170.357 60.0015L170.356 60.0001Z" fill="black"/>
<path d="M214.405 43.6743H139.157C138.555 43.6743 138.066 44.16 138.066 44.7589V47.4263C138.066 48.0252 138.555 48.5109 139.157 48.5109H174.413V74.0793C174.41 74.2946 174.35 75.6925 173.182 76.3783C172.49 76.784 172.1 77.3166 172.1 78.0314C172.1 78.7462 172.728 79.1629 173.501 79.1629H174.413H179.694H180.606C181.379 79.1629 182.006 78.7462 182.006 78.0314C182.006 77.3166 181.616 76.784 180.925 76.3783C179.755 75.6911 179.695 74.2918 179.694 74.078V48.5109H214.404C215.006 48.5109 215.495 48.0252 215.495 47.4263V44.7589C215.495 44.16 215.006 43.6743 214.404 43.6743H214.405Z" fill="black"/>
<path d="M200.411 12.1611C193.843 12.1611 189.435 17.1813 189.435 24.3499C189.435 31.5186 193.612 36.4021 200.733 36.4021C203.628 36.4021 206.524 35.5245 208.826 34.1873C209.207 33.9652 209.424 33.5415 209.367 33.1055L208.848 30.4105C208.772 30.0131 208.304 29.842 207.98 30.0862C205.849 31.7035 203.284 32.2941 201.052 32.2941C197.332 32.2941 194.667 29.7371 194.576 25.4456H210.377C210.561 25.4456 210.717 25.309 210.74 25.1282C210.787 24.7487 210.787 24.5141 210.787 24.0753C210.787 16.7259 206.837 12.1611 200.409 12.1611H200.411ZM194.67 22.022C195.084 18.3252 197.381 16.087 200.502 16.087C203.624 16.087 205.645 18.2783 205.875 22.0675L194.669 22.0206L194.67 22.022Z" fill="black"/>
<path d="M186.513 32.7054C185.343 32.0182 185.283 30.6189 185.282 30.405V3.02065C185.282 2.42176 184.793 1.93604 184.191 1.93604H181.368C180.765 1.93604 180.277 2.42176 180.277 3.02065V30.3774V30.405C180.275 30.6148 180.217 32.0182 179.046 32.7054C178.354 33.111 177.964 33.6437 177.964 34.3585C177.964 35.0733 178.592 35.49 179.365 35.49H186.196C186.97 35.49 187.597 35.0733 187.597 34.3585C187.597 33.6437 187.207 33.111 186.516 32.7054H186.513Z" fill="black"/>
<path d="M166.471 12.1612C163.992 12.1612 161.512 13.2555 159.353 15.0825V3.02065C159.353 2.42176 158.865 1.93604 158.262 1.93604H155.439C154.837 1.93604 154.348 2.42176 154.348 3.02065V30.4064C154.346 30.6189 154.287 32.0195 153.117 32.7067C152.426 33.1124 152.036 33.6451 152.036 34.3599C152.036 35.0747 152.663 35.4914 153.437 35.4914H157.148C157.963 35.4914 158.65 34.8884 158.751 34.0839L158.758 34.0301C160.779 35.5369 163.259 36.4035 165.646 36.4035C171.708 36.4035 176.069 31.2454 176.069 24.0768C176.069 16.9081 172.259 12.1626 166.472 12.1626L166.471 12.1612ZM164.406 32.0651C162.659 32.0651 161.145 31.6539 159.355 30.6037V18.8248C161.099 17.3179 163.029 16.4955 165.002 16.4955C168.721 16.4955 170.972 19.3712 170.972 24.074C170.972 28.7767 168.401 32.0651 164.407 32.0651H164.406Z" fill="black"/>
<path d="M145.989 0H102.975C100.399 0 92 1.97466 92 10.1396C92 15.5447 96.472 18.3294 99.3964 18.7779C101.835 19.1518 106.136 18.662 107.452 16.6735C108.768 14.685 107.337 12.7145 105.687 12.5876C104.036 12.4592 103.556 13.3051 102.823 14.238C102.142 15.1059 100.779 14.9155 100.779 14.9155C100.779 14.9155 96.8801 14.3732 96.6677 10.3066C96.3915 5.00357 101.24 4.72345 103.208 4.79106C103.631 4.80624 104.182 4.8159 104.808 4.82418V4.83798H106.293C109.363 4.85868 113.096 4.83798 113.096 4.83798H115.369V30.4064C115.366 30.6244 115.305 32.0195 114.138 32.7053C113.447 33.111 113.057 33.6437 113.057 34.3585C113.057 35.0733 113.684 35.49 114.457 35.49H121.563C122.337 35.49 122.964 35.0733 122.964 34.3585C122.964 33.6437 122.574 33.111 121.883 32.7053C120.713 32.0181 120.653 30.6189 120.652 30.405V4.83798H145.992C146.594 4.83798 147.082 4.35225 147.082 3.75337V1.08461C147.082 0.48573 146.594 0 145.992 0H145.989Z" fill="black"/>
<path d="M148.312 32.7053C147.044 31.9601 147.081 30.376 147.081 30.376V19.8762C147.081 14.7637 144.418 12.1611 139.045 12.1611C138.138 12.1611 137.15 12.2729 136.143 12.4758V12.4578L134.201 12.9104C133.068 13.1933 132.18 13.5824 131.475 14.0254C130.817 14.4408 130.317 14.9016 129.927 15.3694C129.555 15.8138 129.283 16.2636 129.065 16.6804C128.65 17.4779 128.33 18.5888 128.573 19.7051C128.931 21.3472 131.475 22.0013 132.742 20.5952C133.508 19.7465 133.29 19.6085 134.002 18.092C134.316 17.4255 135.228 16.8404 136.136 16.5713C136.138 16.57 136.14 16.5686 136.143 16.5686C136.863 16.4044 137.565 16.3161 138.218 16.3161C140.974 16.3161 142.077 17.5014 142.122 20.3785V21.6577C132.387 22.89 128.531 25.4911 128.531 30.4671C128.531 34.2108 130.918 36.4021 134.866 36.4021C137.714 36.4021 139.826 35.3989 142.535 32.6142L142.778 34.1363C142.903 34.9159 143.579 35.49 144.373 35.49H147.081H147.994C148.767 35.49 149.395 35.0732 149.395 34.3584C149.395 33.6436 149.005 33.111 148.314 32.7053H148.312ZM142.12 29.784C139.825 31.7463 138.033 32.7053 136.151 32.7053C134.269 32.7053 133.35 31.7463 133.35 29.9662C133.35 27.3167 135.05 25.8554 142.12 24.8053V29.784Z" fill="black"/>
<path d="M205.316 69.1184H189.514C189.605 73.41 192.269 75.9669 195.99 75.9669C198.22 75.9669 200.787 75.375 202.917 73.7591C203.241 73.5134 203.708 73.6859 203.785 74.0833L204.304 76.7783C204.359 77.2144 204.144 77.638 203.762 77.8602C201.461 79.1973 198.566 80.0749 195.669 80.0749C188.552 80.0749 184.371 75.19 184.371 68.0228C184.371 60.8555 188.779 55.834 195.347 55.834C201.915 55.834 205.725 60.3987 205.725 67.7482C205.725 68.187 205.725 68.4202 205.678 68.801C205.656 68.9818 205.5 69.1184 205.316 69.1184ZM200.812 65.7418C200.581 61.9525 198.56 59.7612 195.439 59.7612C192.317 59.7612 190.022 61.9994 189.607 65.6962L200.813 65.7431L200.812 65.7418Z" fill="black"/>
<path d="M242.768 66.6388C240.769 65.3306 238.786 66.7533 238.657 68.394C238.529 70.0334 239.379 70.5122 240.317 71.2408C241.19 71.9183 240.998 73.2734 240.998 73.2734C240.998 73.2734 240.453 77.1275 236.363 77.3607C235.108 77.4325 234.118 77.0613 233.347 76.45C231.814 75.2398 231.15 73.0899 231.004 71.6161V69.894C231.05 68.0518 231.029 66.7864 231.023 66.5684V66.5353H231.004V64.3261C231.004 58.8478 228.386 55.8354 223.792 55.8354C220.396 55.8354 217.641 57.6155 215.298 60.1242L215.137 57.759C215.098 57.1905 214.622 56.7476 214.047 56.7476H210.659H209.747C208.974 56.7476 208.347 57.1643 208.347 57.8791C208.347 58.5939 208.737 59.1265 209.428 59.5322C210.576 60.207 210.655 61.5676 210.659 61.8201V74.0917C210.655 74.3442 210.576 75.7048 209.428 76.3796C208.737 76.7853 208.347 77.3179 208.347 78.0327C208.347 78.7475 208.974 79.1643 209.747 79.1643H211.643H214.683H216.579C217.352 79.1643 217.979 78.7462 217.979 78.0327C217.979 77.3193 217.589 76.7853 216.898 76.3796C215.629 75.6345 215.667 74.0503 215.667 74.0503V63.6858C217.642 61.6325 219.89 60.2181 222.188 60.2181C224.758 60.2181 225.997 61.8146 225.997 65.4672V71.089C225.997 71.8535 226.174 73.1327 226.641 74.5512C226.843 75.168 227.101 75.8111 227.423 76.45C228.839 79.2678 231.499 82 236.198 82C241.634 82 244.434 77.5539 244.885 74.6464C245.261 72.2219 244.768 67.9456 242.77 66.6388H242.768Z" fill="black"/>
</g>
<g clip-path="url(#clip1_148_115)">
<path d="M245.414 181.228H92.071V344.263H245.414V181.228Z" fill="#FCE6CE" stroke="#1D1D1B" stroke-miterlimit="10"/>
<path d="M168.744 104.789H92.071V334.108H168.744V104.789Z" fill="#FCE6CE" stroke="#1D1D1B" stroke-miterlimit="10"/>
<path d="M245.414 104.789H168.741V334.108H245.414V104.789Z" fill="#FCE6CE" stroke="#1D1D1B" stroke-miterlimit="10"/>
<path d="M245.414 257.666V181.228H92.0711V257.666H245.414Z" stroke="#1D1D1B" stroke-miterlimit="10"/>
<path d="M245.414 181.228V104.789L92.0711 104.789V181.228H245.414Z" stroke="#1D1D1B" stroke-miterlimit="10"/>
<path d="M245.414 334.105V257.666H92.0711V334.105H245.414Z" stroke="#1D1D1B" stroke-miterlimit="10"/>
<path d="M166.376 189.874L179.336 191.158L172.308 217.928L166.376 189.874Z" fill="#C4708A" stroke="#1D1D1B" stroke-miterlimit="10"/>
<path d="M155.589 205.39L143.037 211.3L162.766 233.835L155.589 205.39Z" fill="#0AA2B5" stroke="#1D1D1B" stroke-miterlimit="10"/>
<path d="M134.833 226.346L139.184 219.255L148.654 233.12L134.833 226.346Z" fill="#FCE6CE" stroke="#1D1D1B" stroke-miterlimit="10"/>
<path d="M189.752 203.789L199.573 206.039L187.547 224.477L189.752 203.789Z" fill="#EFC316" stroke="#1D1D1B" stroke-linecap="round" stroke-linejoin="round"/>
<path d="M211.905 219.805L205.595 214.371L200.815 226.188L211.905 219.805Z" stroke="#1D1D1B" stroke-miterlimit="10"/>
<path d="M94.3794 309.254C90.2344 305.422 87.946 299.621 88.3611 294.929C88.7796 290.237 91.5264 285.76 95.6482 283.45C100.491 280.74 106.728 281.048 111.215 277.782C114.493 275.396 116.32 271.448 119.509 268.943C123.209 266.041 129.639 265.83 133.83 267.967L133.671 267.888C137.261 266.538 140.417 268.877 141.918 270.515C143.725 272.484 144.303 275.502 143.393 278.013C142.067 280.191 140.815 282.441 139.407 284.565C137.265 287.798 138.062 292.163 139.752 295.564C141.264 298.605 143.791 301.206 144.502 304.529C145.299 308.248 143.505 312.245 140.516 314.611C137.584 316.934 134.109 317.526 130.479 317.553C127.809 317.573 126.155 319.284 124.049 320.829L102.268 316.276L94.3794 309.251V309.254Z" fill="#0AA2B5" stroke="#1D1D1B" stroke-miterlimit="10"/>
<path d="M68.1906 286.137H68.1978" stroke="#1D1D1B" stroke-miterlimit="10"/>
<path d="M115.676 286.137H115.683" stroke="#1D1D1B" stroke-miterlimit="10"/>
<path d="M41.1715 315.74C39.6204 310.022 42.7557 307.044 44.7485 305.786" stroke="#1D1D1B" stroke-miterlimit="10"/>
<path d="M58.4757 315.462C58.4757 315.462 60.3589 306.342 56.8615 298.03C56.8615 298.03 54.1314 288.764 49.8535 289.284C45.5789 289.8 43.2473 293.414 46.2265 305.032C46.2265 305.032 45.5888 305.257 44.7485 305.793C42.7557 307.05 39.6204 310.025 41.1715 315.746" fill="#E2BA1D"/>
<path d="M58.4757 315.462C58.4757 315.462 60.3589 306.342 56.8615 298.03C56.8615 298.03 54.1314 288.764 49.8535 289.284C45.5789 289.8 43.2473 293.414 46.2265 305.032C46.2265 305.032 45.5888 305.257 44.7485 305.793C42.7557 307.05 39.6204 310.025 41.1715 315.746" stroke="#1D1D1B" stroke-miterlimit="10"/>
<path d="M78.2809 386.89C76.1585 388.184 73.8502 389.131 71.3625 389.604V395.391H117.818C115.46 395.163 113.135 394.577 111.185 393.267C109.996 392.466 108.96 391.374 108.452 390.034C107.947 388.69 108.037 387.089 108.89 385.937C107.681 385.322 107.064 383.876 107.123 382.529C107.18 381.182 107.811 379.918 108.578 378.803C107.615 377.996 106.934 376.91 106.552 375.719C100.942 374.75 99.398 372.261 99.7235 369.127C100.165 364.862 109.84 364.257 109.84 364.257C118.751 362.695 127.261 366.543 127.261 366.543L131.469 366.477L139.812 366.288L137.726 349.723C137.726 349.723 147.87 347.364 155.16 344.661C151.623 337.06 148.222 329.767 147.066 327.344C144.392 321.739 141.433 317.924 138.078 315.204C136.986 314.32 135.607 313.549 133.824 312.901C133.455 312.768 133.103 312.632 132.764 312.503C132.578 312.431 132.399 312.358 132.22 312.285C130.419 311.541 128.31 310.458 127.251 309.684L121.492 317.791L117.214 307.543L111.72 316.54L101.65 306.898C101.258 306.898 100.873 306.908 100.491 306.921C88.9922 307.411 81.4527 315.389 76.1917 327.712L72.9767 335.078L71.3658 338.777L98.4547 349.66C95.1599 359.435 89.5934 374.432 86.4547 379.501C84.1065 382.407 81.3863 385.014 78.2842 386.897L78.2809 386.89Z" fill="#518E2E" stroke="#1D1D1B" stroke-miterlimit="10"/>
<path d="M100.922 341.792C100.55 343.241 99.6504 346.103 98.4514 349.654" stroke="#1D1D1B" stroke-miterlimit="10"/>
<path d="M3.24495 306.018C5.97177 308.261 8.95434 310.147 12.1063 311.63C7.6557 311.041 2.37475 311.08 1.41488 314.128C0.913359 315.73 1.61084 317.52 2.76999 318.741C3.92914 319.962 5.48353 320.723 7.01135 321.424C14.7501 324.962 25.4116 327.768 33.7416 329.532C33.7416 329.532 39.5705 357.155 41.9054 363.816C44.237 370.474 47.0734 389.935 67.8053 389.935C69.0276 389.935 70.2133 389.819 71.3625 389.604C73.8502 389.13 76.1585 388.181 78.2808 386.89C81.383 385.007 84.1032 382.397 86.4514 379.495C89.59 374.425 95.1566 359.429 98.4514 349.654L71.3625 338.77C68.9777 344.237 67.2706 348.013 66.128 350.501L58.5487 315.177C58.5487 315.177 60.4352 306.061 56.9379 297.745C56.9379 297.745 54.2044 288.483 49.9298 288.996C45.6552 289.512 43.3236 293.129 46.3029 304.744C46.3029 304.744 45.6652 304.969 44.8249 305.501C40.4706 303.245 36.1263 300.955 31.6823 298.903C25.8334 296.2 23.5218 289.201 17.1182 287.14C15.7399 286.693 14.1655 286.488 12.8935 287.179C11.8738 287.735 11.2095 288.814 10.977 289.949C9.99725 294.674 16.723 301.537 21.4791 305.243C22.1799 305.713 22.8409 306.196 23.4553 306.679C22.8641 306.286 22.1932 305.799 21.4791 305.243C17.0684 302.269 11.1863 299.671 6.47662 298.506C5.42707 298.241 4.34431 298.026 3.27484 298.185C2.20868 298.341 1.14585 298.94 0.64433 299.952C0.116236 301.021 0.312195 302.371 0.883467 303.42C1.45474 304.469 2.34486 305.273 3.24827 306.014L3.24495 306.018Z" fill="#EFC316"/>
<path d="M21.4791 305.243C16.723 301.537 9.99725 294.674 10.977 289.949C11.2095 288.814 11.8738 287.735 12.8935 287.179C14.1655 286.488 15.7399 286.693 17.1182 287.14C23.5218 289.201 25.8334 296.2 31.6823 298.903C36.1263 300.955 40.4706 303.245 44.8249 305.501C45.6652 304.969 46.3029 304.744 46.3029 304.744C43.3236 293.129 45.6552 289.512 49.9298 288.996C54.2044 288.483 56.9378 297.745 56.9378 297.745C60.4352 306.061 58.5487 315.177 58.5487 315.177L66.128 350.501C67.2706 348.013 68.9777 344.237 71.3625 338.77L98.4514 349.654C95.1566 359.429 89.59 374.425 86.4514 379.495C84.1032 382.397 81.383 385.007 78.2808 386.89C76.1585 388.181 73.8502 389.13 71.3625 389.604C70.2133 389.819 69.0276 389.935 67.8053 389.935C47.0734 389.935 44.237 370.474 41.9054 363.816C39.5705 357.155 33.7416 329.532 33.7416 329.532C25.4116 327.768 14.7501 324.962 7.01135 321.424C5.48353 320.723 3.92914 319.962 2.76999 318.741C1.61084 317.52 0.913359 315.73 1.41488 314.128C2.37475 311.08 7.6557 311.041 12.1063 311.63C8.95434 310.147 5.97177 308.261 3.24495 306.018L3.24827 306.014C2.34486 305.273 1.45474 304.469 0.883467 303.42C0.312195 302.371 0.116236 301.021 0.64433 299.952C1.14585 298.94 2.20868 298.341 3.27484 298.185C4.34431 298.026 5.42707 298.241 6.47662 298.506C11.1863 299.671 17.0684 302.269 21.4791 305.243ZM21.4791 305.243C22.1799 305.713 22.8409 306.196 23.4553 306.679C22.8641 306.286 22.1932 305.799 21.4791 305.243Z" stroke="#1D1D1B" stroke-linecap="round" stroke-linejoin="round"/>
<path d="M19.762 284.837C19.762 287.011 19.772 289.509 21.5954 291.018C21.2832 291.369 21.157 291.855 21.157 292.328C21.157 293.811 22.1069 295.498 22.8044 296.769C23.3823 297.821 24.0532 298.784 24.7839 299.721C25.4449 300.564 25.9829 301.335 26.9826 301.828C27.3048 301.987 27.7034 302.11 28.0156 301.924C28.1351 303.777 29.6165 304.661 31.0446 305.541C32.5758 306.488 34.2365 307.239 35.9735 307.718C36.9633 307.993 38.1058 308.023 38.9428 307.424C39.4244 308.602 40.5337 308.82 41.663 308.883C42.0948 308.91 42.5299 308.923 42.9683 308.923C47.213 308.923 52.9689 307.884 55.6293 304.208C55.8518 303.9 56.0411 303.506 55.895 303.159C58.738 303.083 60.7906 300.475 62.2022 298.311C63.2185 296.749 64.4607 294.783 64.6899 292.901C64.753 292.381 64.6733 291.832 64.371 291.405C66.3074 289.985 66.1712 286.981 66.1712 284.833C66.1712 281.885 65.9055 278.88 63.6603 276.706C62.4281 275.515 60.6711 274.807 58.9739 275.068C56.9844 275.376 55.8352 277.08 55.0679 278.778C54.7823 279.413 52.3278 284.506 52.929 284.751C50.7901 283.87 47.7477 284.813 46.2996 286.531L45.828 287.093L45.7084 286.971C44.7186 285.975 43.3469 285.409 41.9619 285.247C41.2379 285.161 38.511 285.055 38.3018 286.111C38.883 283.185 35.482 281.478 33.0341 281.766C33.5722 281.703 33.3795 279.797 33.343 279.489C33.2201 278.493 32.9212 277.62 32.5725 276.7C32.2237 275.78 32.0643 274.837 31.5262 274C30.6228 272.59 29.178 271.475 27.5207 271.223C21.0308 270.231 19.7653 280.532 19.7653 284.83L19.762 284.837Z" fill="#AD672C" stroke="#1D1D1B" stroke-miterlimit="10"/>
<path d="M42.7524 293.182L40.7563 303.714" stroke="#1D1D1B" stroke-miterlimit="10"/>
<path d="M58.5454 315.18C58.5454 315.18 60.4286 306.061 56.9312 297.748C56.9312 297.748 54.2011 288.483 49.9232 289.003C45.6486 289.519 43.317 293.132 46.2962 304.75C46.2962 304.75 45.6585 304.975 44.8182 305.511C42.8254 306.769 39.6901 309.744 41.2412 315.465" fill="#EFC316"/>
<path d="M58.5454 315.18C58.5454 315.18 60.4286 306.061 56.9312 297.748C56.9312 297.748 54.2011 288.483 49.9232 289.003C45.6486 289.519 43.317 293.132 46.2962 304.75C46.2962 304.75 45.6585 304.975 44.8182 305.511C42.8254 306.769 39.6901 309.744 41.2412 315.465" stroke="#1D1D1B" stroke-linecap="round" stroke-linejoin="round"/>
<path d="M98.4514 385.464C101.65 385.464 104.619 384.141 106.811 381.735C108.87 379.478 110.003 376.503 110.003 373.36C110.003 370.216 108.87 367.241 106.811 364.985C104.619 362.579 101.65 361.255 98.4514 361.255C95.253 361.255 92.2837 362.579 90.0916 364.985C88.0324 367.241 86.8998 370.216 86.8998 373.36C86.8998 376.503 88.0324 379.478 90.0916 381.735C92.2837 384.141 95.253 385.464 98.4514 385.464Z" fill="#0AA2B5" stroke="#1D1D1B" stroke-miterlimit="10"/>
<path d="M98.4514 382.949C100.929 382.949 103.234 381.917 104.941 380.044C106.575 378.25 107.479 375.878 107.479 373.36C107.479 370.841 106.579 368.469 104.941 366.675C103.234 364.802 100.929 363.77 98.4514 363.77C95.9737 363.77 93.6686 364.802 91.9615 366.675C90.3274 368.469 89.424 370.841 89.424 373.36C89.424 375.878 90.324 378.25 91.9615 380.044C93.6686 381.917 95.9737 382.949 98.4514 382.949Z" fill="#518E2E" stroke="#1D1D1B" stroke-miterlimit="10"/>
<path d="M88.1851 395.395H65.2546C59.5883 395.395 54.9916 390.812 54.9916 385.17L54.9916 361.083C54.9916 359.518 56.267 358.247 57.838 358.247H95.605C97.176 358.247 98.4514 359.518 98.4514 361.083V385.17C98.4514 390.815 93.8514 395.395 88.1885 395.395H88.1851Z" fill="#0AA2B5" stroke="#1D1D1B" stroke-miterlimit="10"/>
<path d="M134.312 348.793V348.798" stroke="#1D1D1B" stroke-miterlimit="10"/>
<path d="M106.552 375.722C106.934 376.914 107.618 377.996 108.578 378.806C107.811 379.921 107.177 381.186 107.123 382.532C107.064 383.879 107.681 385.325 108.89 385.941C108.037 387.092 107.947 388.694 108.452 390.037C108.957 391.377 109.996 392.469 111.185 393.27C113.135 394.58 115.46 395.166 117.818 395.394C118.499 395.461 119.183 395.5 119.861 395.517C122.448 395.583 145.203 395.835 153.898 395.5C155.725 395.431 157.282 395.335 158.412 395.206C165.446 394.412 169.505 387.559 169.505 381.794C169.505 374.177 166.433 368.793 165.044 365.944C165.044 365.944 159.973 355.018 155.157 344.664C147.866 347.367 137.723 349.727 137.723 349.727L139.809 366.292L131.466 366.48L127.257 366.546C127.257 366.546 118.751 362.698 109.837 364.26C109.837 364.26 100.162 364.862 99.7201 369.131C99.398 372.264 100.942 374.753 106.549 375.722H106.552Z" fill="#EFC316" stroke="#1D1D1B" stroke-linecap="round" stroke-linejoin="round"/>
<path d="M155.339 365.941L139.809 366.292L139.005 359.918L143.031 365.941" fill="#1D1D1B"/>
<path d="M155.339 365.941L139.809 366.292L139.005 359.918L143.031 365.941" stroke="#1D1D1B" stroke-linecap="round" stroke-linejoin="round"/>
<path d="M108.097 369.802C108.097 369.802 105.572 372.288 106.552 375.719L108.097 369.802Z" fill="#E2BA1D"/>
<path d="M108.097 369.802C108.097 369.802 105.572 372.288 106.552 375.719" stroke="#1D1D1B" stroke-linecap="round" stroke-linejoin="round"/>
<path d="M66.0516 350.782L67.7721 358.529" stroke="#1D1D1B" stroke-miterlimit="10"/>
<path d="M115.39 278.43C114.377 277.785 113.039 277.894 111.919 278.334C109.824 279.155 108.2 281.107 107.841 283.324C107.479 285.538 108.425 287.931 110.242 289.261C111.521 290.197 113.411 290.548 114.666 289.578L115.394 278.43H115.39Z" fill="#E2BA1D" stroke="#1D1D1B" stroke-linecap="round" stroke-linejoin="round"/>
<path d="M125.819 308.132C118.728 307.374 111.64 306.62 104.546 305.859C105.529 305.382 106.456 304.8 107.309 304.125C113.158 304.403 119.001 304.681 124.846 304.959C124.856 305.138 124.869 305.316 124.886 305.498C124.989 306.514 125.321 307.384 125.819 308.132Z" fill="white" stroke="#1D1D1B" stroke-miterlimit="10"/>
<path d="M139.746 275.022C139.414 271.409 137.683 268.209 133.847 266.822C133.688 266.766 133.528 266.71 133.365 266.663C128.284 265.108 122.551 267.712 119.213 271.703C119.001 271.951 118.805 272.206 118.619 272.461C116.237 275.73 114.67 279.585 114.092 283.583C113.504 287.679 113.936 291.928 112.8 295.912C111.866 299.185 109.913 302.083 107.313 304.128C113.162 304.406 119.004 304.684 124.849 304.962C124.723 302.523 125.424 300.28 126.726 298.189C129.479 293.758 134.066 290.803 136.866 286.402C138.852 283.288 140.111 278.913 139.752 275.022H139.746Z" fill="#EFC316" stroke="#1D1D1B" stroke-linecap="round" stroke-linejoin="round"/>
<path d="M123.013 279.307C123.086 281.584 121.92 283.874 119.798 285.617" stroke="#1D1D1B" stroke-miterlimit="10"/>
<path d="M122.382 282.514C126.802 285.101 131.774 284.823 136.052 281.706" stroke="#1D1D1B" stroke-miterlimit="10"/>
<path d="M128.191 279.125C128.703 279.125 129.117 278.306 129.117 277.295C129.117 276.285 128.703 275.466 128.191 275.466C127.679 275.466 127.264 276.285 127.264 277.295C127.264 278.306 127.679 279.125 128.191 279.125Z" fill="#1D1D1B" stroke="#1D1D1B" stroke-miterlimit="10"/>
<path d="M134.079 279.125C134.591 279.125 135.006 278.306 135.006 277.295C135.006 276.285 134.591 275.466 134.079 275.466C133.568 275.466 133.153 276.285 133.153 277.295C133.153 278.306 133.568 279.125 134.079 279.125Z" fill="#1D1D1B" stroke="#1D1D1B" stroke-miterlimit="10"/>
<path d="M101.647 306.891L111.717 316.534L117.21 307.537L121.488 317.785L127.247 309.677C126.693 309.231 126.205 308.718 125.819 308.132C118.732 307.374 111.64 306.617 104.546 305.859C103.626 306.306 102.656 306.653 101.647 306.891Z" fill="#FCE6CE" stroke="#1D1D1B" stroke-miterlimit="10"/>
<path d="M53.7593 286.451L60.6312 291.372" stroke="#1D1D1B" stroke-miterlimit="10"/>
<path d="M36.9068 288.642C36.578 289.089 29.8722 297.891 29.8722 297.891L36.9068 288.642Z" fill="#0AA2B5"/>
<path d="M36.9068 288.642C36.578 289.089 29.8722 297.891 29.8722 297.891" stroke="#1D1D1B" stroke-miterlimit="10"/>
<path d="M137.723 349.723L137.148 344.637" stroke="#1D1D1B" stroke-miterlimit="10"/>
<path d="M116.503 273.837C120.847 273.933 133.349 271.21 135.677 267.554C135.677 267.554 130.659 263.03 122.083 267.501" fill="#0AA2B5"/>
<path d="M116.503 273.837C120.847 273.933 133.349 271.21 135.677 267.554C135.677 267.554 130.659 263.03 122.083 267.501" stroke="#1D1D1B" stroke-miterlimit="10"/>
<path d="M105.981 288.837C106.336 291.13 105.659 293.516 104.37 295.449C103.294 297.063 101.63 298.47 99.687 298.539" stroke="#1D1D1B" stroke-miterlimit="10"/>
<path d="M98.8134 291.312C95.8043 293.007 93.8381 296.395 93.868 299.837" stroke="#1D1D1B" stroke-miterlimit="10"/>
<path d="M12.1063 311.63L19.6757 313.764" stroke="#1D1D1B" stroke-miterlimit="10"/>
<path d="M31.6027 284.588L24.96 288.999" stroke="#1D1D1B" stroke-miterlimit="10"/>
<path d="M270.813 286.137H270.806" stroke="#1D1D1B" stroke-miterlimit="10"/>
<path d="M223.325 286.137H223.318" stroke="#1D1D1B" stroke-miterlimit="10"/>
<path d="M297.829 315.74C299.38 310.022 296.244 307.044 294.251 305.786" stroke="#1D1D1B" stroke-miterlimit="10"/>
<path d="M280.528 315.462C280.528 315.462 278.644 306.342 282.142 298.03C282.142 298.03 284.872 288.764 289.15 289.284C293.424 289.8 295.756 293.414 292.777 305.032C292.777 305.032 293.415 305.257 294.255 305.793C296.248 307.05 299.383 310.025 297.832 315.746" fill="#E2BA1D"/>
<path d="M280.528 315.462C280.528 315.462 278.644 306.342 282.142 298.03C282.142 298.03 284.872 288.764 289.15 289.284C293.424 289.8 295.756 293.414 292.777 305.032C292.777 305.032 293.415 305.257 294.255 305.793C296.248 307.05 299.383 310.025 297.832 315.746" stroke="#1D1D1B" stroke-miterlimit="10"/>
<path d="M260.722 386.89C262.845 388.184 265.153 389.131 267.641 389.604V395.391H221.185C223.543 395.163 225.868 394.577 227.818 393.267C229.007 392.466 230.043 391.374 230.551 390.034C231.056 388.69 230.967 387.089 230.113 385.937C231.322 385.322 231.94 383.876 231.88 382.529C231.823 381.182 231.192 379.918 230.425 378.803C231.388 377.996 232.069 376.91 232.451 375.719C238.061 374.75 239.605 372.261 239.28 369.127C238.838 364.862 229.163 364.257 229.163 364.257C220.252 362.695 211.743 366.543 211.743 366.543L207.534 366.477L199.191 366.288L201.277 349.723C201.277 349.723 191.134 347.364 183.843 344.661C187.38 337.06 190.782 329.767 191.937 327.344C194.611 321.739 197.57 317.924 200.925 315.204C202.018 314.32 203.396 313.549 205.18 312.901C205.548 312.768 205.9 312.632 206.239 312.503C206.425 312.431 206.604 312.358 206.784 312.285C208.584 311.541 210.693 310.458 211.753 309.684L217.512 317.791L221.79 307.543L227.283 316.54L237.353 306.898C237.745 306.898 238.131 306.908 238.513 306.921C250.011 307.411 257.551 315.389 262.812 327.712L266.027 335.078L267.638 338.777L240.549 349.66C243.843 359.435 249.41 374.432 252.549 379.501C254.897 382.407 257.617 385.014 260.719 386.897L260.722 386.89Z" fill="#EE3819" stroke="#1D1D1B" stroke-miterlimit="10"/>
<path d="M240.549 349.654C239.353 346.103 238.453 343.241 238.078 341.792" stroke="#1D1D1B" stroke-miterlimit="10"/>
<path d="M335.755 306.018C333.028 308.261 330.046 310.147 326.894 311.63C331.344 311.041 336.625 311.08 337.585 314.128C338.087 315.73 337.389 317.52 336.23 318.741C335.071 319.962 333.516 320.723 331.989 321.424C324.25 324.962 313.588 327.768 305.258 329.532C305.258 329.532 299.429 357.155 297.095 363.816C294.763 370.474 291.927 389.935 271.195 389.935C269.972 389.935 268.787 389.819 267.637 389.604C265.15 389.13 262.841 388.181 260.719 386.89C257.617 385.007 254.897 382.397 252.549 379.495C249.41 374.425 243.843 359.429 240.549 349.654L267.637 338.77C270.022 344.237 271.729 348.013 272.872 350.501L280.451 315.177C280.451 315.177 278.565 306.061 282.062 297.745C282.062 297.745 284.796 288.483 289.07 288.996C293.345 289.512 295.676 293.129 292.697 304.744C292.697 304.744 293.335 304.969 294.175 305.501C298.529 303.245 302.874 300.955 307.318 298.903C313.167 296.2 315.478 289.201 321.882 287.14C323.26 286.693 324.834 286.488 326.106 287.179C327.126 287.735 327.79 288.814 328.023 289.949C329.003 294.674 322.277 301.537 317.521 305.243C316.82 305.713 316.159 306.196 315.545 306.679C316.136 306.286 316.807 305.799 317.521 305.243C321.932 302.269 327.814 299.671 332.523 298.506C333.573 298.241 334.656 298.026 335.725 298.185C336.791 298.341 337.854 298.94 338.356 299.952C338.884 301.021 338.688 302.371 338.117 303.42C337.545 304.469 336.655 305.273 335.752 306.014L335.755 306.018Z" fill="#C4708A"/>
<path d="M317.521 305.243C322.277 301.537 329.003 294.674 328.023 289.949C327.79 288.814 327.126 287.735 326.106 287.179C324.834 286.488 323.26 286.693 321.882 287.14C315.478 289.201 313.167 296.2 307.318 298.903C302.874 300.955 298.529 303.245 294.175 305.501C293.335 304.969 292.697 304.744 292.697 304.744C295.676 293.129 293.345 289.512 289.07 288.996C284.796 288.483 282.062 297.745 282.062 297.745C278.565 306.061 280.451 315.177 280.451 315.177L272.872 350.501C271.729 348.013 270.022 344.237 267.637 338.77L240.549 349.654C243.843 359.429 249.41 374.425 252.549 379.495C254.897 382.397 257.617 385.007 260.719 386.89C262.841 388.181 265.15 389.13 267.637 389.604C268.787 389.819 269.972 389.935 271.195 389.935C291.927 389.935 294.763 370.474 297.095 363.816C299.429 357.155 305.258 329.532 305.258 329.532C313.588 327.768 324.25 324.962 331.989 321.424C333.516 320.723 335.071 319.962 336.23 318.741C337.389 317.52 338.087 315.73 337.585 314.128C336.625 311.08 331.344 311.041 326.894 311.63C330.046 310.147 333.028 308.261 335.755 306.018L335.752 306.014C336.655 305.273 337.545 304.469 338.117 303.42C338.688 302.371 338.884 301.021 338.356 299.952C337.854 298.94 336.791 298.341 335.725 298.185C334.656 298.026 333.573 298.241 332.523 298.506C327.814 299.671 321.932 302.269 317.521 305.243ZM317.521 305.243C316.82 305.713 316.159 306.196 315.545 306.679C316.136 306.286 316.807 305.799 317.521 305.243Z" stroke="#1D1D1B" stroke-miterlimit="10"/>
<path d="M319.238 284.837C319.238 287.011 319.228 289.509 317.405 291.018C317.717 291.369 317.843 291.855 317.843 292.328C317.843 293.811 316.893 295.498 316.196 296.769C315.618 297.821 314.947 298.784 314.216 299.721C313.555 300.564 313.017 301.335 312.017 301.828C311.695 301.987 311.297 302.11 310.984 301.924C310.865 303.777 309.383 304.661 307.955 305.541C306.424 306.488 304.763 307.239 303.026 307.718C302.037 307.993 300.894 308.023 300.057 307.424C299.576 308.602 298.466 308.82 297.337 308.883C296.905 308.91 296.47 308.923 296.032 308.923C291.787 308.923 286.031 307.884 283.371 304.208C283.148 303.9 282.959 303.506 283.105 303.159C280.262 303.083 278.209 300.475 276.798 298.311C275.781 296.749 274.539 294.783 274.31 292.901C274.247 292.381 274.327 291.832 274.629 291.405C272.693 289.985 272.829 286.981 272.829 284.833C272.829 281.885 273.094 278.88 275.34 276.706C276.572 275.515 278.329 274.807 280.026 275.068C282.016 275.376 283.165 277.08 283.932 278.778C284.218 279.413 286.672 284.506 286.071 284.751C288.21 283.87 291.252 284.813 292.7 286.531L293.172 287.093L293.292 286.971C294.281 285.975 295.653 285.409 297.038 285.247C297.762 285.161 300.489 285.055 300.698 286.111C300.117 283.185 303.518 281.478 305.966 281.766C305.428 281.703 305.62 279.797 305.657 279.489C305.78 278.493 306.079 277.62 306.427 276.7C306.776 275.78 306.936 274.837 307.474 274C308.377 272.59 309.822 271.475 311.479 271.223C317.969 270.231 319.235 280.532 319.235 284.83L319.238 284.837Z" fill="#AD672C" stroke="#1D1D1B" stroke-miterlimit="10"/>
<path d="M296.251 293.182L298.247 303.714" stroke="#1D1D1B" stroke-miterlimit="10"/>
<path d="M280.455 315.18C280.455 315.18 278.571 306.061 282.069 297.748C282.069 297.748 284.799 288.483 289.077 289.003C293.351 289.519 295.683 293.132 292.704 304.75C292.704 304.75 293.341 304.975 294.182 305.511C296.174 306.769 299.31 309.744 297.759 315.465" fill="#C4708A"/>
<path d="M280.455 315.18C280.455 315.18 278.571 306.061 282.069 297.748C282.069 297.748 284.799 288.483 289.077 289.003C293.351 289.519 295.683 293.132 292.704 304.75C292.704 304.75 293.341 304.975 294.182 305.511C296.174 306.769 299.31 309.744 297.759 315.465" stroke="#1D1D1B" stroke-miterlimit="10"/>
<path d="M240.549 385.464C237.35 385.464 234.381 384.141 232.189 381.735C230.13 379.478 228.997 376.503 228.997 373.36C228.997 370.216 230.13 367.241 232.189 364.985C234.381 362.579 237.35 361.255 240.549 361.255C243.747 361.255 246.716 362.579 248.908 364.985C250.968 367.241 252.1 370.216 252.1 373.36C252.1 376.503 250.968 379.478 248.908 381.735C246.716 384.141 243.747 385.464 240.549 385.464Z" fill="#E2BA1D" stroke="#1D1D1B" stroke-linecap="round" stroke-linejoin="round"/>
<path d="M240.549 382.949C238.071 382.949 235.766 381.917 234.059 380.044C232.425 378.25 231.521 375.878 231.521 373.36C231.521 370.841 232.421 368.469 234.059 366.675C235.766 364.802 238.071 363.77 240.549 363.77C243.026 363.77 245.331 364.802 247.039 366.675C248.673 368.469 249.576 370.841 249.576 373.36C249.576 375.878 248.676 378.25 247.039 380.044C245.331 381.917 243.026 382.949 240.549 382.949Z" fill="#EE3819" stroke="#1D1D1B" stroke-miterlimit="10"/>
<path d="M243.395 358.244H281.162C282.733 358.244 284.008 359.515 284.008 361.08V385.166C284.008 390.812 279.408 395.391 273.745 395.391H250.815C245.149 395.391 240.552 390.808 240.552 385.166V361.08C240.552 359.515 241.827 358.244 243.398 358.244H243.395Z" fill="#EFC316" stroke="#1D1D1B" stroke-linecap="round" stroke-linejoin="round"/>
<path d="M204.688 348.793V348.798" stroke="#1D1D1B" stroke-miterlimit="10"/>
<path d="M232.448 375.722C232.066 376.914 231.382 377.996 230.422 378.806C231.189 379.921 231.823 381.186 231.877 382.532C231.936 383.879 231.319 385.325 230.11 385.941C230.963 387.092 231.053 388.694 230.548 390.037C230.043 391.377 229.004 392.469 227.815 393.27C225.865 394.58 223.54 395.166 221.182 395.394C220.501 395.461 219.817 395.5 219.139 395.517C216.552 395.583 193.797 395.835 185.102 395.5C183.275 395.431 181.718 395.335 180.588 395.206C173.554 394.412 169.495 387.559 169.495 381.794C169.495 374.177 172.567 368.793 173.956 365.944C173.956 365.944 179.027 355.018 183.843 344.664C191.134 347.367 201.277 349.727 201.277 349.727L199.191 366.292L207.534 366.48L211.743 366.546C211.743 366.546 220.249 362.698 229.163 364.26C229.163 364.26 238.838 364.862 239.28 369.131C239.602 372.264 238.058 374.753 232.451 375.722H232.448Z" fill="#C4708A" stroke="#1D1D1B" stroke-miterlimit="10"/>
<path d="M183.664 365.941L199.195 366.292L200.031 359.627L195.903 366.116" fill="#1D1D1B"/>
<path d="M183.664 365.941L199.195 366.292L200.031 359.627L195.903 366.116" stroke="#1D1D1B" stroke-miterlimit="10"/>
<path d="M230.907 369.802C230.907 369.802 233.431 372.288 232.451 375.719L230.907 369.802Z" fill="#C4708A"/>
<path d="M230.907 369.802C230.907 369.802 233.431 372.288 232.451 375.719" stroke="#1D1D1B" stroke-miterlimit="10"/>
<path d="M272.948 350.782L271.231 358.529" stroke="#1D1D1B" stroke-miterlimit="10"/>
<path d="M223.61 278.43C224.623 277.785 225.961 277.894 227.081 278.334C229.176 279.155 230.8 281.107 231.159 283.324C231.521 285.538 230.575 287.931 228.758 289.261C227.479 290.197 225.589 290.548 224.334 289.578L223.606 278.43H223.61Z" fill="#C4708A" stroke="#1D1D1B" stroke-miterlimit="10"/>
<path d="M213.181 308.132C220.272 307.374 227.36 306.62 234.454 305.859C233.471 305.382 232.544 304.8 231.691 304.125C225.842 304.403 219.999 304.681 214.154 304.959C214.144 305.138 214.131 305.316 214.114 305.498C214.011 306.514 213.679 307.384 213.181 308.132Z" fill="#8DC2A6" stroke="#1D1D1B" stroke-miterlimit="10"/>
<path d="M202.141 286.402C204.94 290.803 209.527 293.758 212.281 298.189C213.579 300.283 214.283 302.523 214.157 304.966C220.003 304.688 225.845 304.413 231.694 304.132C229.093 302.083 227.14 299.188 226.207 295.915C225.071 291.935 225.5 287.683 224.915 283.586C224.34 279.589 222.769 275.734 220.388 272.464C220.199 272.206 220.003 271.955 219.793 271.707C219.793 271.707 212.52 271.455 205.641 266.664C205.601 266.809 204.213 271.336 199.264 275.022C198.906 278.914 200.164 283.288 202.15 286.402H202.141Z" fill="#C4708A" stroke="#1D1D1B" stroke-miterlimit="10"/>
<path d="M215.054 275.466C214.964 279.556 216.412 283.662 219.053 286.796" stroke="#1D1D1B" stroke-miterlimit="10"/>
<path d="M216.622 282.514C212.201 285.101 207.229 284.823 202.951 281.706" stroke="#1D1D1B" stroke-miterlimit="10"/>
<path d="M210.813 279.125C211.324 279.125 211.739 278.306 211.739 277.295C211.739 276.285 211.324 275.466 210.813 275.466C210.301 275.466 209.886 276.285 209.886 277.295C209.886 278.306 210.301 279.125 210.813 279.125Z" fill="#1D1D1B" stroke="#1D1D1B" stroke-miterlimit="10"/>
<path d="M204.924 279.125C205.436 279.125 205.851 278.306 205.851 277.295C205.851 276.285 205.436 275.466 204.924 275.466C204.412 275.466 203.997 276.285 203.997 277.295C203.997 278.306 204.412 279.125 204.924 279.125Z" fill="#1D1D1B" stroke="#1D1D1B" stroke-miterlimit="10"/>
<path d="M237.357 306.891L227.286 316.534L221.793 307.537L217.515 317.785L211.756 309.677C212.311 309.231 212.799 308.718 213.184 308.132C220.272 307.374 227.363 306.617 234.457 305.859C235.377 306.306 236.347 306.653 237.357 306.891Z" fill="#0AA2B5" stroke="#1D1D1B" stroke-miterlimit="10"/>
<path d="M205.638 266.66C212.516 271.452 219.79 271.703 219.79 271.703C216.452 267.712 210.72 265.108 205.638 266.66Z" fill="#1D1D1B" stroke="#1D1D1B" stroke-miterlimit="10"/>
<path d="M199.254 275.022C204.206 271.336 205.591 266.812 205.631 266.664C205.469 266.71 205.309 266.766 205.15 266.822C201.317 268.209 199.586 271.409 199.251 275.022H199.254Z" fill="#1D1D1B" stroke="#1D1D1B" stroke-miterlimit="10"/>
<path d="M285.244 286.451L278.372 291.372" stroke="#1D1D1B" stroke-miterlimit="10"/>
<path d="M302.093 288.642C302.422 289.089 309.128 297.891 309.128 297.891L302.093 288.642Z" fill="#0AA2B5"/>
<path d="M302.093 288.642C302.422 289.089 309.128 297.891 309.128 297.891" stroke="#1D1D1B" stroke-miterlimit="10"/>
<path d="M201.28 349.723L201.852 344.637" stroke="#1D1D1B" stroke-miterlimit="10"/>
<path d="M308.656 282.474L315.691 287.371" stroke="#1D1D1B" stroke-miterlimit="10"/>
<path d="M326.894 311.63L319.328 313.764" stroke="#1D1D1B" stroke-miterlimit="10"/>
<path d="M265.545 158.333C263.948 170.282 223.264 182.925 208.87 169.388C192.831 154.299 205.376 106.45 233.424 93.8166C246.617 87.8736 264.841 89.4686 266.356 94.7663C269.348 105.249 209.624 139.127 191.881 124.445C180.781 115.256 191.738 91.7088 183.176 87.8538C174.517 83.9557 150.889 102.443 151.932 122.221C152.553 134.008 161.849 144.62 172.219 150.03C204.094 166.668 243.75 132.939 261.676 150.348C262.679 151.321 266.047 154.593 265.545 158.333Z" stroke="#EE3819" stroke-miterlimit="10"/>
<path d="M118.413 199.672C144.28 199.672 165.25 187.274 165.25 171.979C165.25 156.685 144.28 144.286 118.413 144.286C92.545 144.286 71.5751 156.685 71.5751 171.979C71.5751 187.274 92.545 199.672 118.413 199.672Z" fill="#FCE6CE" stroke="#1D1D1B" stroke-miterlimit="10"/>
<path d="M127.274 197.474L137.866 207.335V196.356" fill="#FCE6CE"/>
<path d="M127.274 197.474L137.866 207.335V196.356" stroke="#1D1D1B" stroke-miterlimit="10"/>
<path d="M143.379 164.067C139.218 164.067 139.218 166.731 135.056 166.731C130.894 166.731 130.894 164.067 126.733 164.067C122.571 164.067 122.571 166.731 118.409 166.731C114.248 166.731 114.248 164.067 110.086 164.067C105.924 164.067 105.924 166.731 101.763 166.731C97.6011 166.731 97.6011 164.067 93.4395 164.067" stroke="#518E2E" stroke-miterlimit="10"/>
<path d="M143.379 174.835C139.218 174.835 139.218 177.498 135.056 177.498C130.894 177.498 130.894 174.835 126.733 174.835C122.571 174.835 122.571 177.498 118.409 177.498C114.248 177.498 114.248 174.835 110.086 174.835C105.924 174.835 105.924 177.498 101.763 177.498C97.6011 177.498 97.6011 174.835 93.4395 174.835" stroke="#518E2E" stroke-miterlimit="10"/>
<path d="M228.997 148.717C230.066 148.717 230.933 147.853 230.933 146.788C230.933 145.722 230.066 144.858 228.997 144.858C227.928 144.858 227.061 145.722 227.061 146.788C227.061 147.853 227.928 148.717 228.997 148.717Z" fill="#1D1D1B" stroke="#1D1D1B" stroke-miterlimit="10"/>
<path d="M257.76 297.646C258.829 297.646 259.696 296.782 259.696 295.717C259.696 294.651 258.829 293.788 257.76 293.788C256.69 293.788 255.823 294.651 255.823 295.717C255.823 296.782 256.69 297.646 257.76 297.646Z" fill="#1D1D1B" stroke="#1D1D1B" stroke-miterlimit="10"/>
<path d="M122.382 236.727C123.451 236.727 124.318 235.863 124.318 234.798C124.318 233.732 123.451 232.868 122.382 232.868C121.312 232.868 120.445 233.732 120.445 234.798C120.445 235.863 121.312 236.727 122.382 236.727Z" fill="#1D1D1B" stroke="#1D1D1B" stroke-miterlimit="10"/>
<path d="M27.0955 240.734C28.1649 240.734 29.0319 239.87 29.0319 238.805C29.0319 237.739 28.1649 236.876 27.0955 236.876C26.0261 236.876 25.1592 237.739 25.1592 238.805C25.1592 239.87 26.0261 240.734 27.0955 240.734Z" fill="#1D1D1B" stroke="#1D1D1B" stroke-miterlimit="10"/>
<path d="M81.9244 110.524C82.9938 110.524 83.8607 109.66 83.8607 108.595C83.8607 107.529 82.9938 106.666 81.9244 106.666C80.855 106.666 79.988 107.529 79.988 108.595C79.988 109.66 80.855 110.524 81.9244 110.524Z" fill="#1D1D1B" stroke="#1D1D1B" stroke-miterlimit="10"/>
<path d="M285.174 175.708L273.174 185.272L283.587 196.535L268.185 196.853L270.009 212.088L257.135 203.633L250.157 217.336L244.162 203.2L230.628 210.533L234.069 195.609L218.887 193.226L230.887 183.663L220.474 172.399L235.879 172.082L234.052 156.847L246.929 165.302L253.904 151.599L259.899 165.735L273.433 158.402L269.992 173.326L285.174 175.708Z" fill="#8DC2A6"/>
<path d="M285.174 175.708L273.174 185.272L283.587 196.535L268.185 196.853L270.009 212.088L257.135 203.633L250.157 217.336L244.162 203.2L230.628 210.533L234.069 195.609L218.887 193.226L230.887 183.663L220.474 172.399L235.879 172.082L234.052 156.847L246.929 165.302L253.904 151.599L259.899 165.735L273.433 158.402L269.992 173.326L285.174 175.708Z" stroke="#1D1D1B" stroke-miterlimit="10"/>
<path d="M272.829 231.081C302.088 231.081 325.808 222.615 325.808 212.17C325.808 201.726 302.088 193.259 272.829 193.259C243.569 193.259 219.85 201.726 219.85 212.17C219.85 222.615 243.569 231.081 272.829 231.081Z" fill="#FCE6CE" stroke="#1D1D1B" stroke-miterlimit="10"/>
<path d="M243.78 227.355L229.97 237.03L231.88 223.037" fill="#FCE6CE"/>
<path d="M243.78 227.355L229.97 237.03L231.88 223.037" stroke="#1D1D1B" stroke-miterlimit="10"/>
<path d="M246.736 218.517C250.255 218.517 253.107 215.676 253.107 212.17C253.107 208.665 250.255 205.824 246.736 205.824C243.218 205.824 240.366 208.665 240.366 212.17C240.366 215.676 243.218 218.517 246.736 218.517Z" fill="#518E2E" stroke="#1D1D1B" stroke-miterlimit="10"/>
<path d="M264.13 218.517C267.648 218.517 270.5 215.676 270.5 212.17C270.5 208.665 267.648 205.824 264.13 205.824C260.612 205.824 257.76 208.665 257.76 212.17C257.76 215.676 260.612 218.517 264.13 218.517Z" fill="#FCE6CE" stroke="#1D1D1B" stroke-miterlimit="10"/>
<path d="M281.524 218.517C285.042 218.517 287.894 215.676 287.894 212.17C287.894 208.665 285.042 205.824 281.524 205.824C278.006 205.824 275.154 208.665 275.154 212.17C275.154 215.676 278.006 218.517 281.524 218.517Z" fill="#0AA2B5" stroke="#1D1D1B" stroke-miterlimit="10"/>
<path d="M298.921 218.517C302.44 218.517 305.292 215.676 305.292 212.17C305.292 208.665 302.44 205.824 298.921 205.824C295.403 205.824 292.551 208.665 292.551 212.17C292.551 215.676 295.403 218.517 298.921 218.517Z" fill="#C4708A" stroke="#1D1D1B" stroke-miterlimit="10"/>
<path d="M2.09912 369.22L21.5888 346.057L22.1169 363.724L2.09912 369.22Z" fill="#EFC316" stroke="#1D1D1B" stroke-linecap="round" stroke-linejoin="round"/>
<path d="M194.907 151.307L208.185 142.168L191.881 124.445L194.907 151.307Z" fill="#EE3819" stroke="#1D1D1B" stroke-miterlimit="10"/>
<path d="M73.3155 221.505C93.3647 221.505 109.618 202.357 109.618 178.736C109.618 155.115 93.3647 135.967 73.3155 135.967C53.2662 135.967 37.0131 155.115 37.0131 178.736C37.0131 202.357 53.2662 221.505 73.3155 221.505Z" fill="#FCE6CE" stroke="#1D1D1B" stroke-miterlimit="10"/>
<path d="M95.2291 212.151L112.029 216.069L102.772 201.836" fill="#FCE6CE"/>
<path d="M95.2291 212.151L112.029 216.069L102.772 201.836" stroke="#1D1D1B" stroke-miterlimit="10"/>
<path d="M85.5114 169.805C89.7377 169.805 93.1638 166.392 93.1638 162.181C93.1638 157.971 89.7377 154.557 85.5114 154.557C81.2851 154.557 77.859 157.971 77.859 162.181C77.859 166.392 81.2851 169.805 85.5114 169.805Z" fill="#0AA2B5" stroke="#1D1D1B" stroke-miterlimit="10"/>
<path d="M58.9838 163.802C63.2101 163.802 66.6362 160.389 66.6362 156.178C66.6362 151.968 63.2101 148.554 58.9838 148.554C54.7575 148.554 51.3314 151.968 51.3314 156.178C51.3314 160.389 54.7575 163.802 58.9838 163.802Z" fill="#8DC2A6" stroke="#1D1D1B" stroke-miterlimit="10"/>
<path d="M77.8623 212.074C82.0886 212.074 85.5147 208.661 85.5147 204.45C85.5147 200.24 82.0886 196.826 77.8623 196.826C73.636 196.826 70.21 200.24 70.21 204.45C70.21 208.661 73.636 212.074 77.8623 212.074Z" fill="#8DC2A6" stroke="#1D1D1B" stroke-miterlimit="10"/>
<path d="M89.5768 187.641C93.8031 187.641 97.2291 184.227 97.2291 180.017C97.2291 175.806 93.8031 172.393 89.5768 172.393C85.3505 172.393 81.9244 175.806 81.9244 180.017C81.9244 184.227 85.3505 187.641 89.5768 187.641Z" fill="#FCE6CE" stroke="#1D1D1B" stroke-miterlimit="10"/>
<path d="M57.8446 195.129C62.0709 195.129 65.497 191.716 65.497 187.505C65.497 183.294 62.0709 179.881 57.8446 179.881C53.6183 179.881 50.1922 183.294 50.1922 187.505C50.1922 191.716 53.6183 195.129 57.8446 195.129Z" fill="#FCE6CE" stroke="#1D1D1B" stroke-miterlimit="10"/>
<path d="M66.6362 181.638C70.8625 181.638 74.2886 178.225 74.2886 174.014C74.2886 169.804 70.8625 166.39 66.6362 166.39C62.4099 166.39 58.9838 169.804 58.9838 174.014C58.9838 178.225 62.4099 181.638 66.6362 181.638Z" fill="#EE3819" stroke="#1D1D1B" stroke-miterlimit="10"/>
<path d="M68.4297 263.49C84.1958 263.49 96.9767 251.092 96.9767 235.797C96.9767 220.502 84.1958 208.104 68.4297 208.104C52.6637 208.104 39.8828 220.502 39.8828 235.797C39.8828 251.092 52.6637 263.49 68.4297 263.49Z" fill="#EFC316" stroke="#1D1D1B" stroke-linecap="round" stroke-linejoin="round"/>
<path d="M94.2898 246.669L98.5644 259.915L87.4578 255.888" fill="#EFC316"/>
<path d="M94.2898 246.669L98.5644 259.915L87.4578 255.888" stroke="#1D1D1B" stroke-linecap="round" stroke-linejoin="round"/>
<path d="M74.8101 241.637H62.0494L58.2897 221.525H78.5731L74.8101 241.637Z" fill="#FCE6CE"/>
<path d="M75.8164 244.781H61.043V249.678H75.8164V244.781Z" fill="#FCE6CE"/>
</g>
<path d="M328 395.5H0" stroke="black"/>
<defs>
<clipPath id="clip0_148_115">
<rect width="153" height="82" fill="white" transform="translate(92)"/>
</clipPath>
<clipPath id="clip1_148_115">
<rect width="339" height="309" fill="white" transform="translate(0 87)"/>
</clipPath>
</defs>
</svg>
