<svg width="431" height="405" viewBox="0 0 431 405" fill="none" xmlns="http://www.w3.org/2000/svg">
<rect width="431" height="405" rx="16" fill="#FCE6CE"/>
<path d="M143.853 127H136.335V126.118L139.254 125.866V113.665L136.335 113.392V112.51H143.853V113.392L140.934 113.665V125.866L143.853 126.118V127ZM146.086 115.912C146.737 115.324 147.115 114.505 147.178 113.749C146.506 113.812 145.981 113.266 145.981 112.678C145.981 112.069 146.506 111.586 147.073 111.586C147.724 111.586 148.186 112.09 148.186 112.867C148.186 114.379 147.577 115.723 146.527 116.416L146.086 115.912ZM161.935 117.529L160.36 117.739L156.538 127.063H155.068L151.288 117.739L149.671 117.529V116.71H154.984V117.508L152.821 117.739L155.824 125.551L158.827 117.739L156.622 117.508V116.71H161.935V117.529ZM168.251 126.265C169.826 126.265 170.855 125.593 171.422 124.354L172.304 124.69C171.779 126.328 170.393 127.441 168.062 127.441C164.912 127.441 162.854 125.152 162.854 121.855C162.854 118.558 164.891 116.248 167.873 116.248C170.918 116.248 172.472 118.642 172.472 121.078C172.472 121.267 172.472 121.603 172.451 121.876H164.366V121.981C164.387 124.606 165.773 126.265 168.251 126.265ZM167.873 117.424C166.025 117.424 164.765 118.726 164.45 120.763H171.023C170.96 118.453 169.406 117.424 167.873 117.424ZM189.351 121.771C189.351 125.131 187.272 127.441 184.353 127.441C182.778 127.441 181.644 126.769 180.93 125.74L180.405 127H179.691V113.098C178.83 113.434 177.801 113.413 176.94 113.203V112.531C178.347 112.594 179.544 112.111 180.468 111.166L181.266 111.334V118.117C181.98 116.941 183.219 116.248 184.773 116.248C187.587 116.248 189.351 118.516 189.351 121.771ZM184.353 117.487C182.904 117.487 181.791 118.222 181.266 119.503V124.753C181.854 125.719 182.904 126.286 184.143 126.286C186.327 126.286 187.797 124.501 187.797 121.813C187.797 119.146 186.516 117.487 184.353 117.487ZM196.777 126.265C198.352 126.265 199.381 125.593 199.948 124.354L200.83 124.69C200.305 126.328 198.919 127.441 196.588 127.441C193.438 127.441 191.38 125.152 191.38 121.855C191.38 118.558 193.417 116.248 196.399 116.248C199.444 116.248 200.998 118.642 200.998 121.078C200.998 121.267 200.998 121.603 200.977 121.876H192.892V121.981C192.913 124.606 194.299 126.265 196.777 126.265ZM196.399 117.424C194.551 117.424 193.291 118.726 192.976 120.763H199.549C199.486 118.453 197.932 117.424 196.399 117.424ZM208.487 126.265C210.062 126.265 211.091 125.593 211.658 124.354L212.54 124.69C212.015 126.328 210.629 127.441 208.298 127.441C205.148 127.441 203.09 125.152 203.09 121.855C203.09 118.558 205.127 116.248 208.109 116.248C211.154 116.248 212.708 118.642 212.708 121.078C212.708 121.267 212.708 121.603 212.687 121.876H204.602V121.981C204.623 124.606 206.009 126.265 208.487 126.265ZM208.109 117.424C206.261 117.424 205.001 118.726 204.686 120.763H211.259C211.196 118.453 209.642 117.424 208.109 117.424ZM222.423 126.202L224.628 125.929V120.196C224.628 118.537 223.788 117.55 222.255 117.55C220.764 117.55 219.441 118.516 218.643 119.839V125.929L220.806 126.202V127H214.695V126.16L217.068 125.908V118.159C216.207 118.516 215.136 118.495 214.254 118.264V117.613C215.64 117.676 216.837 117.193 217.74 116.248L218.559 116.416V118.663C219.483 117.235 221.016 116.248 222.759 116.248C225.174 116.248 226.203 117.907 226.203 119.944V125.908L228.345 126.16V127H222.423V126.202ZM237.809 126.244C239.216 126.244 240.476 125.467 241.148 124.711V122.044C236.969 122.086 235.772 123.43 235.772 124.669C235.772 125.677 236.654 126.244 237.809 126.244ZM238.775 116.248C241.589 116.248 242.702 117.718 242.702 120.028V124.459C242.702 125.677 243.017 126.055 243.668 126.055C244.088 126.055 244.361 125.824 244.508 125.467L244.991 125.698C244.739 126.622 244.109 127.147 243.101 127.147C242.156 127.147 241.463 126.664 241.232 125.761C240.455 126.664 239.174 127.441 237.473 127.441C235.625 127.441 234.26 126.412 234.26 124.711C234.26 122.233 236.948 120.973 241.148 120.952V119.944C241.148 118.222 240.245 117.403 238.691 117.403C237.536 117.403 236.927 117.76 236.507 118.537C236.255 118.999 236.129 119.545 235.541 119.545C235.058 119.545 234.722 119.209 234.722 118.747C234.722 118.537 234.806 117.886 235.604 117.235C236.402 116.584 237.41 116.248 238.775 116.248ZM250.604 112.51H258.206V113.392L255.203 113.665V125.866H261.881L263.603 121.246L264.422 121.414L263.204 127H250.604V126.118L253.523 125.866V113.665L250.604 113.392V112.51ZM266.521 121.834C266.521 118.537 268.6 116.248 271.771 116.248C274.9 116.248 276.979 118.537 276.979 121.834C276.979 125.131 274.9 127.441 271.729 127.441C268.6 127.441 266.521 125.131 266.521 121.834ZM268.075 121.855C268.075 124.522 269.503 126.265 271.75 126.265C274.018 126.265 275.446 124.543 275.446 121.855C275.446 119.167 274.018 117.424 271.75 117.424C269.503 117.424 268.075 119.146 268.075 121.855ZM286.633 126.202L288.838 125.929V120.196C288.838 118.537 287.998 117.55 286.465 117.55C284.974 117.55 283.651 118.516 282.853 119.839V125.929L285.016 126.202V127H278.905V126.16L281.278 125.908V118.159C280.417 118.516 279.346 118.495 278.464 118.264V117.613C279.85 117.676 281.047 117.193 281.95 116.248L282.769 116.416V118.663C283.693 117.235 285.226 116.248 286.969 116.248C289.384 116.248 290.413 117.907 290.413 119.944V125.908L292.555 126.16V127H286.633V126.202ZM299.328 126.244C300.693 126.244 301.848 125.53 302.373 124.249V118.978C301.785 117.991 300.714 117.424 299.496 117.424C297.27 117.424 295.821 119.23 295.821 121.876C295.821 124.627 297.186 126.244 299.328 126.244ZM303.927 111.334V126.139H306.111V126.958L302.562 127.231L302.478 127.189L302.436 125.446C301.68 126.727 300.378 127.441 298.866 127.441C296.031 127.441 294.288 125.173 294.288 121.939C294.288 118.558 296.304 116.248 299.223 116.248C300.483 116.248 301.617 116.773 302.373 117.697V113.077C301.512 113.434 300.441 113.413 299.559 113.203V112.531C300.987 112.594 302.205 112.111 303.108 111.166L303.927 111.334ZM307.352 121.834C307.352 118.537 309.431 116.248 312.602 116.248C315.731 116.248 317.81 118.537 317.81 121.834C317.81 125.131 315.731 127.441 312.56 127.441C309.431 127.441 307.352 125.131 307.352 121.834ZM308.906 121.855C308.906 124.522 310.334 126.265 312.581 126.265C314.849 126.265 316.277 124.543 316.277 121.855C316.277 119.167 314.849 117.424 312.581 117.424C310.334 117.424 308.906 119.146 308.906 121.855ZM327.464 126.202L329.669 125.929V120.196C329.669 118.537 328.829 117.55 327.296 117.55C325.805 117.55 324.482 118.516 323.684 119.839V125.929L325.847 126.202V127H319.736V126.16L322.109 125.908V118.159C321.248 118.516 320.177 118.495 319.295 118.264V117.613C320.681 117.676 321.878 117.193 322.781 116.248L323.6 116.416V118.663C324.524 117.235 326.057 116.248 327.8 116.248C330.215 116.248 331.244 117.907 331.244 119.944V125.908L333.386 126.16V127H327.464V126.202ZM340.516 126.265C342.091 126.265 343.12 125.593 343.687 124.354L344.569 124.69C344.044 126.328 342.658 127.441 340.327 127.441C337.177 127.441 335.119 125.152 335.119 121.855C335.119 118.558 337.156 116.248 340.138 116.248C343.183 116.248 344.737 118.642 344.737 121.078C344.737 121.267 344.737 121.603 344.716 121.876H336.631V121.981C336.652 124.606 338.038 126.265 340.516 126.265ZM340.138 117.424C338.29 117.424 337.03 118.726 336.715 120.763H343.288C343.225 118.453 341.671 117.424 340.138 117.424ZM353.087 117.802C352.142 117.802 351.239 118.705 350.672 120.154V125.929L353.108 126.16V127H346.703V126.16L349.097 125.908V118.159C348.236 118.516 347.165 118.495 346.283 118.264V117.613C347.669 117.676 348.866 117.193 349.769 116.248L350.588 116.416V118.705C351.26 117.298 352.394 116.248 353.78 116.248C354.704 116.248 355.439 116.71 355.439 117.424C355.439 117.886 355.061 118.285 354.578 118.285C354.053 118.285 353.864 117.802 353.087 117.802ZM85.366 148.217L84.589 148.364L83.959 147.293C83.203 145.991 82.363 145.382 80.935 145.382C79.297 145.382 78.667 146.18 78.667 147.062C78.667 148.385 80.2 148.784 81.628 149.162C83.938 149.771 85.618 150.464 85.618 152.48C85.618 154.055 84.379 155.441 81.985 155.441C80.305 155.441 79.129 154.748 78.31 153.53V155.231H77.47L76.798 151.157L77.596 150.989L78.184 151.976C79.171 153.635 80.305 154.328 81.754 154.328C83.245 154.328 84.148 153.677 84.148 152.564C84.148 151.304 82.951 150.821 81.103 150.338C79.612 149.96 77.218 149.267 77.218 147.062C77.218 145.466 78.562 144.248 80.62 144.248C82.153 144.248 83.203 144.899 83.833 145.802L83.917 144.227H84.715L85.366 148.217ZM89.6036 141.266C89.6036 140.636 90.1076 140.132 90.7376 140.132C91.3676 140.132 91.8926 140.636 91.8926 141.266C91.8926 141.896 91.3676 142.4 90.7376 142.4C90.1076 142.4 89.6036 141.896 89.6036 141.266ZM87.5876 154.16L89.9606 153.908V146.159C89.0996 146.516 88.0286 146.495 87.1466 146.264V145.613C88.4906 145.676 89.7506 145.214 90.6746 144.248L91.5356 144.437V153.908L93.8246 154.16V155H87.5876V154.16ZM103.191 154.202L105.396 153.929V148.196C105.396 146.537 104.556 145.55 103.023 145.55C101.532 145.55 100.209 146.516 99.4106 147.839V153.929L101.574 154.202V155H95.4626V154.16L97.8356 153.908V146.159C96.9746 146.516 95.9036 146.495 95.0216 146.264V145.613C96.4076 145.676 97.6046 145.193 98.5076 144.248L99.3266 144.416V146.663C100.251 145.235 101.784 144.248 103.527 144.248C105.942 144.248 106.971 145.907 106.971 147.944V153.908L109.113 154.16V155H103.191V154.202ZM116.033 155.441C112.904 155.441 110.846 153.152 110.846 149.876C110.846 146.495 112.904 144.248 115.991 144.248C118.175 144.248 119.393 145.277 120.002 146.411C120.17 146.747 120.296 147.083 120.296 147.356C120.296 147.839 119.96 148.196 119.54 148.196C118.889 148.196 118.826 147.734 118.616 147.167C118.217 146.033 117.23 145.466 116.054 145.466C113.786 145.466 112.358 147.188 112.358 149.876C112.358 152.543 113.786 154.286 116.222 154.286C117.881 154.286 118.952 153.446 119.561 152.018L120.443 152.354C119.813 154.286 118.364 155.441 116.033 155.441ZM127.645 154.265C129.22 154.265 130.249 153.593 130.816 152.354L131.698 152.69C131.173 154.328 129.787 155.441 127.456 155.441C124.306 155.441 122.248 153.152 122.248 149.855C122.248 146.558 124.285 144.248 127.267 144.248C130.312 144.248 131.866 146.642 131.866 149.078C131.866 149.267 131.866 149.603 131.845 149.876H123.76V149.981C123.781 152.606 125.167 154.265 127.645 154.265ZM127.267 145.424C125.419 145.424 124.159 146.726 123.844 148.763H130.417C130.354 146.453 128.8 145.424 127.267 145.424ZM143.6 149.708C140.996 151.325 140.303 152.48 139.988 153.824H146.561L147.968 150.065L148.766 150.254L147.758 155H138.266V154.643C138.371 151.892 140.576 150.065 142.844 148.616C145.112 147.167 146.267 146.075 146.267 144.416C146.267 142.799 145.217 141.665 143.117 141.665C140.723 141.665 139.442 143.45 139.652 145.76L138.539 145.886C137.993 143.009 139.673 140.447 143.222 140.447C146.33 140.447 147.863 142.106 147.863 144.416C147.863 146.537 146.435 147.944 143.6 149.708ZM150.861 147.923C150.861 143.219 153.318 140.447 156.783 140.447C160.227 140.447 162.684 143.219 162.684 147.923C162.684 152.648 160.206 155.441 156.741 155.441C153.276 155.441 150.861 152.648 150.861 147.923ZM152.436 147.923C152.436 152.081 154.368 154.16 156.741 154.16C159.135 154.16 161.046 152.081 161.046 147.923C161.046 143.765 159.135 141.728 156.741 141.728C154.368 141.728 152.436 143.765 152.436 147.923ZM164.968 154.16L167.677 153.908V142.757L165.01 144.584L164.506 143.891L168.37 140.51L169.252 140.72V153.908L172.045 154.16V155H164.968V154.16ZM179.571 149.708C176.967 151.325 176.274 152.48 175.959 153.824H182.532L183.939 150.065L184.737 150.254L183.729 155H174.237V154.643C174.342 151.892 176.547 150.065 178.815 148.616C181.083 147.167 182.238 146.075 182.238 144.416C182.238 142.799 181.188 141.665 179.088 141.665C176.694 141.665 175.413 143.45 175.623 145.76L174.51 145.886C173.964 143.009 175.644 140.447 179.193 140.447C182.301 140.447 183.834 142.106 183.834 144.416C183.834 146.537 182.406 147.944 179.571 149.708ZM186.958 157.478C187.63 156.89 188.008 156.05 188.05 155.294C187.357 155.357 186.832 154.811 186.832 154.223C186.832 153.572 187.336 153.11 187.945 153.11C188.596 153.11 189.079 153.614 189.079 154.391C189.079 155.945 188.449 157.331 187.378 157.982L186.958 157.478ZM198.988 154.244C200.395 154.244 201.655 153.467 202.327 152.711V150.044C198.148 150.086 196.951 151.43 196.951 152.669C196.951 153.677 197.833 154.244 198.988 154.244ZM199.954 144.248C202.768 144.248 203.881 145.718 203.881 148.028V152.459C203.881 153.677 204.196 154.055 204.847 154.055C205.267 154.055 205.54 153.824 205.687 153.467L206.17 153.698C205.918 154.622 205.288 155.147 204.28 155.147C203.335 155.147 202.642 154.664 202.411 153.761C201.634 154.664 200.353 155.441 198.652 155.441C196.804 155.441 195.439 154.412 195.439 152.711C195.439 150.233 198.127 148.973 202.327 148.952V147.944C202.327 146.222 201.424 145.403 199.87 145.403C198.715 145.403 198.106 145.76 197.686 146.537C197.434 146.999 197.308 147.545 196.72 147.545C196.237 147.545 195.901 147.209 195.901 146.747C195.901 146.537 195.985 145.886 196.783 145.235C197.581 144.584 198.589 144.248 199.954 144.248ZM215.266 154.202L217.471 153.929V148.196C217.471 146.537 216.631 145.55 215.098 145.55C213.607 145.55 212.284 146.516 211.486 147.839V153.929L213.649 154.202V155H207.538V154.16L209.911 153.908V146.159C209.05 146.516 207.979 146.495 207.097 146.264V145.613C208.483 145.676 209.68 145.193 210.583 144.248L211.402 144.416V146.663C212.326 145.235 213.859 144.248 215.602 144.248C218.017 144.248 219.046 145.907 219.046 147.944V153.908L221.188 154.16V155H215.266V154.202ZM227.961 154.244C229.326 154.244 230.481 153.53 231.006 152.249V146.978C230.418 145.991 229.347 145.424 228.129 145.424C225.903 145.424 224.454 147.23 224.454 149.876C224.454 152.627 225.819 154.244 227.961 154.244ZM232.56 139.334V154.139H234.744V154.958L231.195 155.231L231.111 155.189L231.069 153.446C230.313 154.727 229.011 155.441 227.499 155.441C224.664 155.441 222.921 153.173 222.921 149.939C222.921 146.558 224.937 144.248 227.856 144.248C229.116 144.248 230.25 144.773 231.006 145.697V141.077C230.145 141.434 229.074 141.413 228.192 141.203V140.531C229.62 140.594 230.838 140.111 231.741 139.166L232.56 139.334ZM247.643 155H240.125V154.118L243.044 153.866V141.665L240.125 141.392V140.51H247.643V141.392L244.724 141.665V153.866L247.643 154.118V155ZM260.967 154.202L262.563 153.992L259.728 149.75L257.586 151.829V153.95L259.308 154.202V155H253.701V154.16L256.011 153.908V141.077C255.129 141.434 254.058 141.413 253.197 141.203V140.531C254.583 140.594 255.843 140.111 256.767 139.166L257.586 139.334V150.317L262.101 145.739L260.022 145.508V144.71H265.692V145.55L263.823 145.76L260.715 148.784L264.243 153.95L266.049 154.16V155H260.967V154.202ZM275.231 154.202L277.436 153.929V148.196C277.436 146.537 276.596 145.55 275.063 145.55C273.572 145.55 272.249 146.516 271.451 147.839V153.929L273.614 154.202V155H267.503V154.16L269.876 153.908V146.159C269.015 146.516 267.944 146.495 267.062 146.264V145.613C268.448 145.676 269.645 145.193 270.548 144.248L271.367 144.416V146.663C272.291 145.235 273.824 144.248 275.567 144.248C277.982 144.248 279.011 145.907 279.011 147.944V153.908L281.153 154.16V155H275.231V154.202ZM282.886 149.834C282.886 146.537 284.965 144.248 288.136 144.248C291.265 144.248 293.344 146.537 293.344 149.834C293.344 153.131 291.265 155.441 288.094 155.441C284.965 155.441 282.886 153.131 282.886 149.834ZM284.44 149.855C284.44 152.522 285.868 154.265 288.115 154.265C290.383 154.265 291.811 152.543 291.811 149.855C291.811 147.167 290.383 145.424 288.115 145.424C285.868 145.424 284.44 147.146 284.44 149.855ZM300.572 144.71H305.507V145.508L303.848 145.739L306.221 153.257H306.305L308.762 145.76L307.145 145.508V144.71H311.786V145.529L310.127 145.76L306.893 155.021H305.528L303.008 147.083L300.488 155.021H299.165L295.889 145.739L294.251 145.529V144.71H298.934V145.508L297.338 145.739L299.795 153.257H299.879L302.252 145.739L300.572 145.508V144.71ZM324.878 154.202L327.083 153.929V148.196C327.083 146.537 326.243 145.55 324.71 145.55C323.219 145.55 321.896 146.516 321.098 147.818V153.929L323.261 154.202V155H317.234V154.16L319.523 153.908V141.077C318.662 141.434 317.612 141.413 316.709 141.203V140.531C318.137 140.594 319.376 140.111 320.279 139.166L321.098 139.334V146.537C322.022 145.172 323.513 144.248 325.214 144.248C327.629 144.248 328.658 145.907 328.658 147.944V153.908L330.779 154.16V155H324.878V154.202ZM332.535 149.834C332.535 146.537 334.614 144.248 337.785 144.248C340.914 144.248 342.993 146.537 342.993 149.834C342.993 153.131 340.914 155.441 337.743 155.441C334.614 155.441 332.535 153.131 332.535 149.834ZM334.089 149.855C334.089 152.522 335.517 154.265 337.764 154.265C340.032 154.265 341.46 152.543 341.46 149.855C341.46 147.167 340.032 145.424 337.764 145.424C335.517 145.424 334.089 147.146 334.089 149.855ZM350.221 144.71H355.156V145.508L353.497 145.739L355.87 153.257H355.954L358.411 145.76L356.794 145.508V144.71H361.435V145.529L359.776 145.76L356.542 155.021H355.177L352.657 147.083L350.137 155.021H348.814L345.538 145.739L343.9 145.529V144.71H348.583V145.508L346.987 145.739L349.444 153.257H349.528L351.901 145.739L350.221 145.508V144.71ZM82.048 182.244C83.413 182.244 84.568 181.53 85.093 180.249V174.978C84.505 173.991 83.434 173.424 82.216 173.424C79.99 173.424 78.541 175.23 78.541 177.876C78.541 180.627 79.906 182.244 82.048 182.244ZM86.647 167.334V182.139H88.831V182.958L85.282 183.231L85.198 183.189L85.156 181.446C84.4 182.727 83.098 183.441 81.586 183.441C78.751 183.441 77.008 181.173 77.008 177.939C77.008 174.558 79.024 172.248 81.943 172.248C83.203 172.248 84.337 172.773 85.093 173.697V169.077C84.232 169.434 83.161 169.413 82.279 169.203V168.531C83.707 168.594 84.925 168.111 85.828 167.166L86.647 167.334ZM91.9825 169.266C91.9825 168.636 92.4865 168.132 93.1165 168.132C93.7465 168.132 94.2715 168.636 94.2715 169.266C94.2715 169.896 93.7465 170.4 93.1165 170.4C92.4865 170.4 91.9825 169.896 91.9825 169.266ZM89.9665 182.16L92.3395 181.908V174.159C91.4785 174.516 90.4075 174.495 89.5255 174.264V173.613C90.8695 173.676 92.1295 173.214 93.0535 172.248L93.9145 172.437V181.908L96.2035 182.16V183H89.9665V182.16ZM116.216 169.266C116.216 168.636 116.72 168.132 117.35 168.132C117.98 168.132 118.505 168.636 118.505 169.266C118.505 169.896 117.98 170.4 117.35 170.4C116.72 170.4 116.216 169.896 116.216 169.266ZM106.031 173.046L108.152 172.773V171.051C108.152 168.447 109.391 167.355 111.26 167.355C112.226 167.355 112.961 167.712 113.423 168.153C113.738 168.447 113.927 168.804 113.927 169.14C113.927 169.644 113.549 169.959 113.108 169.959C112.772 169.959 112.499 169.665 112.352 169.392C112.1 168.909 111.722 168.615 111.155 168.615C110.231 168.636 109.664 169.245 109.664 170.652C109.664 171.135 109.706 171.87 109.706 172.248V172.71H112.709V173.865H109.706V181.908L112.583 182.16V183H106.031V182.16L108.152 181.908V173.865H106.031V173.046ZM97.8415 173.067L99.9625 172.794V171.051C99.9625 168.468 101.201 167.376 103.07 167.376C104.036 167.376 104.771 167.712 105.233 168.153C105.548 168.468 105.737 168.825 105.737 169.161C105.737 169.665 105.38 169.959 104.939 169.959C104.582 169.959 104.33 169.707 104.162 169.392C103.889 168.846 103.448 168.615 102.965 168.636C102.041 168.657 101.474 169.266 101.474 170.652C101.474 171.135 101.516 171.87 101.516 172.269V172.731H104.519V173.865H101.516V181.929L104.393 182.181V183.021H97.8415V182.181L99.9625 181.929V173.865H97.8415V173.067ZM114.2 182.16L116.573 181.908V174.18C115.712 174.516 114.683 174.495 113.843 174.264V173.613C115.187 173.676 116.363 173.214 117.308 172.248L118.148 172.437V181.908L120.458 182.16V183H114.2V182.16ZM127.394 183.441C124.265 183.441 122.207 181.152 122.207 177.876C122.207 174.495 124.265 172.248 127.352 172.248C129.536 172.248 130.754 173.277 131.363 174.411C131.531 174.747 131.657 175.083 131.657 175.356C131.657 175.839 131.321 176.196 130.901 176.196C130.25 176.196 130.187 175.734 129.977 175.167C129.578 174.033 128.591 173.466 127.415 173.466C125.147 173.466 123.719 175.188 123.719 177.876C123.719 180.543 125.147 182.286 127.583 182.286C129.242 182.286 130.313 181.446 130.922 180.018L131.804 180.354C131.174 182.286 129.725 183.441 127.394 183.441ZM138.314 183.441C135.815 183.441 134.849 181.761 134.849 179.745V174.243C134.072 174.516 133.148 174.474 132.392 174.264V173.613C133.673 173.676 134.702 173.214 135.626 172.248L136.403 172.416V179.577C136.403 181.173 137.264 182.16 138.797 182.16C140.267 182.16 141.569 181.299 142.388 180.081V174.18C141.527 174.495 140.519 174.495 139.658 174.264V173.613C140.981 173.676 142.22 173.214 143.165 172.248L143.963 172.416V182.139H146.084V182.958L142.556 183.231L142.493 183.189L142.451 181.131C141.548 182.496 140.036 183.441 138.314 183.441ZM147.224 182.16L149.534 181.908V169.077C148.673 169.413 147.602 169.413 146.72 169.203V168.531C148.127 168.594 149.366 168.111 150.269 167.166L151.109 167.334V181.929L153.335 182.16V183H147.224V182.16ZM161.633 180.459L162.452 180.858C162.095 182.412 160.982 183.441 159.134 183.441C157.391 183.441 155.963 182.328 155.963 179.766V173.865H153.968V173.046L155.963 172.773L156.719 169.119H157.538V172.71H161.171V173.865H157.538V180.018C157.538 181.53 158.294 182.223 159.407 182.223C160.499 182.223 161.255 181.572 161.633 180.459ZM170.056 169.266C170.056 168.636 170.56 168.132 171.19 168.132C171.82 168.132 172.345 168.636 172.345 169.266C172.345 169.896 171.82 170.4 171.19 170.4C170.56 170.4 170.056 169.896 170.056 169.266ZM168.04 182.16L170.413 181.908V174.159C169.552 174.516 168.481 174.495 167.599 174.264V173.613C168.943 173.676 170.203 173.214 171.127 172.248L171.988 172.437V181.908L174.277 182.16V183H168.04V182.16ZM182.572 180.459L183.391 180.858C183.034 182.412 181.921 183.441 180.073 183.441C178.33 183.441 176.902 182.328 176.902 179.766V173.865H174.907V173.046L176.902 172.773L177.658 169.119H178.477V172.71H182.11V173.865H178.477V180.018C178.477 181.53 179.233 182.223 180.346 182.223C181.438 182.223 182.194 181.572 182.572 180.459ZM194.27 183.441C191.141 183.441 189.083 181.152 189.083 177.876C189.083 174.495 191.141 172.248 194.228 172.248C196.412 172.248 197.63 173.277 198.239 174.411C198.407 174.747 198.533 175.083 198.533 175.356C198.533 175.839 198.197 176.196 197.777 176.196C197.126 176.196 197.063 175.734 196.853 175.167C196.454 174.033 195.467 173.466 194.291 173.466C192.023 173.466 190.595 175.188 190.595 177.876C190.595 180.543 192.023 182.286 194.459 182.286C196.118 182.286 197.189 181.446 197.798 180.018L198.68 180.354C198.05 182.286 196.601 183.441 194.27 183.441ZM203.972 182.244C205.379 182.244 206.639 181.467 207.311 180.711V178.044C203.132 178.086 201.935 179.43 201.935 180.669C201.935 181.677 202.817 182.244 203.972 182.244ZM204.938 172.248C207.752 172.248 208.865 173.718 208.865 176.028V180.459C208.865 181.677 209.18 182.055 209.831 182.055C210.251 182.055 210.524 181.824 210.671 181.467L211.154 181.698C210.902 182.622 210.272 183.147 209.264 183.147C208.319 183.147 207.626 182.664 207.395 181.761C206.618 182.664 205.337 183.441 203.636 183.441C201.788 183.441 200.423 182.412 200.423 180.711C200.423 178.233 203.111 176.973 207.311 176.952V175.944C207.311 174.222 206.408 173.403 204.854 173.403C203.699 173.403 203.09 173.76 202.67 174.537C202.418 174.999 202.292 175.545 201.704 175.545C201.221 175.545 200.885 175.209 200.885 174.747C200.885 174.537 200.969 173.886 201.767 173.235C202.565 172.584 203.573 172.248 204.938 172.248ZM220.249 182.202L222.454 181.929V176.196C222.454 174.537 221.614 173.55 220.081 173.55C218.59 173.55 217.267 174.516 216.469 175.839V181.929L218.632 182.202V183H212.521V182.16L214.894 181.908V174.159C214.033 174.516 212.962 174.495 212.08 174.264V173.613C213.466 173.676 214.663 173.193 215.566 172.248L216.385 172.416V174.663C217.309 173.235 218.842 172.248 220.585 172.248C223 172.248 224.029 173.907 224.029 175.944V181.908L226.171 182.16V183H220.249V182.202ZM242.692 177.771C242.692 181.131 240.613 183.441 237.694 183.441C236.119 183.441 234.985 182.769 234.271 181.74L233.746 183H233.032V169.098C232.171 169.434 231.142 169.413 230.281 169.203V168.531C231.688 168.594 232.885 168.111 233.809 167.166L234.607 167.334V174.117C235.321 172.941 236.56 172.248 238.114 172.248C240.928 172.248 242.692 174.516 242.692 177.771ZM237.694 173.487C236.245 173.487 235.132 174.222 234.607 175.503V180.753C235.195 181.719 236.245 182.286 237.484 182.286C239.668 182.286 241.138 180.501 241.138 177.813C241.138 175.146 239.857 173.487 237.694 173.487ZM250.118 182.265C251.693 182.265 252.722 181.593 253.289 180.354L254.171 180.69C253.646 182.328 252.26 183.441 249.929 183.441C246.779 183.441 244.721 181.152 244.721 177.855C244.721 174.558 246.758 172.248 249.74 172.248C252.785 172.248 254.339 174.642 254.339 177.078C254.339 177.267 254.339 177.603 254.318 177.876H246.233V177.981C246.254 180.606 247.64 182.265 250.118 182.265ZM249.74 173.424C247.892 173.424 246.632 174.726 246.317 176.763H252.89C252.827 174.453 251.273 173.424 249.74 173.424ZM267.228 180.459L268.047 180.858C267.69 182.412 266.577 183.441 264.729 183.441C262.986 183.441 261.558 182.328 261.558 179.766V173.865H259.563V173.046L261.558 172.773L262.314 169.119H263.133V172.71H266.766V173.865H263.133V180.018C263.133 181.53 263.889 182.223 265.002 182.223C266.094 182.223 266.85 181.572 267.228 180.459ZM269.494 177.834C269.494 174.537 271.573 172.248 274.744 172.248C277.873 172.248 279.952 174.537 279.952 177.834C279.952 181.131 277.873 183.441 274.702 183.441C271.573 183.441 269.494 181.131 269.494 177.834ZM271.048 177.855C271.048 180.522 272.476 182.265 274.723 182.265C276.991 182.265 278.419 180.543 278.419 177.855C278.419 175.167 276.991 173.424 274.723 173.424C272.476 173.424 271.048 175.146 271.048 177.855ZM291.416 183.441C288.287 183.441 286.229 181.152 286.229 177.876C286.229 174.495 288.287 172.248 291.374 172.248C293.558 172.248 294.776 173.277 295.385 174.411C295.553 174.747 295.679 175.083 295.679 175.356C295.679 175.839 295.343 176.196 294.923 176.196C294.272 176.196 294.209 175.734 293.999 175.167C293.6 174.033 292.613 173.466 291.437 173.466C289.169 173.466 287.741 175.188 287.741 177.876C287.741 180.543 289.169 182.286 291.605 182.286C293.264 182.286 294.335 181.446 294.944 180.018L295.826 180.354C295.196 182.286 293.747 183.441 291.416 183.441ZM303.889 173.802C302.944 173.802 302.041 174.705 301.474 176.154V181.929L303.91 182.16V183H297.505V182.16L299.899 181.908V174.159C299.038 174.516 297.967 174.495 297.085 174.264V173.613C298.471 173.676 299.668 173.193 300.571 172.248L301.39 172.416V174.705C302.062 173.298 303.196 172.248 304.582 172.248C305.506 172.248 306.241 172.71 306.241 173.424C306.241 173.886 305.863 174.285 305.38 174.285C304.855 174.285 304.666 173.802 303.889 173.802ZM313.2 182.265C314.775 182.265 315.804 181.593 316.371 180.354L317.253 180.69C316.728 182.328 315.342 183.441 313.011 183.441C309.861 183.441 307.803 181.152 307.803 177.855C307.803 174.558 309.84 172.248 312.822 172.248C315.867 172.248 317.421 174.642 317.421 177.078C317.421 177.267 317.421 177.603 317.4 177.876H309.315V177.981C309.336 180.606 310.722 182.265 313.2 182.265ZM312.822 173.424C310.974 173.424 309.714 174.726 309.399 176.763H315.972C315.909 174.453 314.355 173.424 312.822 173.424ZM322.999 182.244C324.406 182.244 325.666 181.467 326.338 180.711V178.044C322.159 178.086 320.962 179.43 320.962 180.669C320.962 181.677 321.844 182.244 322.999 182.244ZM323.965 172.248C326.779 172.248 327.892 173.718 327.892 176.028V180.459C327.892 181.677 328.207 182.055 328.858 182.055C329.278 182.055 329.551 181.824 329.698 181.467L330.181 181.698C329.929 182.622 329.299 183.147 328.291 183.147C327.346 183.147 326.653 182.664 326.422 181.761C325.645 182.664 324.364 183.441 322.663 183.441C320.815 183.441 319.45 182.412 319.45 180.711C319.45 178.233 322.138 176.973 326.338 176.952V175.944C326.338 174.222 325.435 173.403 323.881 173.403C322.726 173.403 322.117 173.76 321.697 174.537C321.445 174.999 321.319 175.545 320.731 175.545C320.248 175.545 319.912 175.209 319.912 174.747C319.912 174.537 319.996 173.886 320.794 173.235C321.592 172.584 322.6 172.248 323.965 172.248ZM338.206 180.459L339.025 180.858C338.668 182.412 337.555 183.441 335.707 183.441C333.964 183.441 332.536 182.328 332.536 179.766V173.865H330.541V173.046L332.536 172.773L333.292 169.119H334.111V172.71H337.744V173.865H334.111V180.018C334.111 181.53 334.867 182.223 335.98 182.223C337.072 182.223 337.828 181.572 338.206 180.459ZM345.869 182.265C347.444 182.265 348.473 181.593 349.04 180.354L349.922 180.69C349.397 182.328 348.011 183.441 345.68 183.441C342.53 183.441 340.472 181.152 340.472 177.855C340.472 174.558 342.509 172.248 345.491 172.248C348.536 172.248 350.09 174.642 350.09 177.078C350.09 177.267 350.09 177.603 350.069 177.876H341.984V177.981C342.005 180.606 343.391 182.265 345.869 182.265ZM345.491 173.424C343.643 173.424 342.383 174.726 342.068 176.763H348.641C348.578 174.453 347.024 173.424 345.491 173.424ZM84.631 210.202L86.836 209.929V204.196C86.836 202.537 85.996 201.55 84.463 201.55C82.972 201.55 81.649 202.516 80.851 203.839V209.929L83.014 210.202V211H76.903V210.16L79.276 209.908V202.159C78.415 202.516 77.344 202.495 76.462 202.264V201.613C77.848 201.676 79.045 201.193 79.948 200.248L80.767 200.416V202.663C81.691 201.235 83.224 200.248 84.967 200.248C87.382 200.248 88.411 201.907 88.411 203.944V209.908L90.553 210.16V211H84.631V210.202ZM97.6833 210.265C99.2583 210.265 100.287 209.593 100.854 208.354L101.736 208.69C101.211 210.328 99.8253 211.441 97.4943 211.441C94.3443 211.441 92.2863 209.152 92.2863 205.855C92.2863 202.558 94.3233 200.248 97.3053 200.248C100.35 200.248 101.904 202.642 101.904 205.078C101.904 205.267 101.904 205.603 101.883 205.876H93.7983V205.981C93.8193 208.606 95.2053 210.265 97.6833 210.265ZM97.3053 201.424C95.4573 201.424 94.1973 202.726 93.8823 204.763H100.455C100.392 202.453 98.8383 201.424 97.3053 201.424ZM109.193 200.71H114.128V201.508L112.469 201.739L114.842 209.257H114.926L117.383 201.76L115.766 201.508V200.71H120.407V201.529L118.748 201.76L115.514 211.021H114.149L111.629 203.083L109.109 211.021H107.786L104.51 201.739L102.872 201.529V200.71H107.555V201.508L105.959 201.739L108.416 209.257H108.5L110.873 201.739L109.193 201.508V200.71ZM131.147 211.441C128.018 211.441 125.96 209.152 125.96 205.876C125.96 202.495 128.018 200.248 131.105 200.248C133.289 200.248 134.507 201.277 135.116 202.411C135.284 202.747 135.41 203.083 135.41 203.356C135.41 203.839 135.074 204.196 134.654 204.196C134.003 204.196 133.94 203.734 133.73 203.167C133.331 202.033 132.344 201.466 131.168 201.466C128.9 201.466 127.472 203.188 127.472 205.876C127.472 208.543 128.9 210.286 131.336 210.286C132.995 210.286 134.066 209.446 134.675 208.018L135.557 208.354C134.927 210.286 133.478 211.441 131.147 211.441ZM137.362 205.834C137.362 202.537 139.441 200.248 142.612 200.248C145.741 200.248 147.82 202.537 147.82 205.834C147.82 209.131 145.741 211.441 142.57 211.441C139.441 211.441 137.362 209.131 137.362 205.834ZM138.916 205.855C138.916 208.522 140.344 210.265 142.591 210.265C144.859 210.265 146.287 208.543 146.287 205.855C146.287 203.167 144.859 201.424 142.591 201.424C140.344 201.424 138.916 203.146 138.916 205.855ZM157.475 210.202L159.68 209.929V204.196C159.68 202.537 158.84 201.55 157.307 201.55C155.816 201.55 154.493 202.516 153.695 203.839V209.929L155.858 210.202V211H149.747V210.16L152.12 209.908V202.159C151.259 202.516 150.188 202.495 149.306 202.264V201.613C150.692 201.676 151.889 201.193 152.792 200.248L153.611 200.416V202.663C154.535 201.235 156.068 200.248 157.811 200.248C160.226 200.248 161.255 201.907 161.255 203.944V209.908L163.397 210.16V211H157.475V210.202ZM172.753 210.202L174.958 209.929V204.196C174.958 202.537 174.118 201.55 172.585 201.55C171.094 201.55 169.771 202.516 168.973 203.839V209.929L171.136 210.202V211H165.025V210.16L167.398 209.908V202.159C166.537 202.516 165.466 202.495 164.584 202.264V201.613C165.97 201.676 167.167 201.193 168.07 200.248L168.889 200.416V202.663C169.813 201.235 171.346 200.248 173.089 200.248C175.504 200.248 176.533 201.907 176.533 203.944V209.908L178.675 210.16V211H172.753V210.202ZM185.805 210.265C187.38 210.265 188.409 209.593 188.976 208.354L189.858 208.69C189.333 210.328 187.947 211.441 185.616 211.441C182.466 211.441 180.408 209.152 180.408 205.855C180.408 202.558 182.445 200.248 185.427 200.248C188.472 200.248 190.026 202.642 190.026 205.078C190.026 205.267 190.026 205.603 190.005 205.876H181.92V205.981C181.941 208.606 183.327 210.265 185.805 210.265ZM185.427 201.424C183.579 201.424 182.319 202.726 182.004 204.763H188.577C188.514 202.453 186.96 201.424 185.427 201.424ZM197.305 211.441C194.176 211.441 192.118 209.152 192.118 205.876C192.118 202.495 194.176 200.248 197.263 200.248C199.447 200.248 200.665 201.277 201.274 202.411C201.442 202.747 201.568 203.083 201.568 203.356C201.568 203.839 201.232 204.196 200.812 204.196C200.161 204.196 200.098 203.734 199.888 203.167C199.489 202.033 198.502 201.466 197.326 201.466C195.058 201.466 193.63 203.188 193.63 205.876C193.63 208.543 195.058 210.286 197.494 210.286C199.153 210.286 200.224 209.446 200.833 208.018L201.715 208.354C201.085 210.286 199.636 211.441 197.305 211.441ZM210.073 208.459L210.892 208.858C210.535 210.412 209.422 211.441 207.574 211.441C205.831 211.441 204.403 210.328 204.403 207.766V201.865H202.408V201.046L204.403 200.773L205.159 197.119H205.978V200.71H209.611V201.865H205.978V208.018C205.978 209.53 206.734 210.223 207.847 210.223C208.939 210.223 209.695 209.572 210.073 208.459ZM213.84 197.266C213.84 196.636 214.344 196.132 214.974 196.132C215.604 196.132 216.129 196.636 216.129 197.266C216.129 197.896 215.604 198.4 214.974 198.4C214.344 198.4 213.84 197.896 213.84 197.266ZM211.824 210.16L214.197 209.908V202.159C213.336 202.516 212.265 202.495 211.383 202.264V201.613C212.727 201.676 213.987 201.214 214.911 200.248L215.772 200.437V209.908L218.061 210.16V211H211.824V210.16ZM219.804 205.834C219.804 202.537 221.883 200.248 225.054 200.248C228.183 200.248 230.262 202.537 230.262 205.834C230.262 209.131 228.183 211.441 225.012 211.441C221.883 211.441 219.804 209.131 219.804 205.834ZM221.358 205.855C221.358 208.522 222.786 210.265 225.033 210.265C227.301 210.265 228.729 208.543 228.729 205.855C228.729 203.167 227.301 201.424 225.033 201.424C222.786 201.424 221.358 203.146 221.358 205.855ZM239.916 210.202L242.121 209.929V204.196C242.121 202.537 241.281 201.55 239.748 201.55C238.257 201.55 236.934 202.516 236.136 203.839V209.929L238.299 210.202V211H232.188V210.16L234.561 209.908V202.159C233.7 202.516 232.629 202.495 231.747 202.264V201.613C233.133 201.676 234.33 201.193 235.233 200.248L236.052 200.416V202.663C236.976 201.235 238.509 200.248 240.252 200.248C242.667 200.248 243.696 201.907 243.696 203.944V209.908L245.838 210.16V211H239.916V210.202ZM255.929 204.217L255.152 204.364L254.522 203.293C253.766 201.991 252.926 201.382 251.498 201.382C249.86 201.382 249.23 202.18 249.23 203.062C249.23 204.385 250.763 204.784 252.191 205.162C254.501 205.771 256.181 206.464 256.181 208.48C256.181 210.055 254.942 211.441 252.548 211.441C250.868 211.441 249.692 210.748 248.873 209.53V211.231H248.033L247.361 207.157L248.159 206.989L248.747 207.976C249.734 209.635 250.868 210.328 252.317 210.328C253.808 210.328 254.711 209.677 254.711 208.564C254.711 207.304 253.514 206.821 251.666 206.338C250.175 205.96 247.781 205.267 247.781 203.062C247.781 201.466 249.125 200.248 251.183 200.248C252.716 200.248 253.766 200.899 254.396 201.802L254.48 200.227H255.278L255.929 204.217ZM270.04 210.202L272.245 209.929V204.196C272.245 202.537 271.405 201.55 269.872 201.55C268.381 201.55 267.058 202.516 266.26 203.818V209.929L268.423 210.202V211H262.396V210.16L264.685 209.908V197.077C263.824 197.434 262.774 197.413 261.871 197.203V196.531C263.299 196.594 264.538 196.111 265.441 195.166L266.26 195.334V202.537C267.184 201.172 268.675 200.248 270.376 200.248C272.791 200.248 273.82 201.907 273.82 203.944V209.908L275.941 210.16V211H270.04V210.202ZM283.094 210.265C284.669 210.265 285.698 209.593 286.265 208.354L287.147 208.69C286.622 210.328 285.236 211.441 282.905 211.441C279.755 211.441 277.697 209.152 277.697 205.855C277.697 202.558 279.734 200.248 282.716 200.248C285.761 200.248 287.315 202.642 287.315 205.078C287.315 205.267 287.315 205.603 287.294 205.876H279.209V205.981C279.23 208.606 280.616 210.265 283.094 210.265ZM282.716 201.424C280.868 201.424 279.608 202.726 279.293 204.763H285.866C285.803 202.453 284.249 201.424 282.716 201.424ZM295.665 201.802C294.72 201.802 293.817 202.705 293.25 204.154V209.929L295.686 210.16V211H289.281V210.16L291.675 209.908V202.159C290.814 202.516 289.743 202.495 288.861 202.264V201.613C290.247 201.676 291.444 201.193 292.347 200.248L293.166 200.416V202.705C293.838 201.298 294.972 200.248 296.358 200.248C297.282 200.248 298.017 200.71 298.017 201.424C298.017 201.886 297.639 202.285 297.156 202.285C296.631 202.285 296.442 201.802 295.665 201.802ZM304.976 210.265C306.551 210.265 307.58 209.593 308.147 208.354L309.029 208.69C308.504 210.328 307.118 211.441 304.787 211.441C301.637 211.441 299.579 209.152 299.579 205.855C299.579 202.558 301.616 200.248 304.598 200.248C307.643 200.248 309.197 202.642 309.197 205.078C309.197 205.267 309.197 205.603 309.176 205.876H301.091V205.981C301.112 208.606 302.498 210.265 304.976 210.265ZM304.598 201.424C302.75 201.424 301.49 202.726 301.175 204.763H307.748C307.685 202.453 306.131 201.424 304.598 201.424ZM311.604 213.478C312.276 212.89 312.654 212.05 312.696 211.294C312.003 211.357 311.478 210.811 311.478 210.223C311.478 209.572 311.982 209.11 312.591 209.11C313.242 209.11 313.725 209.614 313.725 210.391C313.725 211.945 313.095 213.331 312.024 213.982L311.604 213.478ZM325.546 210.265C327.121 210.265 328.15 209.593 328.717 208.354L329.599 208.69C329.074 210.328 327.688 211.441 325.357 211.441C322.207 211.441 320.149 209.152 320.149 205.855C320.149 202.558 322.186 200.248 325.168 200.248C328.213 200.248 329.767 202.642 329.767 205.078C329.767 205.267 329.767 205.603 329.746 205.876H321.661V205.981C321.682 208.606 323.068 210.265 325.546 210.265ZM325.168 201.424C323.32 201.424 322.06 202.726 321.745 204.763H328.318C328.255 202.453 326.701 201.424 325.168 201.424ZM342.998 201.529L341.423 201.739L337.601 211.063H336.131L332.351 201.739L330.734 201.529V200.71H336.047V201.508L333.884 201.739L336.887 209.551L339.89 201.739L337.685 201.508V200.71H342.998V201.529ZM349.314 210.265C350.889 210.265 351.918 209.593 352.485 208.354L353.367 208.69C352.842 210.328 351.456 211.441 349.125 211.441C345.975 211.441 343.917 209.152 343.917 205.855C343.917 202.558 345.954 200.248 348.936 200.248C351.981 200.248 353.535 202.642 353.535 205.078C353.535 205.267 353.535 205.603 353.514 205.876H345.429V205.981C345.45 208.606 346.836 210.265 349.314 210.265ZM348.936 201.424C347.088 201.424 345.828 202.726 345.513 204.763H352.086C352.023 202.453 350.469 201.424 348.936 201.424ZM363.25 210.202L365.455 209.929V204.196C365.455 202.537 364.615 201.55 363.082 201.55C361.591 201.55 360.268 202.516 359.47 203.839V209.929L361.633 210.202V211H355.522V210.16L357.895 209.908V202.159C357.034 202.516 355.963 202.495 355.081 202.264V201.613C356.467 201.676 357.664 201.193 358.567 200.248L359.386 200.416V202.663C360.31 201.235 361.843 200.248 363.586 200.248C366.001 200.248 367.03 201.907 367.03 203.944V209.908L369.172 210.16V211H363.25V210.202ZM82.615 228.71H87.55V229.508L85.891 229.739L88.264 237.257H88.348L90.805 229.76L89.188 229.508V228.71H93.829V229.529L92.17 229.76L88.936 239.021H87.571L85.051 231.083L82.531 239.021H81.208L77.932 229.739L76.294 229.529V228.71H80.977V229.508L79.381 229.739L81.838 237.257H81.922L84.295 229.739L82.615 229.508V228.71ZM102.04 238.202L104.245 237.929V232.196C104.245 230.537 103.405 229.55 101.872 229.55C100.381 229.55 99.0582 230.516 98.2602 231.818V237.929L100.423 238.202V239H94.3962V238.16L96.6852 237.908V225.077C95.8242 225.434 94.7742 225.413 93.8712 225.203V224.531C95.2992 224.594 96.5382 224.111 97.4412 223.166L98.2602 223.334V230.537C99.1842 229.172 100.675 228.248 102.376 228.248C104.791 228.248 105.82 229.907 105.82 231.944V237.908L107.941 238.16V239H102.04V238.202ZM115.094 238.265C116.669 238.265 117.698 237.593 118.265 236.354L119.147 236.69C118.622 238.328 117.236 239.441 114.905 239.441C111.755 239.441 109.697 237.152 109.697 233.855C109.697 230.558 111.734 228.248 114.716 228.248C117.761 228.248 119.315 230.642 119.315 233.078C119.315 233.267 119.315 233.603 119.294 233.876H111.209V233.981C111.23 236.606 112.616 238.265 115.094 238.265ZM114.716 229.424C112.868 229.424 111.608 230.726 111.293 232.763H117.866C117.803 230.453 116.249 229.424 114.716 229.424ZM129.03 238.202L131.235 237.929V232.196C131.235 230.537 130.395 229.55 128.862 229.55C127.371 229.55 126.048 230.516 125.25 231.839V237.929L127.413 238.202V239H121.302V238.16L123.675 237.908V230.159C122.814 230.516 121.743 230.495 120.861 230.264V229.613C122.247 229.676 123.444 229.193 124.347 228.248L125.166 228.416V230.663C126.09 229.235 127.623 228.248 129.366 228.248C131.781 228.248 132.81 229.907 132.81 231.944V237.908L134.952 238.16V239H129.03V238.202ZM147.483 236.459L148.302 236.858C147.945 238.412 146.832 239.441 144.984 239.441C143.241 239.441 141.813 238.328 141.813 235.766V229.865H139.818V229.046L141.813 228.773L142.569 225.119H143.388V228.71H147.021V229.865H143.388V236.018C143.388 237.53 144.144 238.223 145.257 238.223C146.349 238.223 147.105 237.572 147.483 236.459ZM156.878 238.202L159.083 237.929V232.196C159.083 230.537 158.243 229.55 156.71 229.55C155.219 229.55 153.896 230.516 153.098 231.818V237.929L155.261 238.202V239H149.234V238.16L151.523 237.908V225.077C150.662 225.434 149.612 225.413 148.709 225.203V224.531C150.137 224.594 151.376 224.111 152.279 223.166L153.098 223.334V230.537C154.022 229.172 155.513 228.248 157.214 228.248C159.629 228.248 160.658 229.907 160.658 231.944V237.908L162.779 238.16V239H156.878V238.202ZM169.932 238.265C171.507 238.265 172.536 237.593 173.103 236.354L173.985 236.69C173.46 238.328 172.074 239.441 169.743 239.441C166.593 239.441 164.535 237.152 164.535 233.855C164.535 230.558 166.572 228.248 169.554 228.248C172.599 228.248 174.153 230.642 174.153 233.078C174.153 233.267 174.153 233.603 174.132 233.876H166.047V233.981C166.068 236.606 167.454 238.265 169.932 238.265ZM169.554 229.424C167.706 229.424 166.446 230.726 166.131 232.763H172.704C172.641 230.453 171.087 229.424 169.554 229.424ZM185.677 239.441C182.548 239.441 180.49 237.152 180.49 233.876C180.49 230.495 182.548 228.248 185.635 228.248C187.819 228.248 189.037 229.277 189.646 230.411C189.814 230.747 189.94 231.083 189.94 231.356C189.94 231.839 189.604 232.196 189.184 232.196C188.533 232.196 188.47 231.734 188.26 231.167C187.861 230.033 186.874 229.466 185.698 229.466C183.43 229.466 182.002 231.188 182.002 233.876C182.002 236.543 183.43 238.286 185.866 238.286C187.525 238.286 188.596 237.446 189.205 236.018L190.087 236.354C189.457 238.286 188.008 239.441 185.677 239.441ZM193.804 225.266C193.804 224.636 194.308 224.132 194.938 224.132C195.568 224.132 196.093 224.636 196.093 225.266C196.093 225.896 195.568 226.4 194.938 226.4C194.308 226.4 193.804 225.896 193.804 225.266ZM191.788 238.16L194.161 237.908V230.159C193.3 230.516 192.229 230.495 191.347 230.264V229.613C192.691 229.676 193.951 229.214 194.875 228.248L195.736 228.437V237.908L198.025 238.16V239H191.788V238.16ZM206.32 236.459L207.139 236.858C206.782 238.412 205.669 239.441 203.821 239.441C202.078 239.441 200.65 238.328 200.65 235.766V229.865H198.655V229.046L200.65 228.773L201.406 225.119H202.225V228.71H205.858V229.865H202.225V236.018C202.225 237.53 202.981 238.223 204.094 238.223C205.186 238.223 205.942 237.572 206.32 236.459ZM211.992 239.693L212.349 238.811L208.401 229.739L206.826 229.55V228.71H212.139V229.529L209.997 229.739L213.126 237.131H213.147L216.129 229.76L213.777 229.529V228.71H219.237V229.55L217.62 229.739L213.588 239.42C212.181 242.801 210.858 243.872 208.926 243.872C207.435 243.872 206.49 243.242 206.49 242.507C206.49 241.982 206.868 241.688 207.267 241.688C208.023 241.688 208.065 242.612 209.115 242.612C210.018 242.612 211.026 241.919 211.992 239.693ZM226.719 225.266C226.719 224.636 227.223 224.132 227.853 224.132C228.483 224.132 229.008 224.636 229.008 225.266C229.008 225.896 228.483 226.4 227.853 226.4C227.223 226.4 226.719 225.896 226.719 225.266ZM224.703 238.16L227.076 237.908V230.159C226.215 230.516 225.144 230.495 224.262 230.264V229.613C225.606 229.676 226.866 229.214 227.79 228.248L228.651 228.437V237.908L230.94 238.16V239H224.703V238.16ZM241.041 232.217L240.264 232.364L239.634 231.293C238.878 229.991 238.038 229.382 236.61 229.382C234.972 229.382 234.342 230.18 234.342 231.062C234.342 232.385 235.875 232.784 237.303 233.162C239.613 233.771 241.293 234.464 241.293 236.48C241.293 238.055 240.054 239.441 237.66 239.441C235.98 239.441 234.804 238.748 233.985 237.53V239.231H233.145L232.473 235.157L233.271 234.989L233.859 235.976C234.846 237.635 235.98 238.328 237.429 238.328C238.92 238.328 239.823 237.677 239.823 236.564C239.823 235.304 238.626 234.821 236.778 234.338C235.287 233.96 232.893 233.267 232.893 231.062C232.893 229.466 234.237 228.248 236.295 228.248C237.828 228.248 238.878 228.899 239.508 229.802L239.592 228.227H240.39L241.041 232.217ZM247.507 229.046L249.628 228.773V227.072C249.628 224.489 250.867 223.355 252.736 223.355C253.702 223.355 254.437 223.712 254.899 224.153C255.214 224.447 255.403 224.804 255.403 225.14C255.403 225.644 255.046 225.959 254.605 225.959C254.248 225.959 253.975 225.665 253.828 225.392C253.555 224.867 253.135 224.594 252.631 224.594C251.707 224.594 251.14 225.224 251.14 226.61C251.14 227.093 251.182 227.87 251.182 228.248V228.71H254.185V229.865H251.182V237.908L254.059 238.16V239H247.507V238.16L249.628 237.908V229.865H247.507V229.046ZM261.135 239.441C258.636 239.441 257.67 237.761 257.67 235.745V230.243C256.893 230.516 255.969 230.474 255.213 230.264V229.613C256.494 229.676 257.523 229.214 258.447 228.248L259.224 228.416V235.577C259.224 237.173 260.085 238.16 261.618 238.16C263.088 238.16 264.39 237.299 265.209 236.081V230.18C264.348 230.495 263.34 230.495 262.479 230.264V229.613C263.802 229.676 265.041 229.214 265.986 228.248L266.784 228.416V238.139H268.905V238.958L265.377 239.231L265.314 239.189L265.272 237.131C264.369 238.496 262.857 239.441 261.135 239.441ZM270.046 238.16L272.356 237.908V225.077C271.495 225.413 270.424 225.413 269.542 225.203V224.531C270.949 224.594 272.188 224.111 273.091 223.166L273.931 223.334V237.929L276.157 238.16V239H270.046V238.16ZM277.798 238.16L280.108 237.908V225.077C279.247 225.413 278.176 225.413 277.294 225.203V224.531C278.701 224.594 279.94 224.111 280.843 223.166L281.683 223.334V237.929L283.909 238.16V239H277.798V238.16ZM289.9 233.834C289.9 230.537 291.979 228.248 295.15 228.248C298.279 228.248 300.358 230.537 300.358 233.834C300.358 237.131 298.279 239.441 295.108 239.441C291.979 239.441 289.9 237.131 289.9 233.834ZM291.454 233.855C291.454 236.522 292.882 238.265 295.129 238.265C297.397 238.265 298.825 236.543 298.825 233.855C298.825 231.167 297.397 229.424 295.129 229.424C292.882 229.424 291.454 231.146 291.454 233.855ZM302.284 229.046L304.405 228.773V227.072C304.405 224.489 305.644 223.355 307.513 223.355C308.479 223.355 309.214 223.712 309.676 224.153C309.991 224.447 310.18 224.804 310.18 225.14C310.18 225.644 309.823 225.959 309.382 225.959C309.025 225.959 308.752 225.665 308.605 225.392C308.332 224.867 307.912 224.594 307.408 224.594C306.484 224.594 305.917 225.224 305.917 226.61C305.917 227.093 305.959 227.87 305.959 228.248V228.71H308.962V229.865H305.959V237.908L308.836 238.16V239H302.284V238.16L304.405 237.908V229.865H302.284V229.046ZM78.919 253.266C78.919 252.636 79.423 252.132 80.053 252.132C80.683 252.132 81.208 252.636 81.208 253.266C81.208 253.896 80.683 254.4 80.053 254.4C79.423 254.4 78.919 253.896 78.919 253.266ZM76.903 266.16L79.276 265.908V258.159C78.415 258.516 77.344 258.495 76.462 258.264V257.613C77.806 257.676 79.066 257.214 79.99 256.248L80.851 256.437V265.908L83.14 266.16V267H76.903V266.16ZM92.506 266.202L94.711 265.929V260.196C94.711 258.537 93.871 257.55 92.338 257.55C90.847 257.55 89.524 258.516 88.726 259.839V265.929L90.889 266.202V267H84.778V266.16L87.151 265.908V258.159C86.29 258.516 85.219 258.495 84.337 258.264V257.613C85.723 257.676 86.92 257.193 87.823 256.248L88.642 256.416V258.663C89.566 257.235 91.099 256.248 92.842 256.248C95.257 256.248 96.286 257.907 96.286 259.944V265.908L98.428 266.16V267H92.506V266.202ZM106.713 264.459L107.532 264.858C107.175 266.412 106.062 267.441 104.214 267.441C102.471 267.441 101.043 266.328 101.043 263.766V257.865H99.0483V257.046L101.043 256.773L101.799 253.119H102.618V256.71H106.251V257.865H102.618V264.018C102.618 265.53 103.374 266.223 104.487 266.223C105.579 266.223 106.335 265.572 106.713 264.459ZM114.377 266.265C115.952 266.265 116.981 265.593 117.548 264.354L118.43 264.69C117.905 266.328 116.519 267.441 114.188 267.441C111.038 267.441 108.98 265.152 108.98 261.855C108.98 258.558 111.017 256.248 113.999 256.248C117.044 256.248 118.598 258.642 118.598 261.078C118.598 261.267 118.598 261.603 118.577 261.876H110.492V261.981C110.513 264.606 111.899 266.265 114.377 266.265ZM113.999 257.424C112.151 257.424 110.891 258.726 110.576 260.763H117.149C117.086 258.453 115.532 257.424 113.999 257.424ZM126.948 257.802C126.003 257.802 125.1 258.705 124.533 260.154V265.929L126.969 266.16V267H120.564V266.16L122.958 265.908V258.159C122.097 258.516 121.026 258.495 120.144 258.264V257.613C121.53 257.676 122.727 257.193 123.63 256.248L124.449 256.416V258.705C125.121 257.298 126.255 256.248 127.641 256.248C128.565 256.248 129.3 256.71 129.3 257.424C129.3 257.886 128.922 258.285 128.439 258.285C127.914 258.285 127.725 257.802 126.948 257.802ZM136.259 266.265C137.834 266.265 138.863 265.593 139.43 264.354L140.312 264.69C139.787 266.328 138.401 267.441 136.07 267.441C132.92 267.441 130.862 265.152 130.862 261.855C130.862 258.558 132.899 256.248 135.881 256.248C138.926 256.248 140.48 258.642 140.48 261.078C140.48 261.267 140.48 261.603 140.459 261.876H132.374V261.981C132.395 264.606 133.781 266.265 136.259 266.265ZM135.881 257.424C134.033 257.424 132.773 258.726 132.458 260.763H139.031C138.968 258.453 137.414 257.424 135.881 257.424ZM150.929 260.217L150.152 260.364L149.522 259.293C148.766 257.991 147.926 257.382 146.498 257.382C144.86 257.382 144.23 258.18 144.23 259.062C144.23 260.385 145.763 260.784 147.191 261.162C149.501 261.771 151.181 262.464 151.181 264.48C151.181 266.055 149.942 267.441 147.548 267.441C145.868 267.441 144.692 266.748 143.873 265.53V267.231H143.033L142.361 263.157L143.159 262.989L143.747 263.976C144.734 265.635 145.868 266.328 147.317 266.328C148.808 266.328 149.711 265.677 149.711 264.564C149.711 263.304 148.514 262.821 146.666 262.338C145.175 261.96 142.781 261.267 142.781 259.062C142.781 257.466 144.125 256.248 146.183 256.248C147.716 256.248 148.766 256.899 149.396 257.802L149.48 256.227H150.278L150.929 260.217ZM159.808 264.459L160.627 264.858C160.27 266.412 159.157 267.441 157.309 267.441C155.566 267.441 154.138 266.328 154.138 263.766V257.865H152.143V257.046L154.138 256.773L154.894 253.119H155.713V256.71H159.346V257.865H155.713V264.018C155.713 265.53 156.469 266.223 157.582 266.223C158.674 266.223 159.43 265.572 159.808 264.459ZM163.575 253.266C163.575 252.636 164.079 252.132 164.709 252.132C165.339 252.132 165.864 252.636 165.864 253.266C165.864 253.896 165.339 254.4 164.709 254.4C164.079 254.4 163.575 253.896 163.575 253.266ZM161.559 266.16L163.932 265.908V258.159C163.071 258.516 162 258.495 161.118 258.264V257.613C162.462 257.676 163.722 257.214 164.646 256.248L165.507 256.437V265.908L167.796 266.16V267H161.559V266.16ZM177.162 266.202L179.367 265.929V260.196C179.367 258.537 178.527 257.55 176.994 257.55C175.503 257.55 174.18 258.516 173.382 259.839V265.929L175.545 266.202V267H169.434V266.16L171.807 265.908V258.159C170.946 258.516 169.875 258.495 168.993 258.264V257.613C170.379 257.676 171.576 257.193 172.479 256.248L173.298 256.416V258.663C174.222 257.235 175.755 256.248 177.498 256.248C179.913 256.248 180.942 257.907 180.942 259.944V265.908L183.084 266.16V267H177.162V266.202ZM189.438 264.102H188.577C187.002 264.102 186.645 264.417 186.645 264.795C186.645 265.614 188.22 265.572 189.816 265.74C191.769 265.95 194.184 266.538 194.184 268.848C194.184 270.675 192.651 272.061 189.27 272.061C185.931 272.061 184.356 270.717 184.356 269.079C184.356 267.903 185.175 266.895 186.414 266.517C185.658 266.181 185.322 265.614 185.322 265.047C185.322 264.312 185.868 263.619 186.876 263.451C185.847 262.821 185.112 261.645 185.112 260.175C185.112 257.991 186.792 256.248 189.333 256.248C190.299 256.248 191.139 256.5 191.811 256.941C191.874 255.849 192.651 254.736 193.659 254.736C194.121 254.736 194.583 254.862 194.583 255.534C194.583 256.773 192.735 255.765 192.735 257.634V257.802C193.239 258.453 193.512 259.293 193.512 260.196C193.512 262.422 191.895 264.102 189.438 264.102ZM189.354 257.361C187.674 257.361 186.498 258.621 186.498 260.196C186.498 261.813 187.737 263.01 189.396 263.01C191.118 263.01 192.126 261.75 192.126 260.217C192.126 258.621 191.013 257.361 189.354 257.361ZM189.837 267.063L187.569 266.874C186.372 267.252 185.784 268.071 185.784 268.89C185.784 270.045 186.96 270.948 189.375 270.948C191.685 270.948 192.672 270.108 192.672 269.016C192.672 267.882 191.58 267.21 189.837 267.063ZM206.373 266.265C208.557 266.265 210.027 264.501 210.027 261.813C210.027 259.146 208.746 257.466 206.604 257.466C205.134 257.466 204 258.327 203.475 259.587V264.669C204.042 265.677 205.113 266.265 206.373 266.265ZM199.695 270.738L201.9 270.486V258.159C201.039 258.516 199.968 258.495 199.086 258.264V257.613C200.472 257.676 201.69 257.193 202.593 256.248L203.391 256.416V258.327C204.105 257.025 205.365 256.248 206.982 256.248C209.796 256.248 211.539 258.516 211.539 261.75C211.539 265.11 209.481 267.441 206.625 267.441C205.323 267.441 204.21 266.979 203.475 266.097V270.486L205.827 270.738V271.578H199.695V270.738ZM218.967 266.265C220.542 266.265 221.571 265.593 222.138 264.354L223.02 264.69C222.495 266.328 221.109 267.441 218.778 267.441C215.628 267.441 213.57 265.152 213.57 261.855C213.57 258.558 215.607 256.248 218.589 256.248C221.634 256.248 223.188 258.642 223.188 261.078C223.188 261.267 223.188 261.603 223.167 261.876H215.082V261.981C215.103 264.606 216.489 266.265 218.967 266.265ZM218.589 257.424C216.741 257.424 215.481 258.726 215.166 260.763H221.739C221.676 258.453 220.122 257.424 218.589 257.424ZM225.279 261.834C225.279 258.537 227.358 256.248 230.529 256.248C233.658 256.248 235.737 258.537 235.737 261.834C235.737 265.131 233.658 267.441 230.487 267.441C227.358 267.441 225.279 265.131 225.279 261.834ZM226.833 261.855C226.833 264.522 228.261 266.265 230.508 266.265C232.776 266.265 234.204 264.543 234.204 261.855C234.204 259.167 232.776 257.424 230.508 257.424C228.261 257.424 226.833 259.146 226.833 261.855ZM243.985 266.265C246.169 266.265 247.639 264.501 247.639 261.813C247.639 259.146 246.358 257.466 244.216 257.466C242.746 257.466 241.612 258.327 241.087 259.587V264.669C241.654 265.677 242.725 266.265 243.985 266.265ZM237.307 270.738L239.512 270.486V258.159C238.651 258.516 237.58 258.495 236.698 258.264V257.613C238.084 257.676 239.302 257.193 240.205 256.248L241.003 256.416V258.327C241.717 257.025 242.977 256.248 244.594 256.248C247.408 256.248 249.151 258.516 249.151 261.75C249.151 265.11 247.093 267.441 244.237 267.441C242.935 267.441 241.822 266.979 241.087 266.097V270.486L243.439 270.738V271.578H237.307V270.738ZM250.871 266.16L253.181 265.908V253.077C252.32 253.413 251.249 253.413 250.367 253.203V252.531C251.774 252.594 253.013 252.111 253.916 251.166L254.756 251.334V265.929L256.982 266.16V267H250.871V266.16ZM264.125 266.265C265.7 266.265 266.729 265.593 267.296 264.354L268.178 264.69C267.653 266.328 266.267 267.441 263.936 267.441C260.786 267.441 258.728 265.152 258.728 261.855C258.728 258.558 260.765 256.248 263.747 256.248C266.792 256.248 268.346 258.642 268.346 261.078C268.346 261.267 268.346 261.603 268.325 261.876H260.24V261.981C260.261 264.606 261.647 266.265 264.125 266.265ZM263.747 257.424C261.899 257.424 260.639 258.726 260.324 260.763H266.897C266.834 258.453 265.28 257.424 263.747 257.424ZM270.606 266.181C270.606 265.572 271.11 265.089 271.719 265.089C272.349 265.089 272.853 265.572 272.853 266.181C272.853 266.79 272.349 267.294 271.719 267.294C271.11 267.294 270.606 266.79 270.606 266.181Z" fill="black"/>
<g clip-path="url(#clip0_148_1126)">
<path d="M71.6561 96.9444C77.4748 96.8233 81.6924 101.686 81.6924 106.669C81.6924 112.397 76.9755 117.017 71.5356 117.017C65.4587 117.017 61 112.536 61 104.679C61 93.3279 66.0784 83.9836 75.1335 79L79.8504 84.3643C75.6327 87.3579 72.4135 92.2204 71.6733 96.9444H71.6561ZM95.9464 96.9444C101.765 96.8233 105.983 101.686 105.983 106.669C105.983 112.397 101.266 117.017 95.8087 117.017C89.7318 117.017 85.2731 112.536 85.2731 104.679C85.2731 93.3452 90.3516 84.0009 99.4067 79.0173L104.124 84.3816C99.9059 87.3752 96.6867 92.2377 95.9464 96.9617V96.9444Z" fill="#EE3819"/>
</g>
<g clip-path="url(#clip1_148_1126)">
<path d="M368.344 293.056C362.525 293.177 358.308 288.314 358.308 283.331C358.308 277.603 363.024 272.983 368.464 272.983C374.541 272.983 379 277.464 379 285.321C379 296.672 373.922 306.016 364.866 311L360.15 305.636C364.367 302.642 367.586 297.78 368.327 293.056L368.344 293.056ZM344.054 293.056C338.235 293.177 334.017 288.314 334.017 283.331C334.017 277.603 338.734 272.983 344.191 272.983C350.268 272.983 354.727 277.464 354.727 285.321C354.727 296.655 349.648 305.999 340.593 310.983L335.876 305.618C340.094 302.625 343.313 297.762 344.054 293.038L344.054 293.056Z" fill="#EE3819"/>
</g>
<defs>
<clipPath id="clip0_148_1126">
<rect width="45" height="38" fill="white" transform="translate(61 79)"/>
</clipPath>
<clipPath id="clip1_148_1126">
<rect width="45" height="38" fill="white" transform="translate(379 311) rotate(-180)"/>
</clipPath>
</defs>
</svg>
