<svg width="264" height="142" viewBox="0 0 264 142" fill="none" xmlns="http://www.w3.org/2000/svg">
<g clip-path="url(#clip0_148_829)">
<path d="M53.9908 117.717C53.9908 105.702 62.0736 96.6882 74.3546 96.6882C86.6357 96.6882 94.7975 105.699 94.7975 117.717C94.7975 129.734 86.7171 138.666 74.3546 138.666C61.9921 138.666 53.9908 129.892 53.9908 117.717ZM86.0034 117.717C86.0034 109.893 81.5657 104.28 74.3546 104.28C67.1436 104.28 62.7872 109.893 62.7872 117.717C62.7872 125.54 67.146 131.077 74.3546 131.077C81.5633 131.077 86.0034 125.622 86.0034 117.717Z" fill="black"/>
<path d="M60.4546 82.9552C59.5254 81.8847 58.0477 80.4891 55.7917 79.3708C54.4266 78.6969 52.7789 78.1258 50.7936 77.7865C50.7936 77.7865 50.281 77.6742 49.4955 77.5619C48.8609 77.4687 48.0442 77.3779 47.1749 77.3468C46.3055 77.3133 45.3787 77.342 44.5237 77.4902C44.5189 77.4902 44.5117 77.4902 44.5069 77.4902C36.7474 78.2118 32.9276 83.1105 32.9276 93.2855V98.2678H27.9965C26.9547 98.2678 26.1117 99.1089 26.1117 100.146V103.267C26.1117 104.304 26.9547 105.145 27.9965 105.145H32.9276V128.231H32.9252C32.9252 128.231 32.9898 130.972 30.8009 132.265C29.6082 132.967 28.9353 133.89 28.9353 135.127C28.9353 136.365 30.0178 137.087 31.3517 137.087H34.6232H39.868H43.1394C44.4734 137.087 45.5559 136.363 45.5559 135.127C45.5559 133.892 44.8829 132.967 43.6903 132.265C41.5013 130.974 41.566 128.231 41.566 128.231V105.145H51.4091C52.4484 105.145 53.2914 104.304 53.2914 103.267V100.146C53.2914 99.1089 52.4484 98.2678 51.4091 98.2678H41.566V92.97C41.566 88.7524 42.5575 86.5085 44.5093 85.5288C44.5141 85.5288 44.5189 85.524 44.5237 85.5216C44.5405 85.5121 44.5764 85.4953 44.6315 85.4715C44.938 85.3352 45.8193 84.9983 47.1318 84.9218C47.1461 84.9218 47.1605 84.9218 47.1773 84.9218C47.2778 84.9147 47.3784 84.9123 47.4838 84.9123C47.5437 84.9099 47.6035 84.9099 47.6658 84.9099C47.7329 84.9099 47.7999 84.9123 47.867 84.9123C49.7973 84.9888 51.9742 86.1597 52.3766 88.695H52.3862C52.5586 91.2686 54.7044 93.3046 57.3293 93.3046C59.9541 93.3046 62.2819 91.0918 62.2819 88.3605C62.2819 87.266 62.0257 84.7593 60.457 82.9552H60.4546Z" fill="black"/>
<path d="M135.202 103.903C134.819 102.842 133.942 100.703 131.921 99.2977C130.472 98.2893 128.276 96.8173 124.106 96.9344C124.015 96.9296 123.924 96.9272 123.824 96.9272C118.198 96.9272 114.079 100.407 110.194 105.781L109.768 100.012C109.696 99.0301 108.877 98.2726 107.89 98.2726H100.459C99.1251 98.2726 98.0426 98.9943 98.0426 100.232C98.0426 101.47 98.7156 102.392 99.9083 103.095C101.927 104.285 102.03 106.708 102.033 107.078V128.286C102.028 128.654 101.927 131.08 99.9083 132.27C98.7156 132.972 98.0426 133.894 98.0426 135.132C98.0426 136.37 99.1251 137.092 100.459 137.092H112.247C113.581 137.092 114.663 136.368 114.663 135.132C114.663 133.897 113.99 132.972 112.798 132.27C110.779 131.08 110.676 128.656 110.673 128.286V112.976C113.617 108.641 116.934 106.531 120.461 106.103C121.996 105.993 124.573 105.728 125.721 107.678L125.73 107.673C126.796 110.108 129.591 111.334 132.132 110.419C134.783 109.466 136.158 106.55 135.204 103.905L135.202 103.903Z" fill="black"/>
<path d="M211.209 75.6311H81.3693C80.3299 75.6311 79.4869 76.4722 79.4869 77.5093V82.1284C79.4869 83.1655 80.3299 84.0067 81.3693 84.0067H142.202V128.284C142.198 128.656 142.095 131.077 140.078 132.265C138.885 132.967 138.212 133.89 138.212 135.128C138.212 136.365 139.295 137.087 140.629 137.087H142.202H151.315H152.888C154.222 137.087 155.305 136.365 155.305 135.128C155.305 133.89 154.632 132.967 153.439 132.265C151.42 131.075 151.317 128.652 151.315 128.281V84.0067H211.207C212.246 84.0067 213.089 83.1655 213.089 82.1284V77.5093C213.089 76.4722 212.246 75.6311 211.207 75.6311H211.209Z" fill="black"/>
<path d="M187.061 21.0596C175.729 21.0596 168.122 29.753 168.122 42.167C168.122 54.581 175.331 63.0378 187.617 63.0378C192.613 63.0378 197.611 61.518 201.582 59.2025C202.24 58.8177 202.614 58.0841 202.516 57.329L201.62 52.6621C201.488 51.9739 200.681 51.6776 200.123 52.1006C196.445 54.9012 192.019 55.9239 188.168 55.9239C181.749 55.9239 177.151 51.496 176.993 44.0643H204.259C204.575 44.0643 204.846 43.8277 204.884 43.5147C204.966 42.8576 204.966 42.4513 204.966 41.6914C204.966 28.9644 198.15 21.0596 187.059 21.0596H187.061ZM177.156 38.1357C177.87 31.7339 181.833 27.858 187.219 27.858C192.605 27.858 196.092 31.6527 196.49 38.2146L177.154 38.1333L177.156 38.1357Z" fill="black"/>
<path d="M163.081 56.636C161.062 55.446 160.959 53.0229 160.957 52.6525V5.23077C160.957 4.19368 160.114 3.35254 159.074 3.35254H154.203C153.164 3.35254 152.321 4.19368 152.321 5.23077V52.6047V52.6525C152.318 53.0157 152.218 55.446 150.197 56.636C149.004 57.3385 148.331 58.2609 148.331 59.4987C148.331 60.7366 149.413 61.4582 150.747 61.4582H162.535C163.869 61.4582 164.952 60.7366 164.952 59.4987C164.952 58.2609 164.279 57.3385 163.086 56.636H163.081Z" fill="black"/>
<path d="M128.499 21.0595C124.221 21.0595 119.942 22.9545 116.218 26.1183V5.23077C116.218 4.19368 115.375 3.35254 114.335 3.35254H109.464C108.425 3.35254 107.582 4.19368 107.582 5.23077V52.6549C107.577 53.0229 107.476 55.4484 105.457 56.6384C104.265 57.3409 103.592 58.2633 103.592 59.5011C103.592 60.739 104.674 61.4606 106.008 61.4606H112.412C113.818 61.4606 115.003 60.4164 115.178 59.0232L115.19 58.93C118.677 61.5395 122.957 63.0401 127.076 63.0401C137.535 63.0401 145.059 54.1078 145.059 41.6938C145.059 29.2798 138.485 21.0619 128.501 21.0619L128.499 21.0595ZM124.935 55.5272C121.922 55.5272 119.309 54.8151 116.22 52.9966V32.5989C119.23 29.9895 122.559 28.5653 125.965 28.5653C132.381 28.5653 136.265 33.5452 136.265 41.689C136.265 49.8328 131.83 55.5272 124.937 55.5272H124.935Z" fill="black"/>
<path d="M93.157 0H18.9365C14.4916 0 0 3.41953 0 17.5588C0 26.9189 7.71639 31.7411 12.7625 32.5178C16.9703 33.1654 24.3921 32.317 26.6625 28.8736C28.9329 25.4302 26.4637 22.0178 23.6162 21.798C20.7686 21.5758 19.94 23.0406 18.6755 24.656C17.4996 26.159 15.1478 25.8293 15.1478 25.8293C15.1478 25.8293 8.42049 24.8901 8.05407 17.848C7.57748 8.66472 15.9429 8.17962 19.3389 8.29672C20.0693 8.323 21.0201 8.33973 22.1002 8.35407V8.37796H24.6627C29.9603 8.41381 36.4002 8.37796 36.4002 8.37796H40.323V52.655C40.3182 53.0326 40.2129 55.4484 38.1987 56.6361C37.0061 57.3386 36.3331 58.261 36.3331 59.4988C36.3331 60.7366 37.4156 61.4583 38.7496 61.4583H51.0115C52.3455 61.4583 53.4279 60.7366 53.4279 59.4988C53.4279 58.261 52.755 57.3386 51.5623 56.6361C49.5434 55.446 49.4404 53.023 49.438 52.6526V8.37796H93.1618C94.2012 8.37796 95.0442 7.53682 95.0442 6.49973V1.87823C95.0442 0.841142 94.2012 0 93.1618 0H93.157Z" fill="black"/>
<path d="M97.1661 56.636C94.9771 55.3457 95.0418 52.6024 95.0418 52.6024V34.4199C95.0418 25.5664 90.446 21.0596 81.1753 21.0596C79.6114 21.0596 77.9063 21.2531 76.1676 21.6044V21.5733L72.8171 22.3571C70.8628 22.847 69.3301 23.5209 68.1135 24.2879C66.9783 25.0072 66.1161 25.8053 65.4432 26.6154C64.8013 27.3849 64.3319 28.1639 63.9559 28.8855C63.2399 30.2667 62.6866 32.1904 63.1057 34.1236C63.7236 36.9672 68.1135 38.0999 70.3 35.6648C71.622 34.1952 71.246 33.9563 72.4746 31.3301C73.0159 30.1759 74.5893 29.1627 76.1556 28.6968C76.1604 28.6944 76.1628 28.692 76.1676 28.692C77.4105 28.4076 78.6223 28.2547 79.7479 28.2547C84.5042 28.2547 86.4082 30.3073 86.4848 35.2897V37.5048C69.6869 39.6388 63.0339 44.1432 63.0339 52.7601C63.0339 59.2431 67.1531 63.0378 73.9642 63.0378C78.8786 63.0378 82.5236 61.3006 87.1985 56.4783L87.6176 59.1141C87.8331 60.4642 88.9995 61.4583 90.3693 61.4583H95.0418H96.6177C97.9516 61.4583 99.0341 60.7366 99.0341 59.4988C99.0341 58.261 98.3612 57.3386 97.1685 56.636H97.1661ZM86.4824 51.5772C82.5212 54.9753 79.4294 56.636 76.1819 56.636C72.9344 56.636 71.349 54.9753 71.349 51.8927C71.349 47.3046 74.2828 44.774 86.4824 42.9555V51.5772Z" fill="black"/>
<path d="M195.525 119.693H168.259C168.417 127.125 173.013 131.553 179.433 131.553C183.282 131.553 187.71 130.527 191.386 127.729C191.944 127.304 192.752 127.603 192.883 128.291L193.779 132.958C193.875 133.713 193.504 134.446 192.845 134.831C188.874 137.147 183.878 138.666 178.88 138.666C166.599 138.666 159.386 130.207 159.386 117.796C159.386 105.384 166.992 96.6882 178.325 96.6882C189.657 96.6882 196.231 104.593 196.231 117.32C196.231 118.08 196.231 118.484 196.15 119.143C196.112 119.456 195.843 119.693 195.525 119.693ZM187.753 113.846C187.356 107.284 183.869 103.489 178.483 103.489C173.097 103.489 169.135 107.365 168.419 113.767L187.756 113.848L187.753 113.846Z" fill="black"/>
<path d="M260.149 115.399C256.7 113.134 253.278 115.597 253.055 118.438C252.835 121.277 254.301 122.107 255.92 123.368C257.426 124.542 257.095 126.888 257.095 126.888C257.095 126.888 256.154 133.562 249.097 133.966C246.932 134.09 245.224 133.448 243.892 132.389C241.248 130.293 240.101 126.57 239.85 124.018V121.036C239.929 117.846 239.893 115.655 239.883 115.277V115.22H239.85V111.394C239.85 101.907 235.333 96.6907 227.406 96.6907C221.546 96.6907 216.792 99.7733 212.749 104.118L212.471 100.022C212.404 99.0373 211.583 98.2702 210.591 98.2702H204.745H203.172C201.838 98.2702 200.755 98.9919 200.755 100.23C200.755 101.467 201.428 102.39 202.621 103.092C204.602 104.261 204.738 106.617 204.745 107.054V128.305C204.738 128.742 204.602 131.099 202.621 132.267C201.428 132.97 200.755 133.892 200.755 135.13C200.755 136.368 201.838 137.089 203.172 137.089H206.443H211.688H214.96C216.293 137.089 217.376 136.365 217.376 135.13C217.376 133.894 216.703 132.97 215.51 132.267C213.321 130.977 213.386 128.233 213.386 128.233V110.285C216.794 106.729 220.674 104.28 224.637 104.28C229.073 104.28 231.211 107.045 231.211 113.37V123.105C231.211 124.429 231.516 126.644 232.323 129.101C232.67 130.169 233.115 131.283 233.671 132.389C236.114 137.269 240.705 142 248.812 142C258.192 142 263.023 134.301 263.801 129.266C264.45 125.067 263.6 117.662 260.151 115.399H260.149Z" fill="black"/>
</g>
<defs>
<clipPath id="clip0_148_829">
<rect width="264" height="142" fill="white"/>
</clipPath>
</defs>
</svg>
