<?xml version="1.0" encoding="UTF-8" standalone="no"?>
<!DOCTYPE svg PUBLIC "-//W3C//DTD SVG 1.1//EN" "http://www.w3.org/Graphics/SVG/1.1/DTD/svg11.dtd">
<svg width="100%" height="100%" viewBox="0 0 315 325" version="1.1" xmlns="http://www.w3.org/2000/svg" xmlns:xlink="http://www.w3.org/1999/xlink" xml:space="preserve" xmlns:serif="http://www.serif.com/" style="fill-rule:evenodd;clip-rule:evenodd;stroke-miterlimit:10;">
    <g opacity="0.5">
        <g transform="matrix(1,0,0,1,4.09128,-12.2706)">
            <path d="M108.598,275.885C125.663,275.885 139.497,262.013 139.497,244.902C139.497,227.79 125.663,213.918 108.598,213.918C91.533,213.918 77.7,227.79 77.7,244.902C77.7,262.013 91.533,275.885 108.598,275.885Z" style="fill:none;fill-rule:nonzero;stroke:rgb(252,230,206);stroke-width:1px;"/>
        </g>
        <g transform="matrix(1,0,0,1,4.09128,-12.2706)">
            <path d="M83.915,262.745C82.564,263.177 81.128,263.412 79.633,263.412C71.878,263.412 65.591,257.108 65.591,249.331C65.591,241.555 71.878,235.25 79.633,235.25" style="fill:none;fill-rule:nonzero;stroke:rgb(252,230,206);stroke-width:1px;"/>
        </g>
        <g transform="matrix(1,0,0,1,4.09128,-12.2706)">
            <path d="M134.84,229.199C135.938,228.922 137.09,228.775 138.273,228.775C146.029,228.775 152.316,235.08 152.316,242.856C152.316,250.633 146.029,256.937 138.273,256.937C137.877,256.937 137.486,256.921 137.101,256.889" style="fill:none;fill-rule:nonzero;stroke:rgb(252,230,206);stroke-width:1px;"/>
        </g>
        <g transform="matrix(1,0,0,1,4.09128,-12.2706)">
            <path d="M93.678,234.941C93.678,234.941 95.646,239.325 100.811,238.6C105.67,237.917 106.077,232.775 106.077,232.775" style="fill:none;fill-rule:nonzero;stroke:rgb(252,230,206);stroke-width:1px;"/>
        </g>
        <g transform="matrix(1,0,0,1,4.09128,-12.2706)">
            <path d="M111.034,232.829C111.034,232.829 113.002,237.213 118.167,236.488C123.026,235.805 123.433,230.663 123.433,230.663" style="fill:none;fill-rule:nonzero;stroke:rgb(252,230,206);stroke-width:1px;"/>
        </g>
        <g transform="matrix(1,0,0,1,4.09128,-12.2706)">
            <path d="M91.774,246.088C91.774,246.088 97.263,255.398 111.447,253.406C122.47,251.857 125.696,243.008 125.696,243.008" style="fill:none;fill-rule:nonzero;stroke:rgb(252,230,206);stroke-width:1px;"/>
        </g>
        <g transform="matrix(1,0,0,1,4.09128,-12.2706)">
            <path d="M93.207,243.542C92.425,245.558 91.178,247.392 89.593,248.862" style="fill:none;fill-rule:nonzero;stroke:rgb(252,230,206);stroke-width:1px;"/>
        </g>
        <g transform="matrix(1,0,0,1,4.09128,-12.2706)">
            <path d="M124.101,240.349C124.811,242.635 126.638,244.542 128.888,245.344" style="fill:none;fill-rule:nonzero;stroke:rgb(252,230,206);stroke-width:1px;"/>
        </g>
        <g transform="matrix(1,0,0,1,4.09128,-12.2706)">
            <path d="M81.154,230.663C81.154,230.663 93.463,227.759 104.931,214.134C104.931,214.134 110.885,222.553 131.537,224.378" style="fill:none;fill-rule:nonzero;stroke:rgb(252,230,206);stroke-width:1px;"/>
        </g>
        <g transform="matrix(1,0,0,1,4.09128,-12.2706)">
            <path d="M40.009,210.344C57.073,210.344 70.907,196.472 70.907,179.361C70.907,162.249 57.073,148.377 40.009,148.377C22.944,148.377 9.11,162.249 9.11,179.361C9.11,196.472 22.944,210.344 40.009,210.344Z" style="fill:none;fill-rule:nonzero;stroke:rgb(252,230,206);stroke-width:1px;"/>
        </g>
        <g transform="matrix(1,0,0,1,4.09128,-12.2706)">
            <path d="M31.987,170.264C28.644,173.867 24.666,176.875 20.288,179.105" style="fill:none;fill-rule:nonzero;stroke:rgb(252,230,206);stroke-width:1px;"/>
        </g>
        <g transform="matrix(1,0,0,1,4.09128,-12.2706)">
            <path d="M28.923,162.504C29.195,163.888 30.259,164.978 31.392,165.818C33.213,167.168 35.37,168.096 37.623,168.32C39.875,168.544 42.224,168.037 44.094,166.757" style="fill:none;fill-rule:nonzero;stroke:rgb(252,230,206);stroke-width:1px;"/>
        </g>
        <g transform="matrix(1,0,0,1,4.09128,-12.2706)">
            <path d="M52.971,168.624C54.25,170.605 56.442,171.968 58.78,172.237C61.117,172.507 63.559,171.68 65.256,170.045" style="fill:none;fill-rule:nonzero;stroke:rgb(252,230,206);stroke-width:1px;"/>
        </g>
        <g transform="matrix(1,0,0,1,4.09128,-12.2706)">
            <path d="M27.487,174.352C30.11,177.483 35.971,182.515 45.429,184.574C52.721,186.161 59.144,183.401 62.942,180.302" style="fill:none;fill-rule:nonzero;stroke:rgb(252,230,206);stroke-width:1px;"/>
        </g>
        <g transform="matrix(1,0,0,1,4.09128,-12.2706)">
            <path d="M25.086,176.235C27.317,182.395 31.634,191.583 42.088,193.86C49.312,195.434 57.391,190.601 62.944,183.582" style="fill:none;fill-rule:nonzero;stroke:rgb(252,230,206);stroke-width:1px;"/>
        </g>
        <g transform="matrix(1,0,0,1,4.09128,-12.2706)">
            <path d="M63.221,176.784C62.782,180.35 62.663,185.766 63.141,189.308" style="fill:none;fill-rule:nonzero;stroke:rgb(252,230,206);stroke-width:1px;"/>
        </g>
        <g transform="matrix(1,0,0,1,4.09128,-12.2706)">
            <path d="M229.487,201.217C234.993,206.316 242.362,209.434 250.447,209.434C267.514,209.434 281.343,195.563 281.343,178.448C281.343,161.332 267.511,147.467 250.447,147.467C233.384,147.467 219.546,161.337 219.546,178.448C219.546,180.765 219.801,183.027 220.28,185.203L220.285,185.203" style="fill:none;fill-rule:nonzero;stroke:rgb(252,230,206);stroke-width:1px;"/>
        </g>
        <g transform="matrix(1,0,0,1,4.09128,-12.2706)">
            <path d="M239.828,170.858C241.786,170.858 243.373,169.266 243.373,167.303C243.373,165.34 241.786,163.748 239.828,163.748C237.87,163.748 236.282,165.34 236.282,167.303C236.282,169.266 237.87,170.858 239.828,170.858Z" style="fill:rgb(252,230,206);fill-opacity:0.62;fill-rule:nonzero;"/>
        </g>
        <g transform="matrix(1,0,0,1,4.09128,-12.2706)">
            <path d="M220.28,185.2C223.453,185.691 236.378,186.971 248.53,177.834" style="fill:none;fill-rule:nonzero;stroke:rgb(252,230,206);stroke-width:1px;"/>
        </g>
        <g transform="matrix(1,0,0,1,4.09128,-12.2706)">
            <path d="M229.482,201.22C240.647,196.142 247.503,184.573 250.03,179.6" style="fill:none;fill-rule:nonzero;stroke:rgb(252,230,206);stroke-width:1px;"/>
        </g>
        <g transform="matrix(1,0,0,1,4.09128,-12.2706)">
            <path d="M246.868,175.221C246.868,175.221 249.264,180.144 254.022,182.701" style="fill:none;fill-rule:nonzero;stroke:rgb(252,230,206);stroke-width:1px;"/>
        </g>
        <g transform="matrix(1,0,0,1,4.09128,-12.2706)">
            <path d="M274.13,295.911C291.195,295.911 305.029,282.039 305.029,264.928C305.029,247.816 291.195,233.945 274.13,233.945C257.065,233.945 243.231,247.816 243.231,264.928C243.231,282.039 257.065,295.911 274.13,295.911Z" style="fill:none;fill-rule:nonzero;stroke:rgb(252,230,206);stroke-width:1px;"/>
        </g>
        <g transform="matrix(1,0,0,1,4.09128,-12.2706)">
            <path d="M269.593,259.226C268.311,263.392 268.407,267.973 269.859,272.083C271.314,276.193 274.117,279.809 277.731,282.236" style="fill:none;fill-rule:nonzero;stroke:rgb(252,230,206);stroke-width:1px;"/>
        </g>
        <g transform="matrix(1,0,0,1,4.09128,-12.2706)">
            <path d="M269.976,272.39C266.611,275.723 262.13,277.929 257.425,278.489C253.332,278.979 249.106,278.209 245.407,276.382" style="fill:none;fill-rule:nonzero;stroke:rgb(252,230,206);stroke-width:1px;"/>
        </g>
        <g transform="matrix(1,0,0,1,4.09128,-12.2706)">
            <path d="M264.534,249.551C258.202,252.167 253.838,258.965 254.085,265.829" style="fill:none;fill-rule:nonzero;stroke:rgb(252,230,206);stroke-width:1px;"/>
        </g>
        <g transform="matrix(1,0,0,1,4.09128,-12.2706)">
            <path d="M31.729,153.476C48.736,153.476 62.524,139.651 62.524,122.597C62.524,105.543 48.736,91.718 31.729,91.718C14.721,91.718 0.934,105.543 0.934,122.597C0.934,139.651 14.721,153.476 31.729,153.476Z" style="fill:none;fill-rule:nonzero;stroke:rgb(252,230,206);stroke-width:1px;"/>
        </g>
        <g transform="matrix(1,0,0,1,4.09128,-12.2706)">
            <path d="M46.768,123.229C48.719,123.229 50.3,121.643 50.3,119.687C50.3,117.731 48.719,116.146 46.768,116.146C44.818,116.146 43.236,117.731 43.236,119.687C43.236,121.643 44.818,123.229 46.768,123.229Z" style="fill:rgb(252,230,206);fill-opacity:0.62;fill-rule:nonzero;"/>
        </g>
        <g transform="matrix(1,0,0,1,4.09128,-12.2706)">
            <path d="M47.339,148.684C50.719,146.397 50.57,140.251 47.007,134.958C43.443,129.665 37.815,127.228 34.435,129.516C31.056,131.803 31.205,137.948 34.768,143.242C38.331,148.535 43.96,150.972 47.339,148.684Z" style="fill:none;fill-rule:nonzero;stroke:rgb(252,230,206);stroke-width:1px;"/>
        </g>
        <g transform="matrix(1,0,0,1,4.09128,-12.2706)">
            <path d="M83.248,58.693C84.897,52.111 83.759,44.876 80.171,39.121M83.721,48.959C106.208,59.221 125.37,50.249 125.37,50.249M109.511,21.632C124.189,30.355 129.035,49.359 120.333,64.077C111.633,78.795 92.682,83.654 78.003,74.928C63.325,66.205 58.48,47.201 67.182,32.483C75.881,17.765 94.833,12.906 109.511,21.632Z" style="fill:none;fill-rule:nonzero;stroke:rgb(252,230,206);stroke-width:1px;"/>
        </g>
        <g transform="matrix(1,0,0,1,4.09128,-12.2706)">
            <path d="M94.432,41.633C96.332,41.633 97.873,40.088 97.873,38.182C97.873,36.276 96.332,34.731 94.432,34.731C92.531,34.731 90.99,36.276 90.99,38.182C90.99,40.088 92.531,41.633 94.432,41.633Z" style="fill:rgb(252,230,206);fill-opacity:0.62;fill-rule:nonzero;"/>
        </g>
        <g transform="matrix(1,0,0,1,4.09128,-12.2706)">
            <path d="M216.549,122.069C233.614,122.069 247.447,108.197 247.447,91.086C247.447,73.974 233.614,60.102 216.549,60.102C199.484,60.102 185.65,73.974 185.65,91.086C185.65,108.197 199.484,122.069 216.549,122.069Z" style="fill:none;fill-rule:nonzero;stroke:rgb(252,230,206);stroke-width:1px;"/>
        </g>
        <g transform="matrix(1,0,0,1,4.09128,-12.2706)">
            <path d="M191.865,108.932C190.514,109.364 189.078,109.599 187.583,109.599C179.828,109.599 173.541,103.294 173.541,95.518C173.541,87.741 179.828,81.437 187.583,81.437" style="fill:none;fill-rule:nonzero;stroke:rgb(252,230,206);stroke-width:1px;"/>
        </g>
        <g transform="matrix(1,0,0,1,4.09128,-12.2706)">
            <path d="M242.788,75.386C243.886,75.109 245.038,74.962 246.221,74.962C253.976,74.962 260.264,81.266 260.264,89.043C260.264,96.819 253.976,103.124 246.221,103.124C245.825,103.124 245.434,103.108 245.048,103.076" style="fill:none;fill-rule:nonzero;stroke:rgb(252,230,206);stroke-width:1px;"/>
        </g>
        <g transform="matrix(1,0,0,1,4.09128,-12.2706)">
            <path d="M196.966,79.186C196.966,79.186 199.224,86.592 205.16,85.368C210.74,84.216 211.208,75.527 211.208,75.527" style="fill:none;fill-rule:nonzero;stroke:rgb(252,230,206);stroke-width:1px;"/>
        </g>
        <g transform="matrix(1,0,0,1,4.09128,-12.2706)">
            <path d="M216.902,75.621C216.902,75.621 219.16,83.026 225.096,81.802C230.676,80.65 231.144,71.962 231.144,71.962" style="fill:none;fill-rule:nonzero;stroke:rgb(252,230,206);stroke-width:1px;"/>
        </g>
        <g transform="matrix(1,0,0,1,4.09128,-12.2706)">
            <path d="M206.283,89.595C206.767,94.155 205.081,99.622 201.448,102.75" style="fill:none;fill-rule:nonzero;stroke:rgb(252,230,206);stroke-width:1px;"/>
        </g>
        <g transform="matrix(1,0,0,1,4.09128,-12.2706)">
            <path d="M227.764,87.432C227.764,95.051 231.921,99.038 233.485,100.259" style="fill:none;fill-rule:nonzero;stroke:rgb(252,230,206);stroke-width:1px;"/>
        </g>
        <g transform="matrix(1,0,0,1,4.09128,-12.2706)">
            <path d="M217.743,116.146C223.295,116.146 227.796,110.034 227.796,102.494C227.796,94.955 223.295,88.843 217.743,88.843C212.191,88.843 207.69,94.955 207.69,102.494C207.69,110.034 212.191,116.146 217.743,116.146Z" style="fill:none;fill-rule:nonzero;stroke:rgb(252,230,206);stroke-width:1px;"/>
        </g>
        <g transform="matrix(1,0,0,1,4.09128,-12.2706)">
            <path d="M192.142,303.194C209.207,303.194 223.041,289.322 223.041,272.21C223.041,255.099 209.207,241.227 192.142,241.227C175.077,241.227 161.243,255.099 161.243,272.21C161.243,289.322 175.077,303.194 192.142,303.194Z" style="fill:none;fill-rule:nonzero;stroke:rgb(252,230,206);stroke-width:1px;"/>
        </g>
        <g transform="matrix(1,0,0,1,4.09128,-12.2706)">
            <path d="M169.631,268.013C171.589,268.013 173.177,266.421 173.177,264.458C173.177,262.494 171.589,260.903 169.631,260.903C167.674,260.903 166.086,262.494 166.086,264.458C166.086,266.421 167.674,268.013 169.631,268.013Z" style="fill:rgb(252,230,206);fill-opacity:0.62;fill-rule:nonzero;"/>
        </g>
        <g transform="matrix(1,0,0,1,4.09128,-12.2706)">
            <path d="M189.014,263.388C190.972,263.388 192.56,261.797 192.56,259.833C192.56,257.87 190.972,256.279 189.014,256.279C187.056,256.279 185.469,257.87 185.469,259.833C185.469,261.797 187.056,263.388 189.014,263.388Z" style="fill:rgb(252,230,206);fill-opacity:0.62;fill-rule:nonzero;"/>
        </g>
        <g transform="matrix(1,0,0,1,4.09128,-12.2706)">
            <path d="M181.82,260.476L198.932,248.393" style="fill:none;fill-rule:nonzero;stroke:rgb(252,230,206);stroke-width:1px;"/>
        </g>
        <g transform="matrix(1,0,0,1,4.09128,-12.2706)">
            <path d="M164.528,258.199C164.528,258.199 170.334,254.702 175.161,259.836" style="fill:none;fill-rule:nonzero;stroke:rgb(252,230,206);stroke-width:1px;"/>
        </g>
        <g transform="matrix(1,0,0,1,4.09128,-12.2706)">
            <path d="M203.035,281.32C203.035,281.32 186.993,270.423 168.19,276.995" style="fill:none;fill-rule:nonzero;stroke:rgb(252,230,206);stroke-width:1px;"/>
        </g>
        <g transform="matrix(1,0,0,1,4.09128,-12.2706)">
            <path d="M131.921,78.62C133.879,78.62 135.466,77.028 135.466,75.065C135.466,73.102 133.879,71.51 131.921,71.51C129.963,71.51 128.376,73.102 128.376,75.065C128.376,77.028 129.963,78.62 131.921,78.62Z" style="fill:rgb(252,230,206);fill-opacity:0.62;fill-rule:nonzero;"/>
        </g>
        <g transform="matrix(1,0,0,1,4.09128,-12.2706)">
            <path d="M128.567,68.651L146.261,79.857" style="fill:none;fill-rule:nonzero;stroke:rgb(252,230,206);stroke-width:1px;"/>
        </g>
        <g transform="matrix(1,0,0,1,4.09128,-12.2706)">
            <path d="M119.216,78.62C121.174,78.62 122.762,77.028 122.762,75.065C122.762,73.102 121.174,71.51 119.216,71.51C117.259,71.51 115.671,73.102 115.671,75.065C115.671,77.028 117.259,78.62 119.216,78.62Z" style="fill:rgb(252,230,206);fill-opacity:0.62;fill-rule:nonzero;"/>
        </g>
        <g transform="matrix(1,0,0,1,4.09128,-12.2706)">
            <path d="M122.57,68.651L109.001,76.494" style="fill:none;fill-rule:nonzero;stroke:rgb(252,230,206);stroke-width:1px;"/>
        </g>
        <g transform="matrix(1,0,0,1,4.09128,-12.2706)">
            <path d="M135.775,122.956C152.84,122.956 166.673,109.084 166.673,91.973C166.673,74.861 152.84,60.99 135.775,60.99C118.71,60.99 104.876,74.861 104.876,91.973C104.876,109.084 118.71,122.956 135.775,122.956Z" style="fill:none;fill-rule:nonzero;stroke:rgb(252,230,206);stroke-width:1px;"/>
        </g>
        <g transform="matrix(1,0,0,1,4.09128,-12.2706)">
            <path d="M133.094,84.266C133.094,84.266 133.4,91.146 140.719,99.253" style="fill:none;fill-rule:nonzero;stroke:rgb(252,230,206);stroke-width:1px;"/>
        </g>
        <g transform="matrix(1,0,0,1,4.09128,-12.2706)">
            <path d="M111.445,91.76C111.445,91.76 114.589,98.693 123.435,98.693C130.137,98.693 134.493,94.386 136.2,92.304" style="fill:none;fill-rule:nonzero;stroke:rgb(252,230,206);stroke-width:1px;"/>
        </g>
        <g transform="matrix(1,0,0,1,4.09128,-12.2706)">
            <path d="M107.331,102.838C100.882,102.838 95.653,97.595 95.653,91.127C95.653,84.66 100.882,79.417 107.331,79.417" style="fill:none;fill-rule:nonzero;stroke:rgb(252,230,206);stroke-width:1px;"/>
        </g>
        <g transform="matrix(1,0,0,1,4.09128,-12.2706)">
            <path d="M164.083,80.263C170.532,80.263 175.761,85.506 175.761,91.973C175.761,98.44 170.532,103.683 164.083,103.683" style="fill:none;fill-rule:nonzero;stroke:rgb(252,230,206);stroke-width:1px;"/>
        </g>
        <g transform="matrix(1,0,0,1,4.09128,-12.2706)">
            <path d="M59.03,332.104C76.035,332.104 89.82,318.281 89.82,301.23C89.82,284.179 76.035,270.356 59.03,270.356C42.025,270.356 28.24,284.179 28.24,301.23C28.24,318.281 42.025,332.104 59.03,332.104Z" style="fill:none;fill-rule:nonzero;stroke:rgb(252,230,206);stroke-width:1px;"/>
        </g>
        <g transform="matrix(1,0,0,1,4.09128,-12.2706)">
            <path d="M77.995,276.69C64.822,289.712 73.798,310.86 73.798,310.86" style="fill:none;fill-rule:nonzero;stroke:rgb(252,230,206);stroke-width:1px;"/>
        </g>
        <g transform="matrix(1,0,0,1,4.09128,-12.2706)">
            <path d="M62.094,284.632C64.052,284.632 65.639,283.04 65.639,281.077C65.639,279.114 64.052,277.522 62.094,277.522C60.136,277.522 58.548,279.114 58.548,281.077C58.548,283.04 60.136,284.632 62.094,284.632Z" style="fill:rgb(252,230,206);fill-opacity:0.62;fill-rule:nonzero;"/>
        </g>
        <g transform="matrix(1,0,0,1,4.09128,-12.2706)">
            <path d="M61.051,273.538L52.421,282.712" style="fill:none;fill-rule:nonzero;stroke:rgb(252,230,206);stroke-width:1px;"/>
        </g>
    </g>
    <g transform="matrix(1,0,0,1,35.5718,91.3384)">
        <path d="M49.696,107.769C49.696,96.769 57.136,88.518 68.44,88.518C79.744,88.518 87.257,96.767 87.257,107.769C87.257,118.771 79.819,126.948 68.44,126.948C57.061,126.948 49.696,118.915 49.696,107.769ZM79.162,107.769C79.162,100.607 75.078,95.468 68.44,95.468C61.803,95.468 57.793,100.607 57.793,107.769C57.793,114.931 61.805,120 68.44,120C75.075,120 79.162,115.006 79.162,107.769Z" style="fill:rgb(252,230,206);fill-rule:nonzero;"/>
        <path d="M55.646,75.945C54.79,74.965 53.43,73.687 51.354,72.663C50.097,72.047 48.581,71.524 46.753,71.213C46.753,71.213 46.281,71.11 45.558,71.007C44.974,70.922 44.222,70.839 43.422,70.81C42.622,70.78 41.769,70.806 40.982,70.942L40.967,70.942C33.824,71.602 30.308,76.087 30.308,85.402L30.308,89.964L25.77,89.964C24.811,89.964 24.035,90.734 24.035,91.683L24.035,94.54C24.035,95.49 24.811,96.26 25.77,96.26L30.308,96.26L30.308,117.395L30.306,117.395C30.306,117.395 30.366,119.904 28.351,121.087C27.253,121.731 26.634,122.575 26.634,123.708C26.634,124.841 27.63,125.502 28.858,125.502L39.708,125.502C40.936,125.502 41.932,124.839 41.932,123.708C41.932,122.577 41.313,121.731 40.215,121.087C38.2,119.906 38.26,117.395 38.26,117.395L38.26,96.26L47.32,96.26C48.276,96.26 49.052,95.49 49.052,94.54L49.052,91.683C49.052,90.734 48.276,89.964 47.32,89.964L38.26,89.964L38.26,85.113C38.26,81.252 39.172,79.198 40.969,78.301C40.973,78.301 40.978,78.297 40.982,78.295C40.998,78.286 41.031,78.27 41.081,78.249C41.363,78.124 42.175,77.815 43.383,77.745L43.425,77.745C43.517,77.739 43.61,77.737 43.707,77.737C43.762,77.734 43.817,77.734 43.874,77.734C43.936,77.734 43.998,77.737 44.059,77.737C45.836,77.807 47.84,78.879 48.21,81.2L48.219,81.2C48.378,83.556 50.353,85.42 52.769,85.42C55.185,85.42 57.328,83.394 57.328,80.893C57.328,79.891 57.092,77.597 55.648,75.945L55.646,75.945Z" style="fill:rgb(252,230,206);fill-rule:nonzero;"/>
        <path d="M124.447,95.122C124.095,94.151 123.288,92.193 121.427,90.906C120.094,89.983 118.072,88.636 114.234,88.743C114.151,88.738 114.067,88.736 113.974,88.736C108.796,88.736 105.004,91.922 101.429,96.842L101.037,91.561C100.97,90.661 100.216,89.968 99.308,89.968L92.468,89.968C91.24,89.968 90.244,90.629 90.244,91.762C90.244,92.895 90.863,93.739 91.961,94.383C93.819,95.472 93.914,97.69 93.916,98.029L93.916,117.445C93.912,117.782 93.819,120.002 91.961,121.092C90.863,121.735 90.244,122.579 90.244,123.713C90.244,124.846 91.24,125.507 92.468,125.507L103.318,125.507C104.546,125.507 105.542,124.844 105.542,123.713C105.542,122.582 104.923,121.735 103.825,121.092C101.967,120.002 101.872,117.784 101.87,117.445L101.87,103.429C104.579,99.46 107.632,97.528 110.879,97.137C112.292,97.036 114.664,96.793 115.72,98.579L115.729,98.574C116.71,100.803 119.282,101.926 121.621,101.088C124.061,100.215 125.327,97.546 124.449,95.124L124.447,95.122Z" style="fill:rgb(252,230,206);fill-rule:nonzero;"/>
        <path d="M194.408,69.24L74.897,69.24C73.94,69.24 73.164,70.01 73.164,70.959L73.164,75.188C73.164,76.138 73.94,76.908 74.897,76.908L130.891,76.908L130.891,117.443C130.886,117.784 130.792,120 128.935,121.087C127.838,121.731 127.218,122.575 127.218,123.708C127.218,124.842 128.215,125.502 129.442,125.502L140.727,125.502C141.955,125.502 142.951,124.842 142.951,123.708C142.951,122.575 142.332,121.731 141.234,121.087C139.376,119.998 139.281,117.78 139.279,117.441L139.279,76.908L194.406,76.908C195.363,76.908 196.139,76.138 196.139,75.188L196.139,70.959C196.139,70.01 195.363,69.24 194.406,69.24L194.408,69.24Z" style="fill:rgb(252,230,206);fill-rule:nonzero;"/>
        <path d="M172.181,19.28C161.75,19.28 154.749,27.239 154.749,38.604C154.749,49.969 161.384,57.711 172.693,57.711C177.291,57.711 181.892,56.319 185.547,54.2C186.153,53.847 186.497,53.176 186.406,52.484L185.582,48.212C185.461,47.582 184.718,47.311 184.204,47.698C180.818,50.262 176.745,51.198 173.2,51.198C167.292,51.198 163.06,47.144 162.914,40.341L188.011,40.341C188.302,40.341 188.551,40.124 188.587,39.837C188.662,39.236 188.662,38.864 188.662,38.168C188.662,26.517 182.388,19.28 172.179,19.28L172.181,19.28ZM163.064,34.913C163.721,29.052 167.369,25.504 172.327,25.504C177.285,25.504 180.494,28.978 180.86,34.985L163.062,34.911L163.064,34.913Z" style="fill:rgb(252,230,206);fill-rule:nonzero;"/>
        <path d="M150.109,51.85C148.25,50.761 148.156,48.542 148.153,48.203L148.153,4.789C148.153,3.839 147.378,3.069 146.421,3.069L141.937,3.069C140.98,3.069 140.204,3.839 140.204,4.789L140.204,48.203C140.202,48.536 140.11,50.761 138.249,51.85C137.151,52.493 136.532,53.338 136.532,54.471C136.532,55.604 137.528,56.265 138.756,56.265L149.606,56.265C150.834,56.265 151.83,55.604 151.83,54.471C151.83,53.338 151.211,52.493 150.113,51.85L150.109,51.85Z" style="fill:rgb(252,230,206);fill-rule:nonzero;"/>
        <path d="M118.277,19.28C114.34,19.28 110.401,21.015 106.973,23.911L106.973,4.789C106.973,3.839 106.197,3.069 105.24,3.069L100.757,3.069C99.8,3.069 99.024,3.839 99.024,4.789L99.024,48.205C99.019,48.542 98.927,50.763 97.069,51.852C95.971,52.495 95.351,53.34 95.351,54.473C95.351,55.606 96.348,56.267 97.576,56.267L103.47,56.267C104.764,56.267 105.855,55.311 106.016,54.035L106.027,53.95C109.237,56.339 113.176,57.713 116.968,57.713C126.594,57.713 133.521,49.535 133.521,38.17C133.521,26.805 127.47,19.282 118.279,19.282L118.277,19.28ZM114.997,50.835C112.224,50.835 109.819,50.183 106.975,48.518L106.975,29.844C109.746,27.455 112.81,26.151 115.945,26.151C121.85,26.151 125.426,30.711 125.426,38.166C125.426,45.622 121.343,50.835 114.999,50.835L114.997,50.835Z" style="fill:rgb(252,230,206);fill-rule:nonzero;"/>
        <path d="M85.751,0L17.43,0C13.339,0 0,3.131 0,16.075C0,24.644 7.103,29.059 11.747,29.77C15.62,30.363 22.452,29.586 24.542,26.434C26.631,23.281 24.359,20.157 21.738,19.956C19.117,19.753 18.354,21.094 17.19,22.572C16.108,23.948 13.943,23.647 13.943,23.647C13.943,23.647 7.751,22.787 7.413,16.34C6.975,7.932 14.675,7.488 17.801,7.596C18.473,7.62 19.348,7.635 20.342,7.648L20.342,7.67L22.701,7.67C27.577,7.703 33.505,7.67 33.505,7.67L37.116,7.67L37.116,48.205C37.111,48.551 37.014,50.763 35.16,51.85C34.062,52.493 33.443,53.338 33.443,54.471C33.443,55.604 34.439,56.265 35.667,56.265L46.954,56.265C48.182,56.265 49.178,55.604 49.178,54.471C49.178,53.338 48.559,52.493 47.461,51.85C45.603,50.761 45.508,48.542 45.506,48.203L45.506,7.67L85.751,7.67C86.708,7.67 87.484,6.9 87.484,5.95L87.484,1.72C87.484,0.77 86.708,0 85.751,0Z" style="fill:rgb(252,230,206);fill-rule:nonzero;"/>
        <path d="M89.437,51.85C87.422,50.669 87.482,48.157 87.482,48.157L87.482,31.511C87.482,23.406 83.251,19.28 74.718,19.28C73.279,19.28 71.709,19.457 70.109,19.779L70.109,19.75L67.025,20.468C65.226,20.916 63.815,21.533 62.695,22.235C61.651,22.894 60.857,23.625 60.237,24.366C59.647,25.071 59.215,25.784 58.868,26.445C58.209,27.709 57.7,29.47 58.086,31.24C58.655,33.843 62.695,34.88 64.708,32.651C65.925,31.305 65.579,31.087 66.71,28.683C67.208,27.626 68.656,26.698 70.098,26.272C70.102,26.27 70.104,26.267 70.109,26.267C71.253,26.007 72.368,25.867 73.404,25.867C77.782,25.867 79.535,27.746 79.605,32.307L79.605,34.335C64.144,36.289 58.02,40.413 58.02,48.301C58.02,54.237 61.811,57.711 68.081,57.711C72.604,57.711 75.959,56.12 80.262,51.706L80.648,54.118C80.846,55.355 81.92,56.265 83.181,56.265L88.932,56.265C90.16,56.265 91.156,55.604 91.156,54.471C91.156,53.338 90.537,52.493 89.439,51.85L89.437,51.85ZM79.603,47.219C75.957,50.33 73.111,51.85 70.122,51.85C67.133,51.85 65.674,50.33 65.674,47.507C65.674,43.307 68.374,40.99 79.603,39.326L79.603,47.219Z" style="fill:rgb(252,230,206);fill-rule:nonzero;"/>
        <path d="M179.972,109.578L154.875,109.578C155.02,116.382 159.25,120.436 165.16,120.436C168.703,120.436 172.779,119.497 176.163,116.935C176.676,116.546 177.419,116.819 177.54,117.449L178.365,121.722C178.453,122.413 178.111,123.085 177.505,123.437C173.85,125.557 169.252,126.948 164.651,126.948C153.347,126.948 146.707,119.204 146.707,107.841C146.707,96.478 153.709,88.518 164.14,88.518C174.571,88.518 180.622,95.754 180.622,107.406C180.622,108.101 180.622,108.471 180.547,109.075C180.512,109.362 180.265,109.578 179.972,109.578ZM172.818,104.225C172.453,98.218 169.243,94.744 164.285,94.744C159.328,94.744 155.681,98.292 155.022,104.153L172.821,104.227L172.818,104.225Z" style="fill:rgb(252,230,206);fill-rule:nonzero;"/>
        <path d="M239.455,105.647C236.281,103.573 233.131,105.828 232.926,108.43C232.723,111.029 234.072,111.788 235.562,112.943C236.949,114.017 236.645,116.165 236.645,116.165C236.645,116.165 235.778,122.275 229.282,122.645C227.289,122.759 225.717,122.17 224.492,121.201C222.058,119.283 221.002,115.874 220.771,113.538L220.771,110.808C220.844,107.887 220.81,105.881 220.802,105.535L220.802,105.483L220.771,105.483L220.771,101.98C220.771,93.295 216.613,88.52 209.317,88.52C203.923,88.52 199.547,91.342 195.826,95.319L195.57,91.569C195.508,90.668 194.752,89.966 193.84,89.966L187.01,89.966C185.783,89.966 184.786,90.626 184.786,91.76C184.786,92.893 185.406,93.737 186.503,94.38C188.326,95.45 188.452,97.607 188.459,98.008L188.459,117.463C188.452,117.863 188.326,120.02 186.503,121.09C185.406,121.733 184.786,122.577 184.786,123.71C184.786,124.844 185.783,125.504 187.01,125.504L197.86,125.504C199.088,125.504 200.085,124.842 200.085,123.71C200.085,122.579 199.465,121.733 198.367,121.09C196.353,119.908 196.412,117.397 196.412,117.397L196.412,100.965C199.549,97.71 203.12,95.468 206.768,95.468C210.851,95.468 212.82,97.999 212.82,103.79L212.82,112.702C212.82,113.914 213.099,115.942 213.842,118.191C214.162,119.169 214.572,120.188 215.083,121.201C217.332,125.668 221.558,130 229.02,130C237.654,130 242.101,122.951 242.817,118.342C243.414,114.498 242.632,107.719 239.457,105.647L239.455,105.647Z" style="fill:rgb(252,230,206);fill-rule:nonzero;"/>
    </g>
</svg>
